<svg width="48" height="48" viewBox="0 0 48 48" fill="none" xmlns="http://www.w3.org/2000/svg">
<path fill-rule="evenodd" clip-rule="evenodd" d="M24 3C12.402 3 3 12.402 3 24C3 35.598 12.402 45 24 45C35.598 45 45 35.598 45 24C45 18.4305 42.7875 13.089 38.8492 9.15076C34.911 5.21249 29.5695 3 24 3ZM15 39.56V35C15 32.55 17.12 30.52 19.91 30.09C20.2705 30.0323 20.6349 30.0022 21 30H27C27.3651 30.0022 27.7295 30.0323 28.09 30.09C30.88 30.52 33 32.55 33 35V39.56C27.4392 42.8067 20.5608 42.8067 15 39.56ZM36 34.5C35.9984 34.3645 35.9782 34.23 35.94 34.1C35.44 30.1 31.63 27 27 27H21C16.37 27 12.56 30.11 12.06 34.1C12.0218 34.23 12.0016 34.3645 12 34.5V37.38C6.43734 32.4046 4.5219 24.5126 7.1849 17.5408C9.84789 10.569 16.5369 5.96359 24 5.96359C31.4631 5.96359 38.1521 10.569 40.8151 17.5408C43.4781 24.5126 41.5627 32.4046 36 37.38V34.5ZM24 9C19.5817 9 16 12.5817 16 17C16 21.4183 19.5817 25 24 25C28.4183 25 32 21.4183 32 17C32 14.8783 31.1571 12.8434 29.6569 11.3431C28.1566 9.84285 26.1217 9 24 9ZM24 22C21.2386 22 19 19.7614 19 17C19 14.2386 21.2386 12 24 12C26.7614 12 29 14.2386 29 17C29 19.7614 26.7614 22 24 22Z" fill="#0071B3"/>
</svg>
