<svg width="48" height="48" viewBox="0 0 48 48" fill="none" xmlns="http://www.w3.org/2000/svg">
<path d="M39 9.85999C37.121 8.0424 34.6142 7.0182 32 6.99999C29.8351 6.9927 27.7275 7.69523 26 8.99999C25.2428 9.56955 24.5696 10.2428 24 11C23.4304 10.2428 22.7572 9.56955 22 8.99999C20.275 7.68775 18.1674 6.9772 16 6.9772C13.8326 6.9772 11.725 7.68775 10 8.99999C8.75223 9.926 7.73995 11.1327 7.04505 12.5225C6.35015 13.9123 5.99215 15.4462 6 17C6 32 22 41 24 41C26 41 42 32 42 17C41.9998 15.6702 41.7344 14.3538 41.2193 13.1278C40.7042 11.9018 39.9497 10.7909 39 9.85999ZM24 37.86C18.6343 35.2053 14.1993 30.9864 11.28 25.76C9.81676 23.0697 9.03399 20.0623 9 17C9.00065 15.3933 9.55402 13.8356 10.5672 12.5886C11.5804 11.3416 12.9918 10.4811 14.5644 10.1516C16.137 9.82207 17.775 10.0436 19.2036 10.7789C20.6322 11.5143 21.7644 12.7187 22.41 14.19C22.47 14.33 22.52 14.48 22.58 14.63C22.6805 14.9241 22.8704 15.1795 23.1233 15.3603C23.3761 15.5411 23.6792 15.6383 23.99 15.6383C24.3008 15.6383 24.6039 15.5411 24.8567 15.3603C25.1096 15.1795 25.2995 14.9241 25.4 14.63C25.45 14.48 25.51 14.33 25.57 14.19C26.2083 12.7064 27.3399 11.4892 28.7731 10.7447C30.2063 10.0001 31.8529 9.77407 33.4337 10.1048C35.0145 10.4356 36.4324 11.3028 37.4468 12.5595C38.4613 13.8162 39.01 15.385 39 17C38.9742 20.0792 38.1912 23.1048 36.72 25.81C33.8007 31.0364 29.3657 35.2553 24 37.91V37.86Z" fill="#0071B3"/>
</svg>
