<svg width="88" height="32" viewBox="0 0 88 32" fill="none" xmlns="http://www.w3.org/2000/svg">
<path d="M66.4654 32H0L5.38657 11.8662C7.25806 4.86653 13.598 0 20.8417 0H87.307L81.9205 20.1338C80.049 27.1319 73.709 31.9984 66.4638 31.9984L66.4654 32Z" fill="#64C1ED"/>
<path d="M8.64164 12.7554L4.41553 28.554H66.5376C72.2227 28.554 77.1968 24.7339 78.6654 19.243L82.8915 3.44446H20.7694C15.0843 3.44446 10.1103 7.26449 8.64164 12.7554Z" fill="#6A281C"/>
<path fill-rule="evenodd" clip-rule="evenodd" d="M61.9872 23.2284C62.6517 23.8142 63.5779 24.1063 64.7608 24.1063C65.6115 24.1063 66.3835 23.933 67.0753 23.5879C67.7574 23.2524 68.2919 22.8175 68.6739 22.283C68.6851 22.2669 68.7108 22.275 68.7108 22.2942V23.8463C68.7108 23.8688 68.7285 23.8864 68.751 23.8864H71.3255C71.3479 23.8864 71.3656 23.8688 71.3656 23.8463V17.2608C71.3656 15.89 70.9338 14.8195 70.0687 14.0474C69.2036 13.2754 67.9725 12.8902 66.3771 12.8902C65.1669 12.8902 64.1477 13.1229 63.3243 13.5884C62.9567 13.7938 62.6164 14.0266 62.3018 14.2866C62.2842 14.301 62.2826 14.3267 62.297 14.3428L63.825 16.1549C63.8395 16.1725 63.8652 16.1741 63.8828 16.1597C64.3451 15.7552 64.8041 15.5096 65.2311 15.3668C65.5585 15.2464 65.9341 15.1854 66.3578 15.1854C67.1427 15.1854 67.7285 15.3652 68.1137 15.7247C68.499 16.0843 68.6932 16.5561 68.6932 17.142V17.2415C68.6932 17.264 68.6755 17.2816 68.653 17.2816H65.8586C64.3547 17.2816 63.1718 17.601 62.3067 18.2398C61.4415 18.8787 61.0098 19.763 61.0098 20.8946C61.0098 21.8528 61.3356 22.6313 61.9872 23.23V23.2284ZM66.5376 21.6923C66.2182 21.7854 65.8923 21.832 65.5601 21.832C64.443 21.832 63.8844 21.4403 63.8844 20.6539C63.8844 20.2285 64.0578 19.8963 64.4029 19.6555C64.7624 19.4164 65.3547 19.296 66.1797 19.296H68.6643C68.69 19.296 68.7092 19.3201 68.7028 19.3441C68.6161 19.7358 68.4893 20.1772 68.202 20.5704C68.0126 20.8288 67.7157 21.1177 67.4364 21.2911C67.1571 21.4644 66.857 21.5976 66.5376 21.6907V21.6923Z" fill="white"/>
<path fill-rule="evenodd" clip-rule="evenodd" d="M50.9476 23.7243C51.5784 23.9795 52.2284 24.1063 52.8977 24.1063C53.6088 24.1063 54.2508 23.9587 54.8286 23.6633C55.4 23.3648 55.8767 22.9587 56.2603 22.4467C56.2716 22.4306 56.2972 22.4387 56.2972 22.4579V23.8447C56.2972 23.8672 56.3149 23.8848 56.3374 23.8848H58.9921C59.0146 23.8848 59.0323 23.8672 59.0323 23.8447V8.06057C59.0323 8.0381 59.0146 8.02045 58.9921 8.02045H56.3374C56.3149 8.02045 56.2972 8.0381 56.2972 8.06057V14.354C56.2972 14.3733 56.2732 14.3813 56.2603 14.3668C55.8912 13.8805 55.4273 13.5017 54.8687 13.2289C54.3054 12.948 53.6617 12.8067 52.9379 12.8067C52.214 12.8067 51.5704 12.9415 50.9267 13.2096C50.2959 13.4648 49.7406 13.8404 49.2575 14.3363C48.7743 14.8323 48.3859 15.4294 48.0906 16.126C47.8097 16.8226 47.6685 17.601 47.6685 18.4581C47.6685 19.3152 47.8161 20.1145 48.1115 20.8111C48.4068 21.4949 48.7952 22.0839 49.2783 22.5799C49.7614 23.0759 50.3168 23.4579 50.9476 23.7259V23.7243ZM53.4499 21.4965C55.1448 21.4965 56.5187 20.1226 56.5187 18.4276C56.5187 16.7327 55.1448 15.3572 53.4499 15.3572C51.7549 15.3572 50.381 16.7311 50.381 18.4276C50.381 20.1242 51.7549 21.4965 53.4499 21.4965Z" fill="white"/>
<path d="M35.6709 13.0683C35.6709 13.0459 35.6886 13.0282 35.711 13.0282H38.4059C38.4284 13.0282 38.446 13.0459 38.446 13.0683V14.3315C38.446 14.3508 38.4717 14.3588 38.483 14.3427C38.8264 13.8709 39.255 13.5001 39.7734 13.2288C40.3224 12.9479 40.9403 12.8067 41.624 12.8067C42.9113 12.8067 43.9305 13.2096 44.6801 14.0137C45.4441 14.805 45.8261 15.9109 45.8261 17.3314V23.8463C45.8261 23.8687 45.8084 23.8864 45.786 23.8864H43.0381C43.0156 23.8864 42.998 23.8687 42.998 23.8463V17.5448C42.998 16.2929 41.9836 15.2785 40.7316 15.2785C39.4797 15.2785 38.4653 16.2929 38.4653 17.5448V23.8463C38.4653 23.8687 38.4476 23.8864 38.4252 23.8864H35.7126C35.6902 23.8864 35.6725 23.8687 35.6725 23.8463V13.0683H35.6709Z" fill="white"/>
<path d="M26.0243 13.0684C26.0243 13.0459 26.0066 13.0282 25.9841 13.0282H23.2379C23.2154 13.0282 23.1978 13.0459 23.1978 13.0684V19.5432C23.1978 20.9781 23.5669 22.0968 24.3036 22.9009C25.0404 23.7051 26.0804 24.1079 27.4207 24.1079C28.0916 24.1079 28.6935 23.9667 29.2296 23.6858C29.7464 23.4146 30.1765 23.0422 30.52 22.5719C30.5313 22.5558 30.5569 22.5639 30.5569 22.5831V23.8463C30.5569 23.8688 30.5746 23.8864 30.5971 23.8864L33.292 23.8672C33.3144 23.8672 33.3321 23.8495 33.3321 23.827V13.0491C33.3321 13.0266 33.3144 13.009 33.292 13.009L30.5585 13.0282C30.5361 13.0282 30.5184 13.0459 30.5184 13.0684V19.4115C30.5184 20.6522 29.512 21.6586 28.2713 21.6586C27.0306 21.6586 26.0243 20.6522 26.0243 19.4115V13.0684Z" fill="white"/>
<path d="M21.9443 8.09108C21.9508 8.0654 21.9315 8.04132 21.9058 8.04132H20.5816C19.6973 8.04132 18.9525 8.11515 18.349 8.26282C17.76 8.41048 17.2833 8.66569 16.9221 9.02683C16.5738 9.37512 16.3186 9.8438 16.1581 10.4345C16.0104 11.0235 15.9366 11.7618 15.9366 12.6462V12.9881C15.9366 13.0106 15.919 13.0282 15.8965 13.0282H14.1871C14.1646 13.0282 14.147 13.0459 14.147 13.0684V15.4808C14.147 15.5032 14.1646 15.5209 14.1871 15.5209H15.8965C15.919 15.5209 15.9366 15.5385 15.9366 15.561V23.8463C15.9366 23.8688 15.9543 23.8864 15.9767 23.8864H18.6508C18.6732 23.8864 18.6909 23.8688 18.6909 23.8463V15.561C18.6909 15.5385 18.7085 15.5209 18.731 15.5209H21.2654C21.2879 15.5209 21.3055 15.5032 21.3055 15.4808V13.0684C21.3055 13.0459 21.2879 13.0282 21.2654 13.0282H18.731C18.7085 13.0282 18.6909 13.0106 18.6909 12.9881V12.505C18.6909 12.0893 18.7101 11.7602 18.7519 11.5195C18.792 11.2643 18.8851 11.0701 19.0328 10.9368C19.1933 10.7892 19.4148 10.6961 19.6957 10.656C19.9765 10.603 20.3585 10.5757 20.8417 10.5757H21.2734C21.2911 10.5757 21.3071 10.5629 21.3119 10.5452L21.9427 8.09268L21.9443 8.09108Z" fill="white"/>
</svg>
