<svg width="24" height="24" viewBox="0 0 24 24" fill="none" xmlns="http://www.w3.org/2000/svg">
<path fill-rule="evenodd" clip-rule="evenodd" d="M21.5 18.4531C20.12 17.7356 18.414 17.1861 16.5 16.8436V7.15612C18.414 6.81362 20.12 6.26412 21.5 5.54712V18.4531ZM9 7.37762C9.9625 7.48712 10.9635 7.55012 12 7.55012C13.0365 7.55012 14.0375 7.48712 15 7.37762V16.6226C14.0375 16.5131 13.0365 16.4501 12 16.4501C10.9635 16.4501 9.9625 16.5131 9 16.6226V7.37762ZM2.5 5.54712C3.88 6.26412 5.586 6.81362 7.5 7.15612V16.8436C5.586 17.1861 3.88 17.7356 2.5 18.4531V5.54712ZM21.8415 3.62212C21.8335 3.62712 21.8265 3.63212 21.819 3.63762C19.698 5.07712 16.05 6.05012 12 6.05012C7.95 6.05012 4.302 5.07712 2.181 3.63762C2.1735 3.63212 2.1665 3.62712 2.1585 3.62212C2.041 3.54562 1.901 3.50012 1.75 3.50012C1.3355 3.50012 1 3.83562 1 4.25012V19.7501C1 20.1641 1.3355 20.5001 1.75 20.5001C1.901 20.5001 2.041 20.4546 2.1585 20.3776C2.1665 20.3726 2.1735 20.3676 2.181 20.3621C4.302 18.9226 7.95 17.9501 12 17.9501C16.05 17.9501 19.698 18.9226 21.819 20.3621C21.8265 20.3676 21.834 20.3726 21.8415 20.3776C21.959 20.4546 22.099 20.5001 22.25 20.5001C22.6645 20.5001 23 20.1641 23 19.7501V4.25012C23 3.83562 22.6645 3.50012 22.25 3.50012C22.099 3.50012 21.959 3.54562 21.8415 3.62212Z" fill="#0071B3"/>
</svg>
