<svg width="48" height="48" viewBox="0 0 48 48" fill="none" xmlns="http://www.w3.org/2000/svg">
<path d="M5.5 8C4.67157 8 4 8.67157 4 9.5V38.5C4 39.3284 4.67157 40 5.5 40C6.32843 40 7 39.3284 7 38.5V9.5C7 8.67157 6.32843 8 5.5 8Z" fill="#0071B3"/>
<path d="M42.5 8C41.6716 8 41 8.67157 41 9.5V38.5C41 39.3284 41.6716 40 42.5 40C43.3284 40 44 39.3284 44 38.5V9.5C44 8.67157 43.3284 8 42.5 8Z" fill="#0071B3"/>
<path d="M9.1 24.5381C9.03568 24.3737 9.0018 24.1992 9 24.023C9.00416 23.8534 9.1 23.4484 9.1 23.4484C9.17515 23.2937 9.4 22.973 9.4 22.973L16 16.473C16.3739 16.0754 16.9371 15.9118 17.4686 16.0462C18 16.1807 18.415 16.5918 18.5508 17.1182C18.6865 17.6447 18.5213 18.2025 18.12 18.573L14.12 22.4975H21.5C22.3284 22.4975 23 23.1627 23 23.9833C23 24.804 22.3284 25.4692 21.5 25.4692H14.13L18.13 29.3937C18.7375 29.9764 18.7532 30.9365 18.165 31.5383C17.5768 32.1401 16.6075 32.1556 16 31.573L9.47 25.0433C9.35824 24.9234 9.1 24.5381 9.1 24.5381Z" fill="#0071B3"/>
<path d="M39 24.023C38.9982 24.1992 38.9643 24.3737 38.9 24.5381C38.9 24.5381 38.6418 24.9234 38.53 25.0433L32 31.573C31.3925 32.1556 30.4232 32.1401 29.835 31.5383C29.2468 30.9365 29.2625 29.9764 29.87 29.3937L33.87 25.4692H26.5C25.6716 25.4692 25 24.804 25 23.9833C25 23.1627 25.6716 22.4975 26.5 22.4975H33.88L29.88 18.573C29.4787 18.2025 29.3135 17.6447 29.4492 17.1182C29.585 16.5918 30 16.1807 30.5314 16.0462C31.0629 15.9118 31.6261 16.0754 32 16.473L38.6 22.973C38.6 22.973 38.8248 23.2937 38.9 23.4484C38.9 23.4484 38.9958 23.8534 39 24.023Z" fill="#0071B3"/>
</svg>
