<svg width="48" height="48" viewBox="0 0 48 48" fill="none" xmlns="http://www.w3.org/2000/svg">
<path fill-rule="evenodd" clip-rule="evenodd" d="M23.7182 43.0965V40.0965H34.7153V22.9373L37.7153 26.2691V41.5965C37.7153 42.4239 37.0454 43.0945 36.2184 43.0962L36.2153 43.0965H23.7182ZM42.0507 24.6006C42.605 25.2162 42.5552 26.1647 41.9396 26.719C41.3239 27.2733 40.3755 27.2237 39.8212 26.608L23.716 8.72122L7.61468 26.6035C7.06038 27.2191 6.11188 27.2688 5.49628 26.7145C4.88068 26.1602 4.83098 25.2118 5.38528 24.5961L22.5973 5.48012C22.6258 5.44852 22.6651 5.43582 22.6956 5.40722C22.7343 5.37092 22.7788 5.34612 22.8202 5.31472C22.9363 5.22562 23.0577 5.14732 23.1887 5.09692C23.2487 5.07452 23.311 5.06552 23.373 5.05092C23.4924 5.02212 23.6125 4.99922 23.7343 5.00002C23.8168 5.00122 23.8974 5.01972 23.9789 5.03452C24.0791 5.05202 24.1788 5.07042 24.2743 5.10822C24.3736 5.14882 24.4643 5.21122 24.5551 5.27422C24.6239 5.32112 24.6942 5.36372 24.7557 5.42312C24.7812 5.44772 24.8148 5.45802 24.8388 5.48472L42.0507 24.6006ZM20.2182 33.5965C21.0466 33.5965 21.7182 34.2681 21.7182 35.0965C21.7182 35.9249 21.0466 36.5965 20.2182 36.5965H16.2182V40.5965C16.2182 41.4249 15.5466 42.0965 14.7182 42.0965C13.8898 42.0965 13.2182 41.4249 13.2182 40.5965V36.5965H9.21818C8.38978 36.5965 7.71818 35.9249 7.71818 35.0965C7.71818 34.2681 8.38978 33.5965 9.21818 33.5965H13.2182V29.5965C13.2182 28.7681 13.8898 28.0965 14.7182 28.0965C15.5466 28.0965 16.2182 28.7681 16.2182 29.5965V33.5965H20.2182Z" fill="#0071B3"/>
</svg>
