<svg width="48" height="48" viewBox="0 0 48 48" fill="none" xmlns="http://www.w3.org/2000/svg">
<path fill-rule="evenodd" clip-rule="evenodd" d="M8 33V27H6.79965C5.80573 27 5 26.1123 5 25C5 23.8954 5.79869 23 6.79965 23H8V17H6.79965C5.80573 17 5 16.1123 5 15C5 13.8954 5.79869 13 6.79965 13H8V8.50104C8 7.67204 8.66837 7 9.50051 7H30.4088L27.336 10H11V13H12.2003C13.1943 13 14 13.8877 14 15C14 16.1046 13.2013 17 12.2003 17H11V23H12.2003C13.1943 23 14 23.8877 14 25C14 26.1046 13.2013 27 12.2003 27H11V33H12.2003C13.1943 33 14 33.8877 14 35C14 36.1046 13.2013 37 12.2003 37H11V40H37V22.7723L40 19.8433V41.499C40 42.328 39.3316 43 38.4995 43H9.50051C8.6718 43 8 42.3288 8 41.499V37H6.79965C5.80573 37 5 36.1123 5 35C5 33.8954 5.79869 33 6.79965 33H8ZM42.5664 11.4252C43.1499 12.0087 43.1499 12.9634 42.5664 13.5468L25.5619 30.5513C25.5154 30.5978 25.4549 30.6167 25.4041 30.6558C25.3538 30.6944 25.301 30.7287 25.2458 30.7607C25.1189 30.8346 24.9906 30.8877 24.851 30.9212C24.8138 30.9303 24.7762 30.9369 24.7379 30.9431C24.6205 30.962 24.5073 30.9762 24.3888 30.9672H19.5002C18.672 30.9672 18 30.2958 18 29.4677V24.4691C18 23.9445 18.2703 23.4843 18.6783 23.2163L35.4572 6.43757C35.7489 6.14586 36.1335 5.9999 36.5181 6C36.7993 5.9996 37.068 6.10507 37.3137 6.26202C37.4031 6.31911 37.5006 6.3595 37.5787 6.43747C37.5789 6.43777 37.5789 6.43817 37.5792 6.43837C37.579 6.43817 37.5795 6.43857 37.5792 6.43837L42.5284 11.3872C42.5352 11.3939 42.5371 11.4032 42.5436 11.4101C42.5504 11.4167 42.5597 11.4185 42.5664 11.4252ZM23.9021 27.9681L35.3862 16.484L32.52 13.6178L20.9992 25.1386V27.9681H23.9021ZM37.5068 14.3633L39.3851 12.4851L36.5188 9.61885L34.6407 11.497L37.5068 14.3633Z" fill="#0071B3"/>
</svg>
