<svg width="48" height="48" viewBox="0 0 48 48" fill="none" xmlns="http://www.w3.org/2000/svg">
<path fill-rule="evenodd" clip-rule="evenodd" d="M14.5 19C17.0176 19 19.14 17.3085 19.793 15H40.5C41.3284 15 42 14.3284 42 13.5C42 12.6716 41.3284 12 40.5 12H19.793C19.14 9.6915 17.0176 8 14.5 8C11.9824 8 9.85996 9.6915 9.20703 12H7.5C6.67157 12 6 12.6716 6 13.5C6 14.3284 6.67157 15 7.5 15H9.20703C9.85996 17.3085 11.9824 19 14.5 19ZM17 13.5C17 14.8807 15.8807 16 14.5 16C13.1193 16 12 14.8807 12 13.5C12 12.1193 13.1193 11 14.5 11C15.8807 11 17 12.1193 17 13.5Z" fill="#0071B3"/>
<path fill-rule="evenodd" clip-rule="evenodd" d="M38.793 25C38.14 27.3085 36.0176 29 33.5 29C30.9824 29 28.86 27.3085 28.207 25H7.5C6.67157 25 6 24.3284 6 23.5C6 22.6716 6.67157 22 7.5 22H28.207C28.86 19.6915 30.9824 18 33.5 18C36.0176 18 38.14 19.6915 38.793 22H40.5C41.3284 22 42 22.6716 42 23.5C42 24.3284 41.3284 25 40.5 25H38.793ZM33.5 26C34.8807 26 36 24.8807 36 23.5C36 22.1193 34.8807 21 33.5 21C32.1193 21 31 22.1193 31 23.5C31 24.8807 32.1193 26 33.5 26Z" fill="#0071B3"/>
<path fill-rule="evenodd" clip-rule="evenodd" d="M19.793 36C19.14 38.3085 17.0176 40 14.5 40C11.9824 40 9.85996 38.3085 9.20703 36H7.5C6.67157 36 6 35.3284 6 34.5C6 33.6716 6.67157 33 7.5 33H9.20703C9.85996 30.6915 11.9824 29 14.5 29C17.0176 29 19.14 30.6915 19.793 33H40.5C41.3284 33 42 33.6716 42 34.5C42 35.3284 41.3284 36 40.5 36H19.793ZM14.5 37C15.8807 37 17 35.8807 17 34.5C17 33.1193 15.8807 32 14.5 32C13.1193 32 12 33.1193 12 34.5C12 35.8807 13.1193 37 14.5 37Z" fill="#0071B3"/>
</svg>
