<svg width="48" height="48" viewBox="0 0 48 48" fill="none" xmlns="http://www.w3.org/2000/svg">
<path d="M4.58534 10.8081C5.23798 11.3107 6.17366 11.1902 6.67809 10.5387C7.79744 9.08626 9.09295 7.77899 10.5347 6.64699C11.1558 6.12899 11.2532 5.21044 10.7545 4.57344C10.2558 3.93644 9.34178 3.81178 8.69113 4.29203C7.05168 5.57729 5.57871 7.06226 4.30631 8.71256C3.80657 9.36867 3.93138 10.306 4.58534 10.8081Z" fill="#0071B3"/>
<path d="M37.4615 6.64699C38.9033 7.77899 40.1988 9.08626 41.3182 10.5387C41.6439 10.9629 42.171 11.1809 42.7008 11.1105C43.2306 11.0401 43.6827 10.6921 43.8867 10.1975C44.0907 9.70284 44.0157 9.1368 43.69 8.71256C42.4176 7.06226 40.9446 5.57729 39.3051 4.29203C38.6545 3.81178 37.7404 3.93644 37.2417 4.57344C36.743 5.21044 36.8404 6.12899 37.4615 6.64699Z" fill="#0071B3"/>
<path d="M25.5029 23.0718L32.7179 27.203C33.061 27.3994 33.3118 27.7246 33.4146 28.1067C33.5175 28.4888 33.464 28.8961 33.266 29.2386C32.8458 29.9579 31.9246 30.203 31.2032 29.7874L23.2308 25.2372C22.859 25.0238 22.5974 24.66 22.5133 24.2393V24.1894C22.5083 24.1196 22.5083 24.0496 22.5133 23.9799V11.5365C22.5133 10.7099 23.1825 10.0397 24.0081 10.0397C24.8337 10.0397 25.5029 10.7099 25.5029 11.5365V23.0718Z" fill="#0071B3"/>
<path fill-rule="evenodd" clip-rule="evenodd" d="M28.7532 4.62994C37.6639 6.82193 43.9286 14.8221 43.9291 24.0098C43.9385 29.7393 41.4796 35.1945 37.1825 38.9777L39.5543 41.4524C39.9344 41.8386 40.0763 42.4005 39.925 42.9212C39.7738 43.4419 39.3531 43.84 38.8253 43.9617C38.2976 44.0835 37.7454 43.9099 37.3818 43.508L34.7908 40.7639C28.2243 45.0231 19.7719 45.0231 13.2055 40.7639L10.6145 43.508C10.0435 44.088 9.11432 44.1045 8.5232 43.5452C7.93208 42.9859 7.89599 42.056 8.44199 41.4524L10.8138 38.9777C3.93259 32.9001 2.08437 22.9037 6.33659 14.7621C10.5888 6.62063 19.8426 2.43796 28.7532 4.62994ZM23.9981 40.9735C14.6417 40.9735 7.05678 33.3786 7.05678 24.0098C7.05678 14.641 14.6417 7.04613 23.9981 7.04613C33.3546 7.04613 40.9395 14.641 40.9395 24.0098C40.9395 28.5088 39.1546 32.8236 35.9775 36.0049C32.8004 39.1862 28.4913 40.9735 23.9981 40.9735Z" fill="#0071B3"/>
</svg>
