<svg width="48" height="48" viewBox="0 0 48 48" fill="none" xmlns="http://www.w3.org/2000/svg">
<path d="M23.9998 4C27.8975 4 31.3611 5.85823 33.5531 8.7371L31.5089 11.0369C29.8977 8.60425 27.1361 7 23.9998 7C19.0293 7 14.9998 11.0294 14.9998 16V21.61C15.0005 22.6825 14.4286 23.6738 13.4998 24.21C10.7165 25.8169 9.00133 28.7861 8.99982 32C9.00051 32.3342 9.02054 32.6681 9.05982 33H11.9861L9.31944 36H6.69982C4.75131 30.5557 6.98413 24.4976 11.9998 21.62V16C11.9998 9.37258 17.3724 4 23.9998 4Z" fill="#0071B3"/>
<path d="M32.9998 18.3908L35.9633 15.0569C35.9875 15.3681 35.9998 15.6826 35.9998 16V21.62C41.0155 24.4976 43.2483 30.5557 41.2998 36H17.3472L20.0138 33H38.9398C38.9791 32.6681 38.9991 32.3342 38.9998 32C38.9947 28.7897 37.28 25.8251 34.4998 24.22C33.571 23.6838 32.9991 22.6925 32.9998 21.62V18.3908Z" fill="#0071B3"/>
<path d="M21.1798 39C21.6026 40.1957 22.7316 40.9964 23.9998 41C25.2681 40.9964 26.3971 40.1957 26.8198 39H29.9098C29.4069 41.8706 26.9141 43.9647 23.9998 43.9647C21.0855 43.9647 18.5927 41.8706 18.0898 39H21.1798Z" fill="#0071B3"/>
<path d="M41.1211 6.99656C41.6715 6.37739 41.6157 5.42928 40.9965 4.8789C40.3774 4.32853 39.4293 4.3843 38.8789 5.00347L6.87889 41.0035C6.32851 41.6226 6.38428 42.5708 7.00346 43.1211C7.62263 43.6715 8.57074 43.6157 9.12111 42.9966L41.1211 6.99656Z" fill="#0071B3"/>
</svg>
