<svg width="48" height="48" viewBox="0 0 48 48" fill="none" xmlns="http://www.w3.org/2000/svg">
<path fill-rule="evenodd" clip-rule="evenodd" d="M23.9998 4C17.3724 4 11.9998 9.37258 11.9998 16V21.62C6.98413 24.4976 4.75131 30.5557 6.69982 36H41.2998C43.2483 30.5557 41.0155 24.4976 35.9998 21.62V16C35.9998 9.37258 30.6272 4 23.9998 4ZM23.9998 7C28.9704 7 32.9998 11.0294 32.9998 16V21.62C32.9991 22.6925 33.571 23.6838 34.4998 24.22C37.28 25.8251 38.9947 28.7897 38.9998 32C38.9991 32.3342 38.9791 32.6681 38.9398 33H9.05982C9.02054 32.6681 9.00051 32.3342 8.99982 32C9.00133 28.7861 10.7165 25.8169 13.4998 24.21C14.4286 23.6738 15.0005 22.6825 14.9998 21.61V16C14.9998 11.0294 19.0293 7 23.9998 7Z" fill="#0071B3"/>
<path d="M21.1798 39C21.6026 40.1957 22.7316 40.9964 23.9998 41C25.2681 40.9964 26.3971 40.1957 26.8198 39H29.9098C29.4069 41.8706 26.9141 43.9647 23.9998 43.9647C21.0855 43.9647 18.5927 41.8706 18.0898 39H21.1798Z" fill="#0071B3"/>
</svg>
