<svg width="48" height="48" viewBox="0 0 48 48" fill="none" xmlns="http://www.w3.org/2000/svg">
<path fill-rule="evenodd" clip-rule="evenodd" d="M28.6656 10.9146C27.175 12.6777 24.6719 14 22.675 14C22.45 14 22.225 13.9725 22.0844 13.9449C22.0562 13.8347 22 13.5041 22 13.1736C22 10.9146 23.1531 8.71074 24.4188 7.30579C26.0219 5.46006 28.6938 4.08264 30.9156 4C30.9719 4.24793 31 4.55096 31 4.85399C31 7.0854 30.0156 9.3168 28.6656 10.9146ZM21.1058 43.2503C20.2148 43.6352 19.3706 44 18.225 44C15.775 44 14.075 41.7368 12.125 38.9707C9.85 35.7016 8 30.6471 8 25.8692C8 18.1744 12.975 14.1006 17.875 14.1006C19.3052 14.1006 20.6119 14.6281 21.7739 15.0971C22.7041 15.4726 23.5414 15.8106 24.275 15.8106C24.9113 15.8106 25.7043 15.4954 26.6285 15.128C27.9193 14.6149 29.4663 14 31.2 14C32.3 14 36.325 14.1006 38.975 17.9229C38.967 17.9292 38.9541 17.9382 38.9368 17.9499L38.7822 18.053C37.9388 18.6213 34.75 20.9315 34.75 25.4669C34.75 31.3261 39.825 33.4132 40 33.4635C39.9955 33.4748 39.9852 33.507 39.9687 33.5583C39.8019 34.0777 39.0065 36.5536 37.3 39.0713L36.7668 39.8323C35.2416 41.9768 33.5711 43.9497 31.2 43.9497C29.8939 43.9497 29.0616 43.579 28.2023 43.1962C27.2853 42.7877 26.3375 42.3655 24.75 42.3655C23.154 42.3655 22.1008 42.8205 21.1058 43.2503Z" fill="#0071B3"/>
</svg>
