<svg width="48" height="48" viewBox="0 0 48 48" fill="none" xmlns="http://www.w3.org/2000/svg">
<path fill-rule="evenodd" clip-rule="evenodd" d="M4 24C4 12.9543 12.9543 4 24 4C35.032 4.03295 43.9671 12.968 44 24C44 35.0457 35.0457 44 24 44C12.9543 44 4 35.0457 4 24ZM33.5383 18.9373C34.1223 18.3542 35.0773 18.3542 35.6603 18.9373C36.2433 19.5203 36.2433 20.4753 35.6603 21.0583L25.0893 31.6292C25.0838 31.6348 25.0805 31.641 25.0773 31.6472C25.074 31.6535 25.0708 31.6597 25.0653 31.6652C24.7723 31.9583 24.3853 32.1033 23.9993 32.1012C23.6123 32.1033 23.2253 31.9583 22.9323 31.6652C22.9273 31.6597 22.924 31.6535 22.9208 31.6472C22.9175 31.641 22.9143 31.6348 22.9093 31.6292L12.3373 21.0583C11.7543 20.4753 11.7543 19.5203 12.3373 18.9373C12.9213 18.3542 13.8753 18.3542 14.4593 18.9373L23.9993 28.4772L33.5383 18.9373Z" fill="#0071B3"/>
</svg>
