<svg width="48" height="48" viewBox="0 0 48 48" fill="none" xmlns="http://www.w3.org/2000/svg">
<path fill-rule="evenodd" clip-rule="evenodd" d="M4 24C4 12.9543 12.9543 4 24 4C35.032 4.03295 43.9671 12.968 44 24C44 35.0457 35.0457 44 24 44C12.9543 44 4 35.0457 4 24ZM25.089 16.472L35.66 27.043C36.243 27.626 36.243 28.581 35.66 29.165C35.077 29.748 34.122 29.748 33.539 29.165L23.999 19.625L14.459 29.165C13.875 29.748 12.921 29.748 12.338 29.165C11.754 28.581 11.754 27.626 12.338 27.043L22.909 16.472C22.9139 16.4667 22.9171 16.4606 22.9202 16.4547C22.9236 16.4484 22.9269 16.4422 22.932 16.437C23.225 16.144 23.612 15.999 23.999 16C24.386 15.999 24.772 16.144 25.065 16.437C25.071 16.4424 25.0746 16.449 25.0782 16.4556C25.0813 16.4613 25.0844 16.467 25.089 16.472Z" fill="#0071B3"/>
</svg>
