<svg width="48" height="48" viewBox="0 0 48 48" fill="none" xmlns="http://www.w3.org/2000/svg">
<path fill-rule="evenodd" clip-rule="evenodd" d="M31.63 22.9093L21.059 12.3373C20.476 11.7543 19.521 11.7543 18.938 12.3373C18.354 12.9213 18.354 13.8753 18.938 14.4593L28.478 23.9983L18.938 33.5383C18.354 34.1223 18.354 35.0773 18.938 35.6603C19.521 36.2443 20.476 36.2443 21.059 35.6603L31.63 25.0893C31.641 25.0783 31.655 25.0763 31.666 25.0653C31.959 24.7723 32.103 24.3853 32.102 23.9983C32.103 23.6123 31.959 23.2253 31.666 22.9323C31.655 22.9223 31.641 22.9193 31.63 22.9093Z" fill="#0071B3"/>
</svg>
