<svg width="48" height="48" viewBox="0 0 48 48" fill="none" xmlns="http://www.w3.org/2000/svg">
<path fill-rule="evenodd" clip-rule="evenodd" d="M35.6603 18.9372C35.0773 18.3542 34.1223 18.3542 33.5383 18.9372L23.9993 28.4773L14.4593 18.9372C13.8753 18.3542 12.9213 18.3542 12.3373 18.9372C11.7543 19.5202 11.7543 20.4753 12.3373 21.0582L22.9093 31.6292C22.9193 31.6402 22.9223 31.6543 22.9323 31.6652C23.2253 31.9583 23.6123 32.1032 23.9993 32.1012C24.3853 32.1032 24.7723 31.9583 25.0653 31.6652C25.0763 31.6543 25.0783 31.6402 25.0893 31.6292L35.6603 21.0582C36.2433 20.4753 36.2433 19.5202 35.6603 18.9372Z" fill="#0071B3"/>
</svg>
