<svg width="48" height="48" viewBox="0 0 48 48" fill="none" xmlns="http://www.w3.org/2000/svg">
<path fill-rule="evenodd" clip-rule="evenodd" d="M37.5576 10.439L37.5566 10.438C37.5556 10.437 37.5536 10.436 37.5526 10.435C37.4136 10.298 37.2496 10.189 37.0676 10.114C37.0586 10.11 37.0506 10.109 37.0416 10.106C36.8726 10.04 36.6916 10 36.4996 10H21.4996C20.6746 10 19.9996 10.675 19.9996 11.5C19.9996 12.325 20.6746 13 21.4996 13H32.8726L10.4376 35.435C9.8536 36.019 9.8536 36.973 10.4376 37.557C11.0206 38.14 11.9756 38.14 12.5586 37.557L34.9996 15.115V26.5C34.9996 27.325 35.6746 28 36.4996 28C37.3256 28 37.9996 27.325 37.9996 26.5V11.5C37.9996 11.086 37.8306 10.711 37.5576 10.439Z" fill="#0071B3"/>
</svg>
