<svg width="48" height="48" viewBox="0 0 48 48" fill="none" xmlns="http://www.w3.org/2000/svg">
<path fill-rule="evenodd" clip-rule="evenodd" d="M19.725 23.9983L29.265 14.4583C29.848 13.8753 29.848 12.9203 29.265 12.3373C28.682 11.7543 27.727 11.7543 27.143 12.3373L16.572 22.9083C16.561 22.9183 16.547 22.9213 16.537 22.9323C16.244 23.2253 16.099 23.6123 16.1 23.9983C16.099 24.3853 16.244 24.7713 16.537 25.0653C16.547 25.0753 16.561 25.0783 16.572 25.0883L27.143 35.6603C27.727 36.2433 28.682 36.2433 29.265 35.6603C29.848 35.0763 29.848 34.1223 29.265 33.5383L19.725 23.9983Z" fill="#0071B3"/>
</svg>
