<svg width="48" height="48" viewBox="0 0 48 48" fill="none" xmlns="http://www.w3.org/2000/svg">
<path fill-rule="evenodd" clip-rule="evenodd" d="M4 24C4 12.9543 12.9543 4 24 4C35.032 4.03295 43.9671 12.968 44 24C44 35.0457 35.0457 44 24 44C12.9543 44 4 35.0457 4 24ZM21.059 12.3373L31.63 22.9093C31.6355 22.9143 31.6418 22.9175 31.648 22.9208C31.6543 22.924 31.6605 22.9273 31.666 22.9323C31.959 23.2253 32.103 23.6123 32.102 23.9983C32.103 24.3853 31.959 24.7723 31.666 25.0653C31.6605 25.0708 31.6543 25.074 31.648 25.0773C31.6418 25.0805 31.6355 25.0838 31.63 25.0893L21.059 35.6603C20.476 36.2443 19.521 36.2443 18.938 35.6603C18.354 35.0773 18.354 34.1223 18.938 33.5383L28.478 23.9983L18.938 14.4593C18.354 13.8753 18.354 12.9213 18.938 12.3373C19.521 11.7543 20.476 11.7543 21.059 12.3373Z" fill="#0071B3"/>
</svg>
