<svg width="48" height="48" viewBox="0 0 48 48" fill="none" xmlns="http://www.w3.org/2000/svg">
<path fill-rule="evenodd" clip-rule="evenodd" d="M37.8999 24.52C37.9589 24.363 37.9939 24.196 37.9969 24.02C37.9969 24.014 37.9989 24.008 37.9989 24.001V24V23.999C37.9989 23.992 37.9969 23.986 37.9969 23.98C37.9939 23.804 37.9589 23.637 37.8999 23.48C37.8899 23.453 37.8819 23.427 37.8709 23.4C37.8039 23.249 37.7109 23.113 37.6009 22.993C37.5849 22.975 37.5789 22.951 37.5619 22.934C37.5509 22.923 37.5369 22.92 37.5259 22.91L26.9549 12.339C26.3719 11.755 25.4179 11.755 24.8339 12.339C24.2509 12.922 24.2509 13.877 24.8339 14.46L32.8739 22.5H11.4999C10.6749 22.5 9.99988 23.175 9.99988 24C9.99988 24.825 10.6749 25.5 11.4999 25.5H32.8739L24.8339 33.54C24.2509 34.123 24.2509 35.078 24.8339 35.661C25.4179 36.245 26.3719 36.245 26.9549 35.661L37.5259 25.09C37.5369 25.08 37.5509 25.077 37.5619 25.066C37.5789 25.049 37.5849 25.025 37.6009 25.007C37.7109 24.887 37.8039 24.751 37.8709 24.6C37.8819 24.573 37.8899 24.547 37.8999 24.52Z" fill="#0071B3"/>
</svg>
