<svg width="48" height="48" viewBox="0 0 48 48" fill="none" xmlns="http://www.w3.org/2000/svg">
<path fill-rule="evenodd" clip-rule="evenodd" d="M36.4995 22.5989H15.1245L23.1645 14.5589C23.7485 13.9749 23.7485 13.0209 23.1645 12.4369C22.5815 11.8539 21.6265 11.8539 21.0435 12.4369L10.4725 23.0089C10.4615 23.0189 10.4475 23.0219 10.4375 23.0319C10.4195 23.0499 10.4135 23.0739 10.3965 23.0919C10.2875 23.2119 10.1945 23.3479 10.1285 23.4979C10.1165 23.5249 10.1085 23.5519 10.0985 23.5789C10.0405 23.7359 10.0045 23.9029 10.0015 24.0789C10.0015 24.0849 9.99951 24.0909 9.99951 24.0969V24.0989V24.0999C9.99951 24.1069 10.0015 24.1129 10.0015 24.1189C10.0045 24.2939 10.0405 24.4619 10.0985 24.6179C10.1085 24.6459 10.1165 24.6729 10.1285 24.6999C10.1945 24.8499 10.2875 24.9859 10.3965 25.1059C10.4135 25.1239 10.4195 25.1479 10.4375 25.1649C10.4475 25.1759 10.4615 25.1789 10.4725 25.1889L21.0435 35.7599C21.6265 36.3439 22.5815 36.3439 23.1645 35.7599C23.7485 35.1769 23.7485 34.2219 23.1645 33.6389L15.1245 25.5989H36.4995C37.3245 25.5989 37.9995 24.9239 37.9995 24.0989C37.9995 23.2739 37.3245 22.5989 36.4995 22.5989Z" fill="#0071B3"/>
</svg>
