<svg width="48" height="48" viewBox="0 0 48 48" fill="none" xmlns="http://www.w3.org/2000/svg">
<path fill-rule="evenodd" clip-rule="evenodd" d="M35.66 27.043L25.089 16.472C25.079 16.461 25.076 16.447 25.065 16.437C24.772 16.144 24.386 15.999 23.999 16C23.612 15.999 23.225 16.144 22.932 16.437C22.922 16.447 22.919 16.461 22.909 16.472L12.338 27.043C11.754 27.626 11.754 28.581 12.338 29.165C12.921 29.748 13.875 29.748 14.459 29.165L23.999 19.625L33.539 29.165C34.122 29.748 35.077 29.748 35.66 29.165C36.243 28.581 36.243 27.626 35.66 27.043Z" fill="#0071B3"/>
</svg>
