<svg width="48" height="48" viewBox="0 0 48 48" fill="none" xmlns="http://www.w3.org/2000/svg">
<path fill-rule="evenodd" clip-rule="evenodd" d="M35.76 24.834C35.177 24.251 34.222 24.251 33.638 24.834L25.599 32.874V11.5C25.599 10.675 24.924 10 24.099 10C23.274 10 22.599 10.675 22.599 11.5V32.874L14.559 24.834C13.975 24.251 13.021 24.251 12.438 24.834C11.854 25.417 11.854 26.372 12.438 26.955L23.009 37.526C23.019 37.537 23.022 37.551 23.032 37.562C23.05 37.579 23.073 37.585 23.092 37.601C23.212 37.711 23.347 37.804 23.498 37.871C23.525 37.882 23.552 37.89 23.579 37.9C23.736 37.959 23.903 37.995 24.079 37.997C24.085 37.997 24.091 37.999 24.097 37.999H24.098H24.1C24.106 37.999 24.112 37.997 24.118 37.997C24.294 37.995 24.462 37.959 24.618 37.9C24.646 37.89 24.672 37.882 24.699 37.871C24.85 37.804 24.986 37.711 25.106 37.601C25.124 37.585 25.148 37.579 25.165 37.562C25.176 37.551 25.178 37.537 25.189 37.526L35.76 26.955C36.343 26.372 36.343 25.417 35.76 24.834Z" fill="#0071B3"/>
</svg>
