<svg width="48" height="48" viewBox="0 0 48 48" fill="none" xmlns="http://www.w3.org/2000/svg">
<path fill-rule="evenodd" clip-rule="evenodd" d="M4 24C4 12.9543 12.9543 4 24 4C35.032 4.03295 43.9671 12.968 44 24C44 35.0457 35.0457 44 24 44C12.9543 44 4 35.0457 4 24ZM29.265 14.4583L19.725 23.9983L29.265 33.5383C29.848 34.1223 29.848 35.0763 29.265 35.6603C28.682 36.2433 27.727 36.2433 27.143 35.6603L16.572 25.0883C16.5666 25.0834 16.5606 25.0802 16.5547 25.0771C16.5483 25.0737 16.5421 25.0704 16.537 25.0653C16.244 24.7713 16.099 24.3853 16.1 23.9983C16.099 23.6123 16.244 23.2253 16.537 22.9323C16.5424 22.9263 16.549 22.9227 16.5556 22.9191C16.5613 22.916 16.5669 22.9129 16.572 22.9083L27.143 12.3373C27.727 11.7543 28.682 11.7543 29.265 12.3373C29.848 12.9203 29.848 13.8753 29.265 14.4583Z" fill="#0071B3"/>
</svg>
