<svg width="48" height="48" viewBox="0 0 48 48" fill="none" xmlns="http://www.w3.org/2000/svg">
<path fill-rule="evenodd" clip-rule="evenodd" d="M35.7599 21.0433L25.1889 10.4723C25.1789 10.4613 25.1759 10.4473 25.1649 10.4373C25.1479 10.4193 25.1239 10.4143 25.1059 10.3973C24.9859 10.2873 24.8499 10.1943 24.6989 10.1283C24.6719 10.1163 24.6459 10.1083 24.6189 10.0993C24.4619 10.0403 24.2949 10.0043 24.1179 10.0013C24.1129 10.0013 24.1069 10.0003 24.0999 10.0003H24.0989H24.0969C24.0909 10.0003 24.0849 10.0013 24.0789 10.0013C23.9029 10.0043 23.7359 10.0403 23.5789 10.0993C23.5519 10.1083 23.5259 10.1163 23.4989 10.1283C23.3479 10.1943 23.2119 10.2873 23.0919 10.3973C23.0729 10.4143 23.0499 10.4193 23.0319 10.4373C23.0219 10.4473 23.0189 10.4613 23.0089 10.4723L12.4379 21.0433C11.8539 21.6263 11.8539 22.5813 12.4379 23.1653C13.0209 23.7483 13.9749 23.7483 14.5589 23.1653L22.5989 15.1253V36.4993C22.5989 37.3243 23.2739 37.9993 24.0989 37.9993C24.9239 37.9993 25.5989 37.3243 25.5989 36.4993V15.1253L33.6389 23.1653C34.2219 23.7483 35.1769 23.7483 35.7599 23.1653C36.3429 22.5813 36.3429 21.6263 35.7599 21.0433Z" fill="#0071B3"/>
</svg>
