<svg width="48" height="48" viewBox="0 0 48 48" fill="none" xmlns="http://www.w3.org/2000/svg">
<path fill-rule="evenodd" clip-rule="evenodd" d="M29.9496 19.937L41.6166 31.604C42.2026 32.19 42.2026 33.14 41.6166 33.725C41.0306 34.311 40.0806 34.311 39.4946 33.725L27.8276 22.058L22.8156 27.071C22.2296 27.657 21.2796 27.657 20.6936 27.071L14.3306 20.707C14.2457 20.6221 14.191 20.5225 14.1361 20.4228C14.127 20.4062 14.1179 20.3896 14.1086 20.373C14.0952 20.3495 14.0782 20.3276 14.0613 20.3057C14.0379 20.2754 14.0145 20.2453 14.0006 20.211C13.7806 19.669 13.8906 19.025 14.3306 18.586V18.585L26.3506 6.56501C26.363 6.55314 26.3772 6.54534 26.3913 6.53754C26.4034 6.53088 26.4155 6.52422 26.4266 6.51501C26.436 6.5042 26.4427 6.49183 26.4495 6.47938C26.4572 6.46534 26.4649 6.4512 26.4766 6.43901C27.0626 5.85301 28.0116 5.85301 28.5976 6.43901L34.9616 12.804C35.5476 13.389 35.5476 14.339 34.9616 14.925C34.9498 14.9368 34.9357 14.9443 34.9217 14.9517C34.9095 14.9582 34.8973 14.9647 34.8866 14.974C34.8767 14.9853 34.8699 14.998 34.8632 15.0105C34.8556 15.0245 34.8482 15.0384 34.8366 15.05L29.9496 19.937ZM17.5116 19.646L21.7546 23.889L31.7796 13.864L27.5376 9.62101L17.5116 19.646Z" fill="#0071B3"/>
<path d="M9.50018 35.119H18.5002C19.3282 35.119 20.0002 34.448 20.0002 33.619C20.0002 32.79 19.3282 32.119 18.5002 32.119H9.50018C8.67118 32.119 8.00018 32.79 8.00018 33.619C8.00018 34.448 8.67118 35.119 9.50018 35.119Z" fill="#0071B3"/>
<path d="M21.5002 37.0101H6.50018C5.67118 37.0101 5.00018 37.6811 5.00018 38.5101C5.00018 39.3391 5.67118 40.0101 6.50018 40.0101H21.5002C22.3282 40.0101 23.0002 39.3391 23.0002 38.5101C23.0002 37.6811 22.3282 37.0101 21.5002 37.0101Z" fill="#0071B3"/>
</svg>
