<svg width="48" height="48" viewBox="0 0 48 48" fill="none" xmlns="http://www.w3.org/2000/svg">
<path d="M3 24C3 12.402 12.402 3 24 3C29.5695 3 34.911 5.21249 38.8492 9.15076C42.7875 13.089 45 18.4305 45 24C45 24.8517 44.9493 25.6915 44.8508 26.5166C44.0272 25.5612 43.067 24.7269 42.0006 24.044C42.0108 21.8631 41.6244 19.6594 40.8151 17.5408C38.1521 10.569 31.4631 5.96359 24 5.96359C16.5369 5.96359 9.84789 10.569 7.1849 17.5408C4.5219 24.5126 6.43734 32.4046 12 37.38V34.5C12.0016 34.3645 12.0218 34.23 12.06 34.1C12.56 30.11 16.37 27 21 27H24.7523C24.0405 27.9105 23.4474 28.9182 22.9963 30H21C20.6349 30.0022 20.2705 30.0323 19.91 30.09C17.12 30.52 15 32.55 15 35V39.56C17.7924 41.1904 20.9171 42.002 24.0404 41.9949C24.7239 43.0637 25.5595 44.0258 26.5166 44.8508C25.6915 44.9493 24.8517 45 24 45C12.402 45 3 35.598 3 24Z" fill="#0071B3"/>
<path fill-rule="evenodd" clip-rule="evenodd" d="M16 17C16 12.5817 19.5817 9 24 9C26.1217 9 28.1566 9.84285 29.6569 11.3431C31.1571 12.8434 32 14.8783 32 17C32 21.4183 28.4183 25 24 25C19.5817 25 16 21.4183 16 17ZM19 17C19 19.7614 21.2386 22 24 22C26.7614 22 29 19.7614 29 17C29 14.2386 26.7614 12 24 12C21.2386 12 19 14.2386 19 17Z" fill="#0071B3"/>
<path fill-rule="evenodd" clip-rule="evenodd" d="M35.0088 45.0088C40.5316 45.0088 45.0088 40.5316 45.0088 35.0088C45.0088 29.4859 40.5316 25.0088 35.0088 25.0088C29.4859 25.0088 25.0088 29.4859 25.0088 35.0088C25.0088 40.5316 29.4859 45.0088 35.0088 45.0088ZM39.0695 30.9481C39.6552 31.5339 39.6552 32.4837 39.0695 33.0695L37.1301 35.0088L39.0695 36.9481C39.6552 37.5339 39.6552 38.4837 39.0695 39.0695C38.4837 39.6552 37.5339 39.6552 36.9481 39.0695L35.0088 37.1301L33.0695 39.0695C32.4837 39.6552 31.5339 39.6552 30.9481 39.0695C30.3623 38.4837 30.3623 37.5339 30.9481 36.9481L32.8875 35.0088L30.9481 33.0695C30.3623 32.4837 30.3623 31.5339 30.9481 30.9481C31.5339 30.3623 32.4837 30.3623 33.0695 30.9481L35.0088 32.8875L36.9481 30.9481C37.5339 30.3623 38.4837 30.3623 39.0695 30.9481Z" fill="#0071B3"/>
</svg>
