<svg width="48" height="48" viewBox="0 0 48 48" fill="none" xmlns="http://www.w3.org/2000/svg">
<path d="M24 3C12.402 3 3 12.402 3 24C3 35.598 12.402 45 24 45C24.8517 45 25.6915 44.9493 26.5166 44.8508C25.5595 44.0258 24.7239 43.0637 24.0404 41.9949C20.9171 42.002 17.7924 41.1904 15 39.56V35C15 32.55 17.12 30.52 19.91 30.09C20.2705 30.0323 20.6349 30.0022 21 30H22.9963C23.4474 28.9182 24.0405 27.9105 24.7523 27H21C16.37 27 12.56 30.11 12.06 34.1C12.0218 34.23 12.0016 34.3645 12 34.5V37.38C6.43734 32.4046 4.5219 24.5126 7.1849 17.5408C9.84789 10.569 16.5369 5.96359 24 5.96359C31.4631 5.96359 38.1521 10.569 40.8151 17.5408C41.6244 19.6594 42.0108 21.8631 42.0006 24.044C43.067 24.7269 44.0272 25.5612 44.8508 26.5166C44.9493 25.6915 45 24.8517 45 24C45 18.4305 42.7875 13.089 38.8492 9.15076C34.911 5.21249 29.5695 3 24 3Z" fill="#0071B3"/>
<path fill-rule="evenodd" clip-rule="evenodd" d="M24 9C19.5817 9 16 12.5817 16 17C16 21.4183 19.5817 25 24 25C28.4183 25 32 21.4183 32 17C32 14.8783 31.1571 12.8434 29.6569 11.3431C28.1566 9.84285 26.1217 9 24 9ZM24 22C21.2386 22 19 19.7614 19 17C19 14.2386 21.2386 12 24 12C26.7614 12 29 14.2386 29 17C29 19.7614 26.7614 22 24 22Z" fill="#0071B3"/>
<path fill-rule="evenodd" clip-rule="evenodd" d="M45 35C45 40.5228 40.5228 45 35 45C29.4772 45 25 40.5228 25 35C25 29.4772 29.4772 25 35 25C40.5228 25 45 29.4772 45 35ZM39.1616 31.3975C39.7933 31.9334 39.8709 32.88 39.3349 33.5117L35.374 38.1799C34.4254 39.298 32.7226 39.3633 31.691 38.3212L30.1251 36.7393C29.5423 36.1506 29.5471 35.2009 30.1359 34.6181C30.7247 34.0353 31.6744 34.0401 32.2572 34.6288L33.4394 35.8231L37.0474 31.5708C37.5834 30.9391 38.5299 30.8615 39.1616 31.3975Z" fill="#0071B3"/>
</svg>
