<svg width="48" height="48" viewBox="0 0 48 48" fill="none" xmlns="http://www.w3.org/2000/svg">
<path fill-rule="evenodd" clip-rule="evenodd" d="M40 20L44 26V35.5C44 36.3284 43.3284 37 42.5 37H39V38.5C39 39.3284 38.3284 40 37.5 40C36.6716 40 36 39.3284 36 38.5V37H12V38.5C12 39.3284 11.3284 40 10.5 40C9.67157 40 9 39.3284 9 38.5V37H5.5C4.67157 37 4 36.3284 4 35.5V26L8 20V9.5C8 8.67157 8.67157 8 9.5 8H38.5C39.3284 8 40 8.67157 40 9.5V20ZM37 11H11V17H17V15.5C17 14.6716 17.6716 14 18.5 14H29.5C30.3284 14 31 14.6716 31 15.5V17H37V11ZM11 20L7 26H41L37 20H31V21.5C31 22.3284 30.3284 23 29.5 23H18.5C17.6716 23 17 22.3284 17 21.5V20H11ZM7 34V29H41V34H7ZM20 17V20H28V17H20Z" fill="#0071B3"/>
</svg>
