<svg width="48" height="48" viewBox="0 0 48 48" fill="none" xmlns="http://www.w3.org/2000/svg">
<path fill-rule="evenodd" clip-rule="evenodd" d="M34.62 21.33C35.395 21.1141 36.1955 21.0031 37 21C41.4277 20.9254 45.2517 24.0826 46.0165 28.4444C46.7813 32.8061 44.2595 37.076 40.0706 38.5122C35.8818 39.9484 31.2705 38.1241 29.1981 34.2107C27.1257 30.2973 28.208 25.4578 31.75 22.8L30.14 19.35L24.77 30.86L24.7 30.98C24.6585 31.047 24.6117 31.1105 24.56 31.17L24.39 31.33H24.34L24.15 31.45L23.96 31.52H19.86C19.2367 35.1784 16.4318 38.0791 12.7964 38.8249C9.16105 39.5706 5.44064 38.0085 3.42737 34.891C1.41409 31.7734 1.52079 27.7398 3.69607 24.7331C5.87135 21.7263 9.66914 20.3631 13.26 21.3L15.88 15.73C16.0712 15.3187 16.4393 15.0169 16.88 14.91H28.32L27.16 12.42H24C23.1716 12.42 22.5 11.7484 22.5 10.92C22.5 10.0916 23.1716 9.42 24 9.42H28C28.6331 9.38205 29.2217 9.74639 29.47 10.33L34.62 21.33ZM19.56 17.91L23.56 26.47L27.56 17.91H19.56ZM21.2 28.51L17.2 19.94L16 22.51C18.0621 23.8909 19.4624 26.062 19.87 28.51H21.2ZM13.2 28.51H16.81C16.4795 27.234 15.7379 26.1024 14.7 25.29L13.2 28.51ZM5.66484 32.6985C6.68035 34.7152 8.74208 35.9911 11 36C13.7325 35.9957 16.1169 34.1457 16.8 31.5H10.65C10.5014 31.482 10.3565 31.4415 10.22 31.38C9.85698 31.2127 9.57572 30.9075 9.43867 30.532C9.30161 30.1565 9.3201 29.7418 9.49002 29.38L12 24.08C9.77215 23.7126 7.52667 24.6271 6.18935 26.4464C4.85203 28.2657 4.64934 30.6818 5.66484 32.6985ZM31.358 32.0244C32.212 34.4069 34.4691 35.9974 37 36C39.2749 36.0003 41.3543 34.7141 42.3699 32.6785C43.3854 30.6429 43.1624 28.208 41.7939 26.3907C40.4255 24.5735 38.147 23.6864 35.91 24.1L38.34 29.32C38.5669 29.8059 38.5173 30.3759 38.2099 30.8153C37.9026 31.2547 37.3842 31.4968 36.8499 31.4503C36.3157 31.4038 35.8469 31.0759 35.62 30.59L33.19 25.37C31.237 26.9797 30.5041 29.6419 31.358 32.0244Z" fill="#0071B3"/>
<path d="M17.88 12.42H13.88C13.0516 12.42 12.38 11.7484 12.38 10.92C12.38 10.0916 13.0516 9.42 13.88 9.42H17.88C18.7085 9.42 19.38 10.0916 19.38 10.92C19.38 11.7484 18.7085 12.42 17.88 12.42Z" fill="#0071B3"/>
</svg>
