<svg width="48" height="48" viewBox="0 0 48 48" fill="none" xmlns="http://www.w3.org/2000/svg">
<path d="M10.5 44C9.67157 44 9 43.3284 9 42.5V5.5C9 4.67157 9.67157 4 10.5 4H27.3787C27.7765 4 28.158 4.15804 28.4393 4.43934L38.5607 14.5607C38.842 14.842 39 15.2235 39 15.6213V26.5C39 27.3284 38.3284 28 37.5 28C36.6716 28 36 27.3284 36 26.5V16L27 7H12V41H19.2C20.0284 41 20.7 41.6716 20.7 42.5C20.7 43.3284 20.0284 44 19.2 44H10.5Z" fill="#0071B3"/>
<path d="M31.5 22.5H16.5C15.6716 22.5 15 21.8284 15 21C15 20.1716 15.6716 19.5 16.5 19.5H31.5C32.3284 19.5 33 20.1716 33 21C33 21.8284 32.3284 22.5 31.5 22.5Z" fill="#0071B3"/>
<path d="M16.5 26.5H31.5C32.3284 26.5 33 27.1716 33 28C33 28.8284 32.3284 29.5 31.5 29.5H16.5C15.6716 29.5 15 28.8284 15 28C15 27.1716 15.6716 26.5 16.5 26.5Z" fill="#0071B3"/>
<path d="M21.4393 36.4393C22.0251 35.8536 22.9749 35.8536 23.5607 36.4393L27.5 40.3787L36.4393 31.4393C37.0251 30.8536 37.9749 30.8536 38.5607 31.4393C39.1464 32.0251 39.1464 32.9749 38.5607 33.5607L28.5607 43.5607C27.9749 44.1464 27.0251 44.1464 26.4393 43.5607L21.4393 38.5607C20.8536 37.9749 20.8536 37.0251 21.4393 36.4393Z" fill="#0071B3"/>
</svg>
