<svg width="48" height="48" viewBox="0 0 48 48" fill="none" xmlns="http://www.w3.org/2000/svg">
<path fill-rule="evenodd" clip-rule="evenodd" d="M42.0001 10.51C42.0027 10.1104 41.8459 9.72634 41.5643 9.44287C41.2827 9.1594 40.8996 8.99999 40.5001 9H23.5001C22.8961 8.99865 22.3511 9.362 22.1201 9.92C22.0392 10.1026 21.9982 10.3003 22.0001 10.5V18H15.0001C14.3969 18.0013 13.8533 18.3638 13.6201 18.92C13.5392 19.1026 13.4982 19.3003 13.5001 19.5V27H6.50006C5.89693 27.0013 5.35327 27.3638 5.12006 27.92C5.03915 28.1026 4.99824 28.3003 5.00006 28.5V37.5C5.00006 38.3284 5.67163 39 6.50006 39H40.5001C41.3285 39 42.0001 38.3284 42.0001 37.5V10.51ZM8.00006 30H22.0001V36H8.00006V30ZM39.0001 21V27H33.5001V21H39.0001ZM30.5001 21V27H16.5001V21H30.5001ZM25.0201 30H39.0201V36H25.0201V30ZM25.0201 12H39.0201V18H25.0201V12Z" fill="#0071B3"/>
</svg>
