<svg width="48" height="48" viewBox="0 0 48 48" fill="none" xmlns="http://www.w3.org/2000/svg">
<path d="M25.5 10C25.5 9.17157 24.8284 8.5 24 8.5C19.8579 8.5 16.5 11.8579 16.5 16C16.5 16.8284 17.1716 17.5 18 17.5C18.8284 17.5 19.5 16.8284 19.5 16C19.5 13.5147 21.5147 11.5 24 11.5C24.8284 11.5 25.5 10.8284 25.5 10Z" fill="#0071B3"/>
<path fill-rule="evenodd" clip-rule="evenodd" d="M18.4297 34.1984C19.6859 34.7328 22.2094 35 24 35C25.7907 35 28.3141 34.7328 29.5704 34.1984C29.8413 34.0831 30.0724 33.8906 30.2347 33.6449C34.6399 26.9773 36.2846 22.9551 36.8476 21.5785C36.8814 21.4957 36.9114 21.4225 36.9378 21.3588C37.6222 19.7082 38 17.8982 38 16C38 8.26801 31.732 2 24 2C16.268 2 10 8.26801 10 16C10 17.8982 10.3778 19.7082 11.0622 21.3588C11.0886 21.4224 11.1185 21.4956 11.1523 21.5783C11.7153 22.9549 13.3601 26.9773 17.7653 33.645C17.9276 33.8906 18.1587 34.0831 18.4297 34.1984ZM35 16C35 17.4668 34.7144 18.8885 34.1666 20.2097C34.144 20.2641 34.1165 20.332 34.0836 20.4132C33.6129 21.5758 32.0383 25.4648 27.9975 31.5886C27.1993 31.8563 25.2018 32 24 32C22.7983 32 20.8008 31.8563 20.0025 31.5886C15.9617 25.4648 14.3871 21.5758 13.9164 20.4132C13.8835 20.332 13.856 20.2641 13.8334 20.2097C13.2856 18.8885 13 17.4668 13 16C13 9.92487 17.9249 5 24 5C30.0751 5 35 9.92487 35 16Z" fill="#0071B3"/>
<path d="M22.6129 41.9474C21.7544 41.8781 20.63 43.0706 20.9249 43.8798C20.9743 44.015 21.0549 44.1365 21.1732 44.2186C21.5382 44.4722 22.4805 45 24 45C25.5195 45 26.4618 44.4722 26.8268 44.2186C26.9451 44.1365 27.0257 44.015 27.0751 43.8798C27.37 43.0706 26.2456 41.8781 25.3871 41.9474C24.9815 41.9802 24.5209 42 24 42C23.4791 42 23.0185 41.9802 22.6129 41.9474Z" fill="#0071B3"/>
<path d="M18.8517 38.5631C18.6842 37.5568 19.5988 36.6768 20.6107 36.8058C21.5498 36.9256 22.7301 37.0294 24 37.0294C25.2713 37.0294 26.4528 36.9261 27.3923 36.807C28.4033 36.6788 29.3159 37.5583 29.1484 38.5635C29.0577 39.1075 28.6624 39.5488 28.1209 39.6532C27.2588 39.8195 25.8118 40.0294 24 40.0294C22.1885 40.0294 20.7416 39.8196 19.8795 39.6533C19.3378 39.5488 18.9423 39.1073 18.8517 38.5631Z" fill="#0071B3"/>
</svg>
