<svg width="48" height="48" viewBox="0 0 48 48" fill="none" xmlns="http://www.w3.org/2000/svg">
<path d="M12 33C12 31.8954 12.8954 31 14 31C15.1046 31 16 31.8954 16 33C16 34.1046 15.1046 35 14 35C12.8954 35 12 34.1046 12 33Z" fill="#0071B3"/>
<path d="M34 31C32.8954 31 32 31.8954 32 33C32 34.1046 32.8954 35 34 35C35.1046 35 36 34.1046 36 33C36 31.8954 35.1046 31 34 31Z" fill="#0071B3"/>
<path d="M20.5 31.5H27.5C28.3284 31.5 29 32.1716 29 33C29 33.8284 28.3284 34.5 27.5 34.5H20.5C19.6716 34.5 19 33.8284 19 33C19 32.1716 19.6716 31.5 20.5 31.5Z" fill="#0071B3"/>
<path fill-rule="evenodd" clip-rule="evenodd" d="M36 3H12C9.23858 3 7 5.23858 7 8V36C7 37.5738 7.74097 39.0557 9 40V44.5C9 45.3284 9.67157 46 10.5 46H13.5C14.3284 46 15 45.3284 15 44.5V41H33V44.5C33 45.3284 33.6716 46 34.5 46H37.5C38.3284 46 39 45.3284 39 44.5V40C40.259 39.0557 41 37.5738 41 36V8C41 6.67392 40.4732 5.40215 39.5355 4.46447C38.5979 3.52678 37.3261 3 36 3ZM10 25V8C10 6.89543 10.8954 6 12 6H36C37.1046 6 38 6.89543 38 8V25H10ZM12 38C10.8954 38 10 37.1046 10 36V28H38V36C38 37.1046 37.1046 38 36 38H12Z" fill="#0071B3"/>
<path d="M4.5 7C3.67157 7 3 7.67157 3 8.5V15.5C3 16.3284 3.67157 17 4.5 17C5.32843 17 6 16.3284 6 15.5V8.5C6 7.67157 5.32843 7 4.5 7Z" fill="#0071B3"/>
<path d="M42 8.5C42 7.67157 42.6716 7 43.5 7C44.3284 7 45 7.67157 45 8.5V15.5C45 16.3284 44.3284 17 43.5 17C42.6716 17 42 16.3284 42 15.5V8.5Z" fill="#0071B3"/>
</svg>
