<svg width="48" height="48" viewBox="0 0 48 48" fill="none" xmlns="http://www.w3.org/2000/svg">
<path d="M18 22C18 23.1046 17.1046 24 16 24C14.8954 24 14 23.1046 14 22C14 20.8954 14.8954 20 16 20C17.1046 20 18 20.8954 18 22Z" fill="#0071B3"/>
<path d="M24 24C25.1046 24 26 23.1046 26 22C26 20.8954 25.1046 20 24 20C22.8954 20 22 20.8954 22 22C22 23.1046 22.8954 24 24 24Z" fill="#0071B3"/>
<path d="M34 22C34 23.1046 33.1046 24 32 24C30.8954 24 30 23.1046 30 22C30 20.8954 30.8954 20 32 20C33.1046 20 34 20.8954 34 22Z" fill="#0071B3"/>
<path d="M16 31C17.1046 31 18 30.1046 18 29C18 27.8954 17.1046 27 16 27C14.8954 27 14 27.8954 14 29C14 30.1046 14.8954 31 16 31Z" fill="#0071B3"/>
<path d="M26 29C26 30.1046 25.1046 31 24 31C22.8954 31 22 30.1046 22 29C22 27.8954 22.8954 27 24 27C25.1046 27 26 27.8954 26 29Z" fill="#0071B3"/>
<path d="M32 31C33.1046 31 34 30.1046 34 29C34 27.8954 33.1046 27 32 27C30.8954 27 30 27.8954 30 29C30 30.1046 30.8954 31 32 31Z" fill="#0071B3"/>
<path d="M18 36C18 37.1046 17.1046 38 16 38C14.8954 38 14 37.1046 14 36C14 34.8954 14.8954 34 16 34C17.1046 34 18 34.8954 18 36Z" fill="#0071B3"/>
<path d="M24 38C25.1046 38 26 37.1046 26 36C26 34.8954 25.1046 34 24 34C22.8954 34 22 34.8954 22 36C22 37.1046 22.8954 38 24 38Z" fill="#0071B3"/>
<path d="M34 36C34 37.1046 33.1046 38 32 38C30.8954 38 30 37.1046 30 36C30 34.8954 30.8954 34 32 34C33.1046 34 34 34.8954 34 36Z" fill="#0071B3"/>
<path d="M15.5 10C14.6716 10 14 10.6716 14 11.5V14.5C14 15.3284 14.6716 16 15.5 16H32.5C33.3284 16 34 15.3284 34 14.5V11.5C34 10.6716 33.3284 10 32.5 10H15.5Z" fill="#0071B3"/>
<path fill-rule="evenodd" clip-rule="evenodd" d="M9.5 4H38.5C39.3284 4 40 4.67157 40 5.5V42.5C40 43.3284 39.3284 44 38.5 44H9.5C8.67157 44 8 43.3284 8 42.5V5.5C8 4.67157 8.67157 4 9.5 4ZM37 7H11V41H37V7Z" fill="#0071B3"/>
</svg>
