<svg width="48" height="48" viewBox="0 0 48 48" fill="none" xmlns="http://www.w3.org/2000/svg">
<path d="M18 23C18 24.1046 17.1046 25 16 25C14.8954 25 14 24.1046 14 23C14 21.8954 14.8954 21 16 21C17.1046 21 18 21.8954 18 23Z" fill="#0071B3"/>
<path d="M16 33C17.1046 33 18 32.1046 18 31C18 29.8954 17.1046 29 16 29C14.8954 29 14 29.8954 14 31C14 32.1046 14.8954 33 16 33Z" fill="#0071B3"/>
<path d="M26.01 23C26.01 24.1046 25.1146 25 24.01 25C22.9054 25 22.01 24.1046 22.01 23C22.01 21.8954 22.9054 21 24.01 21C25.1146 21 26.01 21.8954 26.01 23Z" fill="#0071B3"/>
<path d="M24.01 33C25.1146 33 26.01 32.1046 26.01 31C26.01 29.8954 25.1146 29 24.01 29C22.9054 29 22.01 29.8954 22.01 31C22.01 32.1046 22.9054 33 24.01 33Z" fill="#0071B3"/>
<path d="M34 23C34 24.1046 33.1046 25 32 25C30.8954 25 30 24.1046 30 23C30 21.8954 30.8954 21 32 21C33.1046 21 34 21.8954 34 23Z" fill="#0071B3"/>
<path d="M32 33C33.1046 33 34 32.1046 34 31C34 29.8954 33.1046 29 32 29C30.8954 29 30 29.8954 30 31C30 32.1046 30.8954 33 32 33Z" fill="#0071B3"/>
<path fill-rule="evenodd" clip-rule="evenodd" d="M42 12.5V38.5C42 39.3284 41.3284 40 40.5 40H7.5C6.67157 40 6 39.3284 6 38.5V12.5C6 11.6716 6.67157 11 7.5 11H14.5V9.5C14.5 8.67157 15.1716 8 16 8C16.8284 8 17.5 8.67157 17.5 9.5V11H30.5V9.5C30.5 8.67157 31.1716 8 32 8C32.8284 8 33.5 8.67157 33.5 9.5V11H40.5C41.3284 11 42 11.6716 42 12.5ZM17.5 15.5C17.5 16.3284 16.8284 17 16 17C15.1716 17 14.5 16.3284 14.5 15.5V14H9V37H39V14H33.5V15.5C33.5 16.3284 32.8284 17 32 17C31.1716 17 30.5 16.3284 30.5 15.5V14H17.5V15.5Z" fill="#0071B3"/>
</svg>
