<svg width="48" height="48" viewBox="0 0 48 48" fill="none" xmlns="http://www.w3.org/2000/svg">
<path fill-rule="evenodd" clip-rule="evenodd" d="M15.0002 25.0005C15.0002 20.0295 19.0292 16.0005 24.0002 16.0005C28.9712 16.0005 33.0002 20.0295 33.0002 25.0005C33.0002 29.9705 28.9712 34.0005 24.0002 34.0005C19.0292 34.0005 15.0002 29.9705 15.0002 25.0005ZM18.0002 25.0005C18.0002 28.3085 20.6912 31.0005 24.0002 31.0005C27.3092 31.0005 30.0002 28.3085 30.0002 25.0005C30.0002 21.6915 27.3092 19.0005 24.0002 19.0005C20.6912 19.0005 18.0002 21.6915 18.0002 25.0005Z" fill="#0071B3"/>
<path fill-rule="evenodd" clip-rule="evenodd" d="M39.3135 10.592C40.2095 11.063 40.9365 11.791 41.4085 12.687C41.7735 13.381 42.0005 14.161 42.0005 15V36C42.0005 36.84 41.7735 37.619 41.4075 38.313C40.9365 39.209 40.2095 39.937 39.3135 40.408C38.6185 40.773 37.8395 41 37.0005 41H11.0005C10.1605 41 9.38149 40.773 8.68649 40.408C7.79149 39.937 7.06349 39.209 6.59149 38.313C6.22649 37.619 6.00049 36.84 6.00049 36V15C6.00049 14.161 6.22649 13.381 6.59149 12.687C7.06349 11.791 7.79149 11.063 8.68649 10.592C9.38149 10.227 10.1605 10 11.0005 10H15.8995L18.4605 7.439C18.7535 7.146 19.1365 7 19.5205 7H28.4805C28.8645 7 29.2485 7.146 29.5415 7.439L29.6525 7.551L32.1015 10H37.0005C37.8395 10 38.6185 10.227 39.3135 10.592ZM37.0005 38C38.1035 38 39.0005 37.103 39.0005 36V15C39.0005 13.897 38.1035 13 37.0005 13H31.5005C31.0775 13 30.6965 12.823 30.4235 12.541C30.4137 12.5322 30.4025 12.5261 30.3912 12.5201C30.3782 12.5132 30.3652 12.5062 30.3545 12.495L27.8595 10H20.1425L17.6475 12.495C17.6362 12.5063 17.6226 12.5135 17.609 12.5208C17.5973 12.527 17.5857 12.5332 17.5755 12.542C17.3025 12.824 16.9225 13 16.5005 13H11.0005C9.89749 13 9.00049 13.897 9.00049 15V36C9.00049 37.103 9.89749 38 11.0005 38H37.0005Z" fill="#0071B3"/>
</svg>
