<svg width="48" height="48" viewBox="0 0 48 48" fill="none" xmlns="http://www.w3.org/2000/svg">
<path d="M18 27C18 27.8284 18.6716 28.5 19.5 28.5H28.5C29.3284 28.5 30 27.8284 30 27C30 26.1716 29.3284 25.5 28.5 25.5H19.5C18.6716 25.5 18 26.1716 18 27Z" fill="#0071B3"/>
<path d="M12 29.5C13.3807 29.5 14.5 28.3807 14.5 27C14.5 25.6193 13.3807 24.5 12 24.5C10.6193 24.5 9.5 25.6193 9.5 27C9.5 28.3807 10.6193 29.5 12 29.5Z" fill="#0071B3"/>
<path d="M38.46 27C38.46 28.3807 37.3407 29.5 35.96 29.5C34.5793 29.5 33.46 28.3807 33.46 27C33.46 25.6193 34.5793 24.5 35.96 24.5C37.3407 24.5 38.46 25.6193 38.46 27Z" fill="#0071B3"/>
<path fill-rule="evenodd" clip-rule="evenodd" d="M38.38 11.29C39.9455 13.464 41.0513 15.9343 41.63 18.55C41.6825 18.8139 41.7286 19.0788 41.7683 19.3447C43.2473 19.2654 44.6925 19.1769 46.1 19.08C46.9284 19.0993 47.5843 19.7866 47.565 20.615C47.5457 21.4434 46.8584 22.0993 46.03 22.08L43.69 22.22C43.7433 22.6533 43.7867 23.09 43.82 23.53C43.93 24.33 43.93 25.13 43.93 25.95V26.53C43.8888 28.8583 43.5767 31.1739 43 33.43V39.5C43 40.3284 42.3284 41 41.5 41H38.5C37.6716 41 37 40.3284 37 39.5V36.79H35.96L32.69 36.89C29.87 36.9633 26.9733 37 24 37C21.0267 37 18.13 36.9533 15.31 36.86L12 36.76H11V39.5C11 40.3284 10.3284 41 9.5 41H6.5C6.10044 41.0027 5.71634 40.8458 5.43287 40.5642C5.1494 40.2826 4.98999 39.8996 4.99 39.5V33.69L4.93 33.48C4.35325 31.2239 4.04115 28.9083 4 26.58V26C4 25.18 4 24.38 4.11 23.59C4.14333 23.1633 4.18667 22.74 4.24 22.32L1.9 22.18C1.07157 22.1248 0.444771 21.4084 0.499999 20.58C0.555228 19.7516 1.27157 19.1248 2.1 19.18L4.77 19.33L6.2082 19.4131C6.25405 19.1141 6.308 18.8163 6.37 18.52C6.94869 15.9043 8.05454 13.434 9.62 11.26C9.91 10.84 10.23 10.42 10.56 10C11.3048 8.82353 12.6078 8.11901 14 8.14L16.66 8.08C19.0533 8.02667 21.5 8 24 8C26.5 8 28.9633 8.02333 31.39 8.07L34.08 8.14C35.4497 8.15313 36.7175 8.86624 37.44 10.03C37.77 10.44 38.08 10.87 38.38 11.29ZM9.2315 19.5601C9.2846 19.2616 9.34745 18.9648 9.42 18.67C9.77268 17.3061 10.3039 15.9948 11 14.77C11.6182 13.6592 12.338 12.6081 13.15 11.63L13.36 11.38C13.5332 11.2316 13.752 11.1469 13.98 11.14L17.81 11.06C18.7919 11.06 19.7883 11.0455 20.8027 11.0308C21.8545 11.0155 22.9256 11 24.02 11C26.17 11 28.23 11 30.24 11.06L34.07 11.14C34.298 11.1469 34.5168 11.2316 34.69 11.38L34.9 11.63C35.6947 12.6101 36.3976 13.6612 37 14.77C37.6881 16.0057 38.2093 17.3272 38.55 18.7C38.6147 18.9627 38.6716 19.2271 38.7208 19.4928C34.0452 19.6971 29.0746 19.81 23.92 19.81L20.33 19.85H19.82C17.5 19.85 15.2267 19.8 13 19.7C11.7235 19.6599 10.4668 19.6133 9.2315 19.5601ZM40.8167 23.0233C40.7877 22.8268 40.76 22.6384 40.76 22.45L38.96 22.52C34.0467 22.7467 28.9567 22.86 23.69 22.86C18.6433 22.8533 13.76 22.75 9.04 22.55L7.24 22.48C7.228 22.573 7.2133 22.666 7.1986 22.759C7.1643 22.976 7.13 23.193 7.13 23.41C7 24.26 7 25.13 7 26V26.41C7.02313 27.7777 7.15017 29.1416 7.38 30.49C7.39091 30.5518 7.40711 30.6136 7.42331 30.6755C7.45165 30.7836 7.48 30.8918 7.48 31C7.65504 31.9245 7.87869 32.8391 8.15 33.74H9L11 33.82H12.65C16.18 33.93 20 34 24 34C28 34 31.82 33.93 35.39 33.8H36L37.05 33.76L39.05 33.68H39.9C40.1545 32.8112 40.3648 31.9301 40.53 31.04C40.5409 30.9782 40.5571 30.9164 40.5733 30.8545C40.6017 30.7464 40.63 30.6382 40.63 30.53C40.8565 29.1813 40.9802 27.8174 41 26.45V26.04C41 25.17 40.95 24.3 40.87 23.45C40.8577 23.302 40.8369 23.1606 40.8167 23.0233Z" fill="#0071B3"/>
</svg>
