<svg width="48" height="48" viewBox="0 0 48 48" fill="none" xmlns="http://www.w3.org/2000/svg">
<path d="M32 27.1C33.974 25.4557 35.3935 23.2432 36.0652 20.7634C36.7369 18.2837 36.6282 15.6572 35.7539 13.2414C34.8796 10.8256 33.2822 8.73791 31.179 7.26242C29.0758 5.78692 26.5691 4.9953 24 4.9953C21.4309 4.9953 18.9242 5.78692 16.821 7.26242C14.7178 8.73791 13.1204 10.8256 12.2461 13.2414C11.3718 15.6572 11.2631 18.2837 11.9348 20.7634C12.6065 23.2432 14.026 25.4557 16 27.1V41.5C16.0015 41.6886 16.0388 41.8753 16.11 42.05C16.1849 42.2345 16.2961 42.4022 16.437 42.543C16.5778 42.6839 16.7455 42.7951 16.93 42.87C17.2797 43.0107 17.6703 43.0107 18.02 42.87C18.2037 42.7938 18.3703 42.6816 18.51 42.54L24 37.12L29.44 42.56C29.5797 42.7016 29.7463 42.8138 29.93 42.89C30.2797 43.0307 30.6703 43.0307 31.02 42.89C31.2046 42.8151 31.3722 42.7039 31.5131 42.563C31.6539 42.4222 31.7651 42.2545 31.84 42.07C31.9309 41.8926 31.9853 41.6988 32 41.5V27.1ZM14.5 17.5C14.5 15.6211 15.0572 13.7843 16.101 12.2221C17.1449 10.6598 18.6286 9.44216 20.3645 8.72313C22.1004 8.0041 24.0105 7.81597 25.8534 8.18253C27.6962 8.54909 29.3889 9.45387 30.7175 10.7825C32.0461 12.1111 32.9509 13.8038 33.3175 15.6466C33.684 17.4894 33.4959 19.3996 32.7769 21.1355C32.0578 22.8714 30.8402 24.3551 29.2779 25.3989C27.7157 26.4428 25.8789 27 24 27C21.4813 26.9973 19.0664 25.9956 17.2854 24.2146C15.5044 22.4336 14.5026 20.0187 14.5 17.5ZM24 32.88L21.88 35L19 37.88V29C20.5765 29.6906 22.2789 30.0472 24 30.0472C25.7211 30.0472 27.4235 29.6906 29 29V37.93L26.12 35L24 32.88Z" fill="#0071B3"/>
</svg>
