<svg width="48" height="48" viewBox="0 0 48 48" fill="none" xmlns="http://www.w3.org/2000/svg">
<path d="M12.53 6.49001C13.1179 5.91056 14.0621 5.91056 14.65 6.49001C15.2217 7.05383 15.2438 7.96925 14.7 8.56001L9.69999 13.56C9.41846 13.8468 9.03181 14.0058 8.62999 14C8.22862 14.0035 7.84283 13.8448 7.55999 13.56L5.43999 11.44C5.15662 11.1601 4.99713 10.7783 4.99713 10.38C4.99713 9.98169 5.15662 9.59995 5.43999 9.32001C5.71993 9.03664 6.10167 8.87715 6.49999 8.87715C6.89832 8.87715 7.28006 9.03664 7.55999 9.32001L8.62999 10.39L12.53 6.49001Z" fill="#0071B3"/>
<path d="M41.67 9.50001H20.33C19.5491 9.54827 18.9544 10.219 19 11C18.9544 11.781 19.5491 12.4518 20.33 12.5H41.67C42.4508 12.4518 43.0456 11.781 43 11C43.0456 10.219 42.4508 9.54827 41.67 9.50001Z" fill="#0071B3"/>
<path d="M12.53 19.49C13.1179 18.9106 14.0621 18.9106 14.65 19.49C14.9401 19.7632 15.1086 20.1412 15.118 20.5396C15.1274 20.9379 14.9769 21.3234 14.7 21.61L9.69999 26.56C9.41846 26.8468 9.03181 27.0058 8.62999 27C8.22862 27.0035 7.84283 26.8448 7.55999 26.56L5.43999 24.44C5.15662 24.1601 4.99713 23.7783 4.99713 23.38C4.99713 22.9817 5.15662 22.5999 5.43999 22.32C5.71993 22.0366 6.10167 21.8772 6.49999 21.8772C6.89832 21.8772 7.28006 22.0366 7.55999 22.32L8.62999 23.39L12.53 19.49Z" fill="#0071B3"/>
<path d="M20.33 22.5H41.67C42.4508 22.5483 43.0456 23.219 43 24C43.0456 24.781 42.4508 25.4518 41.67 25.5H20.33C19.5491 25.4518 18.9544 24.781 19 24C18.9544 23.219 19.5491 22.5483 20.33 22.5Z" fill="#0071B3"/>
<path d="M41.67 35.5H20.33C19.5491 35.5483 18.9544 36.219 19 37C18.9544 37.781 19.5491 38.4518 20.33 38.5H41.67C42.4508 38.4518 43.0456 37.781 43 37C43.0456 36.219 42.4508 35.5483 41.67 35.5Z" fill="#0071B3"/>
<path d="M12.53 32.49C13.1179 31.9106 14.0621 31.9106 14.65 32.49C15.2217 33.0538 15.2438 33.9693 14.7 34.56L9.69999 39.56C9.41846 39.8468 9.03181 40.0058 8.62999 40C8.22862 40.0035 7.84283 39.8448 7.55999 39.56L5.43999 37.44C5.15662 37.1601 4.99713 36.7783 4.99713 36.38C4.99713 35.9817 5.15662 35.5999 5.43999 35.32C5.71993 35.0366 6.10167 34.8772 6.49999 34.8772C6.89832 34.8772 7.28006 35.0366 7.55999 35.32L8.62999 36.39L12.53 32.49Z" fill="#0071B3"/>
</svg>
