<svg width="48" height="48" viewBox="0 0 48 48" fill="none" xmlns="http://www.w3.org/2000/svg">
<path d="M43 32.89L21 12.89C20.7847 12.6974 20.5184 12.5711 20.233 12.5262C19.9476 12.4813 19.6553 12.5198 19.3913 12.6371C19.1273 12.7543 18.9027 12.9453 18.7446 13.1871C18.5865 13.4288 18.5016 13.7111 18.5 14V44C18.5004 44.251 18.5638 44.4978 18.6844 44.718C18.8049 44.9381 18.9788 45.1245 19.19 45.26C19.4307 45.4175 19.7124 45.501 20 45.5C20.2136 45.5013 20.425 45.457 20.62 45.37L27.54 42.22L29.38 46.29C29.4597 46.4724 29.5755 46.6369 29.7202 46.7736C29.865 46.9103 30.0359 47.0163 30.2226 47.0854C30.4093 47.1545 30.6081 47.1852 30.807 47.1757C31.0058 47.1662 31.2007 47.1166 31.38 47.03L36.85 44.56C37.2129 44.3923 37.4952 44.0883 37.6355 43.7139C37.7759 43.3396 37.7632 42.925 37.6 42.56L35.73 38.5L42.62 35.37C42.8446 35.2648 43.0398 35.1058 43.1883 34.9072C43.3369 34.7087 43.4343 34.4765 43.4718 34.2314C43.5094 33.9863 43.486 33.7356 43.4037 33.5017C43.3214 33.2677 43.1828 33.0577 43 32.89ZM34.48 35.77L31.76 37L34.22 42.44L31.49 43.68L30.27 41L29 38.25L26.3 39.49L21.5 41.67V17.41L39.3 33.58L34.48 35.77Z" fill="#0071B3"/>
<path d="M21 2.25C17.7357 2.26009 14.5775 3.41055 12.0716 5.50245C9.56564 7.59434 7.86946 10.4962 7.27634 13.7061C6.68322 16.9161 7.23044 20.2325 8.82339 23.0817C10.4163 25.931 12.9549 28.1341 16 29.31V26C14.2085 25.0732 12.7063 23.6716 11.6577 21.9485C10.6091 20.2253 10.0544 18.2471 10.0544 16.23C10.0544 14.2129 10.6091 12.2346 11.6577 10.5115C12.7063 8.78844 14.2085 7.38684 16 6.46C16.36 6.28 16.73 6.12 17.12 5.97C18.3586 5.49528 19.6736 5.25126 21 5.25C22.6899 5.25208 24.3566 5.64349 25.8707 6.39384C27.3849 7.14419 28.7058 8.23331 29.731 9.57669C30.7562 10.9201 31.4581 12.4816 31.7822 14.1401C32.1063 15.7986 32.044 17.5095 31.6 19.14L34 21.35C34.829 19.2308 35.1289 16.9414 34.8737 14.6801C34.6186 12.4188 33.816 10.2539 32.5356 8.37264C31.2552 6.49142 29.5355 4.95067 27.5255 3.88382C25.5154 2.81697 23.2756 2.25618 21 2.25Z" fill="#0071B3"/>
</svg>
