<svg width="48" height="48" viewBox="0 0 48 48" fill="none" xmlns="http://www.w3.org/2000/svg">
<path d="M25 25L32.24 29.19C32.587 29.3868 32.8406 29.7146 32.944 30.0999C33.0473 30.4852 32.9919 30.8959 32.79 31.24C32.3683 31.9609 31.4439 32.2065 30.72 31.79L22.72 27.23C22.347 27.0162 22.0845 26.6516 22 26.23V26.17C21.995 26.1001 21.995 26.0299 22 25.96V13.5C22 12.6716 22.6716 12 23.5 12C24.3284 12 25 12.6716 25 13.5V25Z" fill="#0071B3"/>
<path fill-rule="evenodd" clip-rule="evenodd" d="M24 4C12.9543 4 4 12.9543 4 24C4 35.0457 12.9543 44 24 44C35.0457 44 44 35.0457 44 24C44 18.6957 41.8929 13.6086 38.1421 9.85786C34.3914 6.10714 29.3043 4 24 4ZM24 41C14.6112 41 7 33.3888 7 24C7 14.6112 14.6112 7 24 7C33.3888 7 41 14.6112 41 24C41 28.5087 39.2089 32.8327 36.0208 36.0208C32.8327 39.2089 28.5087 41 24 41Z" fill="#0071B3"/>
</svg>
