<svg width="48" height="48" viewBox="0 0 48 48" fill="none" xmlns="http://www.w3.org/2000/svg">
<path d="M24 4C20.0444 4 16.1776 5.17298 12.8886 7.37061C9.59962 9.56824 7.03617 12.6918 5.52242 16.3463C4.00867 20.0009 3.6126 24.0222 4.3843 27.9018C5.15601 31.7814 7.06082 35.3451 9.85787 38.1421C12.6549 40.9392 16.2186 42.844 20.0982 43.6157C23.9778 44.3874 27.9992 43.9913 31.6537 42.4776C35.3082 40.9638 38.4318 38.4004 40.6294 35.1114C42.827 31.8224 44 27.9556 44 24C44 21.3736 43.4827 18.7728 42.4776 16.3463C41.4725 13.9198 39.9993 11.715 38.1421 9.85786C36.285 8.00069 34.0802 6.5275 31.6537 5.52241C29.2272 4.51732 26.6264 4 24 4ZM34.25 32.13C34.3974 32.2673 34.5156 32.4329 34.5976 32.6169C34.6796 32.8009 34.7236 32.9995 34.7272 33.201C34.7307 33.4024 34.6937 33.6024 34.6183 33.7892C34.5428 33.976 34.4305 34.1456 34.2881 34.2881C34.1457 34.4305 33.976 34.5428 33.7892 34.6182C33.6024 34.6937 33.4024 34.7307 33.201 34.7272C32.9996 34.7236 32.8009 34.6795 32.6169 34.5976C32.4329 34.5156 32.2673 34.3974 32.13 34.25L24 26.12L15.87 34.25C15.7327 34.3974 15.5671 34.5156 15.3831 34.5976C15.1991 34.6795 15.0005 34.7236 14.7991 34.7272C14.5976 34.7307 14.3976 34.6937 14.2108 34.6182C14.024 34.5428 13.8544 34.4305 13.7119 34.2881C13.5695 34.1456 13.4572 33.976 13.3818 33.7892C13.3063 33.6024 13.2693 33.4024 13.2728 33.201C13.2764 32.9995 13.3205 32.8009 13.4024 32.6169C13.4844 32.4329 13.6026 32.2673 13.75 32.13L21.88 24L13.75 15.87C13.485 15.5856 13.3408 15.2096 13.3477 14.821C13.3545 14.4324 13.5119 14.0616 13.7868 13.7868C14.0616 13.5119 14.4324 13.3545 14.821 13.3476C15.2096 13.3408 15.5857 13.485 15.87 13.75L24 21.88L32.13 13.75C32.4144 13.485 32.7905 13.3408 33.1791 13.3476C33.5677 13.3545 33.9384 13.5119 34.2133 13.7868C34.4881 14.0616 34.6455 14.4324 34.6524 14.821C34.6592 15.2096 34.515 15.5856 34.25 15.87L26.12 24L34.25 32.13Z" fill="#0071B3"/>
</svg>
