<svg width="48" height="48" viewBox="0 0 48 48" fill="none" xmlns="http://www.w3.org/2000/svg">
<path fill-rule="evenodd" clip-rule="evenodd" d="M26.2866 24.1655L36.8936 13.5595C37.4766 12.9755 37.4766 12.0205 36.8936 11.4375C36.3096 10.8535 35.3556 10.8535 34.7716 11.4375L24.1656 22.0445L13.5586 11.4375C12.9756 10.8535 12.0206 10.8535 11.4376 11.4375C10.8536 12.0205 10.8536 12.9755 11.4376 13.5595L22.0436 24.1655L11.4376 34.7715C10.8536 35.3555 10.8536 36.3105 11.4376 36.8935C12.0206 37.4775 12.9756 37.4775 13.5586 36.8935L24.1656 26.2865L34.7716 36.8935C35.3556 37.4775 36.3096 37.4775 36.8936 36.8935C37.4766 36.3105 37.4766 35.3555 36.8936 34.7715L26.2866 24.1655Z" fill="#0071B3"/>
</svg>
