<svg width="48" height="48" viewBox="0 0 48 48" fill="none" xmlns="http://www.w3.org/2000/svg">
<path fill-rule="evenodd" clip-rule="evenodd" d="M13.7359 12.1126C12.9387 12.3162 12.3162 12.9387 12.1126 13.7359L12.0758 13.9073C11.9561 14.595 12.163 15.3002 12.6352 15.8143L20.819 23.999L12.7397 32.0797C12.1568 32.6222 11.909 33.467 12.1126 34.2642C12.3162 35.0614 12.9387 35.6839 13.7359 35.8875L13.9073 35.9242C14.595 36.0439 15.3002 35.837 15.8143 35.3648L23.999 27.18L32.0797 35.2603C32.898 36.0777 34.1994 36.1398 35.0898 35.4143L35.2326 35.2867L35.3558 35.154C36.136 34.2473 36.0963 32.9166 35.2607 32.08L27.18 24L35.2603 15.9203C36.0777 15.102 36.1398 13.8006 35.4143 12.9102L35.2867 12.7674L35.154 12.6442C34.2473 11.864 32.9166 11.9038 32.08 12.7394L24 20.819L15.9203 12.7397C15.3778 12.1568 14.5331 11.909 13.7359 12.1126Z" fill="#0071B3"/>
</svg>
