<svg width="48" height="48" viewBox="0 0 48 48" fill="none" xmlns="http://www.w3.org/2000/svg">
<path fill-rule="evenodd" clip-rule="evenodd" d="M24 44C35.0457 44 44 35.0457 44 24C44 12.9543 35.0457 4 24 4C12.9543 4 4 12.9543 4 24C4 35.0457 12.9543 44 24 44ZM15.1126 16.7358C15.3161 15.9386 15.9386 15.3161 16.7358 15.1126C17.533 14.909 18.3778 15.1567 18.9203 15.7397L24 20.819L29.08 15.7393C29.9166 14.9038 31.2472 14.864 32.154 15.6442L32.2867 15.7674L32.4143 15.9102C33.1397 16.8006 33.0777 18.102 32.2603 18.9203L27.18 24L32.2607 29.08C33.0962 29.9166 33.136 31.2472 32.3558 32.154L32.2326 32.2867L32.0898 32.4143C31.1994 33.1397 29.898 33.0777 29.0797 32.2603L23.999 27.18L18.8143 32.3648C18.3002 32.837 17.595 33.0439 16.9073 32.9242L16.7358 32.8874C15.9386 32.6839 15.3161 32.0614 15.1126 31.2642C14.909 30.467 15.1567 29.6222 15.7397 29.0797L20.819 23.999L15.6352 18.8143C15.163 18.3002 14.9561 17.595 15.0758 16.9073L15.1126 16.7358Z" fill="#0071B3"/>
</svg>
