<svg width="48" height="48" viewBox="0 0 48 48" fill="none" xmlns="http://www.w3.org/2000/svg">
<path d="M14.05 22C14.05 20.8954 14.9454 20 16.05 20C17.1546 20 18.05 20.8954 18.05 22C18.05 23.1045 17.1546 24 16.05 24C14.9454 24 14.05 23.1045 14.05 22Z" fill="#0071B3"/>
<path d="M34.05 22C34.05 23.1045 33.1546 24 32.05 24C30.9454 24 30.05 23.1045 30.05 22C30.05 20.8954 30.9454 20 32.05 20C33.1546 20 34.05 20.8954 34.05 22Z" fill="#0071B3"/>
<path d="M22.05 22C22.05 20.8954 22.9454 20 24.05 20C25.1546 20 26.05 20.8954 26.05 22C26.05 23.1045 25.1546 24 24.05 24C22.9454 24 22.05 23.1045 22.05 22Z" fill="#0071B3"/>
<path fill-rule="evenodd" clip-rule="evenodd" d="M44 34.15V9.49995C43.9987 8.89682 43.6362 8.35316 43.08 8.11995C42.8974 8.03905 42.6997 7.99813 42.5 7.99995H5.5C5.19974 7.99692 4.90605 8.08782 4.66 8.25995C4.24674 8.53714 3.99914 9.00234 4 9.49995V34.5C4 35.3284 4.67158 36 5.5 36H10V42.46C9.99974 42.6488 10.0371 42.8358 10.11 43.01C10.1892 43.192 10.3011 43.3581 10.44 43.5C10.581 43.64 10.7473 43.7519 10.93 43.83C11.282 43.9766 11.678 43.9766 12.03 43.83C12.2141 43.7545 12.3809 43.6422 12.52 43.5L20.07 36H42.54C43.3528 35.9783 44.0003 35.313 44 34.5C44.0153 34.3838 44.0153 34.2661 44 34.15ZM18.83 33L15.83 36L13 38.84V33H7V11H41V33H18.83Z" fill="#0071B3"/>
</svg>
