<svg width="48" height="48" viewBox="0 0 48 48" fill="none" xmlns="http://www.w3.org/2000/svg">
<path d="M14 9H23V12H14V9Z" fill="#0071B3"/>
<path d="M34 9H25V12H34V9Z" fill="#0071B3"/>
<path d="M14 15H23V18H14V15Z" fill="#0071B3"/>
<path d="M34 15H25V18H34V15Z" fill="#0071B3"/>
<path d="M14 21H23V24H14V21Z" fill="#0071B3"/>
<path d="M34 21H25V24H34V21Z" fill="#0071B3"/>
<path d="M14 27H23V30H14V27Z" fill="#0071B3"/>
<path d="M34 27H25V30H34V27Z" fill="#0071B3"/>
<path fill-rule="evenodd" clip-rule="evenodd" d="M40.5 3H7.5C6.67157 3 6 3.67157 6 4.5C6 5.32843 6.67157 6 7.5 6H8V43.5C8 44.3284 8.67157 45 9.5 45H38.5C39.3284 45 40 44.3284 40 43.5V6H40.5C41.3284 6 42 5.32843 42 4.5C42 3.67157 41.3284 3 40.5 3ZM22.5 36H25.5V42H22.5V36ZM28.5 42H37V6H11V42H19.5V34.5C19.5 33.6716 20.1716 33 21 33H27C27.8284 33 28.5 33.6716 28.5 34.5V42Z" fill="#0071B3"/>
</svg>
