<svg width="48" height="48" viewBox="0 0 48 48" fill="none" xmlns="http://www.w3.org/2000/svg">
<path d="M15.8721 33H32.1291C33.1691 33 34.0111 32.329 34.0111 31.5C34.0111 30.671 33.1691 30 32.1291 30H15.8721C14.8321 30 13.9901 30.671 13.9901 31.5C13.9901 32.329 14.8321 33 15.8721 33Z" fill="#0071B3"/>
<path d="M32.7576 18H15.2446C14.5516 18 13.9906 17.329 13.9906 16.5C13.9906 15.671 14.5516 15 15.2446 15H32.7576C33.4496 15 34.0106 15.671 34.0106 16.5C34.0106 17.329 33.4496 18 32.7576 18Z" fill="#0071B3"/>
<path d="M15.2436 25.5004H32.7566C33.4486 25.5004 34.0096 24.8294 34.0096 24.0004C34.0096 23.1714 33.4486 22.5004 32.7566 22.5004H15.2436C14.5506 22.5004 13.9896 23.1714 13.9896 24.0004C13.9896 24.8294 14.5506 25.5004 15.2436 25.5004Z" fill="#0071B3"/>
<path fill-rule="evenodd" clip-rule="evenodd" d="M28.8422 6.043C37.0042 6.469 43.5322 12.997 43.9572 21.159C43.9832 21.27 44.0002 21.383 44.0002 21.501V40.501C44.0002 41.329 43.3282 42.001 42.5002 42.001H20.3312C20.3073 42.001 20.2842 41.9978 20.2609 41.9946C20.2451 41.9924 20.2293 41.9902 20.2132 41.989C20.1797 41.9895 20.1465 41.9919 20.1131 41.9944C20.0758 41.9972 20.0382 42 20.0002 42C11.4472 42 4.48318 35.285 4.04218 26.842C4.01718 26.731 4.00018 26.618 4.00018 26.5V7.5C4.00018 7.293 4.04218 7.096 4.11818 6.917C4.34518 6.378 4.87818 6 5.50018 6H28.5002C28.6182 6 28.7312 6.017 28.8422 6.043ZM7.00018 26C7.00018 33.168 12.8322 39 20.0002 39H29.3032L29.3022 39.001H41.0002V22C41.0002 14.832 35.1682 9 28.0002 9H7.00018V26Z" fill="#0071B3"/>
</svg>
