<svg width="48" height="48" viewBox="0 0 48 48" fill="none" xmlns="http://www.w3.org/2000/svg">
<path fill-rule="evenodd" clip-rule="evenodd" d="M46.25 41C46.25 41.8284 45.5784 42.5 44.75 42.5H3.25C2.42157 42.5 1.75 41.8284 1.75 41C1.75 40.1715 2.42157 39.5 3.25 39.5H6.25V32.7711C4.22145 32.1339 2.75 30.2388 2.75 28C2.75 25.889 2.96794 24.0762 3.63393 22.6961C3.99335 21.9513 4.53327 21.2279 5.33123 20.7069C6.14358 20.1764 7.0023 20 7.75 20C8.4977 20 9.35642 20.1764 10.1688 20.7069C10.9667 21.2279 11.5067 21.9513 11.8661 22.6961C12.5321 24.0762 12.75 25.889 12.75 28C12.75 30.2388 11.2786 32.1339 9.25 32.7711V39.5H14.75V19.4142C14.75 18.7511 15.0134 18.1153 15.4822 17.6464L25.4822 7.64642C26.4585 6.67011 28.0415 6.67011 29.0178 7.64642L38.2916 16.9202L43.7326 11.8978C44.3413 11.3359 45.2903 11.3738 45.8522 11.9826C46.4141 12.5913 46.3762 13.5403 45.7674 14.1022L39.75 19.6567V39.5H44.75C45.5784 39.5 46.25 40.1715 46.25 41ZM36.75 39.5V19.6213L27.25 10.1213L17.75 19.6213V39.5H22.75V31.5C22.75 29.8431 24.0931 28.5 25.75 28.5H28.75C30.4069 28.5 31.75 29.8431 31.75 31.5V39.5H36.75ZM28.75 39.5V31.5H25.75V39.5H28.75ZM7.75 30C8.85457 30 9.75 29.1045 9.75 28C9.75 24 8.85457 23 7.75 23C6.64543 23 5.75 24 5.75 28C5.75 29.1045 6.64543 30 7.75 30Z" fill="#0071B3"/>
</svg>
