<svg width="48" height="48" viewBox="0 0 48 48" fill="none" xmlns="http://www.w3.org/2000/svg">
<path d="M11.5 29C10.6716 29 10 29.6716 10 30.5C10 31.3284 10.6716 32 11.5 32H17.5C18.3284 32 19 31.3284 19 30.5C19 29.6716 18.3284 29 17.5 29H11.5Z" fill="#0071B3"/>
<path fill-rule="evenodd" clip-rule="evenodd" d="M38 10H10C6.68629 10 4 12.6863 4 16V32C4 35.3137 6.68629 38 10 38H38C41.3137 38 44 35.3137 44 32V16C44 12.6863 41.3137 10 38 10ZM7 16C7 14.3431 8.34315 13 10 13H38C39.6569 13 41 14.3431 41 16H7ZM7 22H41V32C41 33.6569 39.6569 35 38 35H10C8.34315 35 7 33.6569 7 32V22Z" fill="#0071B3"/>
</svg>
