<svg width="48" height="48" viewBox="0 0 48 48" fill="none" xmlns="http://www.w3.org/2000/svg">
<path d="M15 12H34.5C35.3284 12 36 12.6716 36 13.5V42.5C36 43.3284 35.3284 44 34.5 44C33.6716 44 33 43.3284 33 42.5V36H13.5C12.6716 36 12 35.3284 12 34.5V18H15V33H33V15H5.5C4.67157 15 4 14.3284 4 13.5C4 12.6716 4.67157 12 5.5 12H12V5.5C12 4.67157 12.6716 4 13.5 4C14.3284 4 15 4.67157 15 5.5V12Z" fill="#0071B3"/>
<path d="M39 33H42.5C43.3284 33 44 33.6716 44 34.5C44 35.3284 43.3284 36 42.5 36H39V33Z" fill="#0071B3"/>
</svg>
