<svg width="48" height="48" viewBox="0 0 48 48" fill="none" xmlns="http://www.w3.org/2000/svg">
<path fill-rule="evenodd" clip-rule="evenodd" d="M35.2508 13.2115C36.239 11.5274 38.0474 10.4949 40 10.5C42.8511 10.5126 45.2199 12.7019 45.4566 15.5432C45.6934 18.3845 43.7197 20.9356 40.91 21.42L39.49 34.17C39.4036 34.9276 38.7625 35.4998 38 35.5H9.99999C9.23747 35.4998 8.59641 34.9276 8.50999 34.17L7.02999 21.42C4.66527 21.0235 2.82991 19.1407 2.49381 16.7667C2.15771 14.3926 3.39832 12.0744 5.56005 11.0371C7.72178 9.99974 10.3064 10.4824 11.9481 12.2299C13.5898 13.9775 13.9102 16.5872 12.74 18.68L15.74 21.68L19.79 15.6C17.8879 13.3758 18.0608 10.0516 20.1832 8.03665C22.3057 6.02168 25.6343 6.02168 27.7568 8.03665C29.8792 10.0516 30.052 13.3758 28.15 15.6L32.2 21.68L35.2 18.68C34.2432 16.9778 34.2626 14.8956 35.2508 13.2115ZM38.7848 18.1273C39.5544 18.5642 40.496 18.569 41.27 18.14C42.3139 17.5243 42.7659 16.2484 42.3423 15.1129C41.9187 13.9773 40.7416 13.3091 39.5495 13.5276C38.3573 13.746 37.4935 14.788 37.5 16C37.5284 16.8845 38.0152 17.6905 38.7848 18.1273ZM24 9.5C22.6193 9.5 21.5 10.6193 21.5 12C21.5032 12.2799 21.5539 12.5571 21.65 12.82C21.9997 13.8184 22.9421 14.4868 24 14.4868C25.0579 14.4868 26.0003 13.8184 26.35 12.82C26.4461 12.5571 26.4968 12.2799 26.5 12C26.5 10.6193 25.3807 9.5 24 9.5ZM7.99999 13.5C6.61928 13.5 5.49999 14.6193 5.49999 16C5.43926 16.8932 5.85963 17.7509 6.60277 18.2501C7.3459 18.7492 8.2989 18.814 9.10277 18.4201C9.90664 18.0261 10.4393 17.2332 10.5 16.34C10.5078 16.2268 10.5078 16.1132 10.5 16C10.5 14.6193 9.3807 13.5 7.99999 13.5ZM10.07 21.09L11.34 32.5H36.66L37.92 21.09C37.7143 21.0057 37.5139 20.9088 37.32 20.8L33.06 25.06C32.742 25.3781 32.2981 25.5367 31.8505 25.4922C31.403 25.4476 30.999 25.2046 30.75 24.83L25.68 17.23C24.5848 17.5853 23.4052 17.5853 22.31 17.23L17.24 24.83C16.991 25.2046 16.587 25.4476 16.1395 25.4922C15.6919 25.5367 15.248 25.3781 14.93 25.06L10.67 20.8C10.4761 20.9087 10.2757 21.0056 10.07 21.09Z" fill="#0071B3"/>
<path d="M8.49999 40C8.49999 39.1716 9.17157 38.5 9.99999 38.5H38C38.8284 38.5 39.5 39.1716 39.5 40C39.5 40.8284 38.8284 41.5 38 41.5H9.99999C9.17157 41.5 8.49999 40.8284 8.49999 40Z" fill="#0071B3"/>
</svg>
