<svg width="48" height="48" viewBox="0 0 48 48" fill="none" xmlns="http://www.w3.org/2000/svg">
<path fill-rule="evenodd" clip-rule="evenodd" d="M24.0005 38C16.2685 38 10.0005 31.732 10.0005 24C10.0005 16.268 16.2685 10 24.0005 10C31.7325 10 38.0005 16.268 38.0005 24C38.0005 31.732 31.7325 38 24.0005 38ZM44.5005 22.5H40.9175C40.6525 19.491 39.6035 16.513 37.6775 13.904C34.6675 9.826 30.1795 7.5 25.5005 7.083V3.5C25.5005 2.67 24.8305 2 24.0005 2C23.1695 2 22.5005 2.67 22.5005 3.5V7.083C19.4905 7.347 16.5135 8.397 13.9045 10.322C9.82649 13.333 7.50049 17.82 7.08349 22.5H3.50049C2.67149 22.5 2.00049 23.172 2.00049 24C2.00049 24.829 2.67149 25.5 3.50049 25.5H7.08349C7.34749 28.509 8.39649 31.487 10.3225 34.096C13.3325 38.174 17.8205 40.5 22.5005 40.917V44.5C22.5005 45.329 23.1715 46 24.0005 46C24.8285 46 25.5005 45.329 25.5005 44.5V40.917C28.5095 40.653 31.4865 39.603 34.0955 37.678C38.1735 34.668 40.4995 30.18 40.9165 25.5H44.5005C45.3285 25.5 46.0005 24.829 46.0005 24C46.0005 23.172 45.3285 22.5 44.5005 22.5ZM34 24C34 29.523 29.523 34 24 34C18.477 34 14 29.523 14 24C14 18.477 18.477 14 24 14C29.523 14 34 18.477 34 24Z" fill="#0071B3"/>
</svg>
