<svg width="48" height="48" viewBox="0 0 48 48" fill="none" xmlns="http://www.w3.org/2000/svg">
<path fill-rule="evenodd" clip-rule="evenodd" d="M10.086 22.5C10.783 15.968 15.967 10.779 22.5 10.083V12.5C22.5 13.329 23.171 14 24 14C24.829 14 25.5 13.329 25.5 12.5V10.083C32.032 10.78 37.216 15.968 37.914 22.5H35.5C34.671 22.5 34 23.171 34 24C34 24.829 34.671 25.5 35.5 25.5H37.917C37.221 32.033 32.032 37.217 25.5 37.914V35.5C25.5 34.671 24.829 34 24 34C23.171 34 22.5 34.671 22.5 35.5V37.917C15.967 37.222 10.783 32.032 10.086 25.5H12.5C13.329 25.5 14 24.829 14 24C14 23.171 13.329 22.5 12.5 22.5H10.086ZM24 2C23.171 2 22.5 2.671 22.5 3.5V7.076C14.31 7.793 7.789 14.311 7.072 22.5H3.5C2.671 22.5 2 23.171 2 24C2 24.829 2.671 25.5 3.5 25.5H7.072C7.789 33.689 14.31 40.207 22.5 40.924V44.5C22.5 45.329 23.171 46 24 46C24.829 46 25.5 45.329 25.5 44.5V40.928C33.69 40.211 40.207 33.69 40.924 25.5H44.5C45.329 25.5 46 24.829 46 24C46 23.171 45.329 22.5 44.5 22.5H40.928C40.211 14.311 33.69 7.793 25.5 7.076V3.5C25.5 2.671 24.829 2 24 2Z" fill="#0071B3"/>
</svg>
