<svg width="48" height="48" viewBox="0 0 48 48" fill="none" xmlns="http://www.w3.org/2000/svg">
<path fill-rule="evenodd" clip-rule="evenodd" d="M8.66593 24.5382C7.73609 23.6084 7.79706 22.145 8.74215 21.1847C9.27567 20.6664 10.0226 20.3006 10.9982 19.8585L35.5095 8.54792C37.1405 7.80099 38.4057 7.78575 39.3051 8.70035C40.2045 9.59971 40.2045 10.8649 39.4575 12.496L28.147 37.0073C27.7049 37.9829 27.3391 38.7298 26.8208 39.2481C25.8605 40.2084 24.3971 40.2694 23.452 39.3395C22.8423 38.7298 22.5374 37.7237 22.5526 36.6567L22.5831 25.9558C22.5984 25.7424 22.5679 25.6052 22.4764 25.529C22.385 25.4376 22.263 25.4071 22.0344 25.4071L11.3335 25.4528C10.2665 25.4528 9.27567 25.1632 8.66593 24.5382Z" fill="#0071B3"/>
</svg>
