<svg width="48" height="48" viewBox="0 0 48 48" fill="none" xmlns="http://www.w3.org/2000/svg">
<path fill-rule="evenodd" clip-rule="evenodd" d="M8.60684 24.424C7.73816 23.5554 7.83123 22.1748 8.69991 21.3061C9.19629 20.8097 9.90985 20.4685 10.8406 20.0496L35.9236 8.47764C37.4437 7.79511 38.5606 7.84165 39.3672 8.63276C40.1583 9.43939 40.2049 10.5718 39.5224 12.0764L27.9504 37.1594C27.5315 38.0902 27.1748 38.8037 26.6939 39.3001C25.8252 40.1688 24.4291 40.2618 23.576 39.3932C22.9865 38.8192 22.7073 37.8885 22.7073 36.9112L22.7228 25.8511C22.7228 25.6185 22.6918 25.4789 22.5987 25.4013C22.5211 25.3082 22.3815 25.2772 22.1489 25.2772L11.0888 25.2927C10.1115 25.2927 9.18078 25.0135 8.60684 24.424ZM13.0433 22.3144C13.0278 22.392 13.1208 22.423 13.1984 22.423L22.9245 22.454C23.8707 22.454 24.5067 22.6246 24.941 23.059C25.3754 23.4933 25.546 24.1293 25.546 25.0755L25.577 34.8016C25.577 34.9257 25.6391 34.9722 25.6856 34.9567C25.7632 34.9722 25.8252 34.9257 25.8562 34.8171L36.4044 11.9213C36.451 11.7972 36.482 11.6886 36.3889 11.5956C36.3269 11.5335 36.2028 11.549 36.0787 11.5956L13.1829 22.1438C13.0743 22.1748 13.0278 22.2368 13.0433 22.3144Z" fill="#0071B3"/>
</svg>
