<svg width="48" height="48" viewBox="0 0 48 48" fill="none" xmlns="http://www.w3.org/2000/svg">
<path d="M12.1133 15.05C12.0867 14.9633 12.06 14.8767 12.06 14.79C12.049 14.5868 12.049 14.3832 12.06 14.18V13.78C12.0663 13.5826 12.083 13.3856 12.11 13.19C12.1183 13.1358 12.1353 13.0817 12.1524 13.0275C12.1762 12.9517 12.2 12.8758 12.2 12.8C12.2171 12.6846 12.2439 12.5709 12.28 12.46C12.33 12.29 12.43 12.04 12.46 11.98C12.4694 11.9612 12.4807 11.9425 12.4919 11.924C12.5164 11.8834 12.54 11.8444 12.54 11.81C12.6258 11.6289 12.7262 11.455 12.84 11.29V11.23C13.2893 10.5417 14.023 10.0905 14.84 9.99999C16.4278 6.34975 20.0294 3.98886 24.01 3.98886C27.9906 3.98886 31.5922 6.34975 33.18 9.99999C33.7947 10.0667 34.3655 10.3504 34.79 10.8C34.9423 10.9423 35.0796 11.0998 35.2 11.27V11.35C35.3082 11.5062 35.4051 11.67 35.49 11.84L35.57 12.04C35.6403 12.1891 35.7004 12.3428 35.75 12.5C35.7964 12.5618 35.7976 12.6263 35.7989 12.6907C35.8 12.7513 35.8012 12.8118 35.84 12.87C35.92 12.99 35.92 13.11 35.92 13.23C35.9517 13.4519 35.9684 13.6758 35.97 13.9V14.15C35.9683 14.3709 35.9516 14.5914 35.92 14.81C35.9 14.94 35.87 15.06 35.84 15.18C35.83 15.22 35.8167 15.26 35.8033 15.3C35.7767 15.38 35.75 15.46 35.75 15.54C35.7004 15.6972 35.6403 15.8509 35.57 16L35.49 16.2C35.4019 16.3735 35.3016 16.5406 35.19 16.7C35.1933 16.7232 35.1933 16.7468 35.19 16.77C34.7407 17.4583 34.007 17.9095 33.19 18C31.6239 21.5899 28.1061 23.9351 24.19 24H24C22.8402 24 21.9 23.0598 21.9 21.9C21.9 20.7402 22.8402 19.8 24 19.8H24.1C24.8031 19.8037 25.4586 20.1558 25.85 20.74C28.8874 19.9077 30.995 17.1494 31 14C31.0007 13.1979 30.8585 12.4021 30.58 11.65C29.5752 8.8816 26.9451 7.03821 24 7.03821C21.0549 7.03821 18.4248 8.8816 17.42 11.65C17.1415 12.4021 16.9993 13.1979 17 14V16.5C16.9985 16.7068 16.9542 16.9111 16.87 17.1C16.6342 17.6468 16.0955 18.0007 15.5 18H15L14.77 17.97C14.1795 17.9131 13.6276 17.6513 13.21 17.23C13.0547 17.084 12.9141 16.9233 12.79 16.75V16.69C12.6783 16.5271 12.5781 16.3567 12.49 16.18C12.4815 16.163 12.4762 16.154 12.4716 16.1462C12.46 16.1266 12.453 16.1146 12.41 16C12.39 15.9467 12.3633 15.8944 12.3367 15.8422C12.2833 15.7378 12.23 15.6333 12.23 15.52C12.1928 15.4094 12.166 15.2956 12.15 15.18C12.14 15.1367 12.1267 15.0933 12.1133 15.05Z" fill="#0071B3"/>
<path d="M28.81 24.25C32.59 25.07 35.48 27.74 35.93 31.07C35.9735 31.2093 35.997 31.3541 36 31.5V39.5C36 40.3284 35.3284 41 34.5 41C33.6716 41 33 40.3284 33 39.5V32C33 30 31.52 28.34 29.41 27.52L25.41 38.42V38.49L25.35 38.62L25.27 38.74L25.18 38.86L25.09 38.96L24.96 39.08L24.88 39.14L24.72 39.24H23.34L23.1 39.08L22.97 38.96L22.88 38.86L22.79 38.74L22.71 38.62L22.65 38.49V38.42L18.65 27.52C16.51 28.34 15.03 30 15.03 32V39.46C15.03 40.2884 14.3584 40.96 13.53 40.96C12.7016 40.96 12.03 40.2884 12.03 39.46V31.46C12.033 31.3141 12.0565 31.1693 12.1 31.03C12.56 27.7 15.44 25 19.22 24.21H19.41C19.7637 24.1737 20.1187 24.266 20.41 24.47C20.6668 24.6393 20.8603 24.889 20.96 25.18L21.06 25.46L21.63 27L24 33.52L26.37 27L26.97 25.5L27.07 25.22C27.1736 24.9311 27.3661 24.6825 27.62 24.51C27.9113 24.306 28.2663 24.2137 28.62 24.25H28.81Z" fill="#0071B3"/>
</svg>
