<svg width="48" height="48" viewBox="0 0 48 48" fill="none" xmlns="http://www.w3.org/2000/svg">
<path fill-rule="evenodd" clip-rule="evenodd" d="M20 34C17.2386 34 15 36.2386 15 39C15 41.7614 17.2386 44 20 44C22.7614 44 25 41.7614 25 39C25 36.2386 22.7614 34 20 34ZM20 41C18.8954 41 18 40.1046 18 39C18 37.8954 18.8954 37 20 37C21.1046 37 22 37.8954 22 39C22 40.1046 21.1046 41 20 41ZM34 34C31.2386 34 29 36.2386 29 39C29 41.7614 31.2386 44 34 44C36.7614 44 39 41.7614 39 39C39 36.2386 36.7614 34 34 34ZM34 41C32.8954 41 32 40.1046 32 39C32 37.8954 32.8954 37 34 37C35.1046 37 36 37.8954 36 39C36 40.1046 35.1046 41 34 41ZM45 21.08C45 11.6911 37.3888 4.07999 28 4.07999C27.1716 4.07999 26.5 4.75156 26.5 5.57999V21H12V20C12 16.6863 9.31371 14 6 14H4.5C3.67157 14 3 14.6716 3 15.5C3 16.3284 3.67157 17 4.5 17H6C7.65685 17 9 18.3431 9 20V27C9 30.3137 11.6863 33 15 33H39C39.4209 32.9963 39.8401 32.946 40.25 32.85C40.4973 32.8032 40.7412 32.7397 40.98 32.66C43.3863 31.8188 44.9983 29.549 45 27V21.08ZM42 21H29.5V7.16999C36.5764 7.93241 41.9545 13.8828 42 21ZM39.24 30H15C14.3233 29.9961 13.6678 29.7635 13.14 29.34C12.6895 28.9941 12.3434 28.5303 12.14 28C12.0358 27.6773 11.9884 27.3389 12 27V24H42V27C41.9987 27.3413 41.9378 27.6797 41.82 28C41.4283 29.1203 40.4129 29.9043 39.23 30H39.24Z" fill="#0071B3"/>
</svg>
