<svg width="48" height="48" viewBox="0 0 48 48" fill="none" xmlns="http://www.w3.org/2000/svg">
<path fill-rule="evenodd" clip-rule="evenodd" d="M5 29.9994H43V8.99939H5V29.9994ZM46 7.49939C46 6.67139 45.328 5.99939 44.5 5.99939H3.5C3.293 5.99939 3.095 6.04139 2.916 6.11839C2.378 6.34539 2 6.87839 2 7.49939V31.4994C2 32.3284 2.672 32.9994 3.5 32.9994H22.5V39.0834H17.5C16.672 39.0834 16 39.7554 16 40.5834C16 41.4114 16.672 42.0834 17.5 42.0834H30.5C31.328 42.0834 32 41.4114 32 40.5834C32 39.7554 31.328 39.0834 30.5 39.0834H25.5V32.9994H44.5C45.328 32.9994 46 32.3284 46 31.4994V7.49939Z" fill="#0071B3"/>
</svg>
