<svg width="48" height="48" viewBox="0 0 48 48" fill="none" xmlns="http://www.w3.org/2000/svg">
<path fill-rule="evenodd" clip-rule="evenodd" d="M22.2322 7.14642C23.2085 6.17011 24.7915 6.17011 25.7678 7.14642L35.7678 17.1464C36.2366 17.6153 36.5 18.2511 36.5 18.9142V39H44C44.8284 39 45.5 39.6715 45.5 40.5C45.5 41.3284 44.8284 42 44 42H4C3.17157 42 2.5 41.3284 2.5 40.5C2.5 39.6715 3.17157 39 4 39H11.5V18.9142C11.5 18.2511 11.7634 17.6153 12.2322 17.1464L22.2322 7.14642ZM14.5 39H19.5V31C19.5 29.3431 20.8431 28 22.5 28H25.5C27.1569 28 28.5 29.3431 28.5 31V39H33.5V19.1213L24 9.62129L14.5 19.1213V39ZM25.5 39V31H22.5V39H25.5Z" fill="#0071B3"/>
</svg>
