<svg width="48" height="48" viewBox="0 0 48 48" fill="none" xmlns="http://www.w3.org/2000/svg">
<path d="M31 25V28H37C39.7614 28 42 25.7614 42 23V11C42 8.23858 39.7614 6 37 6H25C22.2386 6 20 8.23858 20 11V16H23V11C23 9.89543 23.8954 9 25 9H37C38.1046 9 39 9.89543 39 11V23C39 24.1046 38.1046 25 37 25H31Z" fill="#0071B3"/>
<path d="M14 26C14 27.1046 13.1046 28 12 28C10.8954 28 10 27.1046 10 26C10 24.8954 10.8954 24 12 24C13.1046 24 14 24.8954 14 26Z" fill="#0071B3"/>
<path d="M12 37C13.1046 37 14 36.1046 14 35C14 33.8954 13.1046 33 12 33C10.8954 33 10 33.8954 10 35C10 36.1046 10.8954 37 12 37Z" fill="#0071B3"/>
<path d="M23 26C23 27.1046 22.1046 28 21 28C19.8954 28 19 27.1046 19 26C19 24.8954 19.8954 24 21 24C22.1046 24 23 24.8954 23 26Z" fill="#0071B3"/>
<path d="M21 37C22.1046 37 23 36.1046 23 35C23 33.8954 22.1046 33 21 33C19.8954 33 19 33.8954 19 35C19 36.1046 19.8954 37 21 37Z" fill="#0071B3"/>
<path fill-rule="evenodd" clip-rule="evenodd" d="M23 19H10C7.23858 19 5 21.2386 5 24V37C5 39.7614 7.23858 42 10 42H23C25.7614 42 28 39.7614 28 37V24C28 21.2386 25.7614 19 23 19ZM8 24C8 22.8954 8.89543 22 10 22H23C24.1046 22 25 22.8954 25 24V37C25 38.1046 24.1046 39 23 39H10C8.89543 39 8 38.1046 8 37V24Z" fill="#0071B3"/>
<path d="M31 19C32.1046 19 33 18.1046 33 17C33 15.8954 32.1046 15 31 15C29.8954 15 29 15.8954 29 17C29 18.1046 29.8954 19 31 19Z" fill="#0071B3"/>
<path d="M37.5 21.5C37.5 22.6046 36.6046 23.5 35.5 23.5C34.3954 23.5 33.5 22.6046 33.5 21.5C33.5 20.3954 34.3954 19.5 35.5 19.5C36.6046 19.5 37.5 20.3954 37.5 21.5Z" fill="#0071B3"/>
<path d="M26.5 14.5C27.6046 14.5 28.5 13.6046 28.5 12.5C28.5 11.3954 27.6046 10.5 26.5 10.5C25.3954 10.5 24.5 11.3954 24.5 12.5C24.5 13.6046 25.3954 14.5 26.5 14.5Z" fill="#0071B3"/>
</svg>
