<svg width="48" height="48" viewBox="0 0 48 48" fill="none" xmlns="http://www.w3.org/2000/svg">
<path d="M16.48 33.5H31.48C32.3084 33.5 32.98 34.1716 32.98 35C32.98 35.8284 32.3084 36.5 31.48 36.5H16.48C15.6516 36.5 14.98 35.8284 14.98 35C14.98 34.1716 15.6516 33.5 16.48 33.5Z" fill="#0071B3"/>
<path d="M31.5 26.5H16.5C15.6716 26.5 15 27.1716 15 28C15 28.8284 15.6716 29.5 16.5 29.5H31.5C32.3284 29.5 33 28.8284 33 28C33 27.1716 32.3284 26.5 31.5 26.5Z" fill="#0071B3"/>
<path d="M31.5 22.5H16.5C15.6716 22.5 15 21.8284 15 21C15 20.1716 15.6716 19.5 16.5 19.5H31.5C32.3284 19.5 33 20.1716 33 21C33 21.8284 32.3284 22.5 31.5 22.5Z" fill="#0071B3"/>
<path fill-rule="evenodd" clip-rule="evenodd" d="M38.9 15.21C38.8488 14.9364 38.7204 14.6831 38.53 14.48L28.78 4.73C28.5119 4.27796 28.0256 4.00056 27.5 4H10.5C9.67157 4 9 4.67157 9 5.5V42.5C9 43.3284 9.67157 44 10.5 44H37.5C38.3284 44 39 43.3284 39 42.5V15.73C38.998 15.5521 38.9641 15.376 38.9 15.21ZM12 7H26.81L36 16.19V41H12V7Z" fill="#0071B3"/>
</svg>
