<svg width="48" height="48" viewBox="0 0 48 48" fill="none" xmlns="http://www.w3.org/2000/svg">
<path d="M17.79 20.5C17.79 19.6716 18.4616 19 19.29 19C20.1184 19 20.79 19.6716 20.79 20.5V27.5C20.79 28.3284 20.1184 29 19.29 29C18.4616 29 17.79 28.3284 17.79 27.5V20.5Z" fill="#0071B3"/>
<path fill-rule="evenodd" clip-rule="evenodd" d="M40.5 39H36V7.5C36 6.67157 35.3284 6 34.5 6H13.5C12.6716 6 12 6.67157 12 7.5V39H7.5C6.67157 39 6 39.6716 6 40.5C6 41.3284 6.67157 42 7.5 42H40.5C41.3284 42 42 41.3284 42 40.5C42 39.6716 41.3284 39 40.5 39ZM15 9H33V39H15V9Z" fill="#0071B3"/>
</svg>
