<svg width="48" height="48" viewBox="0 0 48 48" fill="none" xmlns="http://www.w3.org/2000/svg">
<path d="M21 36C21 37.6569 22.3431 39 24 39C25.6569 39 27 37.6569 27 36C27 34.3431 25.6569 33 24 33C22.3431 33 21 34.3431 21 36Z" fill="#0071B3"/>
<path d="M24 9C25.6569 9 27 10.3431 27 12C27 13.6569 25.6569 15 24 15C22.3431 15 21 13.6569 21 12C21 10.3431 22.3431 9 24 9Z" fill="#0071B3"/>
<path d="M24 27C22.3431 27 21 25.6569 21 24C21 22.3431 22.3431 21 24 21C25.6569 21 27 22.3431 27 24C27 25.6569 25.6569 27 24 27Z" fill="#0071B3"/>
</svg>
