<svg width="48" height="48" viewBox="0 0 48 48" fill="none" xmlns="http://www.w3.org/2000/svg">
<path d="M12 21C10.3431 21 9 22.3431 9 24C9 25.6568 10.3431 27 12 27C13.6569 27 15 25.6568 15 24C15 22.3431 13.6569 21 12 21Z" fill="#0071B3"/>
<path d="M39 24C39 25.6568 37.6569 27 36 27C34.3431 27 33 25.6568 33 24C33 22.3431 34.3431 21 36 21C37.6569 21 39 22.3431 39 24Z" fill="#0071B3"/>
<path d="M21 24C21 22.3431 22.3431 21 24 21C25.6569 21 27 22.3431 27 24C27 25.6568 25.6569 27 24 27C22.3431 27 21 25.6568 21 24Z" fill="#0071B3"/>
</svg>
