<svg width="48" height="48" viewBox="0 0 48 48" fill="none" xmlns="http://www.w3.org/2000/svg">
<path fill-rule="evenodd" clip-rule="evenodd" d="M15.381 7.40501C16.3177 6.61241 17.6911 6.61678 18.6228 7.41533L24 12.0244L29.3772 7.41534C30.3089 6.61678 31.6823 6.61241 32.619 7.40501L44.6149 17.5553C45.1762 18.0303 45.5 18.7284 45.5 19.4638V42.5H2.5V19.4638C2.5 18.7284 2.82377 18.0303 3.38514 17.5553L15.381 7.40501ZM22.5 14.6899L16.9937 9.97022L5.5 19.6957V39.5H9.5V31.5C9.5 29.8431 10.8431 28.5 12.5 28.5H15.5C17.1569 28.5 18.5 29.8431 18.5 31.5V39.5H22.5V14.6899ZM25.5 39.5H29.5V31.5C29.5 29.8431 30.8431 28.5 32.5 28.5H35.5C37.1569 28.5 38.5 29.8431 38.5 31.5V39.5H42.5V19.6957L31.0063 9.97022L25.5 14.6899V39.5ZM35.5 39.5V31.5H32.5V39.5H35.5ZM15.5 39.5V31.5H12.5V39.5H15.5Z" fill="#0071B3"/>
</svg>
