<svg width="48" height="48" viewBox="0 0 48 48" fill="none" xmlns="http://www.w3.org/2000/svg">
<path fill-rule="evenodd" clip-rule="evenodd" d="M41.9 15.21C41.8488 14.9364 41.7204 14.6831 41.53 14.48L31.78 4.73C31.5119 4.27796 31.0255 4.00056 30.5 4H15.5C14.6716 4 14 4.67157 14 5.5V28.88L9.07999 24C8.48508 23.6037 7.69313 23.6822 7.18766 24.1877C6.68218 24.6931 6.60364 25.4851 6.99999 26.08L14.48 33.56C14.6198 33.7014 14.7864 33.8136 14.97 33.89C15.1447 33.9612 15.3313 33.9985 15.52 34C15.7086 33.9985 15.8953 33.9612 16.07 33.89C16.2527 33.8165 16.4193 33.7078 16.56 33.57L24 26.08C24.5588 25.4992 24.5588 24.5808 24 24C23.4144 23.4151 22.4656 23.4151 21.88 24L17 28.88V7H29.81L39 16.19V41H17V39.5C17 38.6716 16.3284 38 15.5 38C14.6716 38 14 38.6716 14 39.5V42.5C14 43.3284 14.6716 44 15.5 44H40.5C41.3284 44 42 43.3284 42 42.5V15.73C41.998 15.5521 41.9641 15.376 41.9 15.21Z" fill="#0071B3"/>
</svg>
