<svg width="48" height="48" viewBox="0 0 48 48" fill="none" xmlns="http://www.w3.org/2000/svg">
<path fill-rule="evenodd" clip-rule="evenodd" d="M24 7C33.384 7.00971 40.9903 14.616 41 24C41 33.3889 33.3889 41 24 41C14.6111 41 7 33.3889 7 24C7 14.6111 14.6111 7 24 7ZM24 38C31.728 37.9903 37.9903 31.728 38 24C38 16.2681 31.7319 10 24 10C16.2681 10 10 16.2681 10 24C10 31.7319 16.2681 38 24 38ZM19.5 24C18.672 24 18 23.328 18 22.5V19.5C18 18.672 18.672 18 19.5 18C20.328 18 21 18.672 21 19.5V22.5C21 23.328 20.328 24 19.5 24ZM30.9562 27.0636C31.7299 27.3006 32.1694 28.1366 31.9385 28.9296C30.8987 32.5006 27.6897 34.9946 24.0012 35.0006C20.3118 35.0006 17.0979 32.5036 16.061 28.9286C15.831 28.1346 16.2715 27.2986 17.0452 27.0626C17.819 26.8266 18.6337 27.2786 18.8636 28.0726C19.5341 30.3846 21.6137 32.0006 23.9993 32.0006C26.3868 31.9976 28.4644 30.3806 29.1368 28.0706C29.3687 27.2776 30.1824 26.8266 30.9562 27.0636ZM28.5 18C29.328 18 30 18.672 30 19.5V22.5C30 23.328 29.328 24 28.5 24C27.672 24 27 23.328 27 22.5V19.5C27 18.672 27.672 18 28.5 18Z" fill="#0071B3"/>
</svg>
