<svg width="48" height="48" viewBox="0 0 48 48" fill="none" xmlns="http://www.w3.org/2000/svg">
<path fill-rule="evenodd" clip-rule="evenodd" d="M24 7C33.384 7.00971 40.9903 14.616 41 24C41 33.3889 33.3889 41 24 41C14.6111 41 7 33.3889 7 24C7 14.6111 14.6111 7 24 7ZM24 38C31.728 37.9903 37.9903 31.728 38 24C38 16.2681 31.7319 10 24 10C16.2681 10 10 16.2681 10 24C10 31.7319 16.2681 38 24 38ZM19.5 24C18.672 24 18 23.328 18 22.5V19.5C18 18.672 18.672 18 19.5 18C20.328 18 21 18.672 21 19.5V22.5C21 23.328 20.328 24 19.5 24ZM28.5 24C27.672 24 27 23.328 27 22.5V19.5C27 18.672 27.672 18 28.5 18C29.328 18 30 18.672 30 19.5V22.5C30 23.328 29.328 24 28.5 24ZM28.9169 33.3238C25.824 31.5406 22.102 31.5406 19.0091 33.3238C18.3198 33.6886 17.4849 33.3864 17.1444 32.6479C16.8039 31.9093 17.086 31.0148 17.7752 30.65C19.6891 29.5894 21.808 29.0239 23.963 29C26.119 29.0268 28.2397 29.5884 30.16 30.64C30.6313 30.8577 30.9523 31.3358 30.995 31.8845C31.0386 32.4322 30.7964 32.962 30.3641 33.2602C29.9346 33.5593 29.3845 33.5802 28.9355 33.3138L28.9169 33.3238Z" fill="#0071B3"/>
</svg>
