<svg width="48" height="48" viewBox="0 0 48 48" fill="none" xmlns="http://www.w3.org/2000/svg">
<path fill-rule="evenodd" clip-rule="evenodd" d="M24 7C33.384 7.00971 40.9903 14.616 41 24C41 33.3889 33.3889 41 24 41C14.6111 41 7 33.3889 7 24C7 14.6111 14.6111 7 24 7ZM24 38C31.728 37.9903 37.9903 31.728 38 24C38 16.2681 31.7319 10 24 10C16.2681 10 10 16.2681 10 24C10 31.7319 16.2681 38 24 38ZM19.5 24C18.672 24 18 23.328 18 22.5V19.5C18 18.672 18.672 18 19.5 18C20.328 18 21 18.672 21 19.5V22.5C21 23.328 20.328 24 19.5 24ZM28.5 24C27.672 24 27 23.328 27 22.5V19.5C27 18.672 27.672 18 28.5 18C29.328 18 30 18.672 30 19.5V22.5C30 23.328 29.328 24 28.5 24ZM28.9169 29.1762L28.9355 29.1862C29.3845 28.9198 29.9346 28.9407 30.3641 29.2398C30.7964 29.538 31.0386 30.0678 30.995 30.6155C30.9523 31.1642 30.6313 31.6423 30.16 31.86C28.2397 32.9116 26.119 33.4732 23.963 33.5C21.808 33.4761 19.6891 32.9106 17.7752 31.85C17.086 31.4852 16.8039 30.5907 17.1444 29.8521C17.4849 29.1136 18.3198 28.8114 19.0091 29.1762C22.102 30.9594 25.824 30.9594 28.9169 29.1762Z" fill="#0071B3"/>
</svg>
