<svg width="48" height="48" viewBox="0 0 48 48" fill="none" xmlns="http://www.w3.org/2000/svg">
<path fill-rule="evenodd" clip-rule="evenodd" d="M31.6192 4.01507C31.7298 4.0213 31.8393 4.03983 31.9457 4.07033L32.1028 4.125L32.2372 4.18892C32.3244 4.23587 32.4068 4.29135 32.4831 4.35453L32.5928 4.455L43.5928 15.455V15.505C43.6672 15.5939 43.731 15.6913 43.7828 15.795C43.9323 16.0541 43.998 16.3518 43.9729 16.6475L43.9528 16.795L43.9028 31.275C43.9827 31.6937 43.8765 32.1236 43.6172 32.4554L43.5128 32.575L32.5128 43.575C32.2092 43.8693 31.7957 44.0168 31.379 43.9853L31.2228 43.965H16.7328C16.317 44.0418 15.8911 43.9355 15.5616 43.6784L15.4428 43.575L4.44285 32.575C4.14575 32.2694 3.99772 31.8521 4.03157 31.4323L4.05285 31.275V16.755C3.98516 16.4133 4.04191 16.0586 4.21285 15.755C4.24903 15.6832 4.29094 15.6145 4.33814 15.5495L4.41285 15.455L15.4128 4.455C15.5177 4.34895 15.6376 4.25934 15.7685 4.18892L15.9028 4.125L16.036 4.07801C16.126 4.05095 16.2184 4.03247 16.3119 4.02282L16.4528 4.015L31.6192 4.01507ZM30.8328 7.015H17.0728L6.95285 17.135V30.935L17.0328 41.015H30.8728L40.9528 30.935V17.135L30.8328 7.015ZM23.9528 32.015C24.7813 32.015 25.4528 32.6866 25.4528 33.515C25.4528 34.3434 24.7813 35.015 23.9528 35.015C23.1244 35.015 22.4528 34.3434 22.4528 33.515C22.4528 32.6866 23.1244 32.015 23.9528 32.015ZM23.9528 13.015C24.7813 13.015 25.4528 13.6866 25.4528 14.515V28.515C25.4528 29.3434 24.7813 30.015 23.9528 30.015C23.1244 30.015 22.4528 29.3434 22.4528 28.515V14.515C22.4528 13.6866 23.1244 13.015 23.9528 13.015Z" fill="#0071B3"/>
</svg>
