<svg width="48" height="48" viewBox="0 0 48 48" fill="none" xmlns="http://www.w3.org/2000/svg">
<path d="M35.1358 15.2713C35.5967 14.5829 35.4122 13.6512 34.7238 13.1904C34.0164 12.7168 33.2639 12.3135 32.4764 11.9869C30.9119 11.3382 29.2282 11 27.5 11C21.9022 11 17.1308 14.5381 15.2999 19.5H13.3685C12.6127 19.5 12 20.1716 12 21C12 21.8284 12.6127 22.5 13.3685 22.5H14.5856C14.5291 22.9922 14.5 23.4927 14.5 24C14.5 24.5073 14.5291 25.0078 14.5856 25.5H13.3598C12.6142 25.5 12.0098 26.1716 12.0098 27C12.0098 27.8284 12.6142 28.5 13.3598 28.5H15.2999C17.1308 33.4619 21.9022 37 27.5 37C29.2282 37 30.9119 36.6618 32.4764 36.0131C33.2639 35.6865 34.0164 35.2832 34.7238 34.8096C35.4122 34.3488 35.5967 33.4171 35.1358 32.7287C34.675 32.0403 33.7433 31.8558 33.0549 32.3167C32.5108 32.6809 31.9323 32.991 31.3273 33.2419C30.1255 33.7402 28.8321 34 27.5 34C23.5958 34 20.2141 31.7626 18.5673 28.5H28.6598C29.4054 28.5 30.0098 27.8284 30.0098 27C30.0098 26.1716 29.4054 25.5 28.6598 25.5H17.6118C17.5381 25.0107 17.5 24.5098 17.5 24C17.5 23.4902 17.5381 22.9893 17.6118 22.5H30.6315C31.3873 22.5 32 21.8284 32 21C32 20.1716 31.3873 19.5 30.6315 19.5H18.5673C20.2141 16.2374 23.5958 14 27.5 14C28.8321 14 30.1255 14.2598 31.3273 14.7581C31.9323 15.009 32.5108 15.3191 33.0549 15.6833C33.7433 16.1442 34.675 15.9597 35.1358 15.2713Z" fill="#0071B3"/>
</svg>
