<svg width="48" height="48" viewBox="0 0 48 48" fill="none" xmlns="http://www.w3.org/2000/svg">
<path d="M28.5 13C29.3284 13 30 12.3284 30 11.5V7.5C30 6.67157 29.3284 6 28.5 6H7.5C6.67157 6 6 6.67157 6 7.5V40.5C6 41.3284 6.67157 42 7.5 42H28.5C29.3284 42 30 41.3284 30 40.5V36.5C30 35.6716 29.3284 35 28.5 35C27.6716 35 27 35.6716 27 36.5V39H9V9H27V11.5C27 12.3284 27.6716 13 28.5 13Z" fill="#0071B3"/>
<path d="M33.4393 17.8107L38.1287 22.5H20.5C19.6716 22.5 19 23.1716 19 24C19 24.8284 19.6716 25.5 20.5 25.5H38.4623L33.4765 30.1534C32.8709 30.7187 32.8382 31.6679 33.4034 32.2735C33.9687 32.8791 34.9179 32.9118 35.5235 32.3466L43.0175 25.3522C43.0321 25.3387 43.0465 25.3248 43.0607 25.3107C43.6464 24.7249 43.6464 23.7751 43.0607 23.1893L43.0549 23.1836L35.5607 15.6893C34.9749 15.1036 34.0251 15.1036 33.4393 15.6893C32.8536 16.2751 32.8536 17.2249 33.4393 17.8107Z" fill="#0071B3"/>
</svg>
