<svg width="48" height="48" viewBox="0 0 48 48" fill="none" xmlns="http://www.w3.org/2000/svg">
<path d="M37.5001 9.0002C38.3251 9.0002 39.0001 9.6752 39.0001 10.5002V21.4992C39.0001 22.3242 38.3251 23.0002 37.5001 23.0002C36.6741 23.0002 35.9991 22.3242 35.9991 21.4992V14.1232L23.1221 27.0002C22.5391 27.5832 21.5831 27.5832 21.0001 27.0002C20.4171 26.4162 20.4171 25.4612 21.0001 24.8772L33.8771 12.0002H26.5001C25.6751 12.0002 25.0001 11.3252 25.0001 10.5002C25.0001 9.6752 25.6751 9.0002 26.5001 9.0002H37.5001Z" fill="#0071B3"/>
<path d="M34.0005 28.4997C34.0005 27.6747 34.6755 26.9997 35.5005 26.9997C36.3255 26.9997 37.0005 27.6747 37.0005 28.4997V37.4997C37.0005 38.3247 36.3255 38.9997 35.5005 38.9997H10.5005C9.67449 38.9997 9.00049 38.3247 9.00049 37.4997V12.4997C9.00049 11.7777 9.51749 11.1707 10.1985 11.0307C10.2965 11.0107 10.3975 10.9997 10.5005 10.9997H19.5005C20.3255 10.9997 21.0005 11.6747 21.0005 12.4997C21.0005 13.3247 20.3255 13.9997 19.5005 13.9997H12.0015V35.9997H34.0005V28.4997Z" fill="#0071B3"/>
</svg>
