<svg width="48" height="48" viewBox="0 0 48 48" fill="none" xmlns="http://www.w3.org/2000/svg">
<path fill-rule="evenodd" clip-rule="evenodd" d="M24.0032 29C21.2412 29 19.0032 26.761 19.0032 24C19.0032 21.239 21.2412 19 24.0032 19C26.7642 19 29.0032 21.239 29.0032 24C29.0032 26.761 26.7642 29 24.0032 29ZM24.0032 16C19.5852 16 16.0032 19.582 16.0032 24C16.0032 28.418 19.5852 32 24.0032 32C28.4212 32 32.0032 28.418 32.0032 24C32.0032 19.582 28.4212 16 24.0032 16ZM24.0032 10C12.8702 10 4.54223 18.728 2.25523 21.402C0.968228 22.908 0.968228 25.092 2.25523 26.598C4.54223 29.272 12.8702 38 24.0032 38C35.1362 38 43.4632 29.272 45.7512 26.598C47.0382 25.092 47.0382 22.908 45.7512 21.402C43.4632 18.728 35.1362 10 24.0032 10ZM24.0032 13C33.8902 13 41.4542 20.993 43.4712 23.352C43.7922 23.728 43.7922 24.272 43.4712 24.648C41.4542 27.007 33.8902 35 24.0032 35C14.1162 35 6.55223 27.007 4.53523 24.648C4.21423 24.272 4.21423 23.728 4.53523 23.352C6.55223 20.993 14.1162 13 24.0032 13Z" fill="#0071B3"/>
</svg>
