<svg width="48" height="48" viewBox="0 0 48 48" fill="none" xmlns="http://www.w3.org/2000/svg">
<path fill-rule="evenodd" clip-rule="evenodd" d="M44 34.1498V9.49983C43.9987 8.8967 43.6362 8.35304 43.08 8.11983C42.8974 8.03892 42.6997 7.99801 42.5 7.99983H5.5C5.19974 7.9968 4.90605 8.0877 4.66 8.25983C4.24674 8.53702 3.99914 9.00222 4 9.49983V34.4998C4 35.3283 4.67158 35.9998 5.5 35.9998H10V42.4598C9.99974 42.6487 10.0371 42.8356 10.11 43.0098C10.1892 43.1919 10.3011 43.358 10.44 43.4998C10.581 43.6398 10.7473 43.7518 10.93 43.8298C11.282 43.9765 11.678 43.9765 12.03 43.8298C12.2141 43.7544 12.3809 43.6421 12.52 43.4998L20.07 35.9998H42.54C43.3528 35.9781 44.0003 35.3129 44 34.4998C44.0153 34.3837 44.0153 34.266 44 34.1498ZM18.83 32.9998L15.83 35.9998L13 38.8398V32.9998H7V10.9998H41V32.9998H18.83Z" fill="#0071B3"/>
<path fill-rule="evenodd" clip-rule="evenodd" d="M19 17.9331C19.0042 15.2103 21.2104 13.0041 23.9332 12.9999C26.4304 13.0072 28.5283 14.8794 28.8185 17.3597C29.1087 19.8401 27.4997 22.146 25.0716 22.7296V24.7636C25.0716 25.3923 24.5619 25.902 23.9332 25.902C23.3044 25.902 22.7947 25.3923 22.7947 24.7636V21.7278C22.7947 21.0991 23.3044 20.5894 23.9332 20.5894C25.4002 20.5894 26.5895 19.4001 26.5895 17.9331C26.5895 16.466 25.4002 15.2767 23.9332 15.2767C22.4661 15.2767 21.2769 16.466 21.2769 17.9331C21.2769 18.5618 20.7672 19.0715 20.1384 19.0715C19.5097 19.0715 19 18.5618 19 17.9331ZM23.9333 29.6958C24.562 29.6958 25.0717 29.1861 25.0717 28.5574C25.0717 27.9287 24.562 27.419 23.9333 27.419C23.3045 27.419 22.7949 27.9287 22.7949 28.5574C22.7949 29.1861 23.3045 29.6958 23.9333 29.6958Z" fill="#0071B3"/>
<path fill-rule="evenodd" clip-rule="evenodd" d="M44 34.1498V9.49983C43.9987 8.8967 43.6362 8.35304 43.08 8.11983C42.8974 8.03892 42.6997 7.99801 42.5 7.99983H5.5C5.19974 7.9968 4.90605 8.0877 4.66 8.25983C4.24674 8.53702 3.99914 9.00222 4 9.49983V34.4998C4 35.3283 4.67158 35.9998 5.5 35.9998H10V42.4598C9.99974 42.6487 10.0371 42.8356 10.11 43.0098C10.1892 43.1919 10.3011 43.358 10.44 43.4998C10.581 43.6398 10.7473 43.7518 10.93 43.8298C11.282 43.9765 11.678 43.9765 12.03 43.8298C12.2141 43.7544 12.3809 43.6421 12.52 43.4998L20.07 35.9998H42.54C43.3528 35.9781 44.0003 35.3129 44 34.4998C44.0153 34.3837 44.0153 34.266 44 34.1498ZM18.83 32.9998L15.83 35.9998L13 38.8398V32.9998H7V10.9998H41V32.9998H18.83Z" stroke="#0071B3" stroke-width="0.4"/>
<path fill-rule="evenodd" clip-rule="evenodd" d="M19 17.9331C19.0042 15.2103 21.2104 13.0041 23.9332 12.9999C26.4304 13.0072 28.5283 14.8794 28.8185 17.3597C29.1087 19.8401 27.4997 22.146 25.0716 22.7296V24.7636C25.0716 25.3923 24.5619 25.902 23.9332 25.902C23.3044 25.902 22.7947 25.3923 22.7947 24.7636V21.7278C22.7947 21.0991 23.3044 20.5894 23.9332 20.5894C25.4002 20.5894 26.5895 19.4001 26.5895 17.9331C26.5895 16.466 25.4002 15.2767 23.9332 15.2767C22.4661 15.2767 21.2769 16.466 21.2769 17.9331C21.2769 18.5618 20.7672 19.0715 20.1384 19.0715C19.5097 19.0715 19 18.5618 19 17.9331ZM23.9333 29.6958C24.562 29.6958 25.0717 29.1861 25.0717 28.5574C25.0717 27.9287 24.562 27.419 23.9333 27.419C23.3045 27.419 22.7949 27.9287 22.7949 28.5574C22.7949 29.1861 23.3045 29.6958 23.9333 29.6958Z" stroke="#0071B3" stroke-width="0.4"/>
</svg>
