<svg xmlns="http://www.w3.org/2000/svg" viewBox="2 1.5 44 44" width="48" height="48">
  <g transform="translate(48 0) scale(-1 1)">
    <path fill="#ff9b21" d="M25.8801 5H4.00003V22.6034C4.00003 32.3652 11.6291 41.4906 21.4391 41.4906H43.7991V21.4994C43.7991 11.7362 35.6913 5 25.8801 5Z"/>
    <path fill="#6a281c" d="M39.4966 37.0958H21.4391C14.0815 37.0958 8.43714 29.9255 8.43714 22.6034V9.39479H25.8801C33.2389 9.39479 39.4966 14.1773 39.4966 21.4981V37.0958Z"/>
  </g>
  <path fill="#ffffff" d="M21.7715 33.8245H24.9507V21.6177H28.6504V19.1965H24.9507V17.1172C24.9507 16.1548 25.2953 15.8142 26.3225 15.8142H28.6504V12.8345H26.0732C23.6106 12.8345 21.7715 14.1692 21.7715 17.1172V19.1965H18.1291L18.8227 21.6177H21.7715V33.8245Z"/>
</svg>
