<svg width="48" height="48" viewBox="0 0 48 48" fill="none" xmlns="http://www.w3.org/2000/svg">
<path fill-rule="evenodd" clip-rule="evenodd" d="M7.96426 34.5H7.76426L4.95426 21L9.95426 20V12C9.95944 11.6622 10.0065 11.3263 10.0943 11C10.4599 9.5994 11.5537 8.50561 12.9543 8.14C13.2805 8.05221 13.6164 8.00518 13.9543 8H22.4543V5.5C22.4543 4.67157 23.1258 4 23.9543 4C24.7827 4 25.4543 4.67157 25.4543 5.5V8H33.9543C34.2921 8.00518 34.628 8.05221 34.9543 8.14C36.3549 8.50561 37.4487 9.5994 37.8143 11C37.9021 11.3263 37.9491 11.6622 37.9543 12V20L42.9543 21L40.1243 34.6L39.9243 34.55C39.0066 34.3514 38.0727 34.2376 37.1343 34.21L39.5043 23.32L25.5043 20.38V39.14C24.5375 39.457 23.5091 39.5392 22.5043 39.38V20.38L8.50426 23.32L10.7743 34.28C9.83239 34.2513 8.89019 34.325 7.96426 34.5ZM12.9543 12V19.32L23.9543 17L34.9543 19.32V12C34.9543 11.4477 34.5065 11 33.9543 11H13.9543C13.402 11 12.9543 11.4477 12.9543 12Z" fill="#0071B3"/>
<path d="M40.1243 36.08C41.9232 36.5154 43.6507 37.2057 45.2543 38.13L45.2243 38.09C45.9284 38.5291 46.1433 39.4558 45.7043 40.16C45.2652 40.8642 44.3384 41.0791 43.6343 40.64C42.7195 40.1208 41.7546 39.6953 40.7543 39.37C40.2704 39.2012 39.776 39.0643 39.2743 38.96C38.2912 38.7335 37.2823 38.6394 36.2743 38.68C35.2402 38.7228 34.2231 38.9567 33.2743 39.37C32.5995 39.6625 31.9698 40.0498 31.4043 40.52C30.5489 41.239 29.6321 41.8815 28.6643 42.44C27.6604 43.0264 26.5753 43.4611 25.4443 43.73C24.7882 43.8805 24.1174 43.9576 23.4443 43.96C23.11 43.9599 22.7761 43.9399 22.4443 43.9C20.9552 43.709 19.5218 43.2119 18.2343 42.44C17.2616 41.8841 16.3412 41.2415 15.4843 40.52C14.9353 40.0572 14.3265 39.6704 13.6743 39.37C13.0215 39.0618 12.3277 38.8496 11.6143 38.74C10.6004 38.5877 9.56741 38.6182 8.56426 38.83C7.92562 38.952 7.29962 39.1328 6.69426 39.37C5.85505 39.6801 5.05602 40.0897 4.31426 40.59C3.64088 41.0252 2.74432 40.8539 2.2788 40.2011C1.81329 39.5483 1.94343 38.6449 2.57426 38.15C4.1389 37.08 5.89913 36.3291 7.75426 35.94H7.95426C8.87364 35.7665 9.80905 35.6927 10.7443 35.72H10.9543C13.3288 35.8225 15.6017 36.7126 17.4143 38.25C17.9543 38.69 18.4543 39.07 18.9543 39.41C20.0112 40.1467 21.2157 40.6449 22.4843 40.87C23.4891 41.0292 24.5175 40.9469 25.4843 40.63C26.372 40.3413 27.2138 39.9271 27.9843 39.4C28.5243 39.06 28.9943 38.68 29.5243 38.24C31.6056 36.4996 34.2523 35.5818 36.9643 35.66H37.1643C38.1027 35.6876 39.0366 35.8014 39.9543 36L40.1243 36.08Z" fill="#0071B3"/>
</svg>
