<svg width="48" height="48" viewBox="0 0 48 48" fill="none" xmlns="http://www.w3.org/2000/svg">
<path d="M7.5 15.5H12.5C12.8978 15.5 13.2794 15.342 13.5607 15.0607C13.842 14.7794 14 14.3978 14 14C14 13.6022 13.842 13.2206 13.5607 12.9393C13.2794 12.658 12.8978 12.5 12.5 12.5H7.5C7.10218 12.5 6.72064 12.658 6.43934 12.9393C6.15804 13.2206 6 13.6022 6 14C6 14.3978 6.15804 14.7794 6.43934 15.0607C6.72064 15.342 7.10218 15.5 7.5 15.5ZM18.5 15.5H40.5C40.8978 15.5 41.2794 15.342 41.5607 15.0607C41.842 14.7794 42 14.3978 42 14C42 13.6022 41.842 13.2206 41.5607 12.9393C41.2794 12.658 40.8978 12.5 40.5 12.5H18.5C18.1022 12.5 17.7206 12.658 17.4393 12.9393C17.158 13.2206 17 13.6022 17 14C17 14.3978 17.158 14.7794 17.4393 15.0607C17.7206 15.342 18.1022 15.5 18.5 15.5ZM12.5 22.5H7.5C7.10218 22.5 6.72064 22.658 6.43934 22.9393C6.15804 23.2206 6 23.6022 6 24C6 24.3978 6.15804 24.7794 6.43934 25.0607C6.72064 25.342 7.10218 25.5 7.5 25.5H12.5C12.8978 25.5 13.2794 25.342 13.5607 25.0607C13.842 24.7794 14 24.3978 14 24C14 23.6022 13.842 23.2206 13.5607 22.9393C13.2794 22.658 12.8978 22.5 12.5 22.5ZM18.5 25.5H40.5C40.8978 25.5 41.2794 25.342 41.5607 25.0607C41.842 24.7794 42 24.3978 42 24C42 23.6022 41.842 23.2206 41.5607 22.9393C41.2794 22.658 40.8978 22.5 40.5 22.5H18.5C18.1022 22.5 17.7206 22.658 17.4393 22.9393C17.158 23.2206 17 23.6022 17 24C17 24.3978 17.158 24.7794 17.4393 25.0607C17.7206 25.342 18.1022 25.5 18.5 25.5ZM12.5 32.5H7.5C7.10218 32.5 6.72064 32.658 6.43934 32.9393C6.15804 33.2206 6 33.6022 6 34C6 34.3978 6.15804 34.7794 6.43934 35.0607C6.72064 35.342 7.10218 35.5 7.5 35.5H12.5C12.8978 35.5 13.2794 35.342 13.5607 35.0607C13.842 34.7794 14 34.3978 14 34C14 33.6022 13.842 33.2206 13.5607 32.9393C13.2794 32.658 12.8978 32.5 12.5 32.5ZM40.5 32.5H18.5C18.1022 32.5 17.7206 32.658 17.4393 32.9393C17.158 33.2206 17 33.6022 17 34C17 34.3978 17.158 34.7794 17.4393 35.0607C17.7206 35.342 18.1022 35.5 18.5 35.5H40.5C40.8978 35.5 41.2794 35.342 41.5607 35.0607C41.842 34.7794 42 34.3978 42 34C42 33.6022 41.842 33.2206 41.5607 32.9393C41.2794 32.658 40.8978 32.5 40.5 32.5Z" fill="#0071B3"/>
</svg>
