<svg width="48" height="48" viewBox="0 0 48 48" fill="none" xmlns="http://www.w3.org/2000/svg">
<path fill-rule="evenodd" clip-rule="evenodd" d="M43.7621 6.12C43.7621 6.12 43.7621 6.03 43.8121 5.98C43.8144 5.93336 43.8144 5.88664 43.8121 5.84C43.8121 5.84 43.8121 5.75 43.8121 5.71C43.815 5.65671 43.815 5.60329 43.8121 5.55C43.8121 5.55 43.8121 5.49 43.8121 5.46C43.8146 5.41003 43.8146 5.35997 43.8121 5.31C43.8143 5.26336 43.8143 5.21664 43.8121 5.17V5.04L43.7521 4.9L43.6821 4.78L43.5921 4.65L43.5021 4.55L43.3221 4.37L43.1721 4.28L43.0621 4.22L42.9021 4.08H42.7721L42.6021 4H5.06212L4.90212 4.08L4.75212 4.14L4.64212 4.2L4.49212 4.29L4.31212 4.47L4.22212 4.57L4.13212 4.7L4.06212 4.82L4.00212 5V5.13C4.00212 5.13 4.00212 5.22 4.00212 5.27C3.99929 5.3233 3.99929 5.3767 4.00212 5.43C4.00212 5.43 4.00212 5.49 4.00212 5.52C3.99933 5.5733 3.99933 5.6267 4.00212 5.68C4.00212 5.68 4.00212 5.77 4.00212 5.81C3.99991 5.85664 3.99991 5.90336 4.00212 5.95C4.00212 5.95 4.00212 6.04 4.05212 6.09L4.12212 6.21L4.20212 6.34L18.4021 24.9V42.48C18.4021 42.48 18.4021 42.53 18.4021 42.56C18.3972 42.6299 18.3972 42.7001 18.4021 42.77C18.516 43.346 18.9574 43.8014 19.5296 43.9331C20.1018 44.0648 20.6979 43.8482 21.0521 43.38L29.0521 32.96C29.1996 32.7634 29.2959 32.5331 29.3321 32.29C29.3353 32.2334 29.3353 32.1766 29.3321 32.12C29.3321 32.12 29.3321 32.05 29.3321 32.01V24.91L43.5921 6.41L43.6721 6.27L43.7621 6.12ZM26.7121 23.48C26.6342 23.5845 26.5703 23.6988 26.5221 23.82C26.4936 23.8882 26.4702 23.9584 26.4521 24.03C26.4521 24.03 26.4521 24.12 26.4521 24.16C26.4521 24.2 26.4521 24.25 26.4521 24.29C26.4521 24.33 26.4521 24.29 26.4521 24.36V31.51L21.4521 38.03V24.42C21.4492 24.2774 21.4256 24.1359 21.3821 24C21.326 23.818 21.2416 23.6459 21.1321 23.49L8.44212 7H39.3621L26.7121 23.48Z" fill="#0071B3"/>
</svg>
