<svg width="48" height="48" viewBox="0 0 48 48" fill="none" xmlns="http://www.w3.org/2000/svg">
<path fill-rule="evenodd" clip-rule="evenodd" d="M16 24C16 28.4109 19.589 32 24 32C28.411 32 32 28.4109 32 24C32 19.588 28.411 16 24 16C19.589 16 16 19.588 16 24ZM19 24C19 21.2431 21.243 19 24 19C26.757 19 29 21.2431 29 24C29 26.7569 26.757 29 24 29C21.243 29 19 26.7569 19 24Z" fill="#0071B3"/>
<path fill-rule="evenodd" clip-rule="evenodd" d="M24.1216 39.8778C25.6356 41.5408 27.7776 42.5118 30.1066 42.5118C34.6016 42.5118 38.2576 38.8558 38.2576 34.3618C38.2576 33.5368 38.1336 32.7258 37.8926 31.9498C41.5236 31.1288 44.2436 27.8758 44.2436 23.9998C44.2436 20.1238 41.5236 16.8718 37.8926 16.0498C38.1336 15.2748 38.2576 14.4628 38.2576 13.6378C38.2576 9.1438 34.6016 5.4878 30.1066 5.4878C27.7776 5.4878 25.6356 6.4598 24.1216 8.1228C22.6076 6.4598 20.4656 5.4878 18.1366 5.4878C13.6416 5.4878 9.98557 9.1438 9.98557 13.6378C9.98557 14.4628 10.1096 15.2748 10.3506 16.0498C6.71957 16.8718 3.99957 20.1238 3.99957 23.9998C3.99957 27.8758 6.71957 31.1288 10.3506 31.9498C10.1096 32.7248 9.98557 33.5358 9.98557 34.3618C9.98557 38.8558 13.6416 42.5118 18.1366 42.5118C20.4656 42.5118 22.6076 41.5408 24.1216 39.8778ZM25.4756 36.5668C25.2256 36.0448 24.6996 35.7128 24.1216 35.7128C23.5436 35.7128 23.0176 36.0448 22.7676 36.5668C21.8996 38.3828 20.1256 39.5118 18.1366 39.5118C15.2956 39.5118 12.9856 37.2018 12.9856 34.3618C12.9856 33.3188 13.2996 32.3128 13.8926 31.4498C14.2206 30.9738 14.2456 30.3518 13.9566 29.8508C13.6686 29.3498 13.1196 29.0588 12.5416 29.1038C12.4466 29.1107 12.3545 29.1233 12.2615 29.136L12.2556 29.1368L12.1506 29.1508C9.31057 29.1508 6.99957 26.8398 6.99957 23.9998C6.99957 21.1598 9.31057 18.8498 12.1416 18.8498L12.2556 18.8628C12.3506 18.8768 12.4446 18.8888 12.5416 18.8958C13.1206 18.9418 13.6686 18.6498 13.9566 18.1498C14.2456 17.6488 14.2206 17.0258 13.8926 16.5498C13.2996 15.6868 12.9856 14.6798 12.9856 13.6378C12.9856 10.7978 15.2956 8.4878 18.1366 8.4878C20.1256 8.4878 21.8996 9.6168 22.7676 11.4338C23.0176 11.9548 23.5436 12.2868 24.1216 12.2868C24.6996 12.2868 25.2256 11.9548 25.4756 11.4338C26.3436 9.6168 28.1176 8.4878 30.1066 8.4878C32.9476 8.4878 35.2576 10.7978 35.2576 13.6378C35.2576 14.6798 34.9436 15.6868 34.3506 16.5498C34.0226 17.0258 33.9976 17.6488 34.2866 18.1498C34.5746 18.6498 35.1216 18.9408 35.7026 18.8958C35.7976 18.8888 35.8926 18.8768 35.9866 18.8628L36.0926 18.8498C38.9326 18.8498 41.2436 21.1598 41.2436 23.9998C41.2436 26.8398 38.9326 29.1508 36.1016 29.1508L35.9866 29.1368C35.8926 29.1238 35.7976 29.1108 35.7026 29.1038C35.1226 29.0598 34.5756 29.3498 34.2866 29.8508C33.9976 30.3518 34.0226 30.9738 34.3506 31.4498C34.9436 32.3128 35.2576 33.3198 35.2576 34.3618C35.2576 37.2018 32.9476 39.5118 30.1066 39.5118C28.1176 39.5118 26.3436 38.3828 25.4756 36.5668Z" fill="#0071B3"/>
</svg>
