<svg width="48" height="48" viewBox="0 0 48 48" fill="none" xmlns="http://www.w3.org/2000/svg">
<path fill-rule="evenodd" clip-rule="evenodd" d="M26 36V43H28.5045C29.3304 43 30 43.6658 30 44.5C30 45.3284 29.3204 46 28.5045 46H19.4955C18.6696 46 18 45.3342 18 44.5C18 43.6716 18.6796 43 19.4955 43H22V36H12.9911C11.3392 36 10 34.6569 10 32.9921V9.00793C10 7.3467 11.3418 6 12.9911 6H22V4.00488C22 2.89762 22.8877 2 24 2C25.1046 2 26 2.8939 26 4.00488V6H35.0089C36.6608 6 38 7.34312 38 9.00793V32.9921C38 34.6533 36.6582 36 35.0089 36H26ZM35 9.00793C35 9.00228 12.9911 9 12.9911 9C13.0011 9 13 32.9921 13 32.9921C13 32.9977 35.0089 33 35.0089 33C35.0024 33 35 9.00793 35 9.00793ZM16 16.4986C16 15.6709 16.6671 15 17.5052 15H30.4948C31.3261 15 32 15.665 32 16.4986V19.5014C32 20.3291 31.3329 21 30.4948 21H17.5052C16.6739 21 16 20.335 16 19.5014V16.4986Z" fill="#0071B3"/>
</svg>
