<svg width="48" height="48" viewBox="0 0 48 48" fill="none" xmlns="http://www.w3.org/2000/svg">
<path d="M22.5 5.5C22.5 4.671 23.171 4 24 4C24.829 4 25.5 4.671 25.5 5.5V14.5C25.5 15.329 24.829 16 24 16C23.171 16 22.5 15.329 22.5 14.5V5.5Z" fill="#0071B3"/>
<path d="M22.5 33.5C22.5 32.671 23.171 32 24 32C24.829 32 25.5 32.671 25.5 33.5V42.5C25.5 43.329 24.829 44 24 44C23.171 44 22.5 43.329 22.5 42.5V33.5Z" fill="#0071B3"/>
<path d="M33.1919 16.9297L38.1419 11.9797C38.7269 11.3937 38.7269 10.4447 38.1419 9.8587C37.5559 9.2727 36.6059 9.2727 36.0199 9.8587L31.0699 14.8077C30.4839 15.3937 30.4839 16.3437 31.0699 16.9297C31.6559 17.5157 32.6059 17.5157 33.1919 16.9297Z" fill="#0071B3"/>
<path d="M9.8586 36.0203L14.8086 31.0703C15.3936 30.4843 16.3436 30.4843 16.9296 31.0703C17.5156 31.6563 17.5156 32.6063 16.9296 33.1913L11.9796 38.1413C11.3936 38.7273 10.4446 38.7273 9.8586 38.1413C9.2726 37.5553 9.2726 36.6063 9.8586 36.0203Z" fill="#0071B3"/>
<path d="M42.5 22.5H33.5C32.671 22.5 32 23.171 32 24C32 24.829 32.671 25.5 33.5 25.5H42.5C43.329 25.5 44 24.829 44 24C44 23.171 43.329 22.5 42.5 22.5Z" fill="#0071B3"/>
<path d="M14.5 22.5C15.329 22.5 16 23.171 16 24C16 24.829 15.329 25.5 14.5 25.5H5.5C4.671 25.5 4 24.829 4 24C4 23.171 4.671 22.5 5.5 22.5H14.5Z" fill="#0071B3"/>
<path d="M33.1919 31.0703C32.6059 30.4843 31.6559 30.4843 31.0699 31.0703C30.4839 31.6563 30.4839 32.6063 31.0699 33.1913L36.0199 38.1413C36.6059 38.7273 37.5559 38.7273 38.1419 38.1413C38.7269 37.5553 38.7269 36.6063 38.1419 36.0203L33.1919 31.0703Z" fill="#0071B3"/>
<path d="M9.858 9.8584C10.444 9.2734 11.394 9.2734 11.98 9.8584L16.93 14.8084C17.516 15.3944 17.516 16.3434 16.93 16.9294C16.344 17.5154 15.394 17.5154 14.809 16.9294L9.858 11.9804C9.273 11.3944 9.273 10.4444 9.858 9.8584Z" fill="#0071B3"/>
</svg>
