<svg width="48" height="48" viewBox="0 0 48 48" fill="none" xmlns="http://www.w3.org/2000/svg">
<path fill-rule="evenodd" clip-rule="evenodd" d="M42 7.5C41.9925 7.32824 41.9552 7.15907 41.89 7C41.7376 6.62779 41.4422 6.33235 41.07 6.18C40.8941 6.08211 40.7002 6.02088 40.5 6H31.5C30.6716 6 30 6.67157 30 7.5C30 8.32843 30.6716 9 31.5 9H36.88L26.44 19.44C25.8893 20.031 25.9055 20.952 26.4768 21.5232C27.048 22.0945 27.969 22.1107 28.56 21.56L39 11.12V16.5C39 17.3284 39.6716 18 40.5 18C41.3284 18 42 17.3284 42 16.5V7.5ZM19.44 26.44L9 36.88V31.5C9 30.6716 8.32843 30 7.5 30C6.67157 30 6 30.6716 6 31.5V40.5C6.00024 40.692 6.03759 40.8822 6.11 41.06C6.26041 41.4335 6.5565 41.7296 6.93 41.88C7.11025 41.9571 7.30396 41.9979 7.5 42H16.5C17.3284 42 18 41.3284 18 40.5C18 39.6716 17.3284 39 16.5 39H11.12L21.56 28.56C22.1107 27.969 22.0945 27.048 21.5232 26.4768C20.952 25.9055 20.031 25.8893 19.44 26.44Z" fill="#0071B3"/>
</svg>
