<svg width="48" height="48" viewBox="0 0 48 48" fill="none" xmlns="http://www.w3.org/2000/svg">
<path d="M39.4385 6.4394C40.0235 5.8534 40.9735 5.8534 41.5595 6.4394C42.1455 7.0244 42.1455 7.9754 41.5595 8.5604L31.1215 18.9994H36.4985C37.3275 18.9994 37.9985 19.6704 37.9985 20.4994C37.9985 21.3274 37.3275 21.9994 36.4985 21.9994H27.4995C27.3035 21.9994 27.1165 21.9594 26.9455 21.8914C26.9405 21.8894 26.9365 21.8884 26.9325 21.8874C26.5595 21.7344 26.2635 21.4384 26.1105 21.0654C26.1095 21.0634 26.1095 21.0604 26.1085 21.0574C26.0385 20.8844 25.9985 20.6974 25.9985 20.4994V11.4994C25.9985 10.6704 26.6705 9.9994 27.4985 9.9994C28.3275 9.9994 28.9985 10.6704 28.9985 11.4994V16.8784L39.4385 6.4394Z" fill="#0071B3"/>
<path d="M21.8919 26.9519C21.9589 27.1219 21.9989 27.3059 21.9989 27.4999V36.4999C21.9989 37.3279 21.3269 37.9999 20.4989 37.9999C19.6699 37.9999 18.9989 37.3279 18.9989 36.4999V31.1219L8.5609 41.5599C7.97491 42.1459 7.0249 42.1459 6.4389 41.5599C5.8529 40.9739 5.8529 40.0239 6.4389 39.4379L16.8779 28.9999H11.4989C10.6699 28.9999 9.9989 28.3279 9.9989 27.4999C9.9989 26.6709 10.6699 25.9999 11.4989 25.9999H20.4989C20.6939 25.9999 20.8799 26.0399 21.0509 26.1079C21.0534 26.1087 21.0557 26.1094 21.058 26.11C21.0611 26.1109 21.064 26.1117 21.0669 26.1129C21.0692 26.1138 21.0716 26.1145 21.074 26.1152C21.0769 26.116 21.0797 26.1168 21.0819 26.1179C21.2619 26.1929 21.4239 26.3029 21.5599 26.4389C21.6989 26.5789 21.8099 26.7459 21.8859 26.9309C21.8874 26.9344 21.8882 26.9379 21.8889 26.9414C21.8897 26.9449 21.8904 26.9484 21.8919 26.9519Z" fill="#0071B3"/>
</svg>
