<svg width="48" height="48" viewBox="0 0 48 48" fill="none" xmlns="http://www.w3.org/2000/svg">
<path d="M43.7 20.46L24.86 7.27001C24.7894 7.21669 24.7121 7.17298 24.63 7.14001L24.42 7.07001H23.68L23.47 7.14001C23.3879 7.17298 23.3106 7.21669 23.24 7.27001L4.3 20.46C4.12064 20.5637 3.96469 20.7034 3.84199 20.8703C3.7193 21.0372 3.6325 21.2277 3.58709 21.4299C3.54167 21.632 3.53862 21.8413 3.57812 22.0447C3.61761 22.2481 3.69881 22.441 3.81659 22.6115C3.93436 22.7819 4.08617 22.9261 4.26243 23.0349C4.43869 23.1438 4.63559 23.215 4.84072 23.2439C5.04585 23.2729 5.25476 23.2591 5.45428 23.2034C5.6538 23.1476 5.83961 23.0511 6 22.92L24 10.33L42 22.92C42.1615 23.0329 42.3437 23.113 42.5362 23.1555C42.7286 23.198 42.9276 23.2022 43.1216 23.1679C43.3157 23.1335 43.5011 23.0613 43.6673 22.9552C43.8334 22.8492 43.9771 22.7115 44.09 22.55C44.2029 22.3885 44.283 22.2063 44.3255 22.0138C44.368 21.8214 44.3722 21.6225 44.3379 21.4284C44.3035 21.2343 44.2313 21.0489 44.1252 20.8827C44.0192 20.7166 43.8815 20.5729 43.72 20.46H43.7Z" fill="#0071B3"/>
<path d="M37 38H35V22.5C35.0018 22.3003 34.9609 22.1026 34.88 21.92C34.7659 21.648 34.5742 21.4156 34.3287 21.2519C34.0833 21.0883 33.795 21.0007 33.5 21H14.5C14.1022 21 13.7206 21.158 13.4393 21.4393C13.158 21.7207 13 22.1022 13 22.5V38H11V20.44L8 22.54V39.54C8.01043 39.9309 8.17306 40.3022 8.45324 40.5749C8.73342 40.8476 9.10901 41.0001 9.5 41H14.5C14.8978 41 15.2794 40.842 15.5607 40.5607C15.842 40.2794 16 39.8978 16 39.5V36H32V39.5C32 39.8978 32.158 40.2794 32.4393 40.5607C32.7206 40.842 33.1022 41 33.5 41H38.5C38.8978 41 39.2794 40.842 39.5607 40.5607C39.842 40.2794 40 39.8978 40 39.5V22.5L37 20.4V38ZM16 24H32V27H16V24ZM16 33V30H32V33H16Z" fill="#0071B3"/>
</svg>
