<svg width="48" height="48" viewBox="0 0 48 48" fill="none" xmlns="http://www.w3.org/2000/svg">
<path fill-rule="evenodd" clip-rule="evenodd" d="M42.997 28.6996C42.9824 28.5604 42.9627 28.4913 42.9381 28.424C42.908 28.349 42.8718 28.2766 42.8299 28.2075C42.7832 28.1375 42.7306 28.0716 42.6727 28.0106C42.6096 27.9452 42.5405 27.8859 42.4663 27.8335C42.3891 27.7797 42.3068 27.7335 42.2206 27.6957C40.7028 27.0998 39.7098 25.6276 39.7244 23.9951C39.7297 23.923 39.7297 23.8506 39.7244 23.7786C39.8003 22.2978 40.7006 20.9853 42.0536 20.3831C42.1397 20.3452 42.222 20.2991 42.2993 20.2453C42.3734 20.1928 42.4425 20.1334 42.5056 20.0681C42.5636 20.0071 42.6162 19.9413 42.6629 19.8713C42.7047 19.8022 42.7409 19.7298 42.771 19.6548C42.7957 19.5874 42.8154 19.5183 42.8299 19.4481C42.8339 19.3169 42.8339 19.2544 42.8299 19.1922C42.8299 19.0445 42.8299 19.015 42.8299 18.9855C42.8307 18.8559 42.8142 18.7268 42.7808 18.6017C42.364 17.1589 41.3066 14.9163 41.0511 14.4582C40.7956 14 40.7215 13.6807 39.3608 13.7692C38 13.8578 36.257 13.9882 35.1545 12.8835C35.1545 12.8835 35.0759 12.8835 35.0464 12.8047C34.0138 11.7005 33.7043 10.1013 34.2503 8.69075C34.2849 8.60488 34.3113 8.5159 34.329 8.42502C34.337 8.33663 34.337 8.24768 34.329 8.15929C34.3358 8.07741 34.3358 7.99511 34.329 7.91323C34.3089 7.83578 34.2826 7.76008 34.2503 7.68687C34.223 7.53911 34.1733 7.3964 34.1029 7.26366L33.985 7.05698L33.8277 7.00777L33.7 6.90935L33.5821 6.83061C32.2737 6.09633 30.8855 5.51512 29.4446 5.09842H28.737L28.4618 5.15747L28.2063 5.25589L27.9311 5.39368C27.8658 5.45689 27.8066 5.52609 27.7542 5.60036C27.7005 5.67773 27.6544 5.76013 27.6166 5.84641C27.0322 7.23432 25.7083 8.16663 24.2064 8.24786H24C22.4414 8.24721 21.0304 7.32447 20.4031 5.89562C20.3658 5.80595 20.3197 5.72022 20.2655 5.63973C20.2102 5.54397 20.1443 5.45481 20.0689 5.374L19.8724 5.22637L19.6758 5.12795L19.381 5H18.7029C17.2595 5.40989 15.868 5.98449 14.5556 6.71251C14.4406 6.77673 14.3348 6.85618 14.2411 6.94872L13.9266 7.26366C13.8861 7.38232 13.8499 7.44482 13.8185 7.50971C13.7862 7.58289 13.7599 7.6586 13.7399 7.73608C13.7324 7.82121 13.7324 7.90684 13.7399 7.99197C13.7318 8.08037 13.7318 8.16931 13.7399 8.25771C13.757 8.35193 13.7833 8.44423 13.8185 8.53328C14.3645 9.94387 14.0551 11.543 13.0224 12.6472C13.0224 12.6472 12.9438 12.6472 12.9143 12.726C11.8118 13.8307 10.1615 14.1782 8.70807 13.6118L8.4329 13.533H7.76461L7.55823 13.6019L7.32236 13.7003L7.11598 13.8578L7.02753 13.9464L6.92925 14.1531L6.84081 14.281C6.10759 15.5912 5.52722 16.9815 5.11113 18.4245C5.10713 18.4868 5.10713 18.5492 5.11113 18.6115V18.7296C5.10833 18.7821 5.10833 18.8346 5.11113 18.8871C5.10713 19.0576 5.10713 19.1201 5.11113 19.1823C5.12574 19.3215 5.14545 19.3905 5.17009 19.4579C5.20019 19.5329 5.23634 19.6053 5.2782 19.6744C5.32487 19.7444 5.37748 19.8103 5.43544 19.8713C5.49856 19.9367 5.56766 19.996 5.64182 20.0484C5.71911 20.1022 5.80139 20.1483 5.88752 20.1862C7.24046 20.7885 8.14075 22.1009 8.21669 23.5817C8.21136 23.6538 8.21136 23.7262 8.21669 23.7982C8.21603 25.3591 7.29463 26.7722 5.86786 27.4004C5.78171 27.4383 5.69942 27.4844 5.62217 27.5382C5.54804 27.5907 5.47895 27.65 5.41578 27.7154C5.26892 27.7795 5.2163 27.8486 5.17009 27.922C5.1282 27.9911 5.09204 28.0635 5.06199 28.1386C5.03684 28.2091 5.01712 28.2815 5.00302 28.3551C4.99899 28.4862 4.99899 28.5487 5.00302 28.611C5.0002 28.7717 5.0002 28.8243 5.00302 28.8767C5.00302 28.8767 5.00302 28.9653 5.00302 29.0145C5.41231 30.46 5.98608 31.8535 6.71304 33.1678C6.7839 33.2952 6.87333 33.4113 6.97839 33.5123L7.09633 33.6304C7.16033 33.6889 7.2294 33.7416 7.30271 33.7879L7.42064 33.8568L7.6172 33.9355H7.74496C7.84624 33.946 7.94834 33.946 8.04962 33.9355H8.32479L8.51152 33.8863C9.97902 33.3395 11.5758 33.6494 12.6785 34.6835C12.6785 34.6835 12.6785 34.7622 12.7571 34.8016C13.8602 35.9057 14.2073 37.5585 13.6416 39.014C13.607 39.0999 13.5807 39.1888 13.563 39.2797C13.5549 39.3681 13.5549 39.4571 13.563 39.5455C13.5561 39.6273 13.5561 39.7096 13.563 39.7915C13.5831 39.869 13.6093 39.9447 13.6416 40.0179C13.673 40.0828 13.7092 40.1453 13.7497 40.2049L13.8676 40.4116L14.0642 40.5887L14.1821 40.6674L14.3001 40.7265L15.047 41.1103L15.1551 41.1694C16.2124 41.6876 17.3143 42.1093 18.4474 42.4292C18.5616 42.4428 18.6771 42.4428 18.7913 42.4292H18.9191C19.0221 42.4235 19.1242 42.407 19.2237 42.38C19.295 42.3527 19.364 42.3197 19.4301 42.2815L19.6169 42.1831C19.6834 42.136 19.7459 42.0833 19.8036 42.0256L19.9412 41.8879C19.9938 41.8168 20.0399 41.741 20.0788 41.6615C20.0788 41.6615 20.0788 41.6024 20.1377 41.5631C20.9708 40.2705 22.4795 39.5824 24 39.8013H24.2064C25.685 39.8774 26.9956 40.779 27.597 42.1339C27.597 42.1339 27.597 42.193 27.6559 42.2323C27.6948 42.3118 27.7408 42.3876 27.7935 42.4587L27.9311 42.5965C27.9888 42.6541 28.0513 42.7068 28.1178 42.7539L28.3046 42.8524C28.3707 42.8906 28.4397 42.9235 28.5109 42.9508C28.6105 42.9778 28.7126 42.9943 28.8156 43H29.081C29.2206 43 29.3596 42.9801 29.4937 42.9409C30.9348 42.5247 32.3231 41.9434 33.6312 41.2088L33.7491 41.13L33.8769 41.0316L34.0734 40.8052C34.1144 40.6834 34.1506 40.6176 34.1815 40.5493C34.2138 40.4761 34.2401 40.4004 34.2602 40.323C34.2676 40.2378 34.2676 40.1522 34.2602 40.0671C34.2682 39.9787 34.2682 39.8897 34.2602 39.8013C34.2424 39.7105 34.2161 39.6215 34.1815 39.5356C33.6159 38.0801 33.9629 36.4273 35.066 35.3232C35.066 35.3232 35.066 35.2445 35.1447 35.2051C36.2473 34.171 37.8441 33.8611 39.2527 34.4079L39.5082 34.467H39.7834C39.8814 34.4769 39.9802 34.4769 40.0782 34.467H40.2256L40.4025 34.3981L40.5303 34.3292L40.7268 34.1816C40.8791 34.0366 40.9517 33.9407 41.0118 33.8371C41.8077 32.4343 42.3815 31.0407 42.7906 29.5952C42.7931 29.546 42.9541 29.1563 42.997 28.9948C43.001 28.8243 43.001 28.7618 42.997 28.6996ZM33.0514 33.0596C32.9906 33.1359 32.9379 33.2184 32.8941 33.3056C31.4653 34.8647 30.8311 36.9948 31.1743 39.0829C30.6617 39.3295 30.1369 39.5496 29.6018 39.7423C28.3245 37.9051 26.2354 36.804 24 36.7897C23.8598 36.7926 23.7208 36.8158 23.5873 36.8586C21.5147 36.9878 19.6114 38.0475 18.408 39.7423C18.1132 39.6439 17.8184 39.5553 17.5334 39.4372L17.2975 39.3289L16.816 39.0927C17.1744 36.9934 16.5431 34.846 15.1059 33.2761C15.0622 33.1888 15.0095 33.1064 14.9487 33.03C13.3666 31.4566 11.1211 30.7486 8.92428 31.1305C8.68197 30.6235 8.46549 30.1045 8.27565 29.5755C9.95538 28.3706 11.0054 26.4735 11.1355 24.4084C11.1849 24.2757 11.2147 24.1364 11.224 23.9951C11.2097 21.7564 10.1102 19.6643 8.27565 18.3851C8.46258 17.8597 8.67578 17.344 8.91446 16.8399C11.024 17.2058 13.1826 16.5569 14.7423 15.0881C14.815 15.0484 14.8841 15.0022 14.9487 14.9503C16.5199 13.3659 17.2268 11.1172 16.8454 8.91712C17.3578 8.66717 17.8826 8.44378 18.4179 8.24786C19.621 9.93003 21.5154 10.9816 23.5774 11.1119C23.7131 11.1623 23.8555 11.1922 24 11.2005C26.2354 11.1862 28.3245 10.0851 29.6018 8.24786C30.126 8.43158 30.637 8.64482 31.135 8.88759C30.7594 11.0861 31.4699 13.3306 33.0415 14.9109C33.1061 14.9628 33.1752 15.0089 33.2479 15.0487C34.8005 16.5164 36.9512 17.1688 39.0561 16.8104C39.3052 17.317 39.5282 17.836 39.7244 18.3654C37.8842 19.6486 36.7839 21.7495 36.7761 23.9951C36.778 24.1388 36.8012 24.2814 36.8449 24.4183C36.9796 26.4868 38.0372 28.3845 39.7244 29.5853C39.5352 30.121 39.3187 30.6466 39.0758 31.1601C36.8789 30.7781 34.6334 31.4861 33.0514 33.0596ZM24 28C26.2091 28 28 26.2091 28 24C28 21.7909 26.2091 20 24 20C21.7909 20 20 21.7909 20 24C20 26.2091 21.7909 28 24 28ZM24 31C20.134 31 17 27.866 17 24C17 20.134 20.134 17 24 17C27.866 17 31 20.134 31 24C31 27.866 27.866 31 24 31Z" fill="#0071B3"/>
</svg>
