<svg width="48" height="48" viewBox="0 0 48 48" fill="none" xmlns="http://www.w3.org/2000/svg">
<path d="M32.4995 9H15.4995C14.6715 9 13.9995 8.329 13.9995 7.5C13.9995 6.671 14.6715 6 15.4995 6H32.4995C33.3275 6 33.9995 6.671 33.9995 7.5C33.9995 8.329 33.3275 9 32.4995 9Z" fill="#0071B3"/>
<path d="M32.5 17H15.5C14.672 17 14 16.329 14 15.5C14 14.671 14.672 14 15.5 14H32.5C33.329 14 34 14.671 34 15.5C34 16.329 33.329 17 32.5 17Z" fill="#0071B3"/>
<path d="M15.4995 25H32.4995C33.3285 25 33.9995 24.329 33.9995 23.5C33.9995 22.671 33.3285 22 32.4995 22H15.4995C14.6715 22 13.9995 22.671 13.9995 23.5C13.9995 24.329 14.6715 25 15.4995 25Z" fill="#0071B3"/>
<path d="M32.5 33.0005H15.5C14.672 33.0005 14 32.3295 14 31.5005C14 30.6715 14.672 30.0005 15.5 30.0005H32.5C33.329 30.0005 34 30.6715 34 31.5005C34 32.3295 33.329 33.0005 32.5 33.0005Z" fill="#0071B3"/>
<path d="M15.4995 41H32.4995C33.3275 41 33.9995 40.329 33.9995 39.5C33.9995 38.671 33.3275 38 32.4995 38H15.4995C14.6715 38 13.9995 38.671 13.9995 39.5C13.9995 40.329 14.6715 41 15.4995 41Z" fill="#0071B3"/>
</svg>
