<svg width="48" height="48" viewBox="0 0 48 48" fill="none" xmlns="http://www.w3.org/2000/svg">
<path fill-rule="evenodd" clip-rule="evenodd" d="M20.1113 41.7833C19.5253 42.3643 18.5773 42.3633 17.9943 41.7793C17.4113 41.1963 17.4103 40.2483 17.9903 39.6633L17.9943 39.6583L19.7633 37.8893L21.8843 40.0103L20.1113 41.7833ZM15.8723 37.5373C15.8713 37.5383 15.8693 37.5393 15.8683 37.5413C15.2833 38.1213 14.3353 38.1203 13.7513 37.5373C13.1683 36.9533 13.1673 36.0053 13.7473 35.4203C13.7493 35.4193 13.7503 35.4173 13.7513 35.4163L14.8133 34.3533L15.5203 33.6473C15.5213 33.6473 15.5213 33.6463 15.5213 33.6463C16.1063 33.0613 17.0573 33.0623 17.6423 33.6463C18.2273 34.2313 18.2273 35.1833 17.6423 35.7683L15.8723 37.5373ZM13.4003 31.5253H13.3993L11.6303 33.2943C11.6283 33.2963 11.6273 33.2963 11.6253 33.2983C11.0403 33.8793 10.0923 33.8783 9.50929 33.2943C8.92529 32.7113 8.92429 31.7633 9.50529 31.1773L11.2783 29.4033L11.8273 28.8553L14.8133 25.8683C15.3983 25.2833 16.3503 25.2833 16.9353 25.8683C17.5193 26.4533 17.5193 27.4043 16.9353 27.9893C16.9343 27.9893 16.9343 27.9903 16.9343 27.9903L13.4003 31.5253ZM34.2593 37.5353C34.6333 37.1613 34.9103 36.7323 35.1243 36.2803C35.3803 35.7423 35.5243 35.1703 35.5543 34.5883C36.1373 34.5583 36.7093 34.4143 37.2463 34.1583C37.6983 33.9433 38.1283 33.6673 38.5013 33.2933C38.8753 32.9193 39.1523 32.4893 39.3673 32.0383C40.0933 30.5113 39.9143 28.6733 38.8263 27.3113L44.8643 21.2743C44.8643 21.2733 44.8653 21.2733 44.8663 21.2723C44.8663 21.2713 44.8663 21.2713 44.8673 21.2703C45.4513 20.6843 45.4513 19.7353 44.8663 19.1503C44.2803 18.5653 43.3303 18.5653 42.7443 19.1503L36.7333 25.1613L24.7133 13.1403L25.0663 12.7873C25.6523 12.2013 25.6523 11.2513 25.0663 10.6653C24.4803 10.0803 23.5313 10.0803 22.9453 10.6653L20.0633 13.5473L19.7953 13.8163L17.9963 15.6133L17.9943 15.6163C17.4093 16.2003 16.4583 16.1993 15.8743 15.6153C15.2903 15.0303 15.2893 14.0803 15.8733 13.4953L18.2493 11.1193L18.3483 11.0193L22.9453 6.42231C23.0693 6.29831 23.2123 6.20731 23.3623 6.13531C23.9193 5.87031 24.6053 5.96231 25.0663 6.42231L28.6023 9.95831C29.1883 10.5443 30.1383 10.5443 30.7233 9.95831L31.7843 8.8983L32.1393 8.5423C32.7143 7.96731 32.7213 7.04431 32.1673 6.45631C32.1573 6.44431 32.1503 6.43231 32.1393 6.42131C32.1283 6.41031 32.1163 6.40331 32.1043 6.39331C31.5163 5.83931 30.5933 5.84631 30.0173 6.42131L29.6623 6.77631L27.1883 4.30131C26.8133 3.92731 26.3863 3.64631 25.9333 3.43531C25.3963 3.18431 24.8223 3.03631 24.2413 3.00631C24.0833 2.99831 23.9283 2.99831 23.7713 3.00631C23.1893 3.03631 22.6163 3.18431 22.0793 3.43531C21.6263 3.64631 21.1983 3.92731 20.8243 4.30131L19.7663 5.35831C19.7653 5.36031 19.7643 5.36131 19.7633 5.36231C19.7633 5.36231 19.7623 5.36231 19.7623 5.36331L18.3483 6.77631L17.2913 5.71931C17.2903 5.71831 17.2893 5.71631 17.2883 5.71531C17.2873 5.71431 17.2863 5.71431 17.2853 5.71331C16.6993 5.13031 15.7523 5.13131 15.1673 5.71531C14.5813 6.30131 14.5813 7.25131 15.1673 7.83731L16.2273 8.8983L13.7513 11.3743C12.3683 12.7573 12.0933 14.8103 12.8873 16.4813C13.1023 16.9323 13.3793 17.3623 13.7533 17.7363C14.1273 18.1103 14.5573 18.3873 15.0083 18.6023C16.6793 19.3973 18.7323 19.1203 20.1153 17.7373C20.1163 17.7373 20.1173 17.7373 20.1173 17.7363L22.5913 15.2623L36.3753 29.0463L36.3843 29.0543C36.5073 29.1783 36.5983 29.3203 36.6683 29.4693C36.9323 30.0253 36.8413 30.7113 36.3803 31.1713C35.9203 31.6313 35.2353 31.7233 34.6783 31.4593C34.5293 31.3883 34.3873 31.2973 34.2643 31.1753L34.2593 31.1713L29.3093 26.2223C28.7233 25.6363 27.7743 25.6363 27.1883 26.2223C26.6023 26.8073 26.6023 27.7573 27.1883 28.3433L32.1383 33.2933C32.1393 33.2943 32.1403 33.2963 32.1413 33.2973C32.2643 33.4213 32.3543 33.5633 32.4253 33.7123C32.6903 34.2693 32.5983 34.9543 32.1383 35.4143C31.6773 35.8743 30.9923 35.9663 30.4353 35.7023C30.2863 35.6313 30.1443 35.5403 30.0213 35.4183C30.0193 35.4163 30.0173 35.4153 30.0163 35.4143L25.0663 30.4643C24.4813 29.8793 23.5313 29.8793 22.9453 30.4643C22.3593 31.0503 22.3593 32.0003 22.9453 32.5863L27.8953 37.5353C27.8963 37.5373 27.8973 37.5393 27.8993 37.5403C28.0213 37.6633 28.1123 37.8053 28.1823 37.9543C28.4473 38.5113 28.3553 39.1963 27.8953 39.6563C27.4343 40.1173 26.7493 40.2093 26.1923 39.9443C26.0433 39.8743 25.9023 39.7833 25.7783 39.6603L21.8853 35.7683L21.0583 34.9423C21.0973 34.2053 20.9383 33.4693 20.6213 32.7893C20.4093 32.3353 20.1393 31.9003 19.7633 31.5253C19.3903 31.1513 18.9593 30.8743 18.5083 30.6593L19.0563 30.1113C19.2993 29.8683 19.5013 29.6003 19.6773 29.3203C20.3963 28.1793 20.5443 26.7893 20.1403 25.5383C19.9293 24.8843 19.5763 24.2663 19.0563 23.7473C18.5403 23.2313 17.9283 22.8863 17.2803 22.6783C16.7483 22.5063 16.1933 22.4223 15.6393 22.4513C14.5673 22.5073 13.5113 22.9283 12.6923 23.7473L11.2783 25.1613L4.56129 18.4453C4.56129 18.4443 4.56129 18.4443 4.56029 18.4433L4.55929 18.4423C3.97329 17.8583 3.02429 17.8583 2.43929 18.4433C1.85329 19.0293 1.85329 19.9793 2.43929 20.5653L9.15629 27.2823L7.38329 29.0563C6.00429 30.4403 5.72729 32.4903 6.52129 34.1603C6.73629 34.6123 7.01429 35.0423 7.38829 35.4163C7.76129 35.7903 8.19129 36.0673 8.64329 36.2813C9.18029 36.5373 9.75229 36.6813 10.3343 36.7113C10.3653 37.2933 10.5093 37.8653 10.7643 38.4023C10.9793 38.8553 11.2563 39.2843 11.6303 39.6583C12.0043 40.0323 12.4343 40.3093 12.8863 40.5243C13.4233 40.7793 13.9953 40.9233 14.5773 40.9543C14.6083 41.5363 14.7513 42.1083 15.0073 42.6453C15.2223 43.0973 15.4993 43.5273 15.8733 43.9013C16.2463 44.2753 16.6763 44.5523 17.1283 44.7673C18.7973 45.5613 20.8483 45.2853 22.2323 43.9053C22.2333 43.9033 22.2353 43.9023 22.2373 43.9013C22.2383 43.9003 22.2393 43.8983 22.2413 43.8963L24.0343 42.1033C25.3963 43.1903 27.2353 43.3693 28.7613 42.6443C29.2123 42.4293 29.6423 42.1523 30.0163 41.7783C30.3903 41.4043 30.6673 40.9743 30.8823 40.5233C31.1383 39.9853 31.2813 39.4133 31.3113 38.8313C31.8943 38.8003 32.4663 38.6563 33.0033 38.4013C33.4553 38.1863 33.8853 37.9093 34.2593 37.5353Z" fill="#0071B3"/>
</svg>
