<svg width="48" height="48" viewBox="0 0 48 48" fill="none" xmlns="http://www.w3.org/2000/svg">
<path d="M25.5002 25.4995H31.5002C32.3282 25.4995 33.0002 26.1705 33.0002 26.9995C33.0002 27.8285 32.3282 28.4995 31.5002 28.4995H25.5002V34.4995C25.5002 35.3285 24.8282 35.9995 24.0002 35.9995C23.1712 35.9995 22.5002 35.3285 22.5002 34.4995V28.4995H16.5002C15.6712 28.4995 15.0002 27.8285 15.0002 26.9995C15.0002 26.1705 15.6712 25.4995 16.5002 25.4995H22.5002V19.4995C22.5002 18.6705 23.1712 17.9995 24.0002 17.9995C24.8282 17.9995 25.5002 18.6705 25.5002 19.4995V25.4995Z" fill="#0071B3"/>
<path fill-rule="evenodd" clip-rule="evenodd" d="M42.5 12C43.328 12 44.001 12.671 44.001 13.5V40.5C44.001 41.329 43.329 42 42.501 42H5.5C4.672 42 4 41.329 4 40.5V13.5C4 12.982 4.262 12.526 4.661 12.256C4.901 12.094 5.189 12 5.5 12H15V7.5C15 6.671 15.672 6 16.5 6H31.5C32.328 6 33 6.671 33 7.5V12H42.5ZM30 12H18V9H30V12ZM41 39H7V15H41V39Z" fill="#0071B3"/>
</svg>
