<svg width="48" height="48" viewBox="0 0 48 48" fill="none" xmlns="http://www.w3.org/2000/svg">
<path d="M32 6.99999C34.6142 7.0182 37.121 8.0424 39 9.85999C39.9497 10.7909 40.7042 11.9018 41.2193 13.1278C41.7344 14.3538 41.9998 15.6702 42 17C42 32 26 41 24 41C22 41 6 32 6 17C5.99215 15.4462 6.35015 13.9123 7.04505 12.5225C7.73995 11.1327 8.75223 9.926 10 8.99999C11.725 7.68775 13.8326 6.9772 16 6.9772C18.1674 6.9772 20.275 7.68775 22 8.99999C22.7572 9.56955 23.4304 10.2428 24 11C24.5696 10.2428 25.2428 9.56955 26 8.99999C27.7275 7.69523 29.8351 6.9927 32 6.99999Z" fill="#0071B3"/>
</svg>
