<svg width="48" height="48" viewBox="0 0 48 48" fill="none" xmlns="http://www.w3.org/2000/svg">
<path fill-rule="evenodd" clip-rule="evenodd" d="M30.6199 19.5022C31.4929 20.7839 32.0032 22.3324 32.0032 24C32.0032 28.418 28.4212 32 24.0032 32C22.3356 32 20.7871 31.4897 19.5054 30.6166L21.6896 28.4337C22.3814 28.7954 23.1684 29 24.0032 29C26.7642 29 29.0032 26.761 29.0032 24C29.0032 23.1652 28.7986 22.3782 28.4367 21.6863L30.6199 19.5022ZM36.491 13.6308C39.5469 15.4176 42.0129 17.5435 43.7181 19.2274L44.0892 19.5987L44.5432 20.0672L44.9497 20.5009L45.468 21.0759L45.7512 21.402C47.0382 22.908 47.0382 25.092 45.7512 26.598L45.468 26.9241L44.9497 27.4991L44.5432 27.9328L44.0892 28.4013L43.7181 28.7726L43.314 29.166L42.8838 29.5727L42.1903 30.2033L41.6965 30.6344C41.5278 30.7792 41.355 30.925 41.1782 31.0715L40.6357 31.5126C36.6628 34.6833 30.8662 38 24.0032 38C20.4505 38 17.1835 37.1112 14.3072 35.814L16.5922 33.5304C18.8526 34.4217 21.3439 35 24.0032 35C30.3918 35 35.8104 31.6628 39.3894 28.6647L39.888 28.2391L40.3611 27.8205L40.8081 27.4113L41.2283 27.0138L41.6212 26.6305L42.1582 26.0872L42.6306 25.5891L43.0366 25.1443L43.4712 24.648C43.7922 24.272 43.7922 23.728 43.4712 23.352L43.1091 22.9369L42.6585 22.4409L42.1222 21.8756L41.7183 21.4661L41.2785 21.0345C41.0496 20.8138 40.8076 20.5861 40.5529 20.3534L40.0265 19.8819C38.4877 18.5302 36.5495 17.0595 34.2963 15.826L36.491 13.6308ZM39.5606 6.43934C40.1098 6.98851 40.1441 7.85758 39.6636 8.44674L39.5606 8.56066L7.56064 40.5607C6.97485 41.1464 6.0251 41.1464 5.43932 40.5607C4.89014 40.0115 4.85582 39.1424 5.33635 38.5533L5.43932 38.4393L10.2732 33.6051C7.78704 31.9988 5.75561 30.222 4.28794 28.7726L3.91691 28.4013L3.46297 27.9328L3.05656 27.4991L2.69871 27.1049L2.25523 26.598C0.968228 25.092 0.968228 22.908 2.25523 21.402L2.53831 21.0759L2.8715 20.7032L3.25376 20.2887L3.46297 20.0672L3.91691 19.5987L4.28794 19.2274L4.90389 18.6322L5.34707 18.2196L5.81576 17.7967L6.3095 17.3656C6.4782 17.2208 6.651 17.075 6.82783 16.9285L7.37029 16.4874C11.3433 13.3167 17.1403 10 24.0032 10C26.9857 10 29.7669 10.6264 32.2844 11.595L37.4393 6.43934C38.0251 5.85355 38.9749 5.85355 39.5606 6.43934ZM24.0032 13C17.7668 13 12.4546 16.1802 8.87584 19.1206L8.36458 19.5488L8.11841 19.7609L7.64533 20.1795L7.1984 20.5887L6.7782 20.9862L6.38528 21.3695L6.0202 21.7363L5.68354 22.0842L5.37584 22.4109L4.96986 22.8557L4.53523 23.352C4.21423 23.728 4.21423 24.272 4.53523 24.648L4.7666 24.9151L5.18789 25.3853L5.51705 25.7401L5.88389 26.1239L6.28758 26.5333L6.84276 27.0757L7.45263 27.6457L7.97883 28.1171C9.22101 29.2083 10.7235 30.3772 12.442 31.4362L16.672 27.2069C16.2419 26.2251 16.0032 25.1404 16.0032 24C16.0032 19.582 19.5852 16 24.0032 16C25.1436 16 26.2283 16.2387 27.2101 16.6688L29.9352 13.944C28.0822 13.3577 26.0947 13 24.0032 13ZM24.0032 19C21.2412 19 19.0032 21.239 19.0032 24C19.0032 24.2758 19.0256 24.5465 19.0685 24.8102L24.8134 19.0653C24.5497 19.0223 24.2791 19 24.0032 19Z" fill="#0071B3"/>
</svg>
