<svg width="48" height="48" viewBox="0 0 48 48" fill="none" xmlns="http://www.w3.org/2000/svg">
<path d="M38.5368 23.4028C39.0918 24.0188 39.0418 24.9668 38.4258 25.5208C38.0238 25.8838 37.4838 25.9618 36.9998 25.8188C36.7438 25.7428 36.4988 25.6228 36.3078 25.4098L23.9868 11.7258L11.6938 25.3788C11.5008 25.5918 11.2568 25.7118 10.9998 25.7878C10.5158 25.9308 9.97682 25.8528 9.57482 25.4898C8.95882 24.9358 8.90882 23.9868 9.46382 23.3718L22.8698 8.48279C22.881 8.47001 22.8947 8.46177 22.9084 8.45353C22.9205 8.4463 22.9325 8.43907 22.9428 8.42879C22.9941 8.37826 23.0519 8.33995 23.1099 8.30149C23.1242 8.29199 23.1386 8.28249 23.1528 8.27279L23.1618 8.2666C23.2498 8.20562 23.3381 8.14448 23.4338 8.10579C23.5045 8.07834 23.578 8.06403 23.6519 8.04964C23.6669 8.04673 23.6818 8.04381 23.6968 8.04079C23.7095 8.0383 23.7222 8.03576 23.7348 8.03323C23.8187 8.01641 23.9016 7.99979 23.9868 7.99979C24.0723 7.99979 24.1569 8.01686 24.2415 8.03392C24.253 8.03622 24.2644 8.03852 24.2758 8.04079C24.2908 8.04381 24.3058 8.04673 24.3207 8.04964C24.3946 8.06403 24.4681 8.07834 24.5388 8.10579C24.6346 8.14448 24.7228 8.20562 24.8109 8.2666L24.8198 8.27279C24.8341 8.28249 24.8484 8.29199 24.8627 8.30149C24.9207 8.33995 24.9785 8.37826 25.0298 8.42879C25.0401 8.43907 25.0521 8.4463 25.0642 8.45353C25.0779 8.46177 25.0916 8.47001 25.1028 8.48279L38.5368 23.4028Z" fill="#0071B3"/>
<path d="M46.6147 26.3733C47.1687 26.9893 47.1187 27.9373 46.5037 28.4923C45.8877 29.0463 44.9397 28.9963 44.3857 28.3803L36.2857 19.3853L32.8437 15.4183L33.6857 14.4833C33.6931 14.4748 33.7022 14.4694 33.7113 14.464C33.7195 14.4592 33.7276 14.4544 33.7347 14.4473C33.8178 14.3622 33.9136 14.3026 34.0105 14.2423L34.0137 14.2403C34.0326 14.2285 34.0513 14.2162 34.0699 14.2039C34.1224 14.1694 34.1749 14.1349 34.2317 14.1113C34.3162 14.0766 34.4054 14.0601 34.4952 14.0435L34.5287 14.0373L34.5708 14.0291C34.6458 14.0142 34.721 13.9993 34.7977 13.9993C34.8728 13.9993 34.9473 14.0139 35.0222 14.0286L35.0667 14.0373L35.102 14.0439C35.1904 14.0604 35.279 14.0769 35.3637 14.1113C35.4199 14.1346 35.4712 14.1686 35.5228 14.2027C35.542 14.2154 35.5612 14.2281 35.5807 14.2403L35.5889 14.2454C35.6842 14.3047 35.7791 14.3637 35.8607 14.4473C35.8675 14.4545 35.8756 14.4594 35.8838 14.4644C35.8926 14.4697 35.9015 14.475 35.9087 14.4833L46.6147 26.3733Z" fill="#0071B3"/>
<path d="M37.0003 34.9866H40.7973V25.3966L43.7973 28.7276V36.4866C43.7973 37.3156 43.1263 37.9866 42.2973 37.9866H37.0003V34.9866Z" fill="#0071B3"/>
<path d="M7.20262 25.3958L4.20262 28.7278V36.4868C4.20262 37.3148 4.87362 37.9868 5.70262 37.9868H10.9996V34.9868H7.20262V25.3958Z" fill="#0071B3"/>
<path d="M11.6626 19.4428L3.61462 28.3808C3.06062 28.9968 2.11162 29.0458 1.49562 28.4918C0.880617 27.9378 0.830617 26.9888 1.38562 26.3738L12.0916 14.4828C12.0991 14.4747 12.1081 14.4693 12.117 14.4638C12.1248 14.4591 12.1327 14.4543 12.1396 14.4478C12.2177 14.3678 12.3079 14.3103 12.3982 14.2528L12.4186 14.2398C12.4388 14.2273 12.4586 14.2144 12.4783 14.2015C12.5299 14.1676 12.5809 14.1342 12.6366 14.1118C12.7246 14.0747 12.8177 14.0583 12.9112 14.0418L12.9336 14.0378L12.9791 14.0289C13.0535 14.0143 13.127 13.9998 13.2026 13.9998C13.2782 13.9998 13.3518 14.0143 13.4261 14.0289L13.4716 14.0378L13.494 14.0418C13.5875 14.0583 13.6806 14.0747 13.7686 14.1118C13.8243 14.1342 13.8753 14.1676 13.9269 14.2015C13.9466 14.2144 13.9664 14.2273 13.9866 14.2398L14.0071 14.2528C14.0973 14.3103 14.1875 14.3678 14.2656 14.4478C14.2726 14.4543 14.2804 14.4591 14.2882 14.4638C14.2972 14.4693 14.3061 14.4747 14.3136 14.4828L15.1516 15.4138L11.6626 19.4428Z" fill="#0071B3"/>
<path d="M32.519 22.4871V36.9961H15.482V22.4871C15.482 22.3891 15.471 22.2951 15.454 22.2021L12.482 25.5031V38.4961C12.482 39.3251 13.154 39.9961 13.982 39.9961H33.986C33.989 39.9961 33.9918 39.9958 33.9945 39.9956C33.9973 39.9953 34 39.9951 34.003 39.9951C34.008 39.9951 34.014 39.9961 34.019 39.9961C34.848 39.9961 35.519 39.3251 35.519 38.4961V25.5341L32.545 22.2311C32.531 22.3151 32.519 22.4001 32.519 22.4871Z" fill="#0071B3"/>
</svg>
