<svg width="48" height="48" viewBox="0 0 48 48" fill="none" xmlns="http://www.w3.org/2000/svg">
<path d="M25.121 4.93645L42.333 24.0524C42.887 24.6684 42.837 25.6164 42.222 26.1714C41.606 26.7254 40.658 26.6754 40.104 26.0604L23.999 8.17345L7.89696 26.0554C7.34296 26.6714 6.39496 26.7204 5.77896 26.1664C5.16296 25.6124 5.11296 24.6634 5.66696 24.0484L22.88 4.93245C22.8955 4.91469 22.9147 4.90278 22.9339 4.89091C22.9493 4.8814 22.9646 4.87191 22.978 4.85945C23.0026 4.83666 23.0293 4.81828 23.0562 4.79975C23.0718 4.789 23.0875 4.77819 23.103 4.76645C23.219 4.67745 23.34 4.59945 23.471 4.54945C23.5155 4.53237 23.5611 4.52301 23.6071 4.5136C23.623 4.51033 23.639 4.50705 23.655 4.50345C23.775 4.47445 23.895 4.45145 24.017 4.45145C24.0861 4.45313 24.1546 4.46621 24.223 4.47926C24.2356 4.48168 24.2483 4.4841 24.261 4.48645C24.361 4.50445 24.461 4.52245 24.557 4.56045C24.656 4.60045 24.747 4.66345 24.837 4.72645C24.8511 4.73605 24.8652 4.74545 24.8794 4.75483C24.9346 4.79136 24.9894 4.82771 25.038 4.87545C25.0494 4.88643 25.0627 4.89448 25.0761 4.90257C25.092 4.91216 25.1079 4.9218 25.121 4.93645Z" fill="#0071B3"/>
<path d="M13.0005 40.5485H35.0005V23.3895L38.0005 26.7215V42.0485C38.0005 42.8755 37.3305 43.5465 36.5035 43.5485H11.5005C10.6715 43.5485 10.0005 42.8775 10.0005 42.0485V26.7225L13.0005 23.3905V40.5485Z" fill="#0071B3"/>
</svg>
