<svg width="48" height="48" viewBox="0 0 48 48" fill="none" xmlns="http://www.w3.org/2000/svg">
<path fill-rule="evenodd" clip-rule="evenodd" d="M15 38H33V21L23.999 11.279L15 21V38ZM8.99999 27L8.87915 27.1208C7.9082 28.0918 6.33399 28.0918 5.36304 27.1208C5.32402 27.0818 5.28632 27.0415 5.24999 27C4.25639 25.8645 4.28442 24.1609 5.31485 23.0587L22.5482 4.62434C23.308 3.82257 24.5739 3.78851 25.3757 4.54826L25.4517 4.62434L42.6851 23.0587C43.7156 24.1609 43.7436 25.8645 42.75 27C41.8458 28.0334 40.275 28.1381 39.2417 27.2339L39.1803 27.1784L39 27L38.879 40.0371C38.8586 42.2317 37.0738 44 34.8792 44H13C10.7908 44 8.99999 42.2091 8.99999 40V27Z" fill="#0071B3"/>
</svg>
