<svg width="40" height="33" viewBox="0 0 40 33" fill="none" xmlns="http://www.w3.org/2000/svg">
<path d="M16.4175 0.87264L30.6611 16.6919C31.1196 17.2017 31.0782 17.9862 30.5693 18.4455C30.0595 18.9039 29.275 18.8626 28.8165 18.3536L15.489 3.55139L2.1639 18.3495C1.70544 18.8592 0.92093 18.8998 0.411165 18.4413C-0.0986004 17.9829 -0.139978 17.1975 0.31848 16.6886L14.5629 0.86933C14.5758 0.854633 14.5917 0.844779 14.6076 0.834958C14.6203 0.827084 14.633 0.819231 14.644 0.80892C14.6645 0.790065 14.6866 0.774856 14.7088 0.759517C14.7217 0.75062 14.7347 0.74168 14.7475 0.731958C14.8435 0.658307 14.9436 0.593759 15.052 0.552382C15.0889 0.538251 15.1267 0.530507 15.1647 0.522713C15.1779 0.520009 15.1911 0.5173 15.2043 0.514315C15.3036 0.490316 15.4029 0.471283 15.5039 0.471283C15.5611 0.472679 15.6178 0.4835 15.6743 0.494304C15.6848 0.496305 15.6953 0.498306 15.7058 0.500247C15.7885 0.515143 15.8713 0.530038 15.9507 0.561485C16.0327 0.594587 16.108 0.646722 16.1824 0.698857C16.1941 0.706805 16.2059 0.71458 16.2176 0.722345C16.2632 0.752578 16.3086 0.782655 16.3488 0.82216C16.3582 0.831248 16.3693 0.837911 16.3804 0.844605C16.3935 0.85254 16.4067 0.860521 16.4175 0.87264Z" fill="#0071B3"/>
<path d="M6.38725 30.3431H24.5932V16.1433L27.0758 18.9007V31.5844C27.0758 32.2688 26.5213 32.8241 25.837 32.8257H5.14594C4.45991 32.8257 3.90463 32.2705 3.90463 31.5844V18.9015L6.38725 16.1442V30.3431Z" fill="#0071B3"/>
<path fill-rule="evenodd" clip-rule="evenodd" d="M23.3513 0.8277C23.8622 0.370574 24.6469 0.414171 25.1041 0.925077L39.1723 16.6484C39.6294 17.1593 39.5858 17.944 39.0749 18.4011C38.564 18.8583 37.7792 18.8147 37.3221 18.3038L23.2539 2.58048C22.7968 2.06957 22.8404 1.28483 23.3513 0.8277Z" fill="#0071B3"/>
<path fill-rule="evenodd" clip-rule="evenodd" d="M28.7305 32.7516H34.1123C34.7967 32.75 35.3512 32.1947 35.3512 31.5103V18.8266L32.8685 16.0692V30.269H28.7305V32.7516Z" fill="#0071B3"/>
</svg>
