<svg width="48" height="48" viewBox="0 0 48 48" fill="none" xmlns="http://www.w3.org/2000/svg">
<path d="M5.00021 9.5C5.00021 10.329 4.32821 11 3.50021 11C2.67121 11 2.00021 10.329 2.00021 9.5V4.5C2.00021 3.982 2.26221 3.526 2.66121 3.256C2.90021 3.094 3.18921 3 3.50021 3H8.50021C9.32821 3 10.0002 3.671 10.0002 4.5C10.0002 5.329 9.32821 6 8.50021 6H5.00021V9.5Z" fill="#0071B3"/>
<path d="M39.1629 23.1027C39.7179 23.7177 39.6679 24.6667 39.0519 25.2207C38.4369 25.7757 37.4879 25.7257 36.9339 25.1097L24.0009 10.7457L11.0679 25.1097C10.5129 25.7257 9.56491 25.7747 8.94891 25.2207C8.33391 24.6667 8.28391 23.7177 8.83791 23.1027L22.8899 7.4957C22.8969 7.4887 22.9049 7.4837 22.9129 7.4787C22.9209 7.4737 22.9289 7.4687 22.9359 7.4617C22.9469 7.4507 22.9549 7.43786 22.963 7.42506C22.9717 7.4111 22.9804 7.39718 22.9929 7.3857C23.0363 7.34616 23.0861 7.32127 23.1363 7.29623C23.1648 7.282 23.1934 7.26773 23.2209 7.2507C23.2384 7.2396 23.2556 7.22826 23.2726 7.21699C23.3246 7.18259 23.3757 7.14879 23.4329 7.1247C23.5247 7.08724 23.6182 7.07083 23.7135 7.05411L23.7329 7.0507L23.7806 7.0414C23.8537 7.0269 23.9253 7.0127 24.0009 7.0127C24.0756 7.0127 24.147 7.02686 24.2199 7.04133L24.2679 7.0507L24.2837 7.05345C24.381 7.0704 24.4749 7.08675 24.5679 7.1247C24.624 7.14832 24.6741 7.1812 24.7255 7.21489C24.7437 7.22685 24.7621 7.23891 24.7809 7.2507C24.8086 7.26807 24.8376 7.28257 24.8665 7.29708C24.916 7.32183 24.9654 7.34661 25.0089 7.3857C25.0214 7.39715 25.0298 7.41104 25.0383 7.42496C25.0461 7.4378 25.0539 7.45067 25.0649 7.4617C25.0722 7.4695 25.0808 7.4746 25.0894 7.47966C25.0973 7.48433 25.1052 7.48898 25.1119 7.4957L39.1629 23.1027Z" fill="#0071B3"/>
<path d="M14.9724 36.0005H32.9724V21.7105L35.9724 25.0425V37.5005C35.9724 38.3295 35.3014 39.0005 34.4724 39.0005H13.4724C12.6434 39.0005 11.9724 38.3295 11.9724 37.5005V25.1045L14.9724 21.7725V36.0005Z" fill="#0071B3"/>
<path d="M8.50021 42H5.00021V38.5C5.00021 37.672 4.32821 37 3.50021 37C2.67121 37 2.00021 37.672 2.00021 38.5V43.5C2.00021 44.329 2.67121 45 3.50021 45H8.50021C9.32821 45 10.0002 44.329 10.0002 43.5C10.0002 42.671 9.32821 42 8.50021 42Z" fill="#0071B3"/>
<path d="M44.5002 37C43.6712 37 43.0002 37.672 43.0002 38.5V42H39.5002C38.6712 42 38.0002 42.671 38.0002 43.5C38.0002 44.329 38.6712 45 39.5002 45H44.5002C45.3282 45 46.0002 44.329 46.0002 43.5V38.5C46.0002 37.672 45.3282 37 44.5002 37Z" fill="#0071B3"/>
<path d="M39.5002 3H44.5002C45.3282 3 46.0002 3.671 46.0002 4.5V9.5C46.0002 10.329 45.3282 11 44.5002 11C43.6712 11 43.0002 10.329 43.0002 9.5V6H39.5002C38.6712 6 38.0002 5.329 38.0002 4.5C38.0002 3.671 38.6712 3 39.5002 3Z" fill="#0071B3"/>
</svg>
