<svg width="48" height="48" viewBox="0 0 48 48" fill="none" xmlns="http://www.w3.org/2000/svg">
<path d="M25.506 40C24.6743 40 24 40.6658 24 41.5C24 42.3284 24.6719 43 25.5074 43H36.4971C37.3272 42.998 37.9971 42.3274 37.9971 41.5V26.3318L34.9971 23V40H25.506Z" fill="#0071B3"/>
<path d="M41.9396 26.719C42.5552 26.1647 42.605 25.2162 42.0507 24.6006L24.8388 5.48472C24.8259 5.4704 24.8103 5.4608 24.7946 5.45118C24.7811 5.44286 24.7675 5.43453 24.7557 5.42312C24.7058 5.37498 24.6502 5.33787 24.5943 5.30056C24.5812 5.29184 24.5681 5.28311 24.5551 5.27422C24.4643 5.21122 24.3736 5.14882 24.2743 5.10822C24.1788 5.07042 24.0791 5.05202 23.9789 5.03452C23.9642 5.03186 23.9496 5.02908 23.935 5.0263C23.8683 5.01363 23.8019 5.001 23.7343 5.00002C23.6125 4.99922 23.4924 5.02212 23.373 5.05092C23.355 5.05515 23.337 5.05891 23.3191 5.06266C23.2751 5.07186 23.2313 5.08101 23.1887 5.09692C23.0577 5.14732 22.9363 5.22562 22.8202 5.31472C22.8053 5.32604 22.7899 5.3365 22.7746 5.34696C22.7474 5.3655 22.7203 5.38401 22.6956 5.40722C22.6817 5.42023 22.666 5.42995 22.6503 5.43965C22.6316 5.45128 22.6128 5.46289 22.5973 5.48012L5.38528 24.5961C4.83098 25.2118 4.88068 26.1602 5.49628 26.7145C6.11188 27.2688 7.06038 27.2191 7.61468 26.6035L23.716 8.72122L39.8212 26.608C40.3755 27.2237 41.3239 27.2733 41.9396 26.719Z" fill="#0071B3"/>
<path d="M7.93934 33.9393C8.52513 33.3536 9.47487 33.3536 10.0607 33.9393L14 37.8787L22.9393 28.9393C23.5251 28.3536 24.4749 28.3536 25.0607 28.9393C25.6464 29.5251 25.6464 30.4749 25.0607 31.0607L15.0607 41.0607C14.4749 41.6464 13.5251 41.6464 12.9393 41.0607L7.93934 36.0607C7.35355 35.4749 7.35355 34.5251 7.93934 33.9393Z" fill="#0071B3"/>
</svg>
