<svg width="34" height="35" viewBox="0 0 34 35" fill="none" xmlns="http://www.w3.org/2000/svg">
<path fill-rule="evenodd" clip-rule="evenodd" d="M23.9255 17.6425C20.0655 17.6425 16.9255 20.7825 16.9255 24.6425C16.9255 28.5025 20.0655 31.6425 23.9255 31.6425C27.7855 31.6425 30.9255 28.5025 30.9255 24.6425C30.9255 20.7825 27.7855 17.6425 23.9255 17.6425ZM23.9255 34.6425C18.4025 34.6425 13.9255 30.1655 13.9255 24.6425C13.9255 22.4225 14.6575 20.3795 15.8815 18.7205L0.4395 3.27849C-0.1465 2.69249 -0.1465 1.74348 0.4395 1.15749C1.0255 0.571487 1.9745 0.571487 2.5605 1.15749L5.0735 3.66949L8.3035 0.439487C8.8895 -0.146511 9.8395 -0.146511 10.4255 0.439487C11.0105 1.02549 11.0105 1.97549 10.4255 2.56049L7.1945 5.79049L8.6095 7.20549L10.4255 5.38949C11.0105 4.80349 11.9605 4.80349 12.5465 5.38949C13.1325 5.97549 13.1325 6.92449 12.5465 7.51049L10.7305 9.32649L18.0025 16.5985C19.6615 15.3745 21.7055 14.6425 23.9255 14.6425C29.4485 14.6425 33.9255 19.1195 33.9255 24.6425C33.9255 30.1655 29.4485 34.6425 23.9255 34.6425Z" fill="#0071B3"/>
</svg>
