<svg width="48" height="48" viewBox="0 0 48 48" fill="none" xmlns="http://www.w3.org/2000/svg">
<path d="M24 16C24.8284 16 25.5 15.3284 25.5 14.5C25.5 13.6716 24.8284 13 24 13C23.1716 13 22.5 13.6716 22.5 14.5C22.5 15.3284 23.1716 16 24 16Z" fill="#0071B3"/>
<path d="M24 18C23.1716 18 22.5 18.6716 22.5 19.5V33.5C22.5 34.3284 23.1716 35 24 35C24.8284 35 25.5 34.3284 25.5 33.5V19.5C25.5 18.6716 24.8284 18 24 18Z" fill="#0071B3"/>
<path fill-rule="evenodd" clip-rule="evenodd" d="M4 24C4 12.9543 12.9543 4 24 4C29.3043 4 34.3914 6.10714 38.1421 9.85786C41.8929 13.6086 44 18.6957 44 24C44 35.0457 35.0457 44 24 44C12.9543 44 4 35.0457 4 24ZM7 24C7 33.3888 14.6112 41 24 41C28.5087 41 32.8327 39.2089 36.0208 36.0208C39.2089 32.8327 41 28.5087 41 24C41 14.6112 33.3888 7 24 7C14.6112 7 7 14.6112 7 24Z" fill="#0071B3"/>
</svg>
