<svg width="24" height="24" viewBox="0 0 24 24" fill="none" xmlns="http://www.w3.org/2000/svg">
<path d="M12 2C17.5228 2 22 6.47715 22 12C22 17.5228 17.5228 22 12 22C6.47715 22 2 17.5228 2 12C2 6.47715 6.47715 2 12 2Z" fill="#0071B3"/>
<path d="M12 8C12.4142 8 12.75 7.66421 12.75 7.25C12.75 6.83579 12.4142 6.5 12 6.5C11.5858 6.5 11.25 6.83579 11.25 7.25C11.25 7.66421 11.5858 8 12 8Z" fill="white"/>
<path d="M12 9C11.5858 9 11.25 9.33579 11.25 9.75V16.75C11.25 17.1642 11.5858 17.5 12 17.5C12.4142 17.5 12.75 17.1642 12.75 16.75V9.75C12.75 9.33579 12.4142 9 12 9Z" fill="white"/>
</svg>
