<svg width="48" height="48" viewBox="0 0 48 48" fill="none" xmlns="http://www.w3.org/2000/svg">
<path fill-rule="evenodd" clip-rule="evenodd" d="M34.676 10.925C33.349 10.925 32.274 12 32.274 13.325C32.274 14.65 33.349 15.725 34.676 15.725C36.001 15.725 37.074 14.65 37.074 13.325C37.074 12 36.001 10.925 34.676 10.925ZM23.999 30.667C20.318 30.667 17.333 27.683 17.333 24C17.333 20.318 20.318 17.333 23.999 17.333C27.681 17.333 30.666 20.318 30.666 24C30.666 27.683 27.681 30.667 23.999 30.667ZM23.999 13.73C18.328 13.73 13.729 18.328 13.729 24C13.729 29.672 18.328 34.272 23.999 34.272C29.671 34.272 34.269 29.673 34.269 24C34.269 18.328 29.671 13.73 23.999 13.73ZM23.999 4C18.568 4 17.888 4.024 15.755 4.12C8.491 4.453 4.454 8.484 4.121 15.753C4.023 17.888 4 18.569 4 24C4 29.431 4.023 30.113 4.119 32.246C4.453 39.51 8.483 43.547 15.753 43.88C17.888 43.976 18.568 44 23.999 44C29.431 44 30.113 43.976 32.246 43.88C39.503 43.547 43.549 39.516 43.878 32.246C43.976 30.113 43.999 29.431 43.999 24C43.999 18.569 43.976 17.888 43.879 15.755C43.552 8.498 39.517 4.455 32.248 4.122C30.113 4.024 29.431 4 23.999 4ZM23.999 7.605C29.339 7.605 29.972 7.625 32.083 7.722C37.503 7.968 40.034 10.54 40.281 15.92C40.378 18.029 40.396 18.662 40.396 24.002C40.396 29.343 40.376 29.975 40.281 32.083C40.032 37.458 37.508 40.035 32.083 40.281C29.972 40.378 29.343 40.398 23.999 40.398C18.659 40.398 18.026 40.378 15.918 40.281C10.485 40.033 7.966 37.45 7.719 32.082C7.623 29.973 7.603 29.342 7.603 24C7.603 18.66 7.624 18.029 7.719 15.918C7.968 10.54 10.493 7.967 15.918 7.72C18.028 7.625 18.659 7.605 23.999 7.605Z" fill="#0071B3"/>
</svg>
