<svg width="48" height="48" viewBox="0 0 48 48" fill="none" xmlns="http://www.w3.org/2000/svg">
<path fill-rule="evenodd" clip-rule="evenodd" d="M31.5449 40.3203C33.0129 38.2383 34.1909 35.5613 34.9669 32.5003H39.8589C38.0159 35.9263 35.0869 38.6753 31.5449 40.3203ZM8.14091 32.5003H13.0329C13.8089 35.5613 14.9869 38.2383 16.4549 40.3203C12.9129 38.6753 9.98391 35.9263 8.14091 32.5003ZM16.4549 7.67931C14.9869 9.7613 13.8089 12.4383 13.0329 15.5003H8.14091C9.98391 12.0733 12.9129 9.32431 16.4549 7.67931ZM39.8589 15.5003H34.9669C34.1909 12.4383 33.0129 9.7613 31.5449 7.67931C35.0869 9.32431 38.0159 12.0733 39.8589 15.5003ZM35.5699 18.5003H41.1329C41.6909 20.2353 41.9999 22.0813 41.9999 24.0003C41.9999 25.9183 41.6909 27.7643 41.1329 29.5003H35.5699C35.8419 27.7443 35.9999 25.9063 35.9999 24.0003C35.9999 22.0933 35.8419 20.2563 35.5699 18.5003ZM23.9999 6.00031C26.9889 6.00031 30.2119 9.65531 31.8699 15.5003H16.1299C17.7879 9.65531 21.0109 6.00031 23.9999 6.00031ZM5.99991 24.0003C5.99991 22.0813 6.30891 20.2353 6.86691 18.5003H12.4299C12.1579 20.2563 11.9999 22.0933 11.9999 24.0003C11.9999 25.9063 12.1579 27.7443 12.4299 29.5003H6.86691C6.30891 27.7643 5.99991 25.9183 5.99991 24.0003ZM15.4519 29.5003C15.1629 27.7923 14.9999 25.9513 14.9999 24.0003C14.9999 22.0483 15.1629 20.2083 15.4519 18.5003H32.5479C32.8369 20.2083 32.9999 22.0483 32.9999 24.0003C32.9999 25.9513 32.8369 27.7923 32.5479 29.5003H15.4519ZM23.9999 42.0003C21.0109 42.0003 17.7879 38.3443 16.1299 32.5003H31.8699C30.2119 38.3443 26.9889 42.0003 23.9999 42.0003ZM23.9999 3.00031C12.4019 3.00031 2.99991 12.4023 2.99991 24.0003C2.99991 35.5983 12.4019 45.0003 23.9999 45.0003C35.5979 45.0003 44.9999 35.5983 44.9999 24.0003C44.9999 12.4023 35.5979 3.00031 23.9999 3.00031Z" fill="#0071B3"/>
</svg>
