<svg width="48" height="48" viewBox="0 0 48 48" fill="none" xmlns="http://www.w3.org/2000/svg">
<path d="M19.88 30H23.26C23.4857 31.0327 23.821 32.0384 24.26 33H21.12L13.51 40.51C13.3703 40.6516 13.2037 40.7638 13.02 40.84C12.6703 40.9807 12.2797 40.9807 11.93 40.84C11.5571 40.6886 11.2614 40.3928 11.11 40.02C11.0391 39.8452 11.0018 39.6586 11 39.47V32.97H6.42999C6.29455 32.9683 6.15998 32.9481 6.02999 32.91H5.93999C5.71229 32.8335 5.50644 32.7032 5.33999 32.53L5.27999 32.45C5.22838 32.3905 5.18156 32.3269 5.13999 32.26L5.08999 32.16C5.05414 32.0892 5.02405 32.0156 4.99999 31.94V31.84C4.98702 31.727 4.98702 31.613 4.99999 31.5V8.5C4.99999 7.67157 5.67157 7 6.49999 7H39.5C40.3284 7 41 7.67157 41 8.5V12.3C40.0125 12.1 39.0075 11.9995 38 12V10H7.99999V30H14V35.88L19.88 30Z" fill="#0071B3"/>
<path d="M33.26 31C34.5678 32.8782 36.7113 33.9985 39 34C40.6851 33.9934 42.3113 33.3792 43.58 32.27L44.5 35.34C42.0385 36.961 38.9874 37.4136 36.1614 36.577C33.3354 35.7403 31.0223 33.6997 29.84 31H28.5C27.6716 31 27 30.3284 27 29.5C27 28.6716 27.6716 28 28.5 28H29C28.95 27.67 28.95 27.34 28.95 27C28.95 26.8287 28.9627 26.66 28.9753 26.4925C28.9877 26.3275 29 26.1638 29 26H28.5C27.6716 26 27 25.3284 27 24.5C27 23.6716 27.6716 23 28.5 23H29.84C31.0204 20.2986 33.3325 18.2557 36.1588 17.4171C38.985 16.5784 42.0372 17.0296 44.5 18.65L43.58 21.72C42.0814 20.4219 40.1027 19.8202 38.1353 20.0643C36.1678 20.3083 34.396 21.3752 33.26 23H39.5C40.3284 23 41 23.6716 41 24.5C41 25.3284 40.3284 26 39.5 26H32.08C31.9735 26.6624 31.9735 27.3376 32.08 28H39.5C40.3284 28 41 28.6716 41 29.5C41 30.3284 40.3284 31 39.5 31H33.26Z" fill="#0071B3"/>
</svg>
