<svg width="48" height="48" viewBox="0 0 48 48" fill="none" xmlns="http://www.w3.org/2000/svg">
<path fill-rule="evenodd" clip-rule="evenodd" d="M30.9253 24C27.0653 24 23.9253 20.86 23.9253 17C23.9253 13.14 27.0653 10 30.9253 10C34.7853 10 37.9253 13.14 37.9253 17C37.9253 20.86 34.7853 24 30.9253 24ZM30.9253 7C25.4023 7 20.9253 11.477 20.9253 17C20.9253 19.22 21.6573 21.263 22.8813 22.922L7.43932 38.364C6.85332 38.95 6.85332 39.899 7.43932 40.485C8.02532 41.071 8.97432 41.071 9.56032 40.485L12.0733 37.973L15.3033 41.203C15.8893 41.789 16.8393 41.789 17.4253 41.203C18.0103 40.617 18.0103 39.667 17.4253 39.082L14.1943 35.852L15.6093 34.437L17.4253 36.253C18.0103 36.839 18.9603 36.839 19.5463 36.253C20.1323 35.667 20.1323 34.718 19.5463 34.132L17.7303 32.316L25.0023 25.044C26.6613 26.268 28.7053 27 30.9253 27C36.4483 27 40.9253 22.523 40.9253 17C40.9253 11.477 36.4483 7 30.9253 7Z" fill="#0071B3"/>
</svg>
