<svg width="48" height="48" viewBox="0 0 48 48" fill="none" xmlns="http://www.w3.org/2000/svg">
<path fill-rule="evenodd" clip-rule="evenodd" d="M25.3168 4.62103L41.8368 17.392C43.1413 18.4004 43.3853 20.2807 42.3819 21.5916C42.2246 21.7971 42.0414 21.9813 41.8368 22.1394L25.3168 34.9104C24.2457 35.7384 22.7543 35.7384 21.6832 34.9104L5.16315 22.1394C3.85871 21.131 3.61468 19.2507 4.6181 17.9398C4.77542 17.7343 4.95864 17.5501 5.16315 17.392L21.6832 4.62103C22.7543 3.79299 24.2457 3.79299 25.3168 4.62103ZM40.02 19.7657L23.5 6.9947L6.98 19.7657L23.5 32.5367L40.02 19.7657Z" fill="#0071B3"/>
<path d="M42.4279 30.4342C42.9498 29.9157 43.0233 29.0764 42.57 28.4705L42.4377 28.3163C41.9218 27.7917 41.0867 27.7179 40.4838 28.1734L23.5 41.0053L6.5162 28.1734L6.34642 28.0623C5.70585 27.7023 4.88323 27.8646 4.42996 28.4705C3.93549 29.1315 4.06783 30.0702 4.72556 30.5671L21.7094 43.399L21.9424 43.5584C22.9765 44.1962 24.3058 44.1431 25.2906 43.399L42.2744 30.5671L42.4279 30.4342Z" fill="#0071B3"/>
</svg>
