<svg width="48" height="48" viewBox="0 0 48 48" fill="none" xmlns="http://www.w3.org/2000/svg">
<path d="M13.77 8.92C13.77 11.6372 11.5852 13.84 8.89001 13.84C6.19486 13.84 4.01001 11.6372 4.01001 8.92C4.01001 6.20276 6.19486 4 8.89001 4C11.5852 4 13.77 6.20276 13.77 8.92Z" fill="#0071B3"/>
<path d="M34.29 16.52C31.0374 16.4867 28.0037 18.1552 26.29 20.92V17.33H18.34V44H26.26V30C26.26 26.25 27.99 24 31.26 24C34.26 24 35.75 26.14 35.75 30V44H44V27.12C44 20 39.94 16.52 34.29 16.52Z" fill="#0071B3"/>
<path d="M13.05 17.33H4.80001V44H13.05V17.33Z" fill="#0071B3"/>
</svg>
