<svg width="48" height="48" viewBox="0 0 48 48" fill="none" xmlns="http://www.w3.org/2000/svg">
<path fill-rule="evenodd" clip-rule="evenodd" d="M14.7322 7.64642C15.7085 6.67011 17.2915 6.67011 18.2678 7.64642L28.5199 17.8986L34.5626 23.078L39.2 19.6C41.1777 18.1167 44 19.5278 44 22V42.5H4V19.4142C4 18.7511 4.26339 18.1153 4.73223 17.6464L14.7322 7.64642ZM26 19.6213L16.5 10.1213L7 19.6213V39.5H12V31.5C12 29.8431 13.3431 28.5 15 28.5H18C19.6569 28.5 21 29.8431 21 31.5V39.5H26V19.6213ZM29 39.5H41V22L36.0417 25.7187C35.1043 26.4217 33.8044 26.3794 32.9148 25.6168L29 22.2613V39.5ZM18 39.5V31.5H15V39.5H18Z" fill="#0071B3"/>
</svg>
