<svg width="48" height="48" viewBox="0 0 48 48" fill="none" xmlns="http://www.w3.org/2000/svg">
<path fill-rule="evenodd" clip-rule="evenodd" d="M17.5 26H5.5C4.67157 26 4 26.6716 4 27.5V37.5C4 38.3284 4.67157 39 5.5 39H17.5C18.3284 39 19 38.3284 19 37.5V27.5C19 26.6716 18.3284 26 17.5 26ZM16 36H7V29H16V36Z" fill="#0071B3"/>
<path fill-rule="evenodd" clip-rule="evenodd" d="M17.5 9H5.5C4.67157 9 4 9.67157 4 10.5V20.5C4 21.3284 4.67157 22 5.5 22H17.5C18.3284 22 19 21.3284 19 20.5V10.5C19 9.67157 18.3284 9 17.5 9ZM16 19H7V12H16V19Z" fill="#0071B3"/>
<path d="M22 36.5C22 35.6716 22.6716 35 23.5 35H31.02C31.8484 35 32.52 35.6716 32.52 36.5C32.52 37.3284 31.8484 38 31.02 38H23.5C22.6716 38 22 37.3284 22 36.5Z" fill="#0071B3"/>
<path d="M23.5 27C22.6716 27 22 27.6716 22 28.5C22 29.3284 22.6716 30 23.5 30H42.5C43.3284 30 44 29.3284 44 28.5C44 27.6716 43.3284 27 42.5 27H23.5Z" fill="#0071B3"/>
<path d="M22 19.5C22 18.6716 22.6716 18 23.5 18H31.02C31.8484 18 32.52 18.6716 32.52 19.5C32.52 20.3284 31.8484 21 31.02 21H23.5C22.6716 21 22 20.3284 22 19.5Z" fill="#0071B3"/>
<path d="M23.5 10C22.6716 10 22 10.6716 22 11.5C22 12.3284 22.6716 13 23.5 13H42.5C43.3284 13 44 12.3284 44 11.5C44 10.6716 43.3284 10 42.5 10H23.5Z" fill="#0071B3"/>
</svg>
