<svg width="48" height="48" viewBox="0 0 48 48" fill="none" xmlns="http://www.w3.org/2000/svg">
<path d="M10.2114 38.5771C9.82743 38.5771 9.44343 38.4311 9.15043 38.1381C5.18443 34.1711 3.00043 28.8981 3.00043 23.2881C3.00043 17.6791 5.18443 12.4061 9.15043 8.43907C9.73643 7.85307 10.6864 7.85307 11.2724 8.43907C11.8574 9.02507 11.8574 9.97507 11.2724 10.5601C7.87243 13.9601 6.00043 18.4801 6.00043 23.2881C6.00043 28.0971 7.87243 32.6171 11.2724 36.0161C11.8574 36.6021 11.8574 37.5521 11.2724 38.1381C10.9794 38.4311 10.5954 38.5771 10.2114 38.5771Z" fill="#0071B3"/>
<path d="M31.4248 32.8354C31.7178 33.1284 32.1018 33.2744 32.4858 33.2744C32.8698 33.2744 33.2538 33.1284 33.5468 32.8354C36.0958 30.2844 37.5008 26.8944 37.5008 23.2894C37.5008 19.6834 36.0958 16.2924 33.5458 13.7424C32.9598 13.1564 32.0108 13.1564 31.4248 13.7424C30.8388 14.3284 30.8388 15.2784 31.4248 15.8634C33.4078 17.8474 34.5008 20.4844 34.5008 23.2894C34.5008 26.0934 33.4078 28.7304 31.4248 30.7134C30.8398 31.2994 30.8398 32.2494 31.4248 32.8354Z" fill="#0071B3"/>
<path d="M15.5151 33.2744C15.1311 33.2744 14.7471 33.1284 14.4541 32.8354C11.9051 30.2844 10.5001 26.8944 10.5001 23.2894C10.5001 19.6834 11.9051 16.2934 14.4541 13.7434C15.0401 13.1574 15.9901 13.1574 16.5761 13.7434C17.1611 14.3284 17.1611 15.2784 16.5761 15.8644C14.5931 17.8474 13.5001 20.4844 13.5001 23.2894C13.5001 26.0934 14.5931 28.7304 16.5761 30.7134C17.1611 31.2994 17.1611 32.2494 16.5761 32.8354C16.2831 33.1284 15.8991 33.2744 15.5151 33.2744Z" fill="#0071B3"/>
<path fill-rule="evenodd" clip-rule="evenodd" d="M24.0005 17.2885C20.6865 17.2885 18.0005 19.9755 18.0005 23.2885C18.0005 26.6015 20.6865 29.2885 24.0005 29.2885C27.3135 29.2885 30.0005 26.6015 30.0005 23.2885C30.0005 19.9755 27.3135 17.2885 24.0005 17.2885ZM24.0005 20.2885C25.6545 20.2885 27.0005 21.6345 27.0005 23.2885C27.0005 24.9425 25.6545 26.2885 24.0005 26.2885C22.3465 26.2885 21.0005 24.9425 21.0005 23.2885C21.0005 21.6345 22.3465 20.2885 24.0005 20.2885Z" fill="#0071B3"/>
<path d="M36.7276 38.1381C37.0206 38.4311 37.4046 38.5771 37.7886 38.5771C38.1726 38.5771 38.5566 38.4311 38.8496 38.1381C42.8156 34.1711 44.9996 28.8981 44.9996 23.2881C44.9996 17.6791 42.8156 12.4061 38.8496 8.43907C38.2636 7.85307 37.3136 7.85307 36.7276 8.43907C36.1426 9.02507 36.1426 9.97507 36.7276 10.5601C40.1276 13.9601 41.9996 18.4801 41.9996 23.2881C41.9996 28.0971 40.1276 32.6171 36.7276 36.0161C36.1426 36.6021 36.1426 37.5521 36.7276 38.1381Z" fill="#0071B3"/>
</svg>
