<svg width="48" height="48" viewBox="0 0 48 48" fill="none" xmlns="http://www.w3.org/2000/svg">
<path fill-rule="evenodd" clip-rule="evenodd" d="M24.0002 10C27.3132 10 30.0002 12.687 30.0002 16C30.0002 19.314 27.3132 22 24.0002 22C20.6862 22 18.0002 19.314 18.0002 16C18.0002 12.687 20.6862 10 24.0002 10ZM24.0002 13C22.3462 13 21.0002 14.346 21.0002 16C21.0002 17.654 22.3462 19 24.0002 19C25.6542 19 27.0002 17.654 27.0002 16C27.0002 14.346 25.6542 13 24.0002 13Z" fill="#0071B3"/>
<path fill-rule="evenodd" clip-rule="evenodd" d="M23.4682 37.778L23.4711 37.7811L23.4722 37.782L23.5152 37.822H23.5322C23.6612 37.928 23.8202 38 24.0002 38C24.1802 38 24.3382 37.928 24.4672 37.823H24.4842C24.4842 37.823 24.5002 37.808 24.5252 37.784L24.5332 37.776C25.3242 37.021 36.3262 26.34 36.3262 16.326C36.3262 9.519 30.8072 4 24.0002 4C17.1922 4 11.6742 9.519 11.6742 16.326C11.6742 26.518 22.6892 37.047 23.4682 37.778ZM24.0002 7C29.1422 7 33.3262 11.184 33.3262 16.326C33.3262 22.571 27.7162 29.851 23.9972 33.789C20.2782 29.859 14.6742 22.592 14.6742 16.326C14.6742 11.184 18.8572 7 24.0002 7Z" fill="#0071B3"/>
<path d="M9.50018 41C8.67118 41 8.00018 41.671 8.00018 42.5C8.00018 43.329 8.67118 44 9.50018 44H38.5002C39.3282 44 40.0002 43.329 40.0002 42.5C40.0002 41.671 39.3282 41 38.5002 41H9.50018Z" fill="#0071B3"/>
</svg>
