<svg width="48" height="48" viewBox="0 0 48 48" fill="none" xmlns="http://www.w3.org/2000/svg">
<path fill-rule="evenodd" clip-rule="evenodd" d="M17.8262 18.5C17.8262 15.187 20.5122 12.5 23.8262 12.5C27.1402 12.5 29.8262 15.187 29.8262 18.5C29.8262 21.814 27.1392 24.5 23.8262 24.5C20.5122 24.5 17.8262 21.814 17.8262 18.5ZM26.8262 18.5C26.8262 16.846 25.4802 15.5 23.8262 15.5C22.1722 15.5 20.8262 16.846 20.8262 18.5C20.8262 20.154 22.1722 21.5 23.8262 21.5C25.4802 21.5 26.8262 20.154 26.8262 18.5Z" fill="#0071B3"/>
<path fill-rule="evenodd" clip-rule="evenodd" d="M22.7262 43.706C23.0102 44.012 23.4092 44.186 23.8262 44.186C24.2432 44.186 24.6422 44.012 24.9262 43.706C25.4462 43.145 37.6522 29.852 37.6522 18.826C37.6522 11.202 31.4502 5 23.8262 5C16.2022 5 10.0002 11.202 10.0002 18.826C10.0002 29.852 22.2062 43.145 22.7262 43.706ZM13.0002 18.826C13.0002 12.856 17.8562 8 23.8262 8C29.7952 8 34.6522 12.856 34.6522 18.826C34.6522 26.868 26.7792 36.92 23.8262 40.407C20.8732 36.92 13.0002 26.868 13.0002 18.826Z" fill="#0071B3"/>
</svg>
