<svg width="48" height="48" viewBox="0 0 48 48" fill="none" xmlns="http://www.w3.org/2000/svg">
<path fill-rule="evenodd" clip-rule="evenodd" d="M40 19.51C40.0027 19.1104 39.8458 18.7263 39.5642 18.4429C39.2826 18.1594 38.8996 18 38.5 18H34V14C34 8.47715 29.5228 4 24 4C18.4772 4 14 8.47715 14 14V18H9.5C8.67157 18 8 18.6716 8 19.5V42.5C8 43.3284 8.67157 44 9.5 44H38.5C39.3284 44 40 43.3284 40 42.5V19.51ZM17 13.93C17.0193 10.064 20.169 6.94567 24.035 6.965C27.901 6.98433 31.0193 10.134 31 14V18H17V13.93ZM37 21V41H11V21H37Z" fill="#0071B3"/>
</svg>
