<svg width="48" height="48" viewBox="0 0 48 48" fill="none" xmlns="http://www.w3.org/2000/svg">
<path d="M19.5667 37.2191V44H19.1209L15.337 39.8832V43.8791H14V37.098H14.4357L18.2295 41.195V37.2191H19.5667Z" fill="#005AD2"/>
<path d="M26.7193 37.2191L23.8071 44H23.3612L20.4393 37.2191H21.9548L23.5892 41.2554L25.2137 37.2191H26.7193Z" fill="#005AD2"/>
<path d="M34 37.098V43.8791H32.663V40.3271L31.0186 42.4261H30.5827L28.9383 40.3271V43.8791H27.6013V37.098H28.037L30.8008 40.7005L33.5643 37.098H34Z" fill="#005AD2"/>
<path d="M32.5269 14.7364C32.93 14.7364 33.295 14.9004 33.5593 15.1654C33.8235 15.4304 33.987 15.7965 33.987 16.2006V34.299C33.987 34.5232 33.8963 34.7262 33.7498 34.873C33.6032 35.0199 33.4008 35.1106 33.1772 35.1106H28.7266C28.5027 35.1106 28.3002 35.0199 28.1536 34.873C28.007 34.7262 27.9165 34.5232 27.9165 34.299V28.0842C27.9165 27.6227 28.1029 27.2049 28.4045 26.9024C28.7061 26.6 29.1227 26.4129 29.583 26.4129H29.7491C30.5021 26.4129 31.1838 26.1069 31.6773 25.6121C32.1708 25.1172 32.476 24.4336 32.476 23.6784C32.476 22.923 32.1708 22.2393 31.6773 21.7444C31.1838 21.2495 30.5021 20.9434 29.7491 20.9434C28.9962 20.9434 28.3145 21.2495 27.821 21.7444C27.3276 22.2393 27.0224 22.923 27.0224 23.6784L27.032 34.299C27.032 34.5232 26.9413 34.7262 26.7947 34.873C26.6481 35.0199 26.4455 35.1106 26.2217 35.1106H21.7781C21.5546 35.1106 21.3522 35.0199 21.2056 34.873C21.059 34.7262 20.9683 34.5232 20.9683 34.299L20.9778 23.6784C20.9778 22.923 20.6727 22.2393 20.1792 21.7444C19.6858 21.2495 19.0041 20.9434 18.251 20.9434C17.498 20.9434 16.8163 21.2495 16.3228 21.7444C15.8293 22.2393 15.5241 22.923 15.5241 23.6784C15.5241 24.4336 15.8293 25.1172 16.3228 25.6121C16.8163 26.1069 17.498 26.4129 18.251 26.4129H18.4172C18.8774 26.4129 19.2941 26.6 19.5956 26.9024C19.8972 27.2049 20.0837 27.6227 20.0837 28.0842V34.299C20.0837 34.5232 19.9932 34.7262 19.8467 34.873C19.7001 35.0199 19.4977 35.1106 19.2739 35.1106H14.823C14.5994 35.1106 14.3969 35.0199 14.2503 34.873C14.1037 34.7262 14.013 34.5232 14.013 34.299V16.2006C14.013 15.7965 14.1765 15.4304 14.4407 15.1654C14.705 14.9004 15.07 14.7364 15.4731 14.7364L21.4763 14.7437C22.0637 14.7437 22.5955 14.9826 22.9804 15.3687C23.3653 15.7547 23.6034 16.2879 23.6034 16.8766L23.4955 16.9119C22.8746 17.0309 22.3295 17.3643 21.9397 17.8322C21.5499 18.3002 21.3153 18.9027 21.3153 19.56C21.3153 20.3042 21.6162 20.9781 22.1027 21.466C22.5893 21.9539 23.2614 22.2556 24.0037 22.2556H23.9966C24.739 22.2556 25.4109 21.9539 25.8972 21.466C26.3836 20.9781 26.6843 20.3042 26.6843 19.56C26.6843 18.9027 26.4497 18.3002 26.0599 17.8322C25.6701 17.3643 25.1252 17.0309 24.5045 16.9119L24.3963 16.8766C24.3963 16.2879 24.6346 15.7547 25.0195 15.3687C25.4045 14.9826 25.9363 14.7437 26.5234 14.7437L32.5269 14.7364Z" fill="#005AD2"/>
<path d="M29.7327 11.9094H18.2673C18.1699 11.9094 18.0817 11.9497 18.0178 12.0147C17.954 12.0797 17.9145 12.1696 17.9145 12.2688C17.9145 12.368 17.954 12.4579 18.0178 12.5229C18.0817 12.588 18.1699 12.6282 18.2673 12.6282H29.7327C29.8302 12.6282 29.9184 12.588 29.9822 12.5229C30.046 12.4579 30.0855 12.368 30.0855 12.2688C30.0855 12.1696 30.046 12.0797 29.9822 12.0147C29.9184 11.9497 29.8302 11.9094 29.7327 11.9094Z" fill="#005AD2"/>
<path d="M30.1138 7.11501C30.06 7.11419 30.0066 7.11557 29.9537 7.11905C29.9009 7.12253 29.8486 7.12811 29.7969 7.13571C29.691 7.15128 29.6055 7.21631 29.5556 7.30308C29.5056 7.38984 29.4913 7.49835 29.5277 7.60086L29.5289 7.60426L29.5301 7.60766C29.5585 7.68829 29.6115 7.75352 29.6783 7.79571C29.7451 7.83791 29.8256 7.85706 29.9089 7.84553C29.9375 7.84156 29.9665 7.83857 29.9956 7.83657C30.0247 7.83456 30.0541 7.83355 30.0837 7.83355C30.4408 7.83355 30.7645 7.9818 30.9989 8.22079C31.2333 8.45977 31.3784 8.78951 31.3784 9.15249C31.3784 9.51636 31.2333 9.8461 30.9991 10.0849C30.765 10.3236 30.4417 10.4714 30.0854 10.4714L29.1171 10.4696C29.0165 10.6089 28.9045 10.7392 28.7826 10.8593C28.6607 10.9795 28.5288 11.0896 28.3886 11.1884L30.0837 11.1902C30.6469 11.1902 31.156 10.9527 31.5196 10.5706C31.8833 10.1886 32.1014 9.66208 32.0828 9.08405C32.0656 8.54836 31.8363 8.0601 31.4799 7.70376C31.1235 7.34742 30.6399 7.123 30.1138 7.11501Z" fill="#005AD2"/>
<path d="M29.177 8.64395C29.177 8.89283 29.1417 9.13362 29.0763 9.36116C29.0108 9.58869 28.9151 9.80298 28.7943 9.99884C28.7034 10.1462 28.598 10.2832 28.4803 10.4079C28.3625 10.5325 28.2325 10.6448 28.0922 10.7428C27.8903 10.8838 27.6676 10.9957 27.4297 11.0723C27.1918 11.1489 26.9386 11.1902 26.6758 11.1902L25.4097 11.1874C25.3126 11.1872 25.2247 11.1469 25.1612 11.0821C25.0976 11.0172 25.0583 10.9276 25.0583 10.8287C25.0583 10.7296 25.0978 10.6399 25.1616 10.5749C25.2254 10.51 25.3135 10.4699 25.4108 10.47L26.6776 10.4714C26.9633 10.4714 27.2336 10.4031 27.4735 10.2816C27.7134 10.1601 27.9229 9.98536 28.0869 9.77243C28.2078 9.61699 28.3039 9.44135 28.3698 9.25132C28.4357 9.0613 28.4715 8.85689 28.4715 8.64395C28.4715 8.54512 28.464 8.44854 28.4492 8.35443C28.4344 8.26032 28.4124 8.16867 28.3833 8.07973C28.2668 7.71315 28.0389 7.39734 27.7405 7.17318C27.4422 6.94901 27.0736 6.81649 26.6758 6.81649C26.4768 6.81649 26.2852 6.84973 26.1062 6.91101C25.9271 6.97229 25.7606 7.06161 25.6115 7.17375C25.4971 7.25991 25.3588 7.25904 25.2491 7.20038C25.1394 7.14173 25.0583 7.02528 25.0583 6.88029V6.87623C25.0583 6.82159 25.07 6.7677 25.0924 6.71932C25.1148 6.67095 25.148 6.62809 25.1911 6.59553C25.3987 6.43858 25.6312 6.31413 25.8811 6.22891C26.131 6.1437 26.3984 6.09772 26.6758 6.09772C27.1644 6.09772 27.6204 6.24012 28.0056 6.48675C28.3908 6.73338 28.7052 7.08423 28.9107 7.50111C28.968 7.61612 29.0169 7.73606 29.0566 7.86028C29.0963 7.98449 29.1267 8.11297 29.147 8.24504C29.1567 8.31063 29.1642 8.37666 29.1693 8.44315C29.1744 8.50963 29.177 8.57657 29.177 8.64395Z" fill="#005AD2"/>
<path d="M15.9171 9.08404C15.8984 9.66207 16.1166 10.1886 16.4802 10.5706C16.8439 10.9527 17.353 11.1902 17.9162 11.1902L19.6113 11.1884C19.4711 11.0896 19.3392 10.9795 19.2173 10.8593C19.0954 10.7392 18.9834 10.6089 18.8828 10.4696L17.9145 10.4714C17.5582 10.4714 17.235 10.3236 17.0008 10.0849C16.7666 9.8461 16.6215 9.51636 16.6215 9.15248C16.6215 8.78951 16.7666 8.45977 17.001 8.22078C17.2353 7.98179 17.559 7.83355 17.9162 7.83355C17.9458 7.83355 17.9751 7.83456 18.0043 7.83657C18.0334 7.83857 18.0623 7.84156 18.091 7.84553C18.1743 7.85706 18.2548 7.83791 18.3215 7.79571C18.3883 7.75352 18.4414 7.68829 18.4698 7.60766L18.471 7.60426L18.4722 7.60086C18.5086 7.49835 18.4942 7.38984 18.4443 7.30308C18.3944 7.21631 18.3088 7.15128 18.2029 7.13571C18.1513 7.12811 18.099 7.12253 18.0461 7.11905C17.9933 7.11557 17.9399 7.11419 17.886 7.11501C17.36 7.123 16.8763 7.34741 16.5199 7.70375C16.1635 8.06009 15.9343 8.54835 15.9171 9.08404Z" fill="#005AD2"/>
<path d="M18.8229 8.64395C18.8229 8.89283 18.8581 9.13362 18.9236 9.36116C18.9891 9.58869 19.0848 9.80298 19.2056 9.99884C19.2964 10.1462 19.4018 10.2832 19.5196 10.4079C19.6373 10.5325 19.7674 10.6448 19.9076 10.7428C20.1096 10.8838 20.3323 10.9957 20.5702 11.0723C20.8081 11.1489 21.0612 11.1902 21.324 11.1902L22.5902 11.1874C22.6873 11.1872 22.7751 11.1469 22.8387 11.0821C22.9022 11.0172 22.9415 10.9276 22.9415 10.8287C22.9415 10.7296 22.9021 10.6399 22.8383 10.5749C22.7745 10.51 22.6864 10.4699 22.5891 10.47L21.3223 10.4714C21.0365 10.4714 20.7662 10.4031 20.5263 10.2816C20.2864 10.1601 20.077 9.98536 19.9129 9.77243C19.7921 9.61699 19.696 9.44135 19.6301 9.25132C19.5641 9.0613 19.5284 8.85689 19.5284 8.64395C19.5284 8.54512 19.5359 8.44854 19.5507 8.35443C19.5654 8.26032 19.5875 8.16867 19.6166 8.07973C19.733 7.71315 19.961 7.39734 20.2593 7.17318C20.5576 6.94901 20.9263 6.81649 21.324 6.81649C21.5231 6.81649 21.7146 6.84973 21.8937 6.91101C22.0727 6.97229 22.2393 7.06161 22.3883 7.17375C22.5028 7.25991 22.6411 7.25904 22.7508 7.20038C22.8605 7.14173 22.9415 7.02528 22.9415 6.88029V6.87623C22.9415 6.82159 22.9299 6.7677 22.9074 6.71932C22.885 6.67095 22.8518 6.62809 22.8088 6.59553C22.6012 6.43858 22.3687 6.31413 22.1188 6.22891C21.8688 6.1437 21.6015 6.09772 21.324 6.09772C20.8354 6.09772 20.3795 6.24012 19.9943 6.48675C19.6091 6.73338 19.2947 7.08423 19.0892 7.50111C19.0319 7.61612 18.9829 7.73606 18.9432 7.86028C18.9035 7.98449 18.8731 8.11297 18.8528 8.24504C18.8431 8.31063 18.8356 8.37666 18.8306 8.44315C18.8255 8.50963 18.8229 8.57657 18.8229 8.64395Z" fill="#005AD2"/>
<path d="M24.3528 5.43825V10.8308C24.3528 10.8748 24.3453 10.9166 24.3316 10.955C24.3179 10.9934 24.2981 11.0285 24.2734 11.059C24.2408 11.0986 24.1998 11.1313 24.1532 11.1543C24.1067 11.1772 24.0547 11.1902 24 11.1902C23.903 11.1902 23.8148 11.1502 23.7509 11.0853C23.6869 11.0204 23.6472 10.9305 23.6472 10.8308V5.43825C23.6472 5.33852 23.6869 5.24867 23.7509 5.18376C23.8148 5.11885 23.903 5.07886 24 5.07886C24.097 5.07886 24.1852 5.11885 24.2491 5.18376C24.3131 5.24867 24.3528 5.33852 24.3528 5.43825Z" fill="#005AD2"/>
<path d="M24.3528 4.35936C24.3528 4.45859 24.3133 4.54843 24.2494 4.61346C24.1856 4.67849 24.0974 4.71871 24 4.71871C23.9026 4.71871 23.8144 4.67849 23.7506 4.61346C23.6867 4.54843 23.6473 4.45859 23.6473 4.35936C23.6473 4.26012 23.6867 4.17028 23.7506 4.10525C23.8144 4.04022 23.9026 4 24 4C24.0974 4 24.1856 4.04022 24.2494 4.10525C24.3133 4.17028 24.3528 4.26012 24.3528 4.35936Z" fill="#005AD2"/>
</svg>
