<svg width="48" height="48" viewBox="0 0 48 48" fill="none" xmlns="http://www.w3.org/2000/svg">
<path fill-rule="evenodd" clip-rule="evenodd" d="M24.81 4.22003L40.72 13.41C41.2203 13.6989 41.5289 14.2323 41.53 14.81V33.2C41.5325 33.7813 41.2234 34.3194 40.72 34.61L24.82 43.79C24.3188 44.0794 23.7012 44.0794 23.2 43.79L7.29 34.6C6.78658 34.3094 6.47747 33.7713 6.48 33.19V14.81C6.47747 14.2287 6.78658 13.6907 7.29 13.4L23.19 4.22003C23.6912 3.93064 24.3088 3.93064 24.81 4.22003ZM32.37 21.53L33.72 22.53L34.82 21L24 13V5.63003L8.09 14.81V33.19L24 42.38V31.38H32.37V21.53ZM24 13V31.36H15.65V21.51L14.3 22.51L13.17 21L24 13Z" fill="#0071B3"/>
</svg>
