<svg width="48" height="48" viewBox="0 0 48 48" fill="none" xmlns="http://www.w3.org/2000/svg">
<path fill-rule="evenodd" clip-rule="evenodd" d="M40.6815 3.33307L40.17 3.78003H41.7173L39.625 4.25703L39.2161 4.61533L39.0671 4.63551C37.0457 4.90922 35.0747 5.47517 33.2876 6.27587C31.4884 7.4771 29.7534 8.77177 28.0896 10.1546L28.169 10.089L28.12 10.1772C27.9167 10.5166 27.5497 10.9399 27.1856 11.1163L27.0646 11.1655L26.9638 11.1871C26.3154 11.2573 25.66 11.1534 25.0651 10.8861L24.8794 10.8027L24.8048 10.6133C24.556 9.9818 24.9417 9.50489 25.6052 9.13354C25.8388 9.00284 26.0674 8.90669 26.2425 8.84569L26.278 8.82303L26.2996 8.79034C26.356 8.71092 26.418 8.65793 26.519 8.61747L26.534 8.61203L26.6074 8.55496L26.665 8.51603L26.7639 8.46844C26.8193 8.44891 26.8736 8.42664 26.9264 8.40201L27.011 8.35703L27.07 8.32603L27.1517 8.27648L27.2204 8.22883L27.3465 8.12648C27.4619 8.01102 27.5702 7.92887 27.7824 7.78281L27.9868 7.63826L28.0998 7.54745C28.1441 7.50788 28.1717 7.4757 28.1901 7.44476L28.2996 7.26038L28.5086 7.2126C28.5818 7.19587 28.6303 7.16834 28.7215 7.09169L28.9669 6.88265L29.0948 6.7868L29.3918 6.49602C29.4361 6.42839 29.4826 6.3686 29.5325 6.31534L29.6102 6.2402C29.6938 6.16693 29.7687 6.12055 29.8765 6.06565L29.9999 5.99958C30.0161 5.98982 30.0314 5.97983 30.0478 5.96832L30.1736 5.87081C30.3945 5.7388 30.6389 5.65151 30.8929 5.61357L31.993 5.06003L32.0173 5.02573C32.1529 4.85189 32.311 4.79555 32.527 4.783L32.562 4.78103L32.5829 4.77596C32.6798 4.75163 32.7683 4.74261 32.8812 4.74131L33.1272 4.74161L33.1643 4.73433C33.7634 4.46381 34.383 4.24138 35.0159 4.06942L36.2687 3.72556L36.22 3.80403L36.2587 3.79496L36.38 3.78003H37.24L37.5427 3.72018C37.7738 3.67727 38.0058 3.63906 38.2407 3.60531L38.5955 3.558L40.6815 3.33307ZM39.862 5.10974L39.6896 5.12534L39.4122 5.16779C38.9622 5.24976 38.5698 5.3887 38.1657 5.59938C38.1442 5.61057 38.1196 5.6241 38.0921 5.63973L37.896 5.75676L37.3649 6.09572L35.703 7.20057L36.182 8.01603L36.1169 8.0128C35.7469 7.9605 35.6777 7.59101 35.7772 7.38065L35.739 7.43293L35.6522 7.53412L35.5254 7.67108L35.4495 7.74887C34.9666 8.23576 34.2837 8.79734 33.7253 9.14586C32.3322 9.94973 31.4618 11.0792 30.4296 13.067L29.8892 14.1232L29.6304 14.6136L29.4753 14.8929C29.1796 15.4332 28.9285 15.9877 28.7203 16.5588C28.1151 17.7874 27.7238 19.0896 27.4967 20.5342C27.4859 20.6028 27.4756 20.6705 27.4657 20.7378L27.4106 21.1375L27.3639 21.5383L27.3244 21.9536L27.2907 22.397L27.2615 22.8818L27.2236 23.716L27.1603 25.582C27.2127 26.4053 27.3741 27.1659 27.6406 27.8923C27.6393 27.8947 27.6385 27.9012 27.6383 27.911L27.6451 28.1463L27.6412 28.4141L27.6138 28.9498L27.61 29.14L27.6444 29.4575L27.692 29.7667C27.764 30.1737 27.8709 30.5606 28.012 30.936L28.194 30.885L28.162 30.9888C28.1372 31.0806 28.141 31.1357 28.1781 31.2277L28.195 31.266L28.184 31.2713L28.2451 31.4059C28.3127 31.5347 28.4011 31.6499 28.5222 31.7842L28.675 31.954L28.6692 32.0246C28.6639 32.1243 28.6665 32.2143 28.6744 32.3348L28.68 32.46C28.6648 32.5406 28.6648 32.6894 28.6844 32.8363L28.7473 33.0205L28.8573 33.2105L29.1079 33.5869L29.2486 33.8108L29.545 34.301C29.206 33.8465 28.8607 33.4579 28.4858 33.0989C26.7879 30.8695 23.5686 29.7954 20.2065 30.0212L19.8882 30.0536C19.3598 30.1193 18.8431 30.2432 18.3454 30.4232L18.114 30.512L17.9329 30.5339L17.3812 30.578C17.5516 30.4097 17.6897 30.2618 17.7842 30.1438L17.8511 30.0546C17.9391 29.9437 18.0131 29.8328 18.0971 29.6854L18.2335 29.4324L18.3737 29.1565C18.5011 28.9057 18.5931 28.7449 18.6948 28.6068L18.7951 28.4814L18.9555 28.3245C19.0793 28.2031 19.1622 28.0965 19.2224 27.9504L19.2567 27.8565L19.2802 27.7664L19.287 27.707L19.5049 27.4853C19.7911 27.1918 19.9459 26.9806 20.0303 26.6891C20.0159 26.7388 20.0347 26.7412 20.0865 26.7261L20.24 26.6803L20.5959 26.5879C20.62 26.5811 20.6395 26.5753 20.6521 26.5709C20.7353 26.5419 20.8018 26.5096 20.8726 26.448L20.9324 26.387C21.0051 26.3002 21.0487 26.1924 21.0551 26.0801L21.05 25.983L21.139 25.8965L21.2262 25.7976L21.34 25.6592L21.3423 25.4023L21.3487 25.3383C21.4661 25.2165 21.5565 25.0946 21.6283 24.9621C21.6592 24.905 21.685 24.8497 21.7108 24.7868L21.8247 24.4807C21.8544 24.4031 21.8845 24.3322 21.9209 24.2561L21.9965 24.0757L22.0648 23.9393L22.1177 23.8486L22.3094 23.563L22.3913 23.4333C22.5432 23.1765 22.6244 22.9297 22.6578 22.5771L22.952 21.595L23.0265 21.4584L23.0806 21.3462L23.2641 20.9016L23.3214 20.7571C23.4807 20.3548 23.5876 20.1789 23.8095 19.9947L23.99 19.8447V19.61C23.99 19.4258 24.053 19.2063 24.185 18.9257L24.2597 18.7739L24.706 17.9591L24.81 17.7554L24.8908 17.5777C24.9151 17.52 24.9375 17.4625 24.9599 17.4009C25.1576 16.8642 25.4622 16.3708 25.8548 15.952L25.9598 15.7813L26.0036 15.6758C26.0198 15.6414 26.0374 15.6077 26.0566 15.5748L26.112 15.4911C26.1715 15.4181 26.2081 15.3379 26.2303 15.2511L26.251 15.136L26.358 14.939L26.5593 14.94L26.6476 14.5506C26.8164 13.8066 26.9044 13.0466 26.91 12.2837L26.913 11.8761L26.5143 11.791C26.0168 11.6849 25.5021 11.6999 25.0134 11.8334L24.882 11.873L24.9356 11.8712C24.7554 11.8836 24.5746 11.8836 24.3944 11.8712L24.0744 11.8491L23.921 12.1308C23.4778 12.9441 23.0908 13.7867 22.7625 14.6528L22.73 14.83L22.7351 14.9467C22.7453 15.0688 22.771 15.2048 22.816 15.34L22.7182 15.5012C22.6036 15.6966 22.5084 15.8811 22.4354 16.0579L22.3913 16.1715C22.2691 16.5094 22.239 16.8188 22.3644 17.044L22.392 17.085L22.3842 17.1977L22.3865 17.3791C22.392 17.5168 22.3885 17.565 22.3611 17.6564L22.3164 17.7987L22.1938 18.1562L22.0389 18.579L21.8658 19.029L21.6883 19.4682C21.6354 19.6135 21.5788 19.7516 21.5122 19.8992L21.2933 20.3552L21.0704 20.8113C20.5198 21.9391 19.945 22.8615 19.0695 24.0753L17.8752 25.6952C17.7219 25.9037 17.5802 26.0983 17.4459 26.2855L17.0608 26.8309C16.9989 26.9201 16.9377 27.0091 16.8768 27.0985C15.9019 28.4971 14.6718 29.8862 13.2286 31.2664C12.2379 32.2138 11.205 33.105 10.0675 34.0156L9.32254 34.6026L8.99158 34.8582L8.86814 34.9392L8.8898 34.9368L7.42043 36.0717L7.22658 36.2268C7.20289 36.2463 7.18391 36.2622 7.17026 36.2742L7.05537 36.4214L6.2793 37.9304L7.49762 37.4674C7.77901 37.3605 8.11643 37.1606 8.53914 36.8564L8.87262 36.6085C8.93102 36.5639 8.99086 36.5176 9.05221 36.4696L9.64649 35.9911L10.4495 35.3172L10.813 35.007L10.828 35.0283L11.4723 34.6402C11.9061 34.5787 12.3376 34.5015 12.7659 34.4087L12.9038 34.3566C13.4785 34.0356 14.0789 33.7627 14.6986 33.5408L15.03 33.4221L15.246 33.36H15.69V33.24L15.9803 33.1628L16.1936 33.0672L16.226 33.05H16.5L17.0607 32.975C17.0939 32.9764 17.1275 32.9761 17.1659 32.9735L17.3001 32.9586L17.8093 32.872L17.9525 32.854L19.021 32.794L19.6262 32.7688L20.1779 32.755C21.8463 32.7307 22.798 32.8948 23.8806 33.3941C24.7999 33.8114 25.6002 34.4465 26.2136 35.2447C27.5953 36.8205 28.5848 38.661 29.1276 40.6516C29.5376 41.8326 30.0937 42.9201 30.7902 43.9165C31.1337 44.3392 31.6478 44.5191 32.1437 44.4119C32.6395 44.3047 33.0334 43.9285 33.1633 43.4381C33.2998 43.0139 33.2992 42.6425 33.1759 42.2459L33.088 42.009L32.8827 41.5102C32.7824 41.2552 32.7109 41.0165 32.6583 40.7336L32.6382 40.6128L31.665 40.744L31.6708 40.7226C31.7342 40.5247 31.9886 40.3043 32.3064 40.5022L32.21 40.33C32.0179 39.9741 31.8966 39.5142 31.9279 39.1761C32.023 38.287 31.7196 37.4805 31.0196 36.4265L30.7001 35.9643L30.3746 35.514L30.729 34.733L30.9341 34.6657L30.824 34.483L30.8502 34.4048L30.8984 34.2173L30.9295 34.0756L30.8799 33.9393L30.742 33.533L30.6214 33.1216C30.5095 32.7077 30.424 32.2869 30.3653 31.8617L30.315 31.5L30.32 31.18L30.3126 31.0832L30.2912 30.9958L30.2574 30.9182L30.227 30.872L30.2016 30.65L30.1898 30.4364L30.19 30.3L30.1794 30.2098L30.149 30.06L30.19 30.0132V28L30.1814 27.2883C30.1784 25.1544 30.3791 23.0329 30.781 20.9445C31.0883 19.6161 31.5551 18.3104 32.1681 17.0718L32.9819 15.4688C34.2985 12.942 35.2693 11.6178 37.0373 10.1665C38.1638 9.06946 39.335 8.0825 40.5734 7.18487C41.3121 6.53979 41.4582 5.87534 40.9282 5.42333C40.6432 5.18029 40.1354 5.05506 39.862 5.10974Z" fill="#0071B3"/>
</svg>
