<svg width="48" height="48" viewBox="0 0 48 48" fill="none" xmlns="http://www.w3.org/2000/svg">
<path d="M36 17.13C38.8369 17.7201 41.7292 16.4053 43.15 13.88C44.555 11.3761 44.1916 8.25285 42.2492 6.1385C40.3068 4.02414 37.2255 3.39771 34.6117 4.58579C31.9979 5.77387 30.4439 8.50731 30.7597 11.361C31.0755 14.2147 33.1897 16.5422 36 17.13Z" fill="#0071B3"/>
<path d="M30.65 24.51C30.65 28.1716 27.6727 31.14 24 31.14C20.3273 31.14 17.35 28.1716 17.35 24.51C17.35 20.8483 20.3273 17.88 24 17.88C27.6727 17.88 30.65 20.8483 30.65 24.51Z" fill="#0071B3"/>
<path d="M5.3 33.36C6.84073 31.2701 9.45823 30.27 12 30.8C15.0358 31.4209 17.2367 34.0619 17.3 37.16V37.29C17.2953 40.1677 15.4374 42.7149 12.6986 43.5985C9.95984 44.482 6.96366 43.5007 5.27813 41.1683C3.59261 38.8358 3.60143 35.683 5.3 33.36Z" fill="#0071B3"/>
<path d="M12 17.9V27C9.67898 26.6614 7.31226 27.1348 5.3 28.34V16C5.34394 10.2875 9.98733 5.67981 15.7 5.67998H28.16C27.0582 7.65992 26.6499 9.95134 27 12.19H17.72C14.5648 12.19 12.0055 14.7448 12 17.9Z" fill="#0071B3"/>
<path d="M36 31.45V21C38.6018 21.3553 41.2405 20.6965 43.37 19.16V33.24C43.3645 38.9681 38.7281 43.6135 33 43.63H18.94C20.3421 41.8141 21.1018 39.5842 21.1 37.29V37.16H30.28C33.4352 37.16 35.9945 34.6051 36 31.45Z" fill="#0071B3"/>
</svg>
