<svg width="48" height="48" viewBox="0 0 48 48" fill="none" xmlns="http://www.w3.org/2000/svg">
<path d="M14.5 13C13.6716 13 13 13.6716 13 14.5C13 15.3284 13.6716 16 14.5 16H33.5C34.3284 16 35 15.3284 35 14.5C35 13.6716 34.3284 13 33.5 13H14.5Z" fill="#0071B3"/>
<path d="M13 20.5C13 19.6716 13.6716 19 14.5 19H19.5C20.3284 19 21 19.6716 21 20.5C21 21.3284 20.3284 22 19.5 22H14.5C13.6716 22 13 21.3284 13 20.5Z" fill="#0071B3"/>
<path d="M33 26C34.6569 26 36 24.6569 36 23C36 21.3431 34.6569 20 33 20C31.3431 20 30 21.3431 30 23C30 24.6569 31.3431 26 33 26Z" fill="#0071B3"/>
<path fill-rule="evenodd" clip-rule="evenodd" d="M9.55 5H38.45C39.8583 5 41 6.58735 41 8.54545V40.4545C41 42.4126 39.8583 44 38.45 44H9.55C8.14167 44 7 42.4126 7 40.4545V8.54545C7 6.58735 8.14167 5 9.55 5ZM10 38.0668L17.7059 26.2188C18.2753 25.3434 19.5425 25.3031 20.1663 26.1405L24.0324 31.3304L27.0259 27.96C27.6519 27.2552 28.7651 27.2956 29.3383 28.0439L38 39.3524V8H10V38.0668ZM25.8627 33.7874L27.0227 35.3446C27.5176 36.009 27.3803 36.9487 26.7159 37.4436C26.0516 37.9385 25.1118 37.8012 24.6169 37.1368L19.0468 29.6595L11.6709 41H35.4831L28.0619 31.3112L25.8627 33.7874Z" fill="#0071B3"/>
</svg>
