<svg width="48" height="48" viewBox="0 0 48 48" fill="none" xmlns="http://www.w3.org/2000/svg">
<path fill-rule="evenodd" clip-rule="evenodd" d="M24 6C19.5817 6 16 9.58172 16 14C16 18.4183 19.5817 22 24 22C28.4183 22 32 18.4183 32 14C32 9.58172 28.4183 6 24 6ZM24 9C26.7614 9 29 11.2386 29 14C29 16.7614 26.7614 19 24 19C21.2386 19 19 16.7614 19 14C19 11.2386 21.2386 9 24 9Z" fill="#0071B3"/>
<path d="M28.81 24.25C32.59 25.07 35.48 27.74 35.93 31.07C35.9735 31.2093 35.997 31.3541 36 31.5V39.5C36 40.3284 35.3284 41 34.5 41C33.6716 41 33 40.3284 33 39.5V32C33 30 31.52 28.34 29.41 27.52L25.41 38.42V38.49L25.35 38.62L25.27 38.74L25.18 38.86L25.09 38.96L24.96 39.08L24.88 39.14L24.72 39.24H23.34L23.1 39.08L22.97 38.96L22.88 38.86L22.79 38.74L22.71 38.62L22.65 38.49V38.42L18.65 27.52C16.51 28.34 15.03 30 15.03 32V39.46C15.03 40.2884 14.3584 40.96 13.53 40.96C12.7016 40.96 12.03 40.2884 12.03 39.46V31.46C12.033 31.3141 12.0565 31.1693 12.1 31.03C12.56 27.7 15.44 25 19.22 24.21H19.41C19.7637 24.1737 20.1187 24.266 20.41 24.47C20.6668 24.6393 20.8603 24.889 20.96 25.18L21.06 25.46L21.63 27L24 33.52L26.37 27L26.97 25.5L27.07 25.22C27.1736 24.9311 27.3661 24.6825 27.62 24.51C27.9113 24.306 28.2663 24.2137 28.62 24.25H28.81Z" fill="#0071B3"/>
</svg>
