<svg width="48" height="48" viewBox="0 0 48 48" fill="none" xmlns="http://www.w3.org/2000/svg">
<path fill-rule="evenodd" clip-rule="evenodd" d="M18.8292 6.15997C19.3106 5.91925 19.8842 5.95139 20.3321 6.24997L28.6078 11.77L39.8292 6.15997C40.2942 5.92748 40.8464 5.94668 41.2886 6.21999C41.7308 6.4933 42 6.98001 42 7.49988V34.4999C42 35.068 41.679 35.5858 41.1708 35.8399L29.1708 41.8399C28.6894 42.0806 28.1158 42.0485 27.6679 41.7499L19.3922 36.2299L8.17082 41.8399C7.70584 42.0724 7.15363 42.0532 6.7114 41.7799C6.26918 41.5066 6 41.0197 6 40.4999V13.5C6 12.9318 6.321 12.4141 6.82918 12.16L18.8292 6.15997ZM21 33.6999L27 37.6999V14.3L21 10.3V33.6999ZM18 10.43V33.5699L9 38.0699V14.93L18 10.43ZM30 14.43V38.0699L39 33.5699V9.92997L30 14.43Z" fill="#0071B3"/>
</svg>
