<svg width="48" height="48" viewBox="0 0 48 48" fill="none" xmlns="http://www.w3.org/2000/svg">
<path fill-rule="evenodd" clip-rule="evenodd" d="M41.0361 9.50004C41.0361 8.67161 40.3646 8.00004 39.5361 8.00004H29.5361C28.7077 8.00004 28.0361 8.67161 28.0361 9.50004V19.5C28.0361 20.3285 28.7077 21 29.5361 21C30.3646 21 31.0361 20.3285 31.0361 19.5V12.5C36.715 16.4429 38.6656 23.9406 35.6281 30.1511C32.5906 36.3615 25.4746 39.4249 18.8759 37.3627C12.2772 35.3006 8.17164 28.7305 9.21082 21.8957C10.25 15.0608 16.1227 10.0078 23.0361 10V7.00004C14.7862 6.9833 7.71514 12.8922 6.26597 21.0138C4.8168 29.1354 9.4079 37.1252 17.1545 39.9628C24.901 42.8004 33.5667 39.6665 37.7064 32.5305C41.8462 25.3944 40.2649 16.3161 33.9561 11H39.5361C40.3646 11 41.0361 10.3285 41.0361 9.50004Z" fill="#0071B3"/>
</svg>
