<svg width="48" height="48" viewBox="0 0 48 48" fill="none" xmlns="http://www.w3.org/2000/svg">
<path fill-rule="evenodd" clip-rule="evenodd" d="M30.73 8.219C30.956 8.083 31.217 8 31.5 8C32.329 8 33 8.671 33 9.5V38.992C33 39.82 32.329 40.492 31.5 40.492C31.246 40.492 31.01 40.422 30.799 40.311L30.7942 40.3089L30.7905 40.3075C30.7878 40.3065 30.785 40.3055 30.782 40.304L21.369 35.915C20.386 37.888 18.354 39.247 16 39.247C12.686 39.247 10 36.561 10 33.247C10 32.394 10.181 31.583 10.502 30.848L9.214 30.247H4.5C3.672 30.247 3 29.576 3 28.747V19.747C3 18.918 3.672 18.247 4.5 18.247H9.214L30.689 8.233C30.6958 8.23011 30.7025 8.22814 30.7092 8.22621C30.7163 8.22414 30.7233 8.22211 30.73 8.219ZM30 36.63V11.864L10.181 21.106C9.975 21.202 9.758 21.243 9.544 21.243C9.53723 21.243 9.53047 21.2439 9.52347 21.2449C9.516 21.2459 9.50826 21.247 9.5 21.247H6V27.247H9.5C9.50827 27.247 9.516 27.2481 9.52347 27.2491C9.53047 27.2501 9.53723 27.251 9.544 27.251C9.758 27.251 9.975 27.292 10.181 27.388L30 36.63ZM13 33.247C13 34.901 14.346 36.247 16 36.247C17.148 36.247 18.135 35.592 18.64 34.643L13.225 32.118C13.082 32.467 13 32.847 13 33.247Z" fill="#0071B3"/>
<path d="M37.5002 31.7549H41.3662C42.1952 31.7549 42.8662 32.4269 42.8662 33.2549C42.8662 34.0839 42.1952 34.7549 41.3662 34.7549H37.5002C36.6722 34.7549 36.0002 34.0839 36.0002 33.2549C36.0002 32.4269 36.6722 31.7549 37.5002 31.7549Z" fill="#0071B3"/>
<path d="M37.5005 16.7545H41.3665C42.1945 16.7545 42.8665 16.0835 42.8665 15.2545C42.8665 14.4265 42.1945 13.7545 41.3665 13.7545H37.5005C36.6715 13.7545 36.0005 14.4265 36.0005 15.2545C36.0005 16.0835 36.6715 16.7545 37.5005 16.7545Z" fill="#0071B3"/>
<path d="M37.5005 22.7545H43.5005C44.3285 22.7545 45.0005 23.4265 45.0005 24.2545C45.0005 25.0835 44.3285 25.7545 43.5005 25.7545H37.5005C36.6715 25.7545 36.0005 25.0835 36.0005 24.2545C36.0005 23.4265 36.6715 22.7545 37.5005 22.7545Z" fill="#0071B3"/>
</svg>
