<svg width="48" height="48" viewBox="0 0 48 48" fill="none" xmlns="http://www.w3.org/2000/svg">
<path d="M6 14C6 13.1716 6.67157 12.5 7.5 12.5H37.5C38.3284 12.5 39 13.1716 39 14C39 14.8284 38.3284 15.5 37.5 15.5H7.5C6.67157 15.5 6 14.8284 6 14Z" fill="#0071B3"/>
<path d="M6 24C6 23.1716 6.67157 22.5 7.5 22.5H40.5C41.3284 22.5 42 23.1716 42 24C42 24.8284 41.3284 25.5 40.5 25.5H7.5C6.67157 25.5 6 24.8284 6 24Z" fill="#0071B3"/>
<path d="M7.5 32.5C6.67157 32.5 6 33.1716 6 34C6 34.8284 6.67157 35.5 7.5 35.5H29.5C30.3284 35.5 31 34.8284 31 34C31 33.1716 30.3284 32.5 29.5 32.5H7.5Z" fill="#0071B3"/>
</svg>
