<svg width="48" height="48" viewBox="0 0 48 48" fill="none" xmlns="http://www.w3.org/2000/svg">
<path fill-rule="evenodd" clip-rule="evenodd" d="M35 9H13C11.8954 9 11 9.89543 11 11V26C11 27.1046 11.8954 28 13 28H35C36.1046 28 37 27.1046 37 26V11C37 9.89543 36.1046 9 35 9ZM14 25H34V12H14V25Z" fill="#0071B3"/>
<path d="M16 32C16 33.1046 15.1046 34 14 34C12.8954 34 12 33.1046 12 32C12 30.8954 12.8954 30 14 30C15.1046 30 16 30.8954 16 32Z" fill="#0071B3"/>
<path d="M34 34C35.1046 34 36 33.1046 36 32C36 30.8954 35.1046 30 34 30C32.8954 30 32 30.8954 32 32C32 33.1046 32.8954 34 34 34Z" fill="#0071B3"/>
<path fill-rule="evenodd" clip-rule="evenodd" d="M36 4C38.0845 4.00096 40.0191 5.08374 41.11 6.86C41.6911 7.80432 41.9992 8.8912 42 10V33C42 36.3137 39.3137 39 36 39H12C9.90751 38.9905 7.97111 37.8916 6.89 36.1C6.3332 35.1963 6.02608 34.1611 6 33.1V10C6 6.68629 8.68629 4 12 4H36ZM39 33V10C39 8.34315 37.6569 7 36 7H12C10.3431 7 9 8.34315 9 10V33C9 34.6569 10.3431 36 12 36H36C37.6569 36 39 34.6569 39 33Z" fill="#0071B3"/>
<path d="M30.77 40L33.11 45H36.42L34.08 40H30.77Z" fill="#0071B3"/>
<path d="M14.89 45H11.58L13.91 40H17.23L14.89 45Z" fill="#0071B3"/>
</svg>
