<svg width="48" height="48" viewBox="0 0 48 48" fill="none" xmlns="http://www.w3.org/2000/svg">
<path d="M12.0158 24C12.0158 23.2554 12.5552 22.6204 13.29 22.5H34.71C35.4448 22.6204 35.9842 23.2554 35.9842 24C35.9842 24.7446 35.4448 25.3796 34.71 25.5H13.29C12.5552 25.3796 12.0158 24.7446 12.0158 24Z" fill="#0071B3"/>
<path fill-rule="evenodd" clip-rule="evenodd" d="M24 4C12.9543 4 4 12.9543 4 24C4 35.0457 12.9543 44 24 44C35.0457 44 44 35.0457 44 24C44 18.6957 41.8929 13.6086 38.1421 9.85786C34.3914 6.10714 29.3043 4 24 4ZM24 7C33.3888 7 41 14.6112 41 24C41 33.3888 33.3888 41 24 41C14.6112 41 7 33.3888 7 24C7 14.6112 14.6112 7 24 7Z" fill="#0071B3"/>
</svg>
