<svg width="48" height="48" viewBox="0 0 48 48" fill="none" xmlns="http://www.w3.org/2000/svg">
<path d="M41.9391 26.72C42.5561 26.165 42.6061 25.217 42.0521 24.6L24.8391 5.484C24.8261 5.46938 24.8097 5.4595 24.7932 5.44956C24.7803 5.44183 24.7674 5.43406 24.7561 5.424C24.7047 5.37269 24.6461 5.33381 24.5864 5.29423C24.5763 5.28753 24.5662 5.28081 24.5561 5.274C24.4661 5.211 24.3741 5.148 24.2761 5.108C24.1801 5.07 24.0801 5.052 23.9801 5.034C23.9685 5.03183 23.9569 5.0296 23.9454 5.02737C23.8769 5.01416 23.8079 5.00086 23.7361 5C23.6141 5 23.4941 5.022 23.3761 5.05C23.3568 5.05459 23.3375 5.05861 23.3184 5.06262C23.2748 5.07172 23.2317 5.08073 23.1901 5.096C23.0601 5.146 22.9381 5.226 22.8221 5.314C22.8059 5.32695 22.7887 5.33859 22.7714 5.35032C22.746 5.36756 22.7203 5.38498 22.6971 5.407C22.683 5.42106 22.6667 5.43116 22.6506 5.44123C22.6322 5.45264 22.6139 5.464 22.5991 5.481L5.38505 24.596C4.83105 25.211 4.88105 26.16 5.49505 26.714C6.11205 27.268 7.06005 27.219 7.61505 26.604L23.7151 8.721L39.8211 26.61C40.3751 27.224 41.3241 27.274 41.9391 26.72Z" fill="#0071B3"/>
<path d="M34.7161 22.937V40.096H12.7161V22.938L9.71605 26.27V41.596C9.71605 42.424 10.3881 43.096 11.2161 43.096H36.2191C37.0461 43.094 37.7161 42.423 37.7161 41.596V26.269L34.7161 22.937Z" fill="#0071B3"/>
<path d="M21.0129 29.546C21.8816 30.7677 23.3193 31.571 24.9462 31.571C26.1481 31.571 27.245 31.1309 28.0883 30.4086L28.7191 32.4789C27.6365 33.1842 26.3407 33.596 24.9462 33.596C22.1353 33.596 19.722 31.9287 18.6641 29.546H17.7474C17.1811 29.546 16.7191 29.0904 16.7191 28.5335C16.7191 27.9766 17.1811 27.521 17.7474 27.521H18.1245C18.1019 27.2983 18.0902 27.0742 18.0902 26.846C18.0902 26.6178 18.1019 26.3937 18.1245 26.171H17.7474C17.1811 26.171 16.7191 25.7154 16.7191 25.1585C16.7191 24.6016 17.1811 24.146 17.7474 24.146H18.6641C19.722 21.7633 22.1353 20.096 24.9462 20.096C26.34 20.096 27.6358 20.5077 28.7184 21.2125L28.0876 23.282C27.2443 22.5611 26.1474 22.121 24.9455 22.121C23.3193 22.121 21.8816 22.9242 21.0129 24.146H25.289C25.8539 24.146 26.3174 24.6016 26.3174 25.1585C26.3174 25.7154 25.8539 26.171 25.289 26.171H20.2019C20.169 26.3917 20.147 26.6165 20.147 26.846C20.147 27.0755 20.169 27.2996 20.2019 27.521H25.289C25.8539 27.521 26.3174 27.9766 26.3174 28.5335C26.3174 29.0904 25.8539 29.546 25.289 29.546H21.0129Z" fill="#0071B3"/>
</svg>
