<svg width="48" height="48" viewBox="0 0 48 48" fill="none" xmlns="http://www.w3.org/2000/svg">
<path fill-rule="evenodd" clip-rule="evenodd" d="M45.8999 24.6188C45.9589 24.4618 45.9939 24.2948 45.9969 24.1188C45.9969 24.1128 45.9989 24.1068 45.9989 24.0998V24.0988V24.0978C45.9989 24.0908 45.9969 24.0848 45.9969 24.0788C45.9939 23.9028 45.9589 23.7358 45.8999 23.5788C45.8899 23.5518 45.8819 23.5258 45.8709 23.4988C45.8039 23.3478 45.7109 23.2118 45.6009 23.0918C45.5849 23.0738 45.5789 23.0498 45.5619 23.0328C45.5509 23.0218 45.5369 23.0188 45.5259 23.0088L34.9549 12.4378C34.3719 11.8538 33.4179 11.8538 32.8339 12.4378C32.2509 13.0208 32.2509 13.9758 32.8339 14.5588L40.8739 22.5988H19.4999C19.4989 22.5988 19.4979 22.5988 19.4969 22.5988H7.12488L15.1649 14.5588C15.7479 13.9758 15.7479 13.0208 15.1649 12.4378C14.5819 11.8548 13.6269 11.8548 13.0439 12.4378L2.47188 23.0088C2.46188 23.0188 2.44688 23.0218 2.43688 23.0328C2.41988 23.0498 2.41388 23.0738 2.39688 23.0918C2.28788 23.2118 2.19488 23.3478 2.12888 23.4978C2.11688 23.5258 2.10888 23.5518 2.09888 23.5798C2.03988 23.7358 2.00388 23.9038 2.00188 24.0788C2.00188 24.0848 1.99988 24.0908 1.99988 24.0978V24.0988V24.1008C1.99988 24.1068 2.00188 24.1128 2.00188 24.1188C2.00388 24.2948 2.03988 24.4618 2.09888 24.6188C2.10888 24.6458 2.11688 24.6728 2.12888 24.7008C2.19488 24.8508 2.28788 24.9858 2.39688 25.1058C2.41388 25.1238 2.41988 25.1478 2.43688 25.1658C2.44688 25.1758 2.46188 25.1788 2.47188 25.1888L13.0439 35.7608C13.6269 36.3438 14.5819 36.3438 15.1649 35.7608C15.7479 35.1768 15.7479 34.2228 15.1649 33.6388L7.12488 25.5988H28.4999H28.5019H40.8739L32.8339 33.6388C32.2509 34.2218 32.2509 35.1768 32.8339 35.7598C33.4179 36.3438 34.3719 36.3438 34.9549 35.7598L45.5259 25.1888C45.5369 25.1788 45.5509 25.1758 45.5619 25.1648C45.5789 25.1478 45.5849 25.1238 45.6009 25.1058C45.7109 24.9858 45.8039 24.8498 45.8709 24.6988C45.8819 24.6718 45.8899 24.6458 45.8999 24.6188Z" fill="#0071B3"/>
</svg>
