<svg width="48" height="48" viewBox="0 0 48 48" fill="none" xmlns="http://www.w3.org/2000/svg">
<path fill-rule="evenodd" clip-rule="evenodd" d="M37.9 15.52C37.9643 15.3541 37.9982 15.178 38 15C37.9959 14.8288 37.962 14.6596 37.9 14.5V14.42C37.825 14.2637 37.7235 14.1216 37.6 14V13.94L27 3.34002C26.409 2.78931 25.488 2.80556 24.9168 3.37678C24.3455 3.948 24.3293 4.869 24.88 5.46002L32.88 13.46H24.5C20.6491 13.4653 16.958 15.0002 14.2387 17.727C11.5194 20.4538 9.99471 24.1491 10 28C10 28 10 28 10 28.07V45.5C10 46.3284 10.6716 47 11.5 47C12.3284 47 13 46.3284 13 45.5V28.07C13 28.07 13 28.07 13 28C13.0055 21.651 18.151 16.5055 24.5 16.5H32.88L24.88 24.5C24.2835 25.0854 24.2746 26.0436 24.86 26.64C25.4454 27.2365 26.4035 27.2454 27 26.66L37.53 16.09V16.03C37.6418 15.909 37.733 15.7705 37.8 15.62L37.9 15.52Z" fill="#0071B3"/>
</svg>
