<svg width="48" height="48" viewBox="0 0 48 48" fill="none" xmlns="http://www.w3.org/2000/svg">
<path d="M11.5 13C10.6716 13 10 13.6716 10 14.5V20.5C10 21.3284 10.6716 22 11.5 22H23.5C24.3284 22 25 21.3284 25 20.5V14.5C25 13.6716 24.3284 13 23.5 13H11.5Z" fill="#0071B3"/>
<path d="M28 14.5C28 13.6716 28.6716 13 29.5 13H36.5C37.3284 13 38 13.6716 38 14.5C38 15.3284 37.3284 16 36.5 16H29.5C28.6716 16 28 15.3284 28 14.5Z" fill="#0071B3"/>
<path d="M29.5 19C28.6716 19 28 19.6716 28 20.5C28 21.3284 28.6716 22 29.5 22H36.5C37.3284 22 38 21.3284 38 20.5C38 19.6716 37.3284 19 36.5 19H29.5Z" fill="#0071B3"/>
<path d="M10 26.5C10 25.6716 10.6716 25 11.5 25H36.5C37.3284 25 38 25.6716 38 26.5C38 27.3284 37.3284 28 36.5 28H11.5C10.6716 28 10 27.3284 10 26.5Z" fill="#0071B3"/>
<path d="M11.5 31C10.6716 31 10 31.6716 10 32.5C10 33.3284 10.6716 34 11.5 34H36.5C37.3284 34 38 33.3284 38 32.5C38 31.6716 37.3284 31 36.5 31H11.5Z" fill="#0071B3"/>
<path fill-rule="evenodd" clip-rule="evenodd" d="M7 7H41C42.6569 7 44 8.34315 44 10V37C44 38.6569 42.6569 40 41 40H7C5.34315 40 4 38.6569 4 37V10C4 8.34315 5.34315 7 7 7ZM7 10V37H41V10H7Z" fill="#0071B3"/>
</svg>
