<svg width="48" height="48" viewBox="0 0 48 48" fill="none" xmlns="http://www.w3.org/2000/svg">
<path d="M4.08004 17.2473C3.53014 17.8669 3.5304 18.8713 4.08063 19.4906C4.63086 20.1099 5.5227 20.1096 6.0726 19.49C8.4262 16.8382 11.2206 14.7343 14.2963 13.2987C17.3719 11.863 20.6686 11.1236 23.9981 11.1227C27.3276 11.1218 30.6247 11.8595 33.7011 13.2935C36.7775 14.7276 39.573 16.8299 41.928 19.4806C42.4782 20.0999 43.3701 20.0996 43.92 19.48C44.4699 18.8604 44.4696 17.8561 43.9194 17.2368C41.3027 14.2916 38.1966 11.9557 34.7783 10.3623C31.3601 8.76894 27.6967 7.94934 23.9973 7.95032C20.2978 7.9513 16.6348 8.77284 13.2174 10.368C9.80004 11.9632 6.69515 14.3008 4.08004 17.2473Z" fill="#0071B3"/>
<path d="M24 14.24C23.1716 14.24 22.5 14.9116 22.5 15.74V33.74C22.5 34.5684 23.1716 35.24 24 35.24C24.8284 35.24 25.5 34.5684 25.5 33.74V15.74C25.5 14.9116 24.8284 14.24 24 14.24Z" fill="#0071B3"/>
<path d="M24.0415 38.2417C23.2131 38.2417 22.5415 38.9133 22.5415 39.7417C22.5415 40.5701 23.2131 41.2417 24.0415 41.2417C24.8699 41.2417 25.5415 40.5701 25.5415 39.7417C25.5415 38.9133 24.8699 38.2417 24.0415 38.2417Z" fill="#0071B3"/>
<path d="M19.5 17.8333C18.4306 18.1122 17.381 18.4907 16.3622 18.9662C13.9416 20.0962 11.7423 21.752 9.88991 23.8391C9.34001 24.4587 9.34028 25.463 9.89051 26.0823C10.4407 26.7016 11.3326 26.7014 11.8825 26.0818C13.4733 24.2893 15.3621 22.8673 17.4411 21.8969C18.1132 21.5831 18.8009 21.3186 19.5 21.1042V17.8333Z" fill="#0071B3"/>
<path d="M28.5 21.1025C29.1985 21.3164 29.8856 21.5803 30.5573 21.8934C32.6367 22.8627 34.5263 24.2837 36.1181 26.0754C36.6683 26.6947 37.5601 26.6944 38.11 26.0749C38.66 25.4553 38.6597 24.4509 38.1095 23.8316C36.256 21.7455 34.0558 20.0908 31.6345 18.9622C30.6167 18.4878 29.5682 18.1102 28.5 17.8319V21.1025Z" fill="#0071B3"/>
<path d="M15.6999 30.3641C16.7877 29.1384 18.0789 28.1656 19.5 27.5011V31.0357C18.8416 31.4691 18.2339 31.9967 17.6924 32.6068C17.1425 33.2264 16.2507 33.2267 15.7004 32.6074C15.1502 31.9881 15.1499 30.9837 15.6999 30.3641Z" fill="#0071B3"/>
<path d="M30.3082 32.6035C29.7665 31.9938 29.1585 31.4665 28.5 31.0335V27.4997C29.9206 28.1635 31.2116 29.1352 32.2996 30.3597C32.8498 30.979 32.8501 31.9834 32.3002 32.603C31.7503 33.2226 30.8584 33.2228 30.3082 32.6035Z" fill="#0071B3"/>
</svg>
