<svg width="48" height="48" viewBox="0 0 48 48" fill="none" xmlns="http://www.w3.org/2000/svg">
<path d="M24.89 5.49L42.1 24.6L42.11 24.61C42.6084 25.2312 42.5345 26.1336 41.9415 26.6654C41.3486 27.1972 40.4435 27.1728 39.88 26.61L23.77 8.72L7.67 26.6C7.32232 27.0333 6.76361 27.239 6.21796 27.1345C5.67231 27.03 5.22909 26.6325 5.06607 26.1014C4.90305 25.5703 5.04693 24.9926 5.44 24.6L22.67 5.48C22.7 5.41 22.77 5.41 22.77 5.41L22.86 5.27C22.9721 5.17926 23.0967 5.10516 23.23 5.05H23.41C23.5275 5.0188 23.6484 5.00201 23.77 5C23.9597 5.01307 24.1475 5.04659 24.33 5.1C24.4158 5.15183 24.4962 5.21213 24.57 5.28C24.6409 5.32415 24.7078 5.37434 24.77 5.43L24.89 5.49Z" fill="#0071B3"/>
<path d="M20.77 26.54V23.54C20.77 22.7116 20.0984 22.04 19.27 22.04C18.4416 22.04 17.77 22.7116 17.77 23.54V26.54C17.77 27.3684 18.4416 28.04 19.27 28.04C20.0984 28.04 20.77 27.3684 20.77 26.54Z" fill="#0071B3"/>
<path d="M34.77 40.1H12.77V22.94L9.77 26.27V41.6C9.77 42.4284 10.4416 43.1 11.27 43.1H36.27C37.0984 43.1 37.77 42.4284 37.77 41.6V26.27L34.77 22.94V40.1Z" fill="#0071B3"/>
<path d="M29.77 23.54V26.54C29.77 27.3684 29.0984 28.04 28.27 28.04C27.4416 28.04 26.77 27.3684 26.77 26.54V23.54C26.77 22.7116 27.4416 22.04 28.27 22.04C29.0984 22.04 29.77 22.7116 29.77 23.54Z" fill="#0071B3"/>
<path d="M16.42 34.76C16.7833 35.501 17.677 35.8094 18.42 35.45C21.754 33.6561 25.766 33.6561 29.1 35.45C29.5805 35.6876 30.1513 35.6508 30.5973 35.3534C31.0433 35.0561 31.2968 34.5433 31.2623 34.0084C31.2278 33.4735 30.9105 32.9976 30.43 32.76C26.2636 30.5554 21.2763 30.5554 17.11 32.76C16.3689 33.1233 16.0606 34.017 16.42 34.76Z" fill="#0071B3"/>
</svg>
