<svg width="48" height="48" viewBox="0 0 48 48" fill="none" xmlns="http://www.w3.org/2000/svg">
<path d="M43.5607 4.43934C42.9749 3.85355 42.0251 3.85355 41.4393 4.43934L37.8787 8H6.5C5.67157 8 5 8.67157 5 9.5V36.8787L8 33.8787V11H34.8787L4.43934 41.4393L4.33637 41.5533C3.85584 42.1424 3.89017 43.0115 4.43934 43.5607C5.02513 44.1464 5.97487 44.1464 6.56066 43.5607L10.1213 40H41.5C42.3284 40 43 39.3284 43 38.5V11.1213L40 14.1213V37H13.1213L43.5607 6.56066L43.6636 6.44674C44.1442 5.85758 44.1098 4.98851 43.5607 4.43934Z" fill="#0071B3"/>
</svg>
