<svg width="48" height="48" viewBox="0 0 48 48" fill="none" xmlns="http://www.w3.org/2000/svg">
<path fill-rule="evenodd" clip-rule="evenodd" d="M29.0002 16.0227H42.5002C43.3286 16.0227 44.0002 16.6943 44.0002 17.5227V41.0227H4.00017V12.4027C3.98904 11.6661 4.51455 11.0304 5.24017 10.9027L27.2402 7.02275C27.6807 6.94516 28.1329 7.06823 28.4733 7.35838C28.8138 7.64854 29.007 8.07549 29.0002 8.52275V16.0227ZM41.0002 38.0227V19.0227H26.0002V10.3127L7.00017 13.6627V38.0227L41.0002 38.0227Z" fill="#0071B3"/>
<path d="M21 26.44C21 27.2684 20.3284 27.94 19.5 27.94C18.6716 27.94 18 27.2684 18 26.44V23.44C18 22.6116 18.6716 21.94 19.5 21.94C20.3284 21.94 21 22.6116 21 23.44V26.44Z" fill="#0071B3"/>
<path d="M28.5 27.94C29.3284 27.94 30 27.2684 30 26.44V23.44C30 22.6116 29.3284 21.94 28.5 21.94C27.6716 21.94 27 22.6116 27 23.44V26.44C27 27.2684 27.6716 27.94 28.5 27.94Z" fill="#0071B3"/>
<path d="M17.35 32.66C21.5163 30.4554 26.5036 30.4554 30.67 32.66H30.68C31.1605 32.8976 31.4778 33.3735 31.5123 33.9084C31.5468 34.4433 31.2933 34.9561 30.8473 35.2534C30.4013 35.5508 29.8305 35.5876 29.35 35.35C26.016 33.5561 22.004 33.5561 18.67 35.35C18.1857 35.6178 17.5933 35.5971 17.1288 35.2963C16.6643 34.9955 16.4031 34.4633 16.4494 33.9119C16.4957 33.3604 16.8419 32.8792 17.35 32.66Z" fill="#0071B3"/>
</svg>
