<svg width="48" height="48" viewBox="0 0 48 48" fill="none" xmlns="http://www.w3.org/2000/svg">
<path d="M21 24.44C21 25.2684 20.3284 25.94 19.5 25.94C18.6716 25.94 18 25.2684 18 24.44V21.44C18 20.6116 18.6716 19.94 19.5 19.94C20.3284 19.94 21 20.6116 21 21.44V24.44Z" fill="#0071B3"/>
<path d="M28.5 25.94C29.3284 25.94 30 25.2684 30 24.44V21.44C30 20.6116 29.3284 19.94 28.5 19.94C27.6716 19.94 27 20.6116 27 21.44V24.44C27 25.2684 27.6716 25.94 28.5 25.94Z" fill="#0071B3"/>
<path d="M17.35 30.66C21.5163 28.4555 26.5037 28.4555 30.67 30.66H30.68C31.1605 30.8976 31.4778 31.3735 31.5123 31.9084C31.5468 32.4434 31.2933 32.9561 30.8473 33.2534C30.4013 33.5508 29.8305 33.5876 29.35 33.35C26.016 31.5561 22.004 31.5561 18.67 33.35C18.1857 33.6178 17.5933 33.5972 17.1288 33.2963C16.6643 32.9955 16.4032 32.4634 16.4494 31.9119C16.4957 31.3604 16.8419 30.8792 17.35 30.66Z" fill="#0071B3"/>
<path fill-rule="evenodd" clip-rule="evenodd" d="M39 15.5C38.997 14.9881 38.7331 14.513 38.3 14.24L28.8 4.74001C28.5344 4.28412 28.0476 4.00266 27.52 4.00001H10.52C10.1187 3.99466 9.73203 4.15033 9.44639 4.43222C9.16074 4.7141 8.99996 5.0987 9 5.50001V42.5C9 43.3284 9.67157 44 10.5 44H37.5C38.3284 44 39 43.3284 39 42.5V15.5ZM12 7.00001H26.82L36 16.18V41H12V7.00001Z" fill="#0071B3"/>
</svg>
