<svg width="48" height="48" viewBox="0 0 48 48" fill="none" xmlns="http://www.w3.org/2000/svg">
<path d="M21.0012 19.44C21.0012 20.2684 20.3296 20.94 19.5012 20.94C18.6728 20.94 18.0012 20.2684 18.0012 19.44V16.44C18.0012 15.6116 18.6728 14.94 19.5012 14.94C20.3296 14.94 21.0012 15.6116 21.0012 16.44V19.44Z" fill="#0071B3"/>
<path d="M28.5012 20.94C29.3296 20.94 30.0012 20.2684 30.0012 19.44V16.44C30.0012 15.6116 29.3296 14.94 28.5012 14.94C27.6728 14.94 27.0012 15.6116 27.0012 16.44V19.44C27.0012 20.2684 27.6728 20.94 28.5012 20.94Z" fill="#0071B3"/>
<path d="M17.3512 25.66C21.5175 23.4554 26.5049 23.4554 30.6712 25.66H30.6812C31.1617 25.8976 31.479 26.3735 31.5135 26.9084C31.548 27.4433 31.2945 27.9561 30.8485 28.2534C30.4025 28.5508 29.8317 28.5876 29.3512 28.35C26.0172 26.5561 22.0052 26.5561 18.6712 28.35C18.1869 28.6178 17.5945 28.5971 17.13 28.2963C16.6655 27.9955 16.4044 27.4633 16.4506 26.9119C16.4969 26.3604 16.8431 25.8792 17.3512 25.66Z" fill="#0071B3"/>
<path fill-rule="evenodd" clip-rule="evenodd" d="M5.5012 6H42.5012C43.3296 6 44.0012 6.67157 44.0012 7.5V34.5C44.0012 35.3284 43.3296 36 42.5012 36H32.1212L35.5612 39.46C35.7026 39.5998 35.8148 39.7664 35.8912 39.95C35.9624 40.1247 35.9997 40.3114 36.0012 40.5C35.9923 40.7049 35.9413 40.9058 35.8512 41.09C35.7777 41.2728 35.669 41.4393 35.5312 41.58C35.3905 41.7178 35.224 41.8265 35.0412 41.9C34.869 41.9665 34.6858 42.0004 34.5012 42H13.5012C13.0928 42.0003 12.7018 41.8341 12.4188 41.5397C12.1357 41.2452 11.9849 40.8481 12.0012 40.44C12.0078 40.2863 12.0381 40.1345 12.0912 39.99C12.1138 39.9283 12.1405 39.8681 12.1712 39.81C12.2212 39.7137 12.2816 39.6232 12.3512 39.54C12.3787 39.495 12.4088 39.4516 12.4412 39.41L15.8512 36H5.5112C5.10103 36.0031 4.70749 35.838 4.42221 35.5433C4.13693 35.2486 3.98478 34.8499 4.0012 34.44V7.47C4.01754 6.65331 4.68435 5.99984 5.5012 6ZM7.0012 9V33H41.0012V9H7.0012ZM17.1012 39H30.8712L27.8612 36H20.0012C19.9651 36.0805 19.9215 36.1575 19.8712 36.23L17.1012 39Z" fill="#0071B3"/>
</svg>
