<svg width="48" height="48" viewBox="0 0 48 48" fill="none" xmlns="http://www.w3.org/2000/svg">
<path fill-rule="evenodd" clip-rule="evenodd" d="M21.39 31H16.5C15.6716 31 15 30.3284 15 29.5V24.5C15.002 23.9955 15.2575 23.5258 15.68 23.25L32.46 6.45997C32.9496 5.94715 33.7411 5.87055 34.32 6.27997C34.4166 6.32946 34.5072 6.38985 34.59 6.45997L39.56 11.52C40.1395 12.1079 40.1395 13.0521 39.56 13.64L22.56 30.64C22.509 30.6769 22.4555 30.7103 22.4 30.74L22.24 30.84C22.1185 30.912 21.9871 30.9659 21.85 31H21.74C21.6237 31.0139 21.5063 31.0139 21.39 31ZM32.37 16.52L29.5 13.65L18 25.17V28H20.9L32.37 16.52ZM36.37 12.52L33.5 9.64997L31.62 11.53L34.49 14.4L36.37 12.52Z" fill="#0071B3"/>
<path d="M7.5 38H40.5C41.3284 38 42 38.6715 42 39.5C42 40.3284 41.3284 41 40.5 41H7.5C6.67157 41 6 40.3284 6 39.5C6 38.6715 6.67157 38 7.5 38Z" fill="#0071B3"/>
</svg>
