<svg width="48" height="48" viewBox="0 0 48 48" fill="none" xmlns="http://www.w3.org/2000/svg">
<path fill-rule="evenodd" clip-rule="evenodd" d="M4 24C4 12.9543 12.9543 4 24 4C35.032 4.03295 43.9671 12.968 44 24C44 35.0457 35.0457 44 24 44C12.9543 44 4 35.0457 4 24ZM36.4988 21.1881C36.5004 21.2195 36.5004 21.251 36.4988 21.2824C36.4988 21.3076 36.4988 21.3705 36.4487 21.3894V21.553C36.4504 21.5865 36.4504 21.6201 36.4487 21.6537V21.7292L36.4048 21.8236L36.3672 21.8928L36.3045 21.9746L36.2543 22.0375L36.1289 22.1507L29.6023 26.9075L32.1853 34.8733V34.9551C32.2556 35.2237 32.2027 35.5098 32.0411 35.7353C31.8943 35.9385 31.6729 36.0746 31.4258 36.1136C31.1787 36.1525 30.9264 36.0911 30.7245 35.9429L23.9596 31.0099L17.226 35.924C17.0242 36.0722 16.7718 36.1336 16.5248 36.0947C16.2777 36.0557 16.0563 35.9196 15.9094 35.7164C15.7478 35.4909 15.695 35.2048 15.7652 34.9362V34.8544L18.317 26.9075L11.8279 22.1319L11.7715 22.0815L11.7025 22.0186L11.6398 21.9431L11.5897 21.8739L11.5395 21.7858L11.5019 21.7103C11.5003 21.6789 11.5003 21.6474 11.5019 21.6159V21.5404C11.4997 21.5027 11.4997 21.4649 11.5019 21.3705C11.4994 21.3307 11.4994 21.2908 11.5019 21.1881C11.5001 21.1545 11.5001 21.1209 11.5019 21.0874V21.0119L11.5834 20.9175L11.6774 20.7791L11.7401 20.7036L11.8154 20.6407L11.8843 20.5903L11.9659 20.5463L12.0474 20.5085L12.1101 20.4456H20.4235L23.2198 12.2911C23.2572 12.1808 23.3146 12.0784 23.3891 11.9891C23.4254 11.9479 23.4653 11.91 23.5082 11.8758L23.6775 11.794L23.7715 11.75H24.317L24.4549 11.794L24.5803 11.8758C24.6232 11.91 24.6631 11.9479 24.6994 11.9891C24.7739 12.0784 24.8313 12.1808 24.8687 12.3477L27.4455 20.5085H35.8719L36.0662 20.5714L36.1414 20.6092L36.223 20.6721L36.2856 20.7225L36.3985 20.8483C36.422 20.8846 36.4429 20.9224 36.4612 21.0119C36.4759 21.0467 36.4885 21.0825 36.4988 21.1881Z" fill="#0071B3"/>
</svg>
