<svg width="48" height="48" viewBox="0 0 48 48" fill="none" xmlns="http://www.w3.org/2000/svg">
<path fill-rule="evenodd" clip-rule="evenodd" d="M42.5002 16.0227H29.0002V8.52275C29.007 8.07549 28.8138 7.64854 28.4733 7.35838C28.1329 7.06823 27.6807 6.94516 27.2402 7.02275L5.24017 10.9027C4.51455 11.0304 3.98904 11.6661 4.00017 12.4027V41.0227H44.0002V17.5227C44.0002 16.6943 43.3286 16.0227 42.5002 16.0227ZM19.0002 38.0227H14.0002V30.0227H19.0002V38.0227ZM26.0002 38.0227H22.0002V28.5227C22.0002 27.6943 21.3286 27.0227 20.5002 27.0227H12.5002C11.6717 27.0227 11.0002 27.6943 11.0002 28.5227V38.0227H7.00017V13.6627L26.0002 10.3127V38.0227ZM41.0002 38.0227H29.0002V19.0227H41.0002V38.0227Z" fill="#0071B3"/>
</svg>
