<svg width="48" height="48" viewBox="0 0 48 48" fill="none" xmlns="http://www.w3.org/2000/svg">
<path fill-rule="evenodd" clip-rule="evenodd" d="M30.0002 15.0227V7.52275C30.0069 7.07549 29.8138 6.64854 29.4733 6.35838C29.1329 6.06823 28.6807 5.94516 28.2402 6.02275L4.24016 9.90275C3.51454 10.0304 2.98902 10.6661 2.99999 11.4027V40C2.99999 41.1046 3.89542 42 4.99999 42H43.0002C44.1047 42 45.0002 41.1046 45.0002 40V17.0227C45.0002 15.9182 44.1047 15.0227 43.0002 15.0227H30.0002ZM24.0002 36.0227H9.00016V15L24.0002 13V36.0227ZM40.0002 36.0227H30.0002V21.0227H40.0002V36.0227Z" fill="#0071B3"/>
</svg>
