<svg width="48" height="48" viewBox="0 0 48 48" fill="none" xmlns="http://www.w3.org/2000/svg">
<path d="M24.8387 5.48439L42.0507 24.6004C42.6047 25.2164 42.5547 26.1644 41.9397 26.7194C41.3237 27.2734 40.3757 27.2234 39.8217 26.6084L23.7167 8.72139L7.61473 26.6034C7.06073 27.2194 6.11173 27.2684 5.49673 26.7144C4.88073 26.1604 4.83073 25.2114 5.38473 24.5964L22.5967 5.48039C22.6129 5.46253 22.6322 5.45059 22.6515 5.43866C22.6668 5.42921 22.682 5.41976 22.6957 5.40739C22.7204 5.38461 22.7471 5.36623 22.774 5.34769C22.7896 5.33694 22.8053 5.32614 22.8207 5.31439C22.9367 5.22539 23.0577 5.14739 23.1887 5.09739C23.2333 5.08031 23.2789 5.07096 23.3249 5.06154C23.3408 5.05827 23.3568 5.055 23.3727 5.05139C23.4927 5.02239 23.6127 4.99939 23.7347 4.99939C23.8039 5.00108 23.8724 5.01415 23.9407 5.02721C23.9534 5.02963 23.9661 5.03204 23.9787 5.03439C24.0787 5.05239 24.1787 5.07039 24.2747 5.10839C24.3737 5.14839 24.4647 5.21139 24.5547 5.27439C24.5688 5.28399 24.583 5.29339 24.5972 5.30277C24.6523 5.33931 24.7072 5.37565 24.7557 5.42339C24.7672 5.43437 24.7805 5.44242 24.7939 5.45051C24.8098 5.4601 24.8257 5.46974 24.8387 5.48439Z" fill="#0071B3"/>
<path d="M34.7153 41.0965H30.9573L20.5223 30.6615L18.4003 32.7825L29.7143 44.0965L29.7183 44.0925V44.0965H36.2183C37.0453 44.0945 37.7153 43.4235 37.7153 42.5965V27.2695L34.7153 23.9375V41.0965Z" fill="#0071B3"/>
<path d="M12.7153 41.0965V23.9385L9.71533 27.2705V42.5965C9.71533 43.4255 10.3863 44.0965 11.2153 44.0965H17.7183V41.0965H12.7153Z" fill="#0071B3"/>
</svg>
