<svg width="48" height="48" viewBox="0 0 48 48" fill="none" xmlns="http://www.w3.org/2000/svg">
<path d="M37.1 10.5H42.1C42.9284 10.5 43.6 11.1716 43.6 12C43.6 12.8284 42.9284 13.5 42.1 13.5H37.1V18.5C37.1 19.3284 36.4284 20 35.6 20C34.7716 20 34.1 19.3284 34.1 18.5V13.5H29.1C28.2716 13.5 27.6 12.8284 27.6 12C27.6 11.1716 28.2716 10.5 29.1 10.5H34.1V5.5C34.1 4.67157 34.7716 4 35.6 4C36.4284 4 37.1 4.67157 37.1 5.5V10.5Z" fill="#0071B3"/>
<path d="M25.84 41H28.6V26.67L31.6 30V42.5C31.6001 42.9031 31.4379 43.2892 31.1501 43.5714C30.8623 43.8536 30.473 44.0081 30.07 44H24.6L16.11 35.51L18.23 33.39L25.84 41Z" fill="#0071B3"/>
<path d="M10.6 26.77L7.59999 30.1V42.5C7.59983 43.3168 8.25331 43.9837 9.06999 44H14.6V41H10.6V26.77Z" fill="#0071B3"/>
<path d="M29.52 22.24L31.6 24.56L34.83 28.06C35.0968 28.3556 35.2351 28.7451 35.2145 29.1428C35.1939 29.5405 35.016 29.9136 34.72 30.18C34.4244 30.4468 34.0349 30.5851 33.6372 30.5645C33.2395 30.5439 32.8664 30.366 32.6 30.07L31.6 29L28.57 25.77L19.57 15.77L6.67 30.1C6.32232 30.5333 5.76361 30.739 5.21796 30.6345C4.67231 30.53 4.22909 30.1325 4.06607 29.6014C3.90305 29.0703 4.04693 28.4926 4.44 28.1L7.6 24.62L9.77999 22.27L18.58 12.5C18.64 12.47 18.64 12.42 18.64 12.42C18.7125 12.3696 18.7895 12.3261 18.87 12.29C18.9362 12.2409 19.0065 12.1974 19.08 12.16C19.1772 12.126 19.2778 12.1025 19.38 12.09C19.5534 12.0423 19.7365 12.0423 19.91 12.09C20.0122 12.1025 20.1128 12.126 20.21 12.16C20.2835 12.1974 20.3538 12.2409 20.42 12.29C20.5005 12.3261 20.5775 12.3696 20.65 12.42C20.71 12.45 20.71 12.5 20.71 12.5L29.52 22.24Z" fill="#0071B3"/>
</svg>
