<svg width="48" height="48" viewBox="0 0 48 48" fill="none" xmlns="http://www.w3.org/2000/svg">
<path fill-rule="evenodd" clip-rule="evenodd" d="M20.5012 6H5.5012C5.30337 6 5.1075 6.03913 4.92486 6.11513C4.74221 6.19114 4.57641 6.30252 4.43699 6.44287C4.29757 6.58322 4.18729 6.74976 4.1125 6.93291C4.03771 7.11605 3.99988 7.31218 4.0012 7.51V20.51C3.99312 20.712 4.02593 20.9135 4.09769 21.1025C4.16944 21.2914 4.27865 21.464 4.41875 21.6097C4.55885 21.7554 4.72696 21.8713 4.91297 21.9504C5.09898 22.0295 5.29907 22.0702 5.5012 22.07H20.5012C20.899 22.07 21.2806 21.912 21.5619 21.6307C21.8432 21.3494 22.0012 20.9678 22.0012 20.57V7.57C22.0107 7.36721 21.9789 7.1646 21.9078 6.97446C21.8366 6.78431 21.7276 6.61058 21.5874 6.46379C21.4472 6.31701 21.2786 6.20022 21.0919 6.12049C20.9052 6.04077 20.7042 5.99978 20.5012 6ZM7.0012 9.01H19.0012V19.07H7.0012V9.01Z" fill="#0071B3"/>
<path fill-rule="evenodd" clip-rule="evenodd" d="M5.50123 26.0698H20.5012C20.8991 26.0698 21.2806 26.2279 21.5619 26.5092C21.8432 26.7905 22.0012 27.172 22.0012 27.5698V40.5698C22.0012 40.9676 21.8432 41.3492 21.5619 41.6305C21.2806 41.9118 20.8991 42.0698 20.5012 42.0698H5.50123C5.30255 42.0698 5.10585 42.0304 4.92255 41.9538C4.73925 41.8771 4.57299 41.7648 4.43344 41.6234C4.29389 41.482 4.18382 41.3143 4.10962 41.13C4.03543 40.9457 3.99858 40.7485 4.00123 40.5498V27.5498C4.00649 27.1555 4.16684 26.7791 4.44758 26.5021C4.72832 26.2251 5.10685 26.0698 5.50123 26.0698ZM19.0012 29.0698H7.00123V39.0698H19.0012V29.0698Z" fill="#0071B3"/>
<path fill-rule="evenodd" clip-rule="evenodd" d="M27.5012 26.0698H42.5012C42.899 26.0698 43.2806 26.2279 43.5619 26.5092C43.8432 26.7905 44.0012 27.172 44.0012 27.5698V40.5698C44.0012 40.9676 43.8432 41.3492 43.5619 41.6305C43.2806 41.9118 42.899 42.0698 42.5012 42.0698H27.5012C27.1034 42.0698 26.7219 41.9118 26.4406 41.6305C26.1593 41.3492 26.0012 40.9676 26.0012 40.5698V27.5698C26.0012 27.172 26.1593 26.7905 26.4406 26.5092C26.7219 26.2279 27.1034 26.0698 27.5012 26.0698ZM41.0012 29.0698H29.0012V39.0698H41.0012V29.0698Z" fill="#0071B3"/>
<path fill-rule="evenodd" clip-rule="evenodd" d="M27.5012 6.06983H42.5012C42.899 6.06983 43.2806 6.22786 43.5619 6.50916C43.8432 6.79047 44.0012 7.172 44.0012 7.56983V20.5698C44.0012 20.9676 43.8432 21.3492 43.5619 21.6305C43.2806 21.9118 42.899 22.0698 42.5012 22.0698H27.5012C27.3017 22.0699 27.1041 22.0301 26.9202 21.9528C26.7362 21.8756 26.5695 21.7624 26.4298 21.6199C26.2901 21.4775 26.1803 21.3085 26.1067 21.1231C26.0331 20.9376 25.9972 20.7393 26.0012 20.5398V7.53982C26.0091 7.14722 26.1706 6.77335 26.451 6.49851C26.7315 6.22366 27.1085 6.06975 27.5012 6.06983ZM41.0012 9.06983H29.0012V19.0698H41.0012V9.06983Z" fill="#0071B3"/>
</svg>
