<svg width="48" height="48" viewBox="0 0 48 48" fill="none" xmlns="http://www.w3.org/2000/svg">
<path fill-rule="evenodd" clip-rule="evenodd" d="M18.5 5.99988C18.618 5.99988 18.732 6.01788 18.842 6.04288C19.472 6.19088 19.943 6.73388 19.989 7.39588C19.9902 7.40937 19.9921 7.42256 19.994 7.43574C19.997 7.45676 20 7.47775 20 7.49988V40.5009C20 41.3299 19.328 42.0009 18.5 42.0009H11.5C11.4902 42.0009 11.481 41.9995 11.472 41.9982C11.4654 41.9973 11.4588 41.9963 11.452 41.9959C10.663 41.9709 10.03 41.3379 10.005 40.5489C10.0046 40.5421 10.0036 40.5355 10.0027 40.5289C10.0013 40.5198 10 40.5107 10 40.5009V7.49988C10 7.493 10.001 7.4866 10.0019 7.4801C10.003 7.47336 10.004 7.46651 10.004 7.45888C10.026 6.66688 10.66 6.03088 11.452 6.00488C11.4599 6.00488 11.4675 6.00391 11.4753 6.00292C11.4833 6.00191 11.4914 6.00088 11.5 6.00088H18.496C18.4972 6.00088 18.498 6.00053 18.4987 6.00025C18.4992 6.00005 18.4996 5.99988 18.5 5.99988ZM17 39.0009H12.999V9.00088H17V39.0009Z" fill="#0071B3"/>
<path fill-rule="evenodd" clip-rule="evenodd" d="M36.842 6.04288C37.473 6.19088 37.946 6.73688 37.99 7.40188C37.9909 7.41597 37.9928 7.42971 37.9948 7.44346C37.9974 7.46191 38 7.4804 38 7.49988V40.4999C38 41.3279 37.328 42.0009 36.5 42.0009H29.5C29.4951 42.0009 29.4901 42.0004 29.4852 41.9999C29.4771 41.9989 29.4691 41.9975 29.461 41.9969C28.665 41.9759 28.026 41.3379 28.004 40.5419C28.004 40.5349 28.003 40.5281 28.002 40.5214C28.001 40.5146 28 40.5079 28 40.5009V7.49988C28 7.49288 28.001 7.48613 28.002 7.47938C28.003 7.47263 28.004 7.46588 28.004 7.45888C28.026 6.66688 28.659 6.03188 29.45 6.00488C29.4585 6.00488 29.4667 6.00363 29.475 6.00238C29.4832 6.00113 29.4915 5.99988 29.5 5.99988H36.5C36.618 5.99988 36.732 6.01688 36.842 6.04288ZM35 38.9999H30.999V8.99988H35V38.9999Z" fill="#0071B3"/>
</svg>
