<svg width="48" height="48" viewBox="0 0 48 48" fill="none" xmlns="http://www.w3.org/2000/svg">
<path fill-rule="evenodd" clip-rule="evenodd" d="M13.8708 41.9981C14.2748 41.9993 14.6596 41.8375 14.9427 41.5493L41.458 14.5606C42.035 13.9733 42.0308 13.0308 41.4487 12.4487L36.0701 7.07008C35.4806 6.48062 34.5236 6.48486 33.9394 7.0795L7.43 34.0623C7.15441 34.3428 7 34.7203 7 35.1135L7 40.4825C7 41.3109 7.67157 41.9825 8.5 41.9825C8.62987 41.9825 12.3576 41.9936 13.8708 41.9981ZM31 14L34.5006 17.5L13 39L10 38.9825V36L31 14ZM35 9.99999L38.5 13.5025L36.5 15.5L33 12L35 9.99999Z" fill="#0071B3"/>
</svg>
