<svg width="48" height="48" viewBox="0 0 48 48" fill="none" xmlns="http://www.w3.org/2000/svg">
<path d="M35 5.00001C34.2942 4.61304 33.4087 4.85656 33 5.55001L12.45 41C12.1821 41.4645 12.1822 42.0366 12.4505 42.5008C12.7187 42.9651 13.2143 43.251 13.7505 43.2508C14.2867 43.2507 14.7821 42.9645 15.05 42.5L35.55 7.00001C35.9314 6.29358 35.689 5.41207 35 5.00001Z" fill="#0071B3"/>
<path fill-rule="evenodd" clip-rule="evenodd" d="M16 6.50001C20.1421 6.50001 23.5 9.85788 23.5 14C23.5 18.1421 20.1421 21.5 16 21.5C11.8579 21.5 8.5 18.1421 8.5 14C8.5 9.85788 11.8579 6.50001 16 6.50001ZM16 9.50001C13.5147 9.50001 11.5 11.5147 11.5 14C11.5055 16.483 13.517 18.4945 16 18.5C18.4853 18.5 20.5 16.4853 20.5 14C20.5 11.5147 18.4853 9.50001 16 9.50001Z" fill="#0071B3"/>
<path fill-rule="evenodd" clip-rule="evenodd" d="M32 26.5C27.8579 26.5 24.5 29.8579 24.5 34C24.5 38.1421 27.8579 41.5 32 41.5C36.1421 41.5 39.5 38.1421 39.5 34C39.5 29.8579 36.1421 26.5 32 26.5ZM32 38.5C29.5147 38.5 27.5 36.4853 27.5 34C27.5 31.5147 29.5147 29.5 32 29.5C34.4853 29.5 36.5 31.5147 36.5 34C36.4945 36.483 34.483 38.4945 32 38.5Z" fill="#0071B3"/>
</svg>
