<svg width="48" height="48" viewBox="0 0 48 48" fill="none" xmlns="http://www.w3.org/2000/svg">
<path fill-rule="evenodd" clip-rule="evenodd" d="M44 24C44 35.0457 35.0457 44 24 44C12.9543 44 4 35.0457 4 24C4 12.9543 12.9543 4 24 4C35.0457 4 44 12.9543 44 24ZM18.5437 21.7332L21.3263 18.4918L23.7021 26.3611C23.7968 26.6743 24.0682 26.9014 24.3932 26.9391C24.7173 26.9776 25.0351 26.8184 25.1986 26.5351L26.8484 23.6841L30.9908 28.3132C31.153 28.4944 31.3774 28.5865 31.6027 28.5865C31.7975 28.5865 31.9931 28.5176 32.15 28.3773C32.4878 28.0751 32.5166 27.5561 32.2141 27.2181L27.3168 21.7455C27.1415 21.5499 26.8845 21.448 26.621 21.4764C26.3594 21.5033 26.1264 21.6541 25.9946 21.8817L24.7264 24.0732L22.4652 16.5833C22.3786 16.2963 22.1422 16.0794 21.849 16.0174C21.5542 15.9564 21.2518 16.0582 21.0565 16.2859L17.298 20.6637C17.0027 21.0076 17.0423 21.5261 17.3862 21.8213C17.7303 22.1161 18.2479 22.0776 18.5437 21.7332ZM15.7418 31.9654H32.9806C33.434 31.9654 33.8015 32.3329 33.8015 32.7863C33.8015 33.2396 33.434 33.6072 32.9806 33.6072H14.9209C14.4675 33.6072 14.1 33.2396 14.1 32.7863V15.8209C14.1 15.3675 14.4675 15 14.9209 15C15.3742 15 15.7418 15.3675 15.7418 15.8209V31.9654Z" fill="#0071B3"/>
</svg>
