<svg width="48" height="48" viewBox="0 0 48 48" fill="none" xmlns="http://www.w3.org/2000/svg">
<path fill-rule="evenodd" clip-rule="evenodd" d="M44 24C44 35.0457 35.0457 44 24 44C12.9543 44 4 35.0457 4 24C4 12.9543 12.9543 4 24 4C35.0457 4 44 12.9543 44 24ZM17.5833 27.3833C17.6929 27.4327 17.8078 27.4562 17.9206 27.4562C18.2335 27.4562 18.5322 27.2764 18.6693 26.9728L21.2429 21.2715L23.7884 25.4224C23.9146 25.6282 24.1248 25.7679 24.3635 25.8045L31.4779 26.8991C31.921 26.9696 32.3451 26.6607 32.414 26.2126C32.4829 25.7644 32.1756 25.3454 31.7275 25.2765L24.989 24.2397L21.8321 19.0918C21.6731 18.8326 21.3821 18.6826 21.0804 18.7016C20.7771 18.7209 20.5091 18.906 20.384 19.1831L17.1728 26.2973C16.9864 26.7107 17.1702 27.1968 17.5833 27.3833ZM15.7418 31.9654H32.9806C33.434 31.9654 33.8015 32.3329 33.8015 32.7863C33.8015 33.2396 33.434 33.6072 32.9806 33.6072H14.9209C14.4675 33.6072 14.1 33.2396 14.1 32.7863V15.8209C14.1 15.3675 14.4675 15 14.9209 15C15.3742 15 15.7418 15.3675 15.7418 15.8209V31.9654Z" fill="#0071B3"/>
</svg>
