<svg width="48" height="48" viewBox="0 0 48 48" fill="none" xmlns="http://www.w3.org/2000/svg">
<path fill-rule="evenodd" clip-rule="evenodd" d="M44 24C44 35.0457 35.0457 44 24 44C12.9543 44 4 35.0457 4 24C4 12.9543 12.9543 4 24 4C35.0457 4 44 12.9543 44 24ZM18.0206 28.5866C18.2459 28.5866 18.4706 28.4944 18.6326 28.3132L22.7747 23.6842L24.4248 26.5352C24.5888 26.8184 24.9039 26.9772 25.2302 26.9392C25.5551 26.9016 25.8266 26.6744 25.9212 26.3612L28.2968 18.4919L31.0796 21.7333C31.3754 22.078 31.8941 22.1165 32.2372 21.8214C32.5811 21.5261 32.6206 21.0078 32.3253 20.6639L28.5667 16.286C28.3714 16.0586 28.067 15.9562 27.7741 16.0174C27.4807 16.0794 27.2445 16.2964 27.1579 16.5834L24.897 24.0733L23.6285 21.8818C23.4968 21.6541 23.2637 21.5034 23.0022 21.4764C22.7371 21.4484 22.4816 21.5499 22.3063 21.7455L17.4093 27.2182C17.1068 27.5562 17.1357 28.0751 17.4734 28.3774C17.6302 28.5176 17.8259 28.5866 18.0206 28.5866ZM15.7418 31.9654H32.9806C33.434 31.9654 33.8015 32.3329 33.8015 32.7863C33.8015 33.2396 33.434 33.6072 32.9806 33.6072H14.9209C14.4675 33.6072 14.1 33.2396 14.1 32.7863V15.8209C14.1 15.3675 14.4675 15 14.9209 15C15.3742 15 15.7418 15.3675 15.7418 15.8209V31.9654Z" fill="#0071B3"/>
</svg>
