<svg width="48" height="48" viewBox="0 0 48 48" fill="none" xmlns="http://www.w3.org/2000/svg">
<path d="M33.452 22.4357C33.2474 22.5577 33.0113 22.6324 32.7564 22.6324C32.0663 22.6324 31.4999 22.1173 31.407 21.4525L31.4033 21.4265C31.3956 21.373 31.3879 21.3195 31.3879 21.2639C31.3879 20.5093 32.0017 19.8955 32.7564 19.8955C33.5107 19.8955 34.1245 20.5093 34.1245 21.2639C34.1245 21.7635 33.8528 22.1968 33.452 22.4357Z" fill="#0071B3"/>
<path d="M24.0004 17.7065C23.2458 17.7065 22.632 18.3204 22.632 19.0747C22.632 19.2331 22.6643 19.3828 22.714 19.5244C22.9011 20.0575 23.4041 20.4431 24.0004 20.4431C24.5967 20.4431 25.0997 20.0575 25.2868 19.5244C25.3365 19.3828 25.3688 19.2331 25.3688 19.0747C25.3688 18.3204 24.755 17.7065 24.0004 17.7065Z" fill="#0071B3"/>
<path d="M13.8755 21.2637C13.8755 20.5091 14.4893 19.8953 15.2439 19.8953C15.9983 19.8953 16.6121 20.5091 16.6121 21.2637C16.6121 21.3189 16.6045 21.372 16.5968 21.4252L16.593 21.452C16.5003 22.1169 15.9338 22.6321 15.2439 22.6321C14.9889 22.6321 14.7529 22.5575 14.5482 22.4356C14.1474 22.1967 13.8755 21.7633 13.8755 21.2637Z" fill="#0071B3"/>
<path d="M17.0733 30.2935H30.927L31.6209 24.0501C31.5071 24.0036 31.3969 23.9504 31.2905 23.8908L28.9589 26.2222C28.7849 26.3959 28.5431 26.4822 28.2975 26.4587C28.0527 26.4344 27.8318 26.3018 27.6955 26.0972L24.9233 21.9388C24.6322 22.0329 24.3224 22.0849 24.0004 22.0849C23.6784 22.0849 23.3685 22.0329 23.0775 21.9388L20.305 26.0972C20.1685 26.3018 19.9478 26.4344 19.703 26.4587C19.4553 26.4817 19.2153 26.3959 19.0416 26.2222L16.7097 23.8905C16.6034 23.9501 16.4932 24.0033 16.3794 24.0499L17.0733 30.2935Z" fill="#0071B3"/>
<path fill-rule="evenodd" clip-rule="evenodd" d="M24 44C35.0457 44 44 35.0457 44 24C44 12.9543 35.0457 4 24 4C12.9543 4 4 12.9543 4 24C4 35.0457 12.9543 44 24 44ZM29.7461 21.264C29.7461 19.604 31.0964 18.2538 32.7564 18.2538C34.416 18.2538 35.7663 19.604 35.7663 21.264C35.7663 22.7545 34.6765 23.9919 33.2527 24.2297L32.4776 31.205C32.4314 31.6208 32.08 31.9353 31.6618 31.9353H16.3384C15.9202 31.9353 15.5689 31.6208 15.5226 31.205L14.7476 24.2294C13.3235 23.9916 12.2337 22.7542 12.2337 21.2637C12.2337 19.6037 13.584 18.2535 15.2439 18.2535C16.9036 18.2535 18.2539 19.6037 18.2539 21.2637C18.2539 21.7958 18.1138 22.2952 17.8706 22.7294L19.4946 24.3533L21.7127 21.0261C21.2633 20.5001 20.9902 19.8192 20.9902 19.0746C20.9902 17.415 22.3404 16.0647 24.0004 16.0647C25.6603 16.0647 27.0106 17.415 27.0106 19.0746C27.0106 19.8193 26.7374 20.5002 26.288 21.0262L28.506 24.3533L30.1295 22.7299C29.8862 22.2956 29.7461 21.7961 29.7461 21.264Z" fill="#0071B3"/>
</svg>
