<svg width="48" height="48" viewBox="0 0 48 48" fill="none" xmlns="http://www.w3.org/2000/svg">
<path d="M31.1591 35.0352V34.3027C31.1591 33.8989 30.8022 33.5703 30.3636 33.5703H17.6364C17.1978 33.5703 16.8409 33.8989 16.8409 34.3027V35.0352H31.1591Z" fill="#0071B3"/>
<path d="M26.5686 26.7481C28.3908 27.6199 29.5682 29.4354 29.5682 31.373V32.1055H18.4318V31.373C18.4318 29.4354 19.6093 27.6199 21.4314 26.748C22.3566 26.3054 22.9852 25.4702 23.157 24.4958C23.4101 24.6266 23.6988 24.6984 24 24.6985C24.3011 24.6985 24.5899 24.6267 24.843 24.4959C25.0148 25.4703 25.6434 26.3054 26.5686 26.7481Z" fill="#0071B3"/>
<path d="M26.5498 21.1637L26.5561 21.1605L26.5686 21.1543C27.6658 20.6293 28.5165 19.8007 29.0273 18.8193H18.9727C19.4835 19.8007 20.3342 20.6293 21.4314 21.1542L21.4439 21.1605L21.4503 21.1637C21.7727 21.3206 22.0585 21.5252 22.3011 21.7669C22.938 22.2567 23.6837 22.8857 23.8892 23.178C23.9151 23.2149 23.9524 23.2336 24.0001 23.2336C24.0478 23.2336 24.0852 23.2149 24.111 23.178C24.3168 22.8854 25.0622 22.2566 25.6989 21.7669C25.9415 21.5252 26.2274 21.3205 26.5498 21.1637Z" fill="#0071B3"/>
<path d="M18.4894 17.3594C18.4516 17.1191 18.4318 16.8745 18.4318 16.627V15.8945H29.5682V16.627C29.5682 16.8745 29.5484 17.1191 29.5106 17.3594H18.4894Z" fill="#0071B3"/>
<path d="M16.8409 12.9648V13.6973C16.8409 14.1011 17.1978 14.4297 17.6364 14.4297H30.3636C30.8022 14.4297 31.1591 14.1011 31.1591 13.6973V12.9648H16.8409Z" fill="#0071B3"/>
<path fill-rule="evenodd" clip-rule="evenodd" d="M44 24C44 35.0457 35.0457 44 24 44C12.9543 44 4 35.0457 4 24C4 12.9543 12.9543 4 24 4C35.0457 4 44 12.9543 44 24ZM27.3557 22.4274C29.71 21.278 31.1591 19.0544 31.1591 16.627V15.7686C32.0849 15.4662 32.75 14.6521 32.75 13.6973V12.2324C32.75 11.8279 32.3938 11.5 31.9545 11.5H16.0455C15.6062 11.5 15.25 11.8279 15.25 12.2324V13.6973C15.25 14.6521 15.9151 15.4662 16.8409 15.7686V16.627C16.8409 19.0327 18.2694 21.2679 20.6442 22.4274C20.7919 22.5233 20.9738 22.6545 21.1668 22.8012C21.4475 23.1035 21.6136 23.5144 21.6136 23.9512C21.6136 24.5944 21.2541 25.182 20.6978 25.4482C18.3548 26.5693 16.8409 28.8949 16.8409 31.373V32.2314C15.9151 32.5338 15.25 33.3479 15.25 34.3027V35.7676C15.25 36.1721 15.6062 36.5 16.0455 36.5H31.9545C32.3938 36.5 32.75 36.1721 32.75 35.7676V34.3027C32.75 33.3479 32.0849 32.5338 31.1591 32.2314V31.373C31.1591 28.8949 29.6452 26.5693 27.3022 25.4482C26.7459 25.182 26.3864 24.5944 26.3864 23.9512C26.3864 23.5144 26.5525 23.1035 26.8331 22.8012C27.0262 22.6545 27.2081 22.5233 27.3557 22.4274Z" fill="#0071B3"/>
</svg>
