<svg width="48" height="48" viewBox="0 0 48 48" fill="none" xmlns="http://www.w3.org/2000/svg">
<path fill-rule="evenodd" clip-rule="evenodd" d="M42 40.88V31.2L32 29.2L28.37 31.3C22.59 28.3 19.83 25.53 16.77 19.76L19 16L17 6H7.11C6.55772 6 6.11 6.44772 6.11 7C6 7.86 6 8.72 6 9.58C6 27.4851 20.5149 42 38.42 42C39.29 42 40.14 42 40.99 41.88C41.5423 41.88 41.99 41.4323 41.99 40.88H42ZM39 39H38.42C22.1786 38.9835 9.01654 25.8214 9 9.58C9 9.39 9 9.2 9 9H14.53L15.82 15.46L14.18 18.22C13.645 19.1206 13.6185 20.235 14.11 21.16C17.44 27.42 20.68 30.65 27 34C27.9127 34.4797 29.0079 34.457 29.9 33.94L32.55 32.41L39 33.66V39Z" fill="#0071B3"/>
</svg>
