<svg width="48" height="48" viewBox="0 0 48 48" fill="none" xmlns="http://www.w3.org/2000/svg">
<path d="M36 20C36 21.1046 35.1046 22 34 22C32.8954 22 32 21.1046 32 20C32 18.8954 32.8954 18 34 18C35.1046 18 36 18.8954 36 20Z" fill="#0071B3"/>
<path fill-rule="evenodd" clip-rule="evenodd" d="M24.75 38.804C25.2663 38.804 25.7777 38.7872 26.2834 38.7543L26.6753 40.2167C27.2113 42.2172 29.2676 43.4043 31.2681 42.8683L34.8903 41.8977C36.8908 41.3617 38.078 39.3054 37.542 37.3049L36.9684 35.1645C38.0976 34.384 39.1098 33.4972 39.9811 32.5236H42.25C44.3211 32.5236 46 30.8446 46 28.7736V21.2006C46 19.1295 44.3211 17.4506 42.25 17.4506H41.7999C40.9468 15.9565 39.7988 14.5938 38.4157 13.4107L40.288 6.42326C36.1516 5.3149 31.9409 6.42691 28.9111 9.03053C27.5728 8.78674 26.1801 8.65804 24.75 8.65804C15.6952 8.65804 8.13949 13.8178 6.38448 20.6794C5.62149 19.8638 5.17114 18.7748 5.17114 17.6045C5.17114 15.7492 6.30408 14.1049 7.99703 13.4258C8.76591 13.1174 9.13919 12.2441 8.83078 11.4752C8.52237 10.7063 7.64905 10.333 6.88017 10.6414C4.05905 11.773 2.17114 14.5132 2.17114 17.6045C2.17114 20.3549 3.66575 22.8381 6.0071 24.1499C6.09745 26.8117 7.0462 29.3012 8.63884 31.4459L6.99318 34.2963C5.95764 36.0899 6.57218 38.3833 8.36577 39.4189L11.6134 41.2939C13.407 42.3294 15.7004 41.7149 16.736 39.9213L17.9678 37.7877C20.0711 38.4439 22.3582 38.804 24.75 38.804ZM29.7812 12.2384L30.8664 11.3058C32.4615 9.93501 34.4352 9.13953 36.4878 9.01459L35.0285 14.4611L36.4657 15.6904C37.6002 16.6609 38.5216 17.7593 39.1946 18.938L40.0581 20.4506H42.25C42.6642 20.4506 43 20.7864 43 21.2006V28.7736C43 29.1878 42.6642 29.5236 42.25 29.5236H38.6399L37.7455 30.523C37.0348 31.3172 36.2011 32.048 35.2626 32.6967L33.5235 33.8988L34.6442 38.0814C34.7514 38.4815 34.5139 38.8928 34.1138 39L30.4916 39.9705C30.0915 40.0777 29.6803 39.8403 29.5731 39.4402L28.5443 35.6008L26.0886 35.7606C25.6454 35.7894 25.1989 35.804 24.75 35.804C22.7032 35.804 20.7151 35.5023 18.8614 34.9238L16.5699 34.2089L14.1379 38.4213C13.9308 38.78 13.4721 38.9029 13.1134 38.6958L9.86577 36.8208C9.50705 36.6137 9.38415 36.155 9.59125 35.7963L12.2222 31.2394L11.0474 29.6573C9.70402 27.8483 9 25.8245 9 23.731C9 17.225 15.9251 11.658 24.75 11.658C25.9831 11.658 27.1962 11.7675 28.3735 11.982L29.7812 12.2384Z" fill="#0071B3"/>
</svg>
