<svg width="48" height="48" viewBox="0 0 48 48" fill="none" xmlns="http://www.w3.org/2000/svg">
<path fill-rule="evenodd" clip-rule="evenodd" d="M25.5293 21.7507C26.2971 24.6163 29.1917 26.344 32.0597 25.6908L27.75 33.1555C26.2312 35.7861 27.1325 39.1498 29.7631 40.6686C32.3937 42.1874 35.7575 41.2861 37.2763 38.6555L43.2763 28.2631C44.7951 25.6325 43.8937 22.2688 41.2631 20.75C39.7013 19.8483 37.8809 19.7996 36.3418 20.4596C36.3539 19.947 36.2939 19.4241 36.1545 18.9037L33.0487 7.3126C32.2625 4.37854 29.2467 2.63733 26.3126 3.42351C23.3785 4.20969 21.6373 7.22555 22.4235 10.1596L25.5293 21.7507ZM34.0981 28.1603L36.3481 24.2631C37.0384 23.0674 38.5674 22.6577 39.7631 23.3481C40.9589 24.0384 41.3686 25.5674 40.6782 26.7631L38.4282 30.6603L34.0981 28.1603ZM31.2631 38.0705C30.0674 37.3802 29.6577 35.8512 30.3481 34.6554L32.5981 30.7583L36.9282 33.2583L34.6782 37.1554C33.9878 38.3512 32.4589 38.7609 31.2631 38.0705ZM26.486 13.7298L25.3213 9.38314C24.9639 8.04948 25.7554 6.67863 27.089 6.32128C28.4227 5.96393 29.7935 6.75538 30.1509 8.08905L31.3156 12.4357L26.486 13.7298ZM31.489 22.742C30.1553 23.0994 28.7845 22.3079 28.4271 20.9743L27.2624 16.6276L32.0921 15.3335L33.2568 19.6802C33.6141 21.0138 32.8226 22.3847 31.489 22.742Z" fill="#0071B3"/>
<path fill-rule="evenodd" clip-rule="evenodd" d="M11.1641 20.2615C8.53344 18.7427 5.16969 19.644 3.65091 22.2746C2.13213 24.9052 3.03344 28.269 5.66405 29.7878L16.0564 35.7878C18.687 37.3066 22.0507 36.4052 23.5695 33.7746C25.0883 31.144 24.187 27.7803 21.5564 26.2615L11.1641 20.2615ZM11.0612 29.4397L7.16405 27.1897C5.96832 26.4993 5.55863 24.9704 6.24899 23.7746C6.93934 22.5789 8.46832 22.1692 9.66405 22.8596L13.5612 25.1096L11.0612 29.4397ZM20.9714 32.2746C20.2811 33.4704 18.7521 33.88 17.5564 33.1897L13.6592 30.9397L16.1592 26.6096L20.0564 28.8596C21.2521 29.5499 21.6618 31.0789 20.9714 32.2746Z" fill="#0071B3"/>
</svg>
