<svg width="48" height="48" viewBox="0 0 48 48" fill="none" xmlns="http://www.w3.org/2000/svg">
<path d="M23.47 41.78C23.5997 41.8946 23.7669 41.9579 23.94 41.9579C24.1131 41.9579 24.2802 41.8946 24.41 41.78C25.2 41.02 36.2 30.34 36.2 20.33C36.2469 18.6819 35.9629 17.0412 35.3646 15.5048C34.7663 13.9684 33.866 12.5677 32.7169 11.3853C31.5677 10.203 30.1932 9.26315 28.6745 8.62137C27.1557 7.9796 25.5237 7.64893 23.875 7.64893C22.2262 7.64893 20.5942 7.9796 19.0755 8.62137C17.5568 9.26315 16.1822 10.203 15.0331 11.3853C13.884 12.5677 12.9836 13.9684 12.3854 15.5048C11.7871 17.0412 11.503 18.6819 11.55 20.33C11.67 30.52 22.69 41 23.47 41.78ZM24 11C26.4736 11.0027 28.8452 11.9865 30.5944 13.7356C32.3435 15.4848 33.3273 17.8564 33.33 20.33C33.33 26.57 27.72 33.86 24 37.79C20.28 33.86 14.68 26.59 14.68 20.33C14.6826 17.8581 15.6651 15.488 17.4121 13.7392C19.159 11.9903 21.5281 11.0053 24 11ZM30 20C30 18.4087 29.3678 16.8826 28.2426 15.7574C27.1174 14.6322 25.5913 14 24 14C22.4087 14 20.8826 14.6322 19.7573 15.7574C18.6321 16.8826 18 18.4087 18 20C18 21.5913 18.6321 23.1175 19.7573 24.2427C20.8826 25.3679 22.4087 26 24 26C25.5913 26 27.1174 25.3679 28.2426 24.2427C29.3678 23.1175 30 21.5913 30 20ZM21 20C21 19.2044 21.3161 18.4413 21.8787 17.8787C22.4413 17.3161 23.2043 17 24 17C24.7956 17 25.5587 17.3161 26.1213 17.8787C26.6839 18.4413 27 19.2044 27 20C27 20.7957 26.6839 21.5587 26.1213 22.1214C25.5587 22.684 24.7956 23 24 23C23.2043 23 22.4413 22.684 21.8787 22.1214C21.3161 21.5587 21 20.7957 21 20Z" fill="#0071B3"/>
</svg>
