<svg width="48" height="48" viewBox="0 0 48 48" fill="none" xmlns="http://www.w3.org/2000/svg">
<path fill-rule="evenodd" clip-rule="evenodd" d="M25.4202 4C14.5042 4 9.00018 11.826 9.00018 18.353C9.00018 22.304 10.4962 25.82 13.7052 27.13C14.2312 27.345 14.7022 27.138 14.8552 26.555C14.9612 26.152 15.2122 25.135 15.3242 24.711C15.4782 24.135 15.4192 23.933 14.9942 23.431C14.0692 22.339 13.4782 20.926 13.4782 18.925C13.4782 13.119 17.8222 7.921 24.7902 7.921C30.9592 7.921 34.3492 11.691 34.3492 16.726C34.3492 23.351 31.4182 28.942 27.0652 28.942C24.6612 28.942 22.8622 26.954 23.4392 24.516C24.1292 21.605 25.4672 18.464 25.4672 16.363C25.4672 14.482 24.4582 12.914 22.3692 12.914C19.9122 12.914 17.9382 15.456 17.9382 18.861C17.9382 21.029 18.6702 22.497 18.6702 22.497C18.6702 22.497 16.1562 33.15 15.7152 35.016C14.8372 38.732 15.5832 43.287 15.6472 43.747C15.6832 44.02 16.0342 44.085 16.1922 43.879C16.4192 43.583 19.3462 39.97 20.3402 36.36C20.6222 35.338 21.9572 30.045 21.9572 30.045C22.7552 31.567 25.0882 32.909 27.5692 32.909C34.9552 32.909 39.9662 26.175 39.9662 17.162C39.9652 10.347 34.1932 4 25.4202 4Z" fill="#0071B3"/>
</svg>
