<svg width="48" height="48" viewBox="0 0 48 48" fill="none" xmlns="http://www.w3.org/2000/svg">
<path fill-rule="evenodd" clip-rule="evenodd" d="M39.6943 7.46447C41.6469 9.41709 41.6469 12.5829 39.6943 14.5355L35.7487 18.4811L34.0375 20.1924L33.981 20.2489L36.1023 22.3702C36.6881 22.956 36.6881 23.9058 36.1023 24.4916C35.5165 25.0774 34.5668 25.0774 33.981 24.4916L31.8596 22.3702L14.5355 39.6943C12.5829 41.647 9.41709 41.647 7.46447 39.6943C5.51184 37.7417 5.51184 34.5759 7.46447 32.6233L24.7886 15.2992L22.6673 13.1779C22.0815 12.5921 22.0815 11.6423 22.6673 11.0565C23.253 10.4708 24.2028 10.4708 24.7886 11.0565L26.9099 13.1778L26.9664 13.1213L28.6777 11.4101L32.6233 7.46447C34.5759 5.51184 37.7417 5.51184 39.6943 7.46447ZM26.9099 17.4205L9.58579 34.7446C8.80474 35.5256 8.80474 36.792 9.58579 37.573C10.3668 38.3541 11.6332 38.3541 12.4142 37.573L29.7383 20.2489L26.9099 17.4205Z" fill="#0071B3"/>
</svg>
