<svg width="48" height="48" viewBox="0 0 48 48" fill="none" xmlns="http://www.w3.org/2000/svg">
<path fill-rule="evenodd" clip-rule="evenodd" d="M24 44C12.9543 44 4 35.0457 4 24C4 12.9543 12.9543 4 24 4C29.3043 4 34.3914 6.10714 38.1421 9.85786C41.8929 13.6086 44 18.6957 44 24C44 35.0457 35.0457 44 24 44ZM24 41C33.3888 41 41 33.3888 41 24C41 14.6112 33.3888 7 24 7C14.6112 7 7 14.6112 7 24C7 33.3888 14.6112 41 24 41ZM35.5 22.5H25.5V12.5C25.5 11.6716 24.8284 11 24 11C23.1716 11 22.5 11.6716 22.5 12.5V22.5H12.5C11.6716 22.5 11 23.1716 11 24C11 24.8284 11.6716 25.5 12.5 25.5H22.5V35.5C22.5 36.3284 23.1716 37 24 37C24.8284 37 25.5 36.3284 25.5 35.5V25.5H35.5C36.3284 25.5 37 24.8284 37 24C37 23.1716 36.3284 22.5 35.5 22.5Z" fill="#0071B3"/>
</svg>
