<svg width="48" height="48" viewBox="0 0 48 48" fill="none" xmlns="http://www.w3.org/2000/svg">
<path d="M32.5002 15.9998H15.5002C14.6712 15.9998 14.0002 15.3288 14.0002 14.4998C14.0002 13.6708 14.6712 12.9998 15.5002 12.9998H32.5002C33.3282 12.9998 34.0002 13.6708 34.0002 14.4998C34.0002 15.3288 33.3282 15.9998 32.5002 15.9998Z" fill="#0071B3"/>
<path fill-rule="evenodd" clip-rule="evenodd" d="M42.5 7.00024H5.5C4.672 7.00024 4 7.67124 4 8.50024C4 9.32824 4.672 10.0002 5.5 10.0002H8V29.5002C8 30.3282 8.672 31.0002 9.5 31.0002H22.5V38.0002H17.5C16.672 38.0002 16 38.6712 16 39.5002C16 40.3292 16.672 41.0002 17.5 41.0002H30.5C31.328 41.0002 32 40.3292 32 39.5002C32 38.6712 31.328 38.0002 30.5 38.0002H25.5V31.0002H38.501C39.329 31.0002 40.001 30.3282 40.001 29.5002C40.001 29.4972 40 29.4952 40 29.4932V10.0002H42.5C43.328 10.0002 44 9.32824 44 8.50024C44 7.67124 43.328 7.00024 42.5 7.00024ZM11 28.0002H37V10.0002H11V28.0002Z" fill="#0071B3"/>
</svg>
