<svg width="48" height="48" viewBox="0 0 48 48" fill="none" xmlns="http://www.w3.org/2000/svg">
<path d="M38.5 23C39.3284 23 40 22.3284 40 21.5C40 20.6716 39.3284 20 38.5 20C37.6716 20 37 20.6716 37 21.5C37 22.3284 37.6716 23 38.5 23Z" fill="#0071B3"/>
<path fill-rule="evenodd" clip-rule="evenodd" d="M42.5 16H36V7.5C36 6.67157 35.3284 6 34.5 6H13.5C12.6716 6 12 6.67157 12 7.5V16H5.5C4.67157 16 4 16.6716 4 17.5V32.5C4 33.3284 4.67157 34 5.5 34H12V40.5C12 41.3284 12.6716 42 13.5 42H34.5C35.3284 42 36 41.3284 36 40.5V34H42.5C43.3284 34 44 33.3284 44 32.5V17.5C44 16.6716 43.3284 16 42.5 16ZM15 9H33V16H15V9ZM33 39V28H15V39H33ZM35.34 25.26C35.0925 25.0908 34.7998 25.0002 34.5 25H13.5C12.6716 25 12 25.6716 12 26.5V31H7V19H41V31H36V26.5C35.9991 26.0028 35.7519 25.5384 35.34 25.26Z" fill="#0071B3"/>
</svg>
