<svg width="48" height="48" viewBox="0 0 48 48" fill="none" xmlns="http://www.w3.org/2000/svg">
<path fill-rule="evenodd" clip-rule="evenodd" d="M43.41 26.47C43.3362 26.2791 43.2239 26.1055 43.08 25.96L22.57 5.45C22.2888 5.16153 21.9028 4.99919 21.5 5H6.5C5.67157 5 5 5.67158 5 6.5V21.5C5 21.5 5 21.58 5 21.63C5.0091 21.763 5.03601 21.8942 5.08 22.02C5.09389 22.0709 5.11058 22.121 5.13 22.17C5.19353 22.3086 5.27783 22.4368 5.38 22.55V22.61L26 43.09C26.5856 43.6749 27.5344 43.6749 28.12 43.09V43.02C28.12 43.02 28.2 43.02 28.23 42.95L43.09 28.1C43.5152 27.6707 43.6414 27.0282 43.41 26.47ZM27 39.92L8 20.92V8H20.88L39.88 27L27 39.92ZM16 11C13.2386 11 11 13.2386 11 16C11 18.7614 13.2386 21 16 21C18.7614 21 21 18.7614 21 16C21 14.6739 20.4732 13.4022 19.5355 12.4645C18.5979 11.5268 17.3261 11 16 11ZM16 18C14.8954 18 14 17.1046 14 16C14 14.8954 14.8954 14 16 14C17.1046 14 18 14.8954 18 16C18 17.1046 17.1046 18 16 18Z" fill="#0071B3"/>
</svg>
