<svg width="48" height="48" viewBox="0 0 48 48" fill="none" xmlns="http://www.w3.org/2000/svg">
<path fill-rule="evenodd" clip-rule="evenodd" d="M4 24C4 12.9543 12.9543 4 24 4C29.3043 4 34.3914 6.10714 38.1421 9.85786C41.8929 13.6086 44 18.6957 44 24C44 35.0457 35.0457 44 24 44C12.9543 44 4 35.0457 4 24ZM7 24C7 33.3888 14.6112 41 24 41C28.5087 41 32.8327 39.2089 36.0208 36.0208C39.2089 32.8327 41 28.5087 41 24C41 14.6112 33.3888 7 24 7C14.6112 7 7 14.6112 7 24ZM24 13C20.4124 13.0055 17.5055 15.9124 17.5 19.5C17.5 20.3284 18.1716 21 19 21C19.8284 21 20.5 20.3284 20.5 19.5C20.5 17.567 22.067 16 24 16C25.933 16 27.5 17.567 27.5 19.5C27.5 21.433 25.933 23 24 23C23.1716 23 22.5 23.6716 22.5 24.5V28.5C22.5 29.3284 23.1716 30 24 30C24.8284 30 25.5 29.3284 25.5 28.5V25.82C28.6993 25.0511 30.8194 22.0127 30.437 18.7446C30.0546 15.4765 27.2904 13.0096 24 13ZM24 35C24.8284 35 25.5 34.3284 25.5 33.5C25.5 32.6716 24.8284 32 24 32C23.1716 32 22.5 32.6716 22.5 33.5C22.5 34.3284 23.1716 35 24 35Z" fill="#0071B3"/>
</svg>
