<svg width="48" height="48" viewBox="0 0 48 48" fill="none" xmlns="http://www.w3.org/2000/svg">
<path fill-rule="evenodd" clip-rule="evenodd" d="M38.0021 24C38.044 30.9616 32.9953 36.9103 26.1195 38.0008C19.2437 39.0913 12.6021 34.9967 10.4879 28.3638C8.37363 21.7308 11.4205 14.5481 17.6591 11.4584C23.8977 8.36867 31.4576 10.2983 35.4521 16H28.5021C27.6737 16 27.0021 16.6716 27.0021 17.5C27.0021 18.3284 27.6737 19 28.5021 19H38.5021C39.3306 19 40.0021 18.3284 40.0021 17.5V7.5C40.0021 6.67157 39.3306 6 38.5021 6C37.6737 6 37.0021 6.67157 37.0021 7.5V13.08C31.6861 6.77127 22.6078 5.18995 15.4717 9.32968C8.33565 13.4694 5.20183 22.1351 8.03939 29.8817C10.877 37.6282 18.8668 42.2193 26.9884 40.7702C35.11 39.321 41.0189 32.2499 41.0021 24H38.0021Z" fill="#0071B3"/>
</svg>
