<svg width="48" height="48" viewBox="0 0 48 48" fill="none" xmlns="http://www.w3.org/2000/svg">
<path d="M30.6293 35.971C30.6293 36.7995 31.3009 37.471 32.1293 37.471C32.9577 37.471 33.6293 36.7995 33.6293 35.971L33.6293 13.6504L39.5821 19.6032C40.1679 20.189 41.1176 20.189 41.7034 19.6032C42.2892 19.0174 42.2892 18.0676 41.7034 17.4819L33.19 8.96839C32.6042 8.38261 31.6544 8.38261 31.0686 8.96839L22.5552 17.4819C21.9694 18.0676 21.9694 19.0174 22.5552 19.6032C23.1409 20.189 24.0907 20.189 24.6765 19.6032L30.6293 13.6504L30.6293 35.971Z" fill="#0071B3"/>
<path d="M17.3707 12.029C17.3707 11.2006 16.6991 10.529 15.8707 10.529C15.0423 10.529 14.3707 11.2006 14.3707 12.029V34.3497L8.4179 28.3969C7.83211 27.8111 6.88236 27.8111 6.29658 28.3969C5.71079 28.9827 5.71079 29.9324 6.29658 30.5182L14.81 39.0317C15.3958 39.6175 16.3456 39.6175 16.9314 39.0317L25.4448 30.5182C26.0306 29.9324 26.0306 28.9827 25.4448 28.3969C24.8591 27.8111 23.9093 27.8111 23.3235 28.3969L17.3707 34.3497V12.029Z" fill="#0071B3"/>
</svg>
