<svg width="48" height="48" viewBox="0 0 48 48" fill="none" xmlns="http://www.w3.org/2000/svg">
<path fill-rule="evenodd" clip-rule="evenodd" d="M24 7C33.384 7.00971 40.9903 14.616 41 24C41 33.3889 33.3889 41 24 41C14.6111 41 7 33.3889 7 24C7 14.6111 14.6111 7 24 7ZM24 38C31.728 37.9903 37.9903 31.728 38 24C38 16.2681 31.7319 10 24 10C16.2681 10 10 16.2681 10 24C10 31.7319 16.2681 38 24 38ZM19.5 25C18.672 25 18 24.328 18 23.5V20.5C18 19.672 18.672 19 19.5 19C20.328 19 21 19.672 21 20.5V23.5C21 24.328 20.328 25 19.5 25ZM28.5 25C27.672 25 27 24.328 27 23.5V20.5C27 19.672 27.672 19 28.5 19C29.328 19 30 19.672 30 20.5V23.5C30 24.328 29.328 25 28.5 25ZM30.3641 29.2398C30.7964 29.538 31.0386 30.0678 30.995 30.6155C30.9523 31.1642 30.6313 31.6423 30.16 31.86C28.2397 32.9116 26.119 33.4732 23.963 33.5C21.808 33.4761 19.6891 32.9106 17.7752 31.85C17.086 31.4852 16.8039 30.5907 17.1444 29.8521C17.4849 29.1136 18.3198 28.8114 19.0091 29.1762C22.102 30.9594 25.824 30.9594 28.9169 29.1762L28.9355 29.1862C29.3845 28.9198 29.9346 28.9407 30.3641 29.2398ZM7.07 17C6.72076 17.8078 6.43021 18.6395 6.20051 19.4885L6.07 20H5V29H6.1C6.30536 29.8557 6.57193 30.6954 6.89756 31.5125L7.1 32H3.5C2.7203 32 2.07955 31.4051 2.00687 30.6445L2 30.5V18.5C2 17.7203 2.59489 17.0796 3.35554 17.0069L3.5 17H7.07ZM40.9 17H44.5C45.2797 17 45.9204 17.5949 45.9931 18.3555L46 18.5V30.5C46.0002 31.2688 45.4213 31.9047 44.6723 31.9905L44.53 32H40.93C41.2792 31.1922 41.5698 30.3605 41.7995 29.5115L41.93 29H43V20H41.9C41.6946 19.1443 41.4281 18.3046 41.1024 17.4875L40.9 17ZM24 2.5C24.8284 2.5 25.5 3.17157 25.5 4V6.08C25 6.04 24.5 6 24 6C23.5 6 23 6.08 22.5 6.08V4C22.5 3.17157 23.1716 2.5 24 2.5Z" fill="#0071B3"/>
</svg>
