<svg width="48" height="48" viewBox="0 0 48 48" fill="none" xmlns="http://www.w3.org/2000/svg">
<path d="M31.0005 15.54C31.0005 16.3684 30.329 17.04 29.5005 17.04C28.6721 17.04 28.0005 16.3684 28.0005 15.54V12.54C28.0005 11.7116 28.6721 11.04 29.5005 11.04C30.329 11.04 31.0005 11.7116 31.0005 12.54V15.54Z" fill="#0071B3"/>
<path fill-rule="evenodd" clip-rule="evenodd" d="M41.5605 11.48C41.841 11.7617 41.9991 12.1425 42.0005 12.54V40.54C42.0005 41.3684 41.329 42.04 40.5005 42.04H7.50053C6.67211 42.04 6.00053 41.3684 6.00053 40.54V7.54C5.98974 7.13529 6.14299 6.7434 6.42548 6.45339C6.70796 6.16337 7.09568 5.99986 7.50053 6H35.4905C35.863 6.00861 36.2192 6.15464 36.4905 6.41L41.5605 11.48ZM33.0005 19.04V9.04H15.0005V19.04H33.0005ZM9.00053 39.04H39.0005V13.16L36.0005 10.16V20.54C36.0014 21.0376 35.7538 21.5028 35.3405 21.78C35.0945 21.9521 34.8008 22.043 34.5005 22.04H13.5005C12.6721 22.04 12.0005 21.3684 12.0005 20.54V9.04H9.00053V39.04Z" fill="#0071B3"/>
</svg>
