<svg width="48" height="48" viewBox="0 0 48 48" fill="none" xmlns="http://www.w3.org/2000/svg">
<path fill-rule="evenodd" clip-rule="evenodd" d="M38 41H40V30H38V41ZM35 25H13.005V15.957C13.028 13.772 14.808 12.001 16.998 12H31.005C33.208 12.003 35 13.795 35 16V25ZM35 43H13.005V28H15.5V29.5C15.5 30.328 16.172 31 17 31C17.828 31 18.5 30.328 18.5 29.5V28H35V43ZM20 7C20 6.448 20.449 6 21 6H27C27.551 6 28 6.448 28 7H28.005V9H20V7ZM8.001 41H10.005V30H8.001V41ZM41.5 27H38.005V25H38V16C38 14.501 37.526 13.115 36.722 11.977C36.257 11.318 35.683 10.741 35.023 10.276C33.885 9.475 32.501 9.001 31.005 9V7H31C31 6.643 30.939 6.304 30.851 5.975C30.534 4.784 29.695 3.807 28.58 3.327C28.095 3.118 27.562 3 27 3H21C20.44 3 19.907 3.117 19.423 3.325C18.313 3.802 17.477 4.773 17.155 5.956C17.065 6.291 17 6.636 17 7V9H16.998C15.502 9 14.119 9.474 12.982 10.273C12.32 10.739 11.743 11.316 11.278 11.977C10.491 13.093 10.022 14.448 10.005 15.914C10.004 15.942 10 15.971 10 16C10 16.028 10.004 16.057 10.005 16.086V27H6.5C5.672 27 5 27.671 5 28.5V42.5C5 43.329 5.672 44 6.5 44H10.005V44.462C10.004 44.475 10.001 44.487 10.001 44.5C10.001 45.329 10.672 46 11.501 46H36.501C37.329 46 38.001 45.329 38.001 44.5L38 44.495V44H41.5C42.328 44 43 43.329 43 42.5V28.5C43 27.671 42.328 27 41.5 27Z" fill="#0071B3"/>
</svg>
