<svg width="48" height="48" viewBox="0 0 48 48" fill="none" xmlns="http://www.w3.org/2000/svg">
<path fill-rule="evenodd" clip-rule="evenodd" d="M39.9107 37.7907L30.4307 28.3107C34.762 22.8557 34.084 14.9688 28.8854 10.333C23.6867 5.69714 15.7739 5.92338 10.8486 10.8486C5.92338 15.7739 5.69714 23.6867 10.333 28.8854C14.9688 34.084 22.8557 34.762 28.3107 30.4307L37.7907 39.9107C38.1647 40.3121 38.7279 40.4772 39.2593 40.3415C39.7908 40.2058 40.2058 39.7908 40.3415 39.2593C40.4772 38.7279 40.3121 38.1647 39.9107 37.7907ZM20.1607 30.2908C14.5798 30.2852 10.0589 25.7584 10.0608 20.1774C10.0626 14.5964 14.5864 10.0726 20.1674 10.0708C25.7484 10.0689 30.2752 14.5898 30.2808 20.1707C30.2808 22.8547 29.2145 25.4288 27.3167 27.3267C25.4188 29.2245 22.8447 30.2908 20.1607 30.2908Z" fill="#0071B3"/>
</svg>
