<svg width="48" height="48" viewBox="0 0 48 48" fill="none" xmlns="http://www.w3.org/2000/svg">
<path d="M9 42.5C9 43.3284 9.67157 44 10.5 44H23.7C24.5284 44 25.2 43.3284 25.2 42.5C25.2 41.6716 24.5284 41 23.7 41H12V7H27L36 16V26.6C36 27.4284 36.6716 28.1 37.5 28.1C38.3284 28.1 39 27.4284 39 26.6V15.6213C39 15.2235 38.842 14.842 38.5607 14.5607L28.4393 4.43934C28.158 4.15804 27.7765 4 27.3787 4H10.5C9.67157 4 9 4.67157 9 5.5V42.5Z" fill="#0071B3"/>
<path d="M38.5807 33.6659C38.8529 33.9565 38.9983 34.3434 38.9851 34.7413C38.9718 35.1391 38.8009 35.5154 38.51 35.7873L30.7318 43.5654C30.1461 44.1512 29.1963 44.1512 28.6105 43.5654C28.0247 42.9796 28.0247 42.0299 28.6105 41.4441L33.829 36.2257L16.4964 36.1903C15.6687 36.1898 14.9969 35.5189 14.9964 34.6912C15.017 33.8876 15.6928 33.2411 16.4964 33.2205L33.8997 33.2275L28.6812 28.0091C28.0954 27.4233 28.0954 26.4736 28.6812 25.8878C29.267 25.302 30.2168 25.302 30.8026 25.8878L38.5807 33.6659Z" fill="#0071B3"/>
</svg>
