<svg width="48" height="48" viewBox="0 0 48 48" fill="none" xmlns="http://www.w3.org/2000/svg">
<path d="M32.8957 11.8748L25.1176 4.0966C24.8457 3.80572 24.4694 3.63482 24.0716 3.62156C23.6737 3.6083 23.2868 3.75376 22.9962 4.02589L15.2181 11.8041C14.6323 12.3899 14.6323 13.3396 15.2181 13.9254C15.8038 14.5112 16.7536 14.5112 17.3394 13.9254L22.5578 8.70694L22.5508 27.9856C22.5714 28.7892 23.2179 29.4358 24.0215 29.4564C24.8492 29.4559 25.5201 28.7851 25.5206 27.9574L25.556 8.77765L30.7744 13.9961C31.3602 14.5819 32.3099 14.5819 32.8957 13.9961C33.4815 13.4103 33.4815 12.4606 32.8957 11.8748Z" fill="#0071B3"/>
<path d="M29.5 19.5C29.5 20.3284 30.1716 21 31 21H35V36H13V21H17C17.8284 21 18.5 20.3284 18.5 19.5C18.5 18.6715 17.8284 18 17 18H13C11.3431 18 10 19.3431 10 21V36C10 37.6568 11.3431 39 13 39H35C36.6569 39 38 37.6568 38 36V21C38 19.3431 36.6569 18 35 18H31C30.1716 18 29.5 18.6715 29.5 19.5Z" fill="#0071B3"/>
</svg>
