<svg width="48" height="48" viewBox="0 0 48 48" fill="none" xmlns="http://www.w3.org/2000/svg">
<path fill-rule="evenodd" clip-rule="evenodd" d="M36.0007 31.7908C34.1051 31.7923 32.3217 32.6896 31.1907 34.2108L17.6807 26.4108C18.0763 25.2543 18.1042 24.0037 17.7607 22.8308L31.4607 14.9208C33.4345 17.2082 36.8013 17.6712 39.3193 16.0014C41.8373 14.3317 42.7209 11.0501 41.3818 8.34172C40.0427 5.63335 36.8987 4.34315 34.0432 5.33019C31.1876 6.31723 29.5114 9.27357 30.1307 12.2308L16.2407 20.2308C13.9224 17.9146 10.1746 17.887 7.82237 20.1687C5.47017 22.4504 5.38383 26.1974 7.62844 28.585C9.87305 30.9727 13.6182 31.1177 16.0407 28.9108L30.0407 37.0008C29.7118 39.4769 30.9515 41.8978 33.1528 43.0784C35.3542 44.2589 38.0567 43.9521 39.9373 42.3081C41.818 40.6641 42.4834 38.0269 41.6077 35.6874C40.7321 33.348 38.4986 31.7958 36.0007 31.7908ZM36.0007 8.01075C37.6576 8.01075 39.0007 9.3539 39.0007 11.0108C39.0007 12.6676 37.6576 14.0108 36.0007 14.0108C34.3438 14.0108 33.0007 12.6676 33.0007 11.0108C33.0007 9.3539 34.3438 8.01075 36.0007 8.01075ZM12.0007 27.4908C10.3438 27.4908 9.0007 26.1476 9.0007 24.4908C9.0007 22.8339 10.3438 21.4908 12.0007 21.4908C13.6576 21.4908 15.0007 22.8339 15.0007 24.4908C15.0007 26.1476 13.6576 27.4908 12.0007 27.4908ZM36.0007 40.7908C34.3438 40.7908 33.0007 39.4476 33.0007 37.7908C33.0007 36.1339 34.3438 34.7908 36.0007 34.7908C37.6576 34.7908 39.0007 36.1339 39.0007 37.7908C39.0007 39.4476 37.6576 40.7908 36.0007 40.7908Z" fill="#0071B3"/>
</svg>
