<svg width="48" height="48" viewBox="0 0 48 48" fill="none" xmlns="http://www.w3.org/2000/svg">
<path fill-rule="evenodd" clip-rule="evenodd" d="M37.95 11.2308C33.6767 11.2308 31.2 10.78 31.2 6.53846C31.2 5.68923 30.5056 5 29.65 5H18.35C17.4944 5 16.8 5.68923 16.8 6.53846C16.8 10.78 14.3233 11.2308 10.05 11.2308C9.1944 11.2308 8.5 11.92 8.5 12.7692V23C8.5 32.1792 22.4988 42.2854 23.0948 42.7108C23.3653 42.9031 23.6823 43 24 43C24.3177 43 24.6347 42.9031 24.9052 42.71C25.5019 42.2846 39.5 32.1792 39.5 23V12.7692C39.5 11.92 38.8056 11.2308 37.95 11.2308ZM36.4 23C36.4 28.8492 28.1548 36.3638 24 39.5415C19.8437 36.3669 11.6 28.8577 11.6 23V14.1977C16.3446 13.5215 19.108 12.7862 19.7892 8.07692H28.2101C28.8913 12.7869 31.6554 13.5223 36.4 14.1985V23Z" fill="#0071B3"/>
</svg>
