<svg width="48" height="48" viewBox="0 0 48 48" fill="none" xmlns="http://www.w3.org/2000/svg">
<path d="M21.5 7C20.6716 7 20 7.67157 20 8.5C20 9.32843 20.6716 10 21.5 10H26.5C27.3284 10 28 9.32843 28 8.5C28 7.67157 27.3284 7 26.5 7H21.5Z" fill="#0071B3"/>
<path d="M24 41C25.3807 41 26.5 39.8807 26.5 38.5C26.5 37.1193 25.3807 36 24 36C22.6193 36 21.5 37.1193 21.5 38.5C21.5 39.8807 22.6193 41 24 41Z" fill="#0071B3"/>
<path fill-rule="evenodd" clip-rule="evenodd" d="M32 2C34.5548 2.01223 36.6894 3.9485 36.95 6.49C36.9756 6.65901 36.9922 6.82924 37 7V41.45C36.7665 44.0343 34.5948 46.0105 32 46H16C13.7368 46.0124 11.7475 44.503 11.15 42.32L11 41.45V7C11.0078 6.82924 11.0244 6.65901 11.05 6.49C11.3106 3.9485 13.4452 2.01223 16 2H32ZM34 40.93V7C34 5.89543 33.1046 5 32 5H16C14.8954 5 14 5.89543 14 7V40.93L14.14 41.72C14.4368 42.4893 15.1754 42.9976 16 43H32C32.8246 42.9976 33.5632 42.4893 33.86 41.72L34 40.93Z" fill="#0071B3"/>
</svg>
