<svg width="48" height="48" viewBox="0 0 48 48" fill="none" xmlns="http://www.w3.org/2000/svg">
<path fill-rule="evenodd" clip-rule="evenodd" d="M33 42H15V43.5C15 44.3284 14.3284 45 13.5 45H7.5C6.67157 45 6 44.3284 6 43.5V33.1973C4.2066 32.1599 3 30.2208 3 28C3 24.6863 5.68629 22 9 22C9.47677 22 9.94054 22.0556 10.3852 22.1607L9.55821 12.5124C9.27521 9.2108 11.7223 6.30491 15.0239 6.02192C15.1943 6.00731 15.3652 6 15.5363 6H32.4637C35.7774 6 38.4637 8.68629 38.4637 12C38.4637 12.171 38.4564 12.342 38.4418 12.5124L37.6148 22.1607C38.0595 22.0556 38.5232 22 39 22C42.3137 22 45 24.6863 45 28C45 30.2208 43.7934 32.1599 42 33.1973V43.5C42 44.3284 41.3284 45 40.5 45H34.5C33.6716 45 33 44.3284 33 43.5V42ZM15 39H33V33H15V39ZM15 30V28C15 26.5413 14.4738 25.1693 13.5627 24.1031L12.5472 12.2562C12.4057 10.6054 13.6293 9.15246 15.2801 9.01096C15.3653 9.00366 15.4508 9 15.5363 9H32.4637C34.1206 9 35.4637 10.3431 35.4637 12C35.4637 12.0855 35.4601 12.171 35.4528 12.2562L34.4373 24.1031C33.5262 25.1693 33 26.5413 33 28V30H15ZM9 42H12V28C12 26.3431 10.6569 25 9 25C7.34315 25 6 26.3431 6 28C6 29.085 6.57829 30.066 7.50218 30.6005L9 31.4669V42ZM39 42H36V28C36 26.3431 37.3431 25 39 25C40.6569 25 42 26.3431 42 28C42 29.085 41.4217 30.066 40.4978 30.6005L39 31.4669V42Z" fill="#0071B3"/>
</svg>
