<svg width="48" height="48" viewBox="0 0 48 48" fill="none" xmlns="http://www.w3.org/2000/svg">
<path fill-rule="evenodd" clip-rule="evenodd" d="M26 36H35.0089C36.6582 36 38 34.6533 38 32.9921V9.00793C38 7.34312 36.6608 6 35.0089 6H26V4.00488C26 2.8939 25.1046 2 24 2C22.8877 2 22 2.89762 22 4.00488V6H12.9911C11.3418 6 10 7.3467 10 9.00793V32.9921C10 34.6569 11.3392 36 12.9911 36H22V43H19.4955C18.6796 43 18 43.6716 18 44.5C18 45.3342 18.6696 46 19.4955 46H28.5045C29.3204 46 30 45.3284 30 44.5C30 43.6658 29.3304 43 28.5045 43H26V36ZM12.9996 22L12.9911 9L35 9.00793L35 12L12.9996 22ZM13 32.9921L13 30L35.0001 20C35.0001 20 35.0024 33 35.0089 33C35.0089 33 13 32.9977 13 32.9921Z" fill="#0071B3"/>
</svg>
