<svg width="48" height="48" viewBox="0 0 48 48" fill="none" xmlns="http://www.w3.org/2000/svg">
<path d="M7.5 13H40.5C41.3284 13 42 13.6716 42 14.5C42 15.3284 41.3284 16 40.5 16H7.5C6.67157 16 6 15.3284 6 14.5C6 13.6716 6.67157 13 7.5 13Z" fill="#0071B3"/>
<path d="M7.5 23H28.5C29.3284 23 30 23.6716 30 24.5C30 25.3284 29.3284 26 28.5 26H7.5C6.67157 26 6 25.3284 6 24.5C6 23.6716 6.67157 23 7.5 23Z" fill="#0071B3"/>
<path d="M16.5 33H7.5C6.67157 33 6 33.6716 6 34.5C6 35.3284 6.67157 36 7.5 36H16.5C17.3284 36 18 35.3284 18 34.5C18 33.6716 17.3284 33 16.5 33Z" fill="#0071B3"/>
</svg>
