<svg width="48" height="48" viewBox="0 0 48 48" fill="none" xmlns="http://www.w3.org/2000/svg">
<path d="M32.1637 40.0221C32.6696 41.0151 33.8916 41.4183 34.8287 40.8149C36.9496 39.449 38.7984 37.6907 40.2722 35.6283C42.1381 33.0171 43.3483 29.9953 43.8005 26.818C44.2527 23.6407 43.9336 20.4013 42.8702 17.3732C41.8069 14.3452 40.0304 11.6176 37.6909 9.42063C35.3515 7.2237 32.5176 5.62203 29.4288 4.7509C26.34 3.87976 23.0869 3.76474 19.9443 4.41554C16.8016 5.06635 13.8618 6.46388 11.3729 8.49008C9.40717 10.0905 7.76838 12.046 6.53836 14.2485C5.99496 15.2216 6.47409 16.4159 7.49694 16.8585C8.51978 17.3011 9.69714 16.8223 10.2652 15.8634C11.2215 14.249 12.4578 12.8113 13.9211 11.62C15.9077 10.0027 18.2543 8.88716 20.7627 8.36769C23.2712 7.84821 25.8678 7.94002 28.3333 8.63536C30.7988 9.33071 33.0607 10.6092 34.9281 12.3627C36.7955 14.1163 38.2134 16.2936 39.0622 18.7105C39.911 21.1275 40.1657 23.7132 39.8047 26.2493C39.4438 28.7855 38.4778 31.1975 36.9884 33.2817C35.8914 34.8169 34.5341 36.141 32.983 37.1968C32.0616 37.8239 31.6577 39.029 32.1637 40.0221Z" fill="#0071B3"/>
</svg>
