<svg width="48" height="48" viewBox="0 0 48 48" fill="none" xmlns="http://www.w3.org/2000/svg">
<path fill-rule="evenodd" clip-rule="evenodd" d="M20.85 28H27.09C27.9184 28 28.59 27.3284 28.59 26.5C28.59 25.6716 27.9184 25 27.09 25H19.67C19.5634 24.3376 19.5634 23.6624 19.67 23H27.09C27.9184 23 28.59 22.3284 28.59 21.5C28.59 20.6716 27.9184 20 27.09 20H20.85C21.986 18.3752 23.7578 17.3083 25.7253 17.0642C27.6928 16.8202 29.6715 17.4219 31.17 18.72L32.09 15.65C29.6273 14.0296 26.575 13.5784 23.7488 14.417C20.9226 15.2557 18.6104 17.2986 17.43 20H16.09C15.2616 20 14.59 20.6716 14.59 21.5C14.59 22.3284 15.2616 23 16.09 23H16.64C16.64 23.33 16.59 23.66 16.59 24C16.59 24.34 16.59 24.67 16.64 25H16.09C15.2616 25 14.59 25.6716 14.59 26.5C14.59 27.3284 15.2616 28 16.09 28H17.43C18.6104 30.7014 20.9226 32.7443 23.7488 33.5829C26.575 34.4216 29.6273 33.9704 32.09 32.35L31.17 29.28C29.8999 30.3855 28.2739 30.9962 26.59 31C24.3013 30.9985 22.1579 29.8782 20.85 28ZM40.5 34.26V13.75C42.7748 13.0496 44.2404 10.8427 44.0039 8.47438C43.7673 6.10603 41.894 4.23276 39.5256 3.99616C37.1573 3.75957 34.9505 5.22525 34.25 7.49999H13.75C13.0496 5.22525 10.8428 3.75957 8.47441 3.99616C6.10607 4.23276 4.23279 6.10603 3.99619 8.47438C3.7596 10.8427 5.22528 13.0496 7.50002 13.75V34.26C5.22298 34.9594 3.75547 37.168 3.99295 39.5381C4.23044 41.9083 6.10698 43.7818 8.47751 44.0155C10.848 44.2492 13.0543 42.7782 13.75 40.5H34.25C34.9457 42.7782 37.152 44.2492 39.5225 44.0155C41.8931 43.7818 43.7696 41.9083 44.0071 39.5381C44.2446 37.168 42.7771 34.9594 40.5 34.26ZM34.26 37.5H13.75C13.2645 35.9518 12.0497 34.7407 10.5 34.26V13.75C12.0466 13.2583 13.2583 12.0466 13.75 10.5H34.25C34.7417 12.0466 35.9535 13.2583 37.5 13.75V34.26C35.9514 34.739 34.739 35.9514 34.26 37.5ZM39 6.99999C40.1046 6.93924 41.0493 7.78542 41.11 8.88999C41.1708 9.99456 40.3246 10.9392 39.22 11H38.78C37.8409 10.9013 37.0987 10.1591 37 9.21999V8.77999C37.1127 7.76212 37.976 6.99378 39 6.99999ZM9.00002 6.99999C10.031 6.99483 10.8969 7.77419 11 8.79999V9.23999C10.8925 10.1713 10.1525 10.903 9.22002 11H8.78002C7.67545 10.9392 6.82927 9.99456 6.89002 8.88999C6.95077 7.78542 7.89545 6.93924 9.00002 6.99999ZM9.00002 41C7.89545 41.0607 6.95077 40.2146 6.89002 39.11C6.82927 38.0054 7.67545 37.0607 8.78002 37H9.22002C10.1592 37.0987 10.9013 37.8408 11 38.78V39.22C10.8874 40.2379 10.0241 41.0062 9.00002 41ZM39 41C37.9691 41.0052 37.1031 40.2258 37 39.2V38.76C37.1084 37.8253 37.8536 37.0925 38.79 37H39.22C40.3246 37.0607 41.1708 38.0054 41.11 39.11C41.0493 40.2146 40.1046 41.0607 39 41Z" fill="#0071B3"/>
</svg>
