<svg width="48" height="48" viewBox="0 0 48 48" fill="none" xmlns="http://www.w3.org/2000/svg">
<path d="M42 14H33C32.6022 14 32.2206 14.1581 31.9393 14.4394C31.658 14.7207 31.5 15.1022 31.5 15.5V23H24C23.6022 23 23.2206 23.1581 22.9393 23.4394C22.658 23.7207 22.5 24.1022 22.5 24.5V32H15C14.6022 32 14.2206 32.1581 13.9393 32.4394C13.658 32.7207 13.5 33.1022 13.5 33.5V41H5.99998C5.60216 41 5.22063 41.1581 4.93932 41.4394C4.65802 41.7207 4.49998 42.1022 4.49998 42.5C4.49998 42.8978 4.65802 43.2794 4.93932 43.5607C5.22063 43.842 5.60216 44 5.99998 44H15C15.3978 44 15.7793 43.842 16.0606 43.5607C16.3419 43.2794 16.5 42.8978 16.5 42.5V35H24C24.3002 35.0031 24.5939 34.9121 24.84 34.74C25.0435 34.6035 25.2102 34.419 25.3253 34.2027C25.4404 33.9864 25.5004 33.745 25.5 33.5V26H33C33.3978 26 33.7793 25.842 34.0606 25.5607C34.3419 25.2794 34.5 24.8978 34.5 24.5V17H42C42.3978 17 42.7793 16.842 43.0606 16.5607C43.3419 16.2794 43.5 15.8978 43.5 15.5C43.5 15.1022 43.3419 14.7207 43.0606 14.4394C42.7793 14.1581 42.3978 14 42 14ZM6.38998 29.73L29.73 6.39002C29.8774 6.25269 29.9956 6.08709 30.0775 5.9031C30.1595 5.7191 30.2036 5.52047 30.2072 5.31906C30.2107 5.11766 30.1737 4.9176 30.0982 4.73082C30.0228 4.54405 29.9105 4.37438 29.7681 4.23194C29.6256 4.0895 29.456 3.97722 29.2692 3.90177C29.0824 3.82633 28.8823 3.78928 28.6809 3.79284C28.4795 3.79639 28.2809 3.84047 28.0969 3.92246C27.9129 4.00444 27.7473 4.12265 27.61 4.27002L4.26998 27.61C3.9915 27.8925 3.83539 28.2733 3.83539 28.67C3.83539 29.0667 3.9915 29.4475 4.26998 29.73C4.55251 30.0085 4.93328 30.1646 5.32998 30.1646C5.72668 30.1646 6.10745 30.0085 6.38998 29.73Z" fill="#0071B3"/>
</svg>
