<svg width="48" height="48" viewBox="0 0 48 48" fill="none" xmlns="http://www.w3.org/2000/svg">
<path fill-rule="evenodd" clip-rule="evenodd" d="M43.9971 19.4638C43.9961 19.4148 43.9881 19.3678 43.9821 19.3198C43.9761 19.2688 43.9741 19.2188 43.9621 19.1688C43.9541 19.1308 43.9401 19.0968 43.9291 19.0608C43.9121 19.0028 43.8951 18.9438 43.8701 18.8878C43.8581 18.8588 43.8401 18.8338 43.8261 18.8058C43.7941 18.7458 43.7631 18.6858 43.7231 18.6298C43.7191 18.6238 43.7171 18.6168 43.7131 18.6118C43.6961 18.5878 43.6741 18.5698 43.6561 18.5478C43.6161 18.4988 43.5761 18.4508 43.5311 18.4078C43.5001 18.3788 43.4661 18.3538 43.4331 18.3268C43.3901 18.2928 43.3481 18.2588 43.3031 18.2298C43.2651 18.2058 43.2251 18.1868 43.1861 18.1668C43.1391 18.1418 43.0921 18.1178 43.0441 18.0988C43.0011 18.0818 42.9571 18.0708 42.9131 18.0578C42.8641 18.0438 42.8151 18.0288 42.7651 18.0198C42.7141 18.0108 42.6611 18.0078 42.6071 18.0038C42.5711 18.0018 42.5371 17.9928 42.5001 17.9928H29.6341L25.4531 5.12277L25.4221 5.03077C25.4181 5.01777 25.4091 5.00977 25.4041 4.99777C25.3421 4.82277 25.2551 4.65777 25.1331 4.51577C25.1291 4.51077 25.1231 4.50677 25.1191 4.50177C25.0601 4.43477 24.9971 4.37377 24.9271 4.31877C24.9161 4.31077 24.9041 4.30377 24.8931 4.29577C24.8291 4.24677 24.7621 4.20377 24.6911 4.16677C24.6671 4.15377 24.6421 4.14477 24.6171 4.13377C24.5671 4.11077 24.5191 4.08477 24.4661 4.06777C24.4531 4.06377 24.4401 4.06277 24.4271 4.05877C24.3881 4.04677 24.3481 4.04177 24.3091 4.03277C24.2541 4.02177 24.2001 4.00777 24.1431 4.00277C24.0951 3.99777 24.0471 4.00077 23.9991 4.00077C23.9511 4.00077 23.9041 3.99777 23.8551 4.00277C23.7991 4.00777 23.7451 4.02177 23.6901 4.03277C23.6501 4.04177 23.6111 4.04677 23.5711 4.05877C23.5591 4.06277 23.5451 4.06377 23.5331 4.06777C23.4791 4.08477 23.4321 4.11077 23.3811 4.13377C23.3571 4.14477 23.3311 4.15377 23.3081 4.16677C23.2371 4.20377 23.1691 4.24777 23.1051 4.29577C23.0941 4.30377 23.0821 4.31077 23.0711 4.31877C23.0021 4.37377 22.9381 4.43477 22.8791 4.50177C22.8751 4.50677 22.8701 4.51077 22.8661 4.51577C22.7431 4.65777 22.6571 4.82277 22.5941 4.99777C22.5901 5.00977 22.5801 5.01877 22.5761 5.03077L22.5461 5.12277L18.3641 17.9928H5.50009C5.46409 17.9928 5.43009 18.0018 5.39409 18.0038C5.34009 18.0078 5.28509 18.0108 5.23209 18.0198C5.18509 18.0288 5.13909 18.0428 5.09309 18.0558C5.04509 18.0688 4.99809 18.0818 4.95309 18.0998C4.90809 18.1168 4.86609 18.1398 4.82409 18.1608C4.77909 18.1838 4.73409 18.2058 4.69209 18.2328C4.65309 18.2568 4.61709 18.2878 4.58009 18.3168C4.54009 18.3468 4.50009 18.3778 4.46409 18.4118C4.42709 18.4478 4.39409 18.4888 4.36009 18.5278C4.33609 18.5568 4.30809 18.5808 4.28609 18.6118C4.28109 18.6188 4.27809 18.6278 4.27209 18.6348C4.24109 18.6798 4.21709 18.7268 4.19109 18.7738C4.16909 18.8138 4.14409 18.8518 4.12609 18.8938C4.10809 18.9338 4.09809 18.9758 4.08409 19.0168C4.06709 19.0688 4.04709 19.1208 4.03509 19.1758C4.02809 19.2098 4.02609 19.2438 4.02109 19.2788C4.01209 19.3418 4.00309 19.4058 4.00209 19.4718C4.00209 19.4788 4.00009 19.4858 4.00009 19.4928C4.00009 19.5238 4.00709 19.5518 4.00909 19.5818C4.01309 19.6438 4.01709 19.7048 4.02709 19.7638C4.03509 19.8068 4.04809 19.8478 4.05909 19.8888C4.07409 19.9418 4.08809 19.9938 4.10709 20.0438C4.12309 20.0838 4.14409 20.1228 4.16409 20.1618C4.18809 20.2098 4.21109 20.2578 4.24009 20.3018C4.26409 20.3388 4.29209 20.3728 4.31909 20.4078C4.35109 20.4498 4.38309 20.4918 4.42009 20.5298C4.45409 20.5658 4.49309 20.5978 4.53209 20.6298C4.56109 20.6548 4.58609 20.6838 4.61809 20.7068L15.0251 28.2688L10.9251 40.8878L10.9131 40.9258C10.8991 40.9678 10.8951 41.0118 10.8851 41.0548C10.7821 41.4688 10.8451 41.9218 11.1161 42.2948C11.6021 42.9648 12.5401 43.1128 13.2111 42.6268L23.9991 34.7878L34.7881 42.6268C35.4581 43.1128 36.3961 42.9648 36.8831 42.2948C37.1541 41.9218 37.2171 41.4678 37.1131 41.0528C37.1031 41.0108 37.0991 40.9678 37.0851 40.9258L37.0731 40.8878L32.9731 28.2688L43.3811 20.7068C43.4071 20.6878 43.4261 20.6648 43.4511 20.6448C43.4971 20.6068 43.5431 20.5678 43.5841 20.5258C43.6141 20.4938 43.6401 20.4588 43.6671 20.4248C43.7011 20.3828 43.7351 20.3408 43.7631 20.2958C43.7871 20.2598 43.8051 20.2198 43.8251 20.1818C43.8501 20.1338 43.8751 20.0858 43.8951 20.0358C43.9101 19.9968 43.9211 19.9548 43.9331 19.9138C43.9481 19.8608 43.9641 19.8098 43.9741 19.7558C43.9811 19.7098 43.9841 19.6618 43.9881 19.6148C43.9911 19.5738 44.0001 19.5348 44.0001 19.4928C44.0001 19.4828 43.9971 19.4738 43.9971 19.4638Z" fill="#0071B3"/>
</svg>
