<svg width="48" height="48" viewBox="0 0 48 48" fill="none" xmlns="http://www.w3.org/2000/svg">
<path fill-rule="evenodd" clip-rule="evenodd" d="M29.4466 27.1225L32.8126 37.4835L23.9996 31.0805L15.1866 37.4835L18.5526 27.1225L10.1156 20.9935H20.5436L23.9996 10.3585L27.4546 20.9935H37.8826L29.4466 27.1225ZM43.9976 19.4635C43.9966 19.4145 43.9876 19.3675 43.9826 19.3195C43.9766 19.2685 43.9736 19.2185 43.9626 19.1685C43.9546 19.1315 43.9396 19.0965 43.9296 19.0605C43.9116 19.0025 43.8946 18.9435 43.8706 18.8875C43.8576 18.8585 43.8406 18.8335 43.8256 18.8055C43.7946 18.7455 43.7636 18.6855 43.7236 18.6295C43.7196 18.6235 43.7166 18.6175 43.7126 18.6115C43.6956 18.5875 43.6746 18.5705 43.6556 18.5475C43.6156 18.4985 43.5756 18.4505 43.5306 18.4085C43.4996 18.3785 43.4656 18.3535 43.4326 18.3265C43.3906 18.2925 43.3486 18.2585 43.3026 18.2295C43.2656 18.2065 43.2256 18.1865 43.1866 18.1665C43.1396 18.1425 43.0926 18.1175 43.0436 18.0985C43.0016 18.0815 42.9566 18.0705 42.9136 18.0585C42.8646 18.0435 42.8156 18.0285 42.7656 18.0195C42.7136 18.0105 42.6606 18.0075 42.6076 18.0035C42.5716 18.0015 42.5366 17.9935 42.4996 17.9935H29.6346L25.4526 5.12253L25.4226 5.03053C25.4186 5.01853 25.4086 5.01053 25.4046 4.99753C25.3416 4.82353 25.2556 4.65753 25.1336 4.51653C25.1286 4.51153 25.1236 4.50653 25.1196 4.50153C25.0606 4.43553 24.9966 4.37353 24.9276 4.31953C24.9166 4.31053 24.9046 4.30353 24.8936 4.29553C24.8296 4.24753 24.7616 4.20353 24.6906 4.16653C24.6676 4.15453 24.6416 4.14453 24.6166 4.13353C24.5666 4.11153 24.5196 4.08453 24.4666 4.06753C24.4536 4.06353 24.4406 4.06253 24.4276 4.05953C24.3876 4.04753 24.3486 4.04153 24.3086 4.03353C24.2536 4.02153 24.1996 4.00853 24.1436 4.00253C24.0956 3.99753 24.0476 4.00053 23.9996 4.00053C23.9516 4.00053 23.9036 3.99753 23.8556 4.00253C23.7996 4.00853 23.7446 4.02153 23.6896 4.03353C23.6506 4.04153 23.6106 4.04753 23.5716 4.05953C23.5586 4.06253 23.5456 4.06353 23.5326 4.06753C23.4786 4.08453 23.4316 4.11153 23.3816 4.13453C23.3566 4.14453 23.3316 4.15453 23.3086 4.16653C23.2366 4.20353 23.1696 4.24753 23.1046 4.29553C23.0936 4.30353 23.0816 4.31053 23.0716 4.31953C23.0026 4.37353 22.9376 4.43553 22.8796 4.50153C22.8746 4.50653 22.8706 4.51153 22.8656 4.51653C22.7436 4.65753 22.6566 4.82353 22.5946 4.99753C22.5906 5.01053 22.5806 5.01853 22.5766 5.03053L22.5456 5.12253L18.3646 17.9935H5.4996C5.4636 17.9935 5.4306 18.0015 5.3946 18.0035C5.3396 18.0075 5.2856 18.0105 5.2326 18.0195C5.1856 18.0285 5.1396 18.0425 5.0936 18.0565C5.0456 18.0695 4.9986 18.0815 4.9526 18.0995C4.9086 18.1175 4.8666 18.1395 4.8236 18.1615C4.7796 18.1835 4.7346 18.2055 4.6926 18.2325C4.6536 18.2575 4.6176 18.2875 4.5806 18.3165C4.5406 18.3475 4.4996 18.3775 4.4636 18.4125C4.4266 18.4475 4.3946 18.4885 4.3596 18.5285C4.3356 18.5575 4.3086 18.5815 4.2856 18.6115C4.2806 18.6195 4.2776 18.6275 4.2726 18.6345C4.2416 18.6795 4.2176 18.7265 4.1916 18.7735C4.1696 18.8135 4.1446 18.8515 4.1256 18.8935C4.1086 18.9345 4.0986 18.9755 4.0846 19.0165C4.0666 19.0685 4.0466 19.1205 4.0356 19.1755C4.0276 19.2095 4.0266 19.2445 4.0216 19.2785C4.0126 19.3425 4.0026 19.4055 4.0016 19.4715C4.0016 19.4785 3.9996 19.4855 3.9996 19.4935C3.9996 19.5235 4.0076 19.5525 4.0086 19.5815C4.0126 19.6435 4.0166 19.7055 4.0276 19.7645C4.0356 19.8065 4.0486 19.8475 4.0596 19.8895C4.0736 19.9415 4.0876 19.9935 4.1076 20.0435C4.1236 20.0835 4.1446 20.1225 4.1646 20.1625C4.1876 20.2095 4.2116 20.2575 4.2406 20.3025C4.2636 20.3395 4.2916 20.3725 4.3196 20.4085C4.3516 20.4495 4.3836 20.4925 4.4196 20.5305C4.4546 20.5655 4.4936 20.5975 4.5316 20.6295C4.5616 20.6555 4.5856 20.6835 4.6176 20.7065L15.0256 28.2685L10.9136 40.9255C10.8986 40.9685 10.8946 41.0115 10.8856 41.0545C10.7826 41.4695 10.8456 41.9215 11.1156 42.2945C11.6026 42.9645 12.5406 43.1135 13.2106 42.6265L23.9996 34.7885L34.7876 42.6265C35.4576 43.1135 36.3956 42.9645 36.8826 42.2945C37.1536 41.9215 37.2166 41.4685 37.1136 41.0535C37.1036 41.0105 37.0996 40.9675 37.0856 40.9255L37.0736 40.8875L32.9736 28.2685L43.3806 20.7065C43.4066 20.6875 43.4266 20.6645 43.4506 20.6445C43.4966 20.6065 43.5436 20.5685 43.5836 20.5255C43.6136 20.4945 43.6396 20.4585 43.6666 20.4245C43.7006 20.3825 43.7346 20.3405 43.7636 20.2955C43.7866 20.2595 43.8056 20.2205 43.8256 20.1815C43.8506 20.1335 43.8756 20.0855 43.8946 20.0365C43.9106 19.9965 43.9206 19.9545 43.9336 19.9135C43.9486 19.8615 43.9636 19.8095 43.9736 19.7565C43.9816 19.7095 43.9836 19.6625 43.9876 19.6145C43.9916 19.5745 43.9996 19.5345 43.9996 19.4935C43.9996 19.4825 43.9976 19.4735 43.9976 19.4635Z" fill="#0071B3"/>
</svg>
