<svg width="48" height="48" viewBox="0 0 48 48" fill="none" xmlns="http://www.w3.org/2000/svg">
<path d="M9 38H40.5C41.3284 38 42 38.6716 42 39.5C42 40.3284 41.3284 41 40.5 41H7.5C6.67157 41 6 40.3284 6 39.5V8.5C6 7.67157 6.67157 7 7.5 7C8.32843 7 9 7.67157 9 8.5V38Z" fill="#0071B3"/>
<path d="M13.5493 32.4093C13.1733 32.5522 12.7555 32.538 12.39 32.37C11.9896 32.2165 11.674 31.8989 11.523 31.4976C11.372 31.0962 11.4 30.6494 11.6 30.27L17.7 16.57C17.9512 15.9857 18.5456 15.6252 19.1799 15.6726C19.8142 15.72 20.3484 16.1648 20.51 16.78L24.62 26.01L38.44 29.71C39.2408 29.9254 39.7154 30.7492 39.5 31.55C39.2846 32.3508 38.4608 32.8254 37.66 32.61L23.17 28.73H22.95L22.82 28.67L22.65 28.57C22.455 28.4203 22.3003 28.2244 22.2 28L19.09 21L14.39 31.61C14.2283 31.9784 13.9254 32.2664 13.5493 32.4093Z" fill="#0071B3"/>
</svg>
