<svg width="48" height="48" viewBox="0 0 48 48" fill="none" xmlns="http://www.w3.org/2000/svg">
<path d="M9 38H40.5C41.3284 38 42 38.6716 42 39.5C42 40.3284 41.3284 41 40.5 41H7.5C6.67157 41 6 40.3284 6 39.5V8.5C6 7.67157 6.67157 7 7.5 7C8.32843 7 9 7.67157 9 8.5V38Z" fill="#0071B3"/>
<path d="M19.39 13.64L14.15 19.89V19.93C13.617 20.5651 12.6701 20.648 12.035 20.115C11.3999 19.582 11.317 18.6351 11.85 18L18.92 9.49C19.1217 9.24838 19.3948 9.07685 19.7 9H20C20.7156 8.95186 21.3651 9.41702 21.55 10.11L25.61 25.44L29.06 20.7C29.3294 20.3154 29.7654 20.0815 30.2349 20.0696C30.7043 20.0578 31.1515 20.2694 31.44 20.64L38.67 28.85C39.2223 29.4713 39.1663 30.4227 38.545 30.975C37.9237 31.5273 36.9723 31.4713 36.42 30.85L30.42 24L26.06 29.66L25.98 29.75C25.9221 29.8155 25.8585 29.8757 25.79 29.93L25.58 30.06H25.53L25.31 30.14H24.49L24.32 30.08H24.23L24.04 29.97L23.85 29.8C23.7905 29.7349 23.737 29.6646 23.69 29.59C23.6429 29.5138 23.6027 29.4334 23.57 29.35V29.23L19.39 13.64Z" fill="#0071B3"/>
</svg>
