<svg width="48" height="48" viewBox="0 0 48 48" fill="none" xmlns="http://www.w3.org/2000/svg">
<path d="M9.00018 38.0005H40.5002C41.3282 38.0005 42.0002 38.6715 42.0002 39.5005C42.0002 40.3295 41.3282 41.0005 40.5002 41.0005H7.50018C6.67118 41.0005 6.00018 40.3295 6.00018 39.5005V8.50049C6.00018 7.67149 6.67118 7.00049 7.50018 7.00049C8.32818 7.00049 9.00018 7.67149 9.00018 8.50049V38.0005Z" fill="#0071B3"/>
<path d="M14.1177 32C13.8217 32.332 13.4117 32.5 12.9997 32.5C12.6437 32.5 12.2867 32.374 11.9997 32.118C11.3827 31.565 11.3297 30.617 11.8827 30L20.8307 20C21.1507 19.642 21.6177 19.457 22.1027 19.508C22.5807 19.557 23.0057 19.833 23.2467 20.249L25.5647 24.253L29.6957 10.567C29.8537 10.042 30.2857 9.64599 30.8217 9.53299C31.3567 9.42099 31.9137 9.60799 32.2707 10.023L39.1387 18.023C39.6777 18.651 39.6057 19.599 38.9777 20.138C38.3507 20.677 37.4027 20.607 36.8617 19.977L31.7767 14.054L27.4367 28.434C27.2637 29.006 26.7677 29.421 26.1737 29.49C25.5777 29.559 25.0017 29.269 24.7017 28.751L21.6867 23.542L14.1177 32Z" fill="#0071B3"/>
</svg>
