<svg width="48" height="48" viewBox="0 0 48 48" fill="none" xmlns="http://www.w3.org/2000/svg">
<path fill-rule="evenodd" clip-rule="evenodd" d="M10 16C12.7614 16 15 13.7614 15 11C15 8.23858 12.7614 6 10 6C7.23858 6 5 8.23858 5 11C5 13.7614 7.23858 16 10 16ZM10 9C11.1046 9 12 9.89543 12 11C12 12.1046 11.1046 13 10 13C8.89543 13 8 12.1046 8 11C8 9.89543 8.89543 9 10 9Z" fill="#0071B3"/>
<path d="M41.67 12.5H20.33C19.5492 12.4517 18.9544 11.781 19 11C18.9544 10.219 19.5492 9.54826 20.33 9.5H41.67C42.4508 9.54826 43.0456 10.219 43 11C43.0456 11.781 42.4508 12.4517 41.67 12.5Z" fill="#0071B3"/>
<path fill-rule="evenodd" clip-rule="evenodd" d="M15 24C15 26.7614 12.7614 29 10 29C7.23858 29 5 26.7614 5 24C5 21.2386 7.23858 19 10 19C12.7614 19 15 21.2386 15 24ZM12 24C12 22.8954 11.1046 22 10 22C8.89543 22 8 22.8954 8 24C8 25.1046 8.89543 26 10 26C11.1046 26 12 25.1046 12 24Z" fill="#0071B3"/>
<path d="M41.67 25.5H20.33C19.5492 25.4517 18.9544 24.781 19 24C18.9544 23.219 19.5492 22.5483 20.33 22.5H41.67C42.4508 22.5483 43.0456 23.219 43 24C43.0456 24.781 42.4508 25.4517 41.67 25.5Z" fill="#0071B3"/>
<path fill-rule="evenodd" clip-rule="evenodd" d="M5 37C5 34.2386 7.23858 32 10 32C12.7614 32 15 34.2386 15 37C15 39.7614 12.7614 42 10 42C7.23858 42 5 39.7614 5 37ZM8 37C8 38.1046 8.89543 39 10 39C11.1046 39 12 38.1046 12 37C12 35.8954 11.1046 35 10 35C8.89543 35 8 35.8954 8 37Z" fill="#0071B3"/>
<path d="M20.33 35.5H41.67C42.4508 35.5483 43.0456 36.219 43 37C43.0456 37.781 42.4508 38.4517 41.67 38.5H20.33C19.5492 38.4517 18.9544 37.781 19 37C18.9544 36.219 19.5492 35.5483 20.33 35.5Z" fill="#0071B3"/>
</svg>
