<svg width="48" height="48" viewBox="0 0 48 48" fill="none" xmlns="http://www.w3.org/2000/svg">
<path d="M31.79 18.66C32.3756 18.0751 33.3244 18.0751 33.91 18.66C34.4801 19.2527 34.4667 20.1938 33.88 20.77L21.88 32.77C21.2944 33.3549 20.3456 33.3549 19.76 32.77L14.11 27.12C13.7087 26.7461 13.5435 26.1829 13.6792 25.6514C13.815 25.12 14.23 24.705 14.7614 24.5692C15.2929 24.4335 15.8561 24.5987 16.23 25L20.79 29.66L31.79 18.66Z" fill="#0071B3"/>
<path fill-rule="evenodd" clip-rule="evenodd" d="M24 4C12.9543 4 4 12.9543 4 24C4 35.0457 12.9543 44 24 44C35.0457 44 44 35.0457 44 24C44 18.6957 41.8929 13.6086 38.1421 9.85786C34.3914 6.10714 29.3043 4 24 4ZM24 41C14.6112 41 7 33.3888 7 24C7 14.6112 14.6112 7 24 7C33.3888 7 41 14.6112 41 24C41 28.5087 39.2089 32.8327 36.0208 36.0208C32.8327 39.2089 28.5087 41 24 41Z" fill="#0071B3"/>
</svg>
