<svg width="48" height="48" viewBox="0 0 48 48" fill="none" xmlns="http://www.w3.org/2000/svg">
<path fill-rule="evenodd" clip-rule="evenodd" d="M4 24C4 12.9543 12.9543 4 24 4C35.032 4.03295 43.9671 12.968 44 24C44 35.0457 35.0457 44 24 44C12.9543 44 4 35.0457 4 24ZM32.85 18.25C33.2468 18.25 33.6263 18.4126 33.9 18.7C34.4803 19.2648 34.524 20.1826 34 20.8L22 32.8C21.364 33.3344 20.436 33.3344 19.8 32.8L14.1 27.1C13.5201 26.5201 13.5201 25.5799 14.1 25C14.6799 24.4201 15.6201 24.4201 16.2 25L20.8 29.7L31.8 18.7C32.0737 18.4126 32.4532 18.25 32.85 18.25Z" fill="#0071B3"/>
</svg>
