<svg width="48" height="48" viewBox="0 0 48 48" fill="none" xmlns="http://www.w3.org/2000/svg">
<path d="M24 12C24.8284 12 25.5 11.3284 25.5 10.5V5.5C25.5 4.67157 24.8284 4 24 4C23.1716 4 22.5 4.67157 22.5 5.5V10.5C22.5 11.3284 23.1716 12 24 12Z" fill="#0071B3"/>
<path d="M38.14 12L34.61 15.51L34.58 15.52C34.2061 15.9213 33.6429 16.0865 33.1114 15.9508C32.58 15.815 32.165 15.4 32.0292 14.8686C31.8935 14.3371 32.0587 13.7739 32.46 13.4L36 9.86C36.3823 9.47773 36.9395 9.32843 37.4616 9.46835C37.9838 9.60827 38.3917 10.0162 38.5316 10.5384C38.6716 11.0605 38.5223 11.6177 38.14 12Z" fill="#0071B3"/>
<path fill-rule="evenodd" clip-rule="evenodd" d="M24 15C19.0294 15 15 19.0294 15 24C15 28.9706 19.0294 33 24 33C28.9706 33 33 28.9706 33 24C33 19.0294 28.9706 15 24 15ZM24 30C20.6863 30 18 27.3137 18 24C18 20.6863 20.6863 18 24 18C27.3137 18 30 20.6863 30 24C30 25.5913 29.3679 27.1174 28.2426 28.2426C27.1174 29.3679 25.5913 30 24 30Z" fill="#0071B3"/>
<path d="M24 36C23.1716 36 22.5 36.6716 22.5 37.5V42.5C22.5 43.3284 23.1716 44 24 44C24.8284 44 25.5 43.3284 25.5 42.5V37.5C25.5 36.6716 24.8284 36 24 36Z" fill="#0071B3"/>
<path d="M32.5268 32.5168C33.098 31.9455 34.019 31.9293 34.61 32.48L38.14 36C38.5223 36.3823 38.6716 36.9395 38.5316 37.4616C38.3917 37.9838 37.9838 38.3917 37.4616 38.5316C36.9395 38.6716 36.3823 38.5223 36 38.14L32.49 34.6C31.9393 34.009 31.9555 33.088 32.5268 32.5168Z" fill="#0071B3"/>
<path d="M42.5 22.5H37.5C36.6716 22.5 36 23.1716 36 24C36 24.8284 36.6716 25.5 37.5 25.5H42.5C43.3284 25.5 44 24.8284 44 24C44 23.1716 43.3284 22.5 42.5 22.5Z" fill="#0071B3"/>
<path d="M15.4732 15.4832C14.902 16.0545 13.981 16.0707 13.39 15.52L9.86 12C9.47773 11.6177 9.32843 11.0605 9.46835 10.5384C9.60827 10.0162 10.0162 9.60827 10.5384 9.46835C11.0605 9.32843 11.6177 9.47773 12 9.86L15.51 13.4C16.0607 13.991 16.0445 14.912 15.4732 15.4832Z" fill="#0071B3"/>
<path d="M12 24C12 23.1716 11.3284 22.5 10.5 22.5H5.5C4.67157 22.5 4 23.1716 4 24C4 24.8284 4.67157 25.5 5.5 25.5H10.5C11.3284 25.5 12 24.8284 12 24Z" fill="#0071B3"/>
<path d="M9.86 36L13.39 32.49L13.42 32.48C13.7939 32.0787 14.3571 31.9135 14.8886 32.0492C15.42 32.185 15.835 32.6 15.9708 33.1314C16.1065 33.6629 15.9413 34.2261 15.54 34.6L12 38.14C11.6177 38.5223 11.0605 38.6716 10.5384 38.5316C10.0162 38.3917 9.60827 37.9838 9.46835 37.4616C9.32843 36.9394 9.47773 36.3823 9.86 36Z" fill="#0071B3"/>
</svg>
