<svg width="48" height="48" viewBox="0 0 48 48" fill="none" xmlns="http://www.w3.org/2000/svg">
<path fill-rule="evenodd" clip-rule="evenodd" d="M44.5 18H35.62L25.06 7.44C24.7783 7.15954 24.3975 7.00144 24 7C23.6021 6.99925 23.2204 7.15768 22.94 7.44L12.38 18H3.5C2.67157 18 2 18.6716 2 19.5C2 20.3284 2.67157 21 3.5 21H4.71L8 39.76C8.0751 40.1453 8.30218 40.4841 8.63 40.7C8.69997 40.7459 8.77355 40.786 8.85 40.82H8.92L9.12 40.89H39L39.14 40.81L39.25 40.75L39.38 40.63L39.47 40.56L39.59 40.42L39.65 40.34C39.6826 40.2898 39.7094 40.2362 39.73 40.18C39.7526 40.15 39.7695 40.1161 39.78 40.08C39.79 40.0271 39.79 39.9729 39.78 39.92C39.7843 39.8801 39.7843 39.8399 39.78 39.8L43.29 21H44.5C45.3284 21 46 20.3284 46 19.5C46 18.6716 45.3284 18 44.5 18ZM24 10.62L31.38 18H16.62L24 10.62ZM37.24 38H10.75L7.75 21H40.24L37.24 38ZM14 28H34C34.8284 28 35.5 27.3284 35.5 26.5C35.5 25.6716 34.8284 25 34 25H14C13.1716 25 12.5 25.6716 12.5 26.5C12.5 27.3284 13.1716 28 14 28ZM32.5 31H15.5C14.6716 31 14 31.6716 14 32.5C14 33.3284 14.6716 34 15.5 34H32.5C33.3284 34 34 33.3284 34 32.5C34 31.6716 33.3284 31 32.5 31Z" fill="#0071B3"/>
</svg>
