<svg width="48" height="48" viewBox="0 0 48 48" fill="none" xmlns="http://www.w3.org/2000/svg">
<path fill-rule="evenodd" clip-rule="evenodd" d="M38.5288 32.2788V15.7788C40.8035 15.0784 42.2692 12.8715 42.0326 10.5032C41.796 8.13484 39.9228 6.26156 37.5544 6.02497C35.1861 5.78838 32.9792 7.25406 32.2788 9.5288H15.7788C15.0784 7.25406 12.8715 5.78838 10.5032 6.02497C8.13484 6.26156 6.26156 8.13484 6.02497 10.5032C5.78838 12.8715 7.25406 15.0784 9.5288 15.7788V32.2788C7.25406 32.9792 5.78838 35.1861 6.02497 37.5544C6.26156 39.9228 8.13484 41.796 10.5032 42.0326C12.8715 42.2692 15.0784 40.8035 15.7788 38.5288H32.2788C32.9792 40.8035 35.1861 42.2692 37.5544 42.0326C39.9228 41.796 41.796 39.9228 42.0326 37.5544C42.2692 35.1861 40.8035 32.9792 38.5288 32.2788ZM32.2788 35.5288H15.7788C15.2871 33.9822 14.0754 32.7705 12.5288 32.2788V15.7788C14.0754 15.2871 15.2871 14.0754 15.7788 12.5288H32.2788C32.7705 14.0754 33.9822 15.2871 35.5288 15.7788V32.2788C33.9822 32.7705 32.7705 33.9822 32.2788 35.5288ZM37.0288 9.0288C38.1334 9.0288 39.0288 9.92423 39.0288 11.0288C39.0288 12.1334 38.1334 13.0288 37.0288 13.0288C35.9242 13.0288 35.0288 12.1334 35.0288 11.0288C35.0288 9.92423 35.9242 9.0288 37.0288 9.0288ZM11.0288 9.0288C12.1334 9.0288 13.0288 9.92423 13.0288 11.0288C13.0288 12.1334 12.1334 13.0288 11.0288 13.0288C9.92423 13.0288 9.0288 12.1334 9.0288 11.0288C9.0288 9.92423 9.92423 9.0288 11.0288 9.0288ZM11.0288 39.0288C9.92423 39.0288 9.0288 38.1334 9.0288 37.0288C9.0288 35.9242 9.92423 35.0288 11.0288 35.0288C12.1334 35.0288 13.0288 35.9242 13.0288 37.0288C13.0288 38.1334 12.1334 39.0288 11.0288 39.0288ZM37.0288 39.0288C35.9242 39.0288 35.0288 38.1334 35.0288 37.0288C35.0288 35.9242 35.9242 35.0288 37.0288 35.0288C38.1334 35.0288 39.0288 35.9242 39.0288 37.0288C39.0288 38.1334 38.1334 39.0288 37.0288 39.0288Z" fill="#0071B3"/>
</svg>
