<svg width="48" height="48" viewBox="0 0 48 48" fill="none" xmlns="http://www.w3.org/2000/svg">
<path d="M24.0002 22C22.8952 22 22.0002 22.896 22.0002 24C22.0002 25.104 22.8952 26 24.0002 26C25.1042 26 26.0002 25.104 26.0002 24C26.0002 22.896 25.1042 22 24.0002 22Z" fill="#0071B3"/>
<path fill-rule="evenodd" clip-rule="evenodd" d="M12.0002 24C12.0002 17.373 17.3732 12 24.0002 12C30.6272 12 36.0002 17.373 36.0002 24C36.0002 30.627 30.6272 36 24.0002 36C17.3732 36 12.0002 30.627 12.0002 24ZM33.0002 24C33.0002 19.038 28.9622 15 24.0002 15C19.0372 15 15.0002 19.038 15.0002 24C15.0002 28.962 19.0372 33 24.0002 33C28.9622 33 33.0002 28.962 33.0002 24Z" fill="#0071B3"/>
<path fill-rule="evenodd" clip-rule="evenodd" d="M24.0002 4C12.9542 4 4.00018 12.954 4.00018 24C4.00018 35.046 12.9542 44 24.0002 44C35.0452 44 44.0002 35.046 44.0002 24C44.0002 12.954 35.0452 4 24.0002 4ZM24.0002 7C33.3742 7 41.0002 14.626 41.0002 24C41.0002 33.374 33.3742 41 24.0002 41C14.6262 41 7.00018 33.374 7.00018 24C7.00018 14.626 14.6262 7 24.0002 7Z" fill="#0071B3"/>
</svg>
