<svg width="48" height="48" viewBox="0 0 48 48" fill="none" xmlns="http://www.w3.org/2000/svg">
<path fill-rule="evenodd" clip-rule="evenodd" d="M22.2322 7.64642C23.2085 6.67011 24.7915 6.67011 25.7678 7.64642L35 16.8786L42.9393 8.93931C43.5251 8.35352 44.4749 8.35352 45.0607 8.93931C45.6464 9.5251 45.6464 10.4748 45.0607 11.0606L36.5 19.6213V39.5H44C44.8284 39.5 45.5 40.1715 45.5 41C45.5 41.8284 44.8284 42.5 44 42.5H4C3.17157 42.5 2.5 41.8284 2.5 41C2.5 40.1715 3.17157 39.5 4 39.5H11.5V19.6213L2.93934 11.0606C2.35355 10.4748 2.35355 9.5251 2.93934 8.93931C3.52513 8.35352 4.47487 8.35352 5.06066 8.93931L13 16.8786L22.2322 7.64642ZM14.5 19.6213V39.5H19.5V31.5C19.5 29.8431 20.8431 28.5 22.5 28.5H25.5C27.1569 28.5 28.5 29.8431 28.5 31.5V39.5H33.5V19.6213L24 10.1213L14.5 19.6213ZM25.5 39.5V31.5H22.5V39.5H25.5Z" fill="#0071B3"/>
</svg>
