<svg width="48" height="48" viewBox="0 0 48 48" fill="none" xmlns="http://www.w3.org/2000/svg">
<path fill-rule="evenodd" clip-rule="evenodd" d="M43.32 22.4747C42.42 18.5347 40.14 10.4747 40.07 10.2547C39.3516 7.64281 36.9156 5.88023 34.21 6.01472H27.16C25.4172 5.92669 23.677 6.23438 22.07 6.91472L21.6 7.13472C20.0565 8.18301 18.2537 8.7851 16.39 8.87472H16V7.63472C16 6.80629 15.3284 6.13472 14.5 6.13472H5.5C4.67157 6.13472 4 6.80629 4 7.63472V28.6347C4 29.4631 4.67157 30.1347 5.5 30.1347H14.5C15.3284 30.1347 16 29.4631 16 28.6347V27.5747C17.2635 28.6463 18.6001 29.6287 20 30.5147C20.56 30.8547 22.52 32.6147 24.25 40.8147C24.3591 41.34 24.7404 41.7671 25.25 41.9347C25.7248 42.0698 26.2163 42.1372 26.71 42.1347C27.755 42.147 28.7758 41.8207 29.62 41.2047C31.22 40.0447 32 37.9347 32 34.9447C31.9731 33.034 31.8261 31.127 31.56 29.2347H38.76C40.3301 28.9324 41.7273 28.0462 42.67 26.7547C43.4848 25.4852 43.7211 23.9289 43.32 22.4747ZM7 9.13472H13V27.1347H7V9.13472ZM40.2 25.0647C39.737 25.6519 39.0882 26.0645 38.36 26.2347H29.84C29.3962 26.2339 28.9749 26.4297 28.6893 26.7693C28.4036 27.109 28.2831 27.5577 28.36 27.9947C28.7463 30.3094 28.9668 32.6487 29.02 34.9947C29.02 36.9047 28.61 38.2747 27.87 38.8347C27.5979 39.0328 27.2757 39.1506 26.94 39.1747C25.54 33.0247 23.78 29.3647 21.56 28.0047C19.6195 26.7271 17.7897 25.2887 16.09 23.7047L16 23.6047V11.9147H16.38C18.7744 11.8342 21.1 11.0936 23.1 9.77472L23.54 9.52472C24.6843 9.11932 25.8979 8.94594 27.11 9.01472H34.21C35.5674 8.84584 36.8438 9.69674 37.21 11.0147C37.21 11.0947 39.56 19.2947 40.45 23.1647C40.6329 23.8054 40.5424 24.4932 40.2 25.0647Z" fill="#0071B3"/>
</svg>
