<svg width="48" height="48" viewBox="0 0 48 48" fill="none" xmlns="http://www.w3.org/2000/svg">
<path fill-rule="evenodd" clip-rule="evenodd" d="M42.69 21.3985C41.7473 20.1069 40.3501 19.2207 38.78 18.9185H31.58C31.8403 17.0192 31.9805 15.1054 32 13.1885C32 10.1885 31.2 8.08845 29.62 6.92845C28.3472 6.0403 26.7423 5.77221 25.25 6.19845C24.7404 6.36609 24.3591 6.79315 24.25 7.31845C22.52 15.5285 20.56 17.3185 20 17.6185C18.6001 18.5044 17.2635 19.4868 16 20.5585V19.4985C16 18.67 15.3284 17.9985 14.5 17.9985H5.5C4.67157 17.9985 4 18.67 4 19.4985V40.4985C4 41.3269 4.67157 41.9985 5.5 41.9985H14.5C15.3284 41.9985 16 41.3269 16 40.4985V39.2185H16.38C18.2509 39.3186 20.0576 39.9347 21.6 40.9985L22.06 41.2685C23.5333 41.9138 25.1324 42.2214 26.74 42.1684H34.21C36.8711 42.2814 39.2638 40.5582 40 37.9985C40.1 37.6585 42.37 29.6385 43.27 25.6985C43.6978 24.2479 43.4868 22.6838 42.69 21.3985ZM7 20.9985H13V38.9985H7V20.9985ZM40.4 24.9985C39.51 28.8685 37.19 37.0685 37.14 37.2285C36.7489 38.4908 35.5124 39.2941 34.2 39.1385H27.07C25.8712 39.2038 24.6713 39.0304 23.54 38.6284L23.1 38.3784C21.0971 37.0578 18.7678 36.3171 16.37 36.2385H16V24.5285L16.09 24.4685C17.7897 22.8844 19.6194 21.446 21.56 20.1685C23.78 18.8085 25.56 15.1685 26.94 8.99845C27.2757 9.02261 27.5979 9.1404 27.87 9.33845C28.61 9.89845 29.02 11.2685 29.02 13.1785C28.9668 15.5245 28.7463 17.8638 28.36 20.1785C28.2831 20.6155 28.4036 21.0642 28.6893 21.4039C28.9749 21.7435 29.3962 21.9393 29.84 21.9385H38.36C39.0823 22.1103 39.7264 22.5186 40.19 23.0985C40.5201 23.6754 40.5961 24.3634 40.4 24.9985Z" fill="#0071B3"/>
</svg>
