<svg width="48" height="48" viewBox="0 0 48 48" fill="none" xmlns="http://www.w3.org/2000/svg">
<path d="M26 8.00002C26 9.10459 25.1046 10 24 10C22.8954 10 22 9.10459 22 8.00002C22 6.89545 22.8954 6.00002 24 6.00002C25.1046 6.00002 26 6.89545 26 8.00002Z" fill="#0071B3"/>
<path d="M17 35C18.1046 35 19 34.1046 19 33C19 31.8954 18.1046 31 17 31C15.8954 31 15 31.8954 15 33C15 34.1046 15.8954 35 17 35Z" fill="#0071B3"/>
<path d="M33 33C33 34.1046 32.1046 35 31 35C29.8954 35 29 34.1046 29 33C29 31.8954 29.8954 31 31 31C32.1046 31 33 31.8954 33 33Z" fill="#0071B3"/>
<path fill-rule="evenodd" clip-rule="evenodd" d="M39 7.46002C38.999 4.49466 36.8318 1.97482 33.9 1.53002L33.44 1.48002H33.32C30.2238 1.158 27.1129 0.997777 24 1.00002C20.8873 0.994473 17.7764 1.15135 14.68 1.47002H14.56L14.1 1.52002C11.1644 1.96539 8.9961 4.49087 9.00001 7.46002V36C8.99966 38.7305 11.1899 40.9563 13.92 41H34.08C36.8101 40.9563 39.0004 38.7305 39 36V7.46002ZM21.3 4.00002L20 4.09002C18.22 4.16002 16.62 4.29002 15.13 4.43002C15.35 6.18002 15.54 8.04002 15.68 9.98002C15.6981 10.2209 15.7189 10.461 15.7398 10.7021C15.7996 11.3919 15.86 12.089 15.86 12.83V12.98C16 14.98 16 17.98 16 19.98V20.23C16.1238 22.7851 18.1561 24.8346 20.71 24.98H27.28C29.827 24.841 31.861 22.807 32 20.26V20C32 17.92 32 14.93 32.11 12.98V12.83C32.16 11.86 32.22 10.91 32.29 9.98002C32.43 8.04002 32.61 6.18002 32.84 4.43002C31.34 4.27002 29.75 4.15002 28 4.07002L26 4.00002H21.3ZM36 36C36 37.1046 35.1046 38 34 38H14C12.8954 38 12 37.1046 12 36V7.46002C12.0028 7.00551 12.1088 6.55757 12.31 6.15002C12.46 7.42002 12.58 8.77002 12.69 10.15C12.7633 11.1634 12.8267 12.2134 12.88 13.3C13 15.12 13 18 13 20V20.47C13.091 21.9918 13.6149 23.456 14.51 24.69C15.2607 25.735 16.2566 26.5798 17.41 27.15C18.4999 27.6972 19.7005 27.9879 20.92 28H27.08C28.9431 27.9813 30.742 27.3169 32.17 26.12C33.047 25.3777 33.756 24.4574 34.25 23.42C34.6917 22.485 34.9464 21.4727 35 20.44V19.96C35 17.96 35 15.11 35.13 13.34C35.1767 12.2467 35.24 11.1967 35.32 10.19C35.42 8.76002 35.55 7.41002 35.7 6.19002C35.892 6.58621 35.9944 7.0198 36 7.46002V36Z" fill="#0071B3"/>
<path d="M13.92 42H17.23L14.9 47H11.59L13.92 42Z" fill="#0071B3"/>
<path d="M30.77 42H34.08L36.41 47H33.1L30.77 42Z" fill="#0071B3"/>
</svg>
