<svg width="48" height="48" viewBox="0 0 48 48" fill="none" xmlns="http://www.w3.org/2000/svg">
<path d="M21 34C21 35.1046 20.1046 36 19 36C17.8954 36 17 35.1046 17 34C17 32.8954 17.8954 32 19 32C20.1046 32 21 32.8954 21 34Z" fill="#0071B3"/>
<path d="M29 36C30.1046 36 31 35.1046 31 34C31 32.8954 30.1046 32 29 32C27.8954 32 27 32.8954 27 34C27 35.1046 27.8954 36 29 36Z" fill="#0071B3"/>
<path fill-rule="evenodd" clip-rule="evenodd" d="M25.5 6H32C34.7614 6 37 8.23858 37 11V36C37 38.7614 34.7614 41 32 41H16C14.6739 41 13.4021 40.4732 12.4645 39.5355C11.5268 38.5979 11 37.3261 11 36V11C11 8.23858 13.2386 6 16 6H22.5V4H17.5C16.6716 4 16 3.32843 16 2.5C16 1.67157 16.6716 1 17.5 1H30.5C31.3284 1 32 1.67157 32 2.5C32 3.32843 31.3284 4 30.5 4H25.5V6ZM29 24.88C29.0051 24.9198 29.0051 24.9602 29 25C29 25.5 27.23 27 24 27C20.77 27 19 25.5 19 25C18.9949 24.9602 18.9949 24.9198 19 24.88V9H29V24.88ZM32 38C33.1046 38 34 37.1046 34 36V11C34 9.89543 33.1046 9 32 9V25C32 27.76 28.42 30 24 30C19.58 30 16 27.76 16 25V9C14.8954 9 14 9.89543 14 11V36C14 37.1046 14.8954 38 16 38H32Z" fill="#0071B3"/>
<path d="M16 42C15.347 41.9976 14.7011 41.865 14.1 41.61L11.58 47H14.89L17.22 42H16Z" fill="#0071B3"/>
<path d="M32 42H30.77L33.1 47H36.41L33.9 41.61C33.2989 41.865 32.653 41.9976 32 42Z" fill="#0071B3"/>
</svg>
