<svg width="48" height="48" viewBox="0 0 48 48" fill="none" xmlns="http://www.w3.org/2000/svg">
<path fill-rule="evenodd" clip-rule="evenodd" d="M35.5 14C34.67 14 34 14.67 34 15.5V38C34 39.654 32.654 41 31 41H17C15.346 41 14 39.654 14 38V15.5C14 14.67 13.328 14 12.5 14C11.67 14 11 14.67 11 15.5V38.5C11 38.672 11.034 38.834 11.088 38.988C11.56 41.83 14.022 44 17 44H31C33.976 44 36.44 41.83 36.912 38.988C36.964 38.834 37 38.672 37 38.5V15.5C37 14.67 36.328 14 35.5 14ZM19.5 7H28.5C29.328 7 30 6.33 30 5.5C30 4.67 29.328 4 28.5 4H19.5C18.67 4 18 4.67 18 5.5C18 6.33 18.67 7 19.5 7ZM37.5 8H10.5C9.67 8 9 8.672 9 9.5C9 10.328 9.67 11 10.5 11H37.5C38.328 11 39 10.328 39 9.5C39 8.672 38.328 8 37.5 8ZM29.5 38C28.67 38 28 37.328 28 36.5V15.5C28 14.67 28.67 14 29.5 14C30.328 14 31 14.67 31 15.5V36.5C31 37.328 30.328 38 29.5 38ZM18.5 38C17.67 38 17 37.328 17 36.5V15.5C17 14.67 17.67 14 18.5 14C19.328 14 20 14.67 20 15.5V36.5C20 37.328 19.328 38 18.5 38Z" fill="#0071B3"/>
</svg>
