<svg width="48" height="48" viewBox="0 0 48 48" fill="none" xmlns="http://www.w3.org/2000/svg">
<path fill-rule="evenodd" clip-rule="evenodd" d="M12.4412 37.41L15.8512 34H20.0012C19.9651 34.0805 19.9215 34.1575 19.8712 34.23L17.1012 37H30.8712L27.8612 34H32.1212L35.5612 37.46C35.7026 37.5998 35.8148 37.7664 35.8912 37.95C35.9624 38.1247 35.9997 38.3114 36.0012 38.5C35.9923 38.7049 35.9413 38.9058 35.8512 39.09C35.7777 39.2728 35.669 39.4393 35.5312 39.58C35.3905 39.7178 35.224 39.8265 35.0412 39.9C34.869 39.9665 34.6858 40.0004 34.5012 40H13.5012C13.0928 40.0003 12.7018 39.8341 12.4188 39.5397C12.1357 39.2452 11.9849 38.8481 12.0012 38.44C12.0078 38.2863 12.0381 38.1345 12.0912 37.99C12.1138 37.9283 12.1405 37.8681 12.1712 37.81C12.2212 37.7137 12.2816 37.6232 12.3512 37.54C12.3787 37.495 12.4088 37.4516 12.4412 37.41ZM10 8H39C40.6569 8 42 9.34315 42 11V31C42 32.6569 40.6569 34 39 34H10C8.34315 34 7 32.6569 7 31V11C7 9.34315 8.34315 8 10 8ZM10.0012 31H39.0012V11H10.0012V31Z" fill="#0071B3"/>
</svg>
