<svg width="48" height="48" viewBox="0 0 48 48" fill="none" xmlns="http://www.w3.org/2000/svg">
<path d="M11.0002 7V41H17.4622C18.0382 42.104 18.7672 43.111 19.6212 44H9.50021C8.67121 44 8.00021 43.329 8.00021 42.5V5.5C8.00021 4.671 8.67121 4 9.50021 4H26.5052C27.0532 4 27.5262 4.296 27.7892 4.734L37.2922 14.237C37.7092 14.503 37.9882 14.968 37.9882 15.5V25.633C37.0992 24.779 36.0912 24.05 34.9882 23.475V16.176L25.8122 7H11.0002Z" fill="#0071B3"/>
<path fill-rule="evenodd" clip-rule="evenodd" d="M33.325 26C35.36 26.982 37.006 28.629 37.988 30.664C38.622 31.977 38.988 33.444 38.988 35C38.988 36.556 38.622 38.023 37.988 39.336C37.291 40.782 36.259 42.03 34.988 42.986C33.316 44.245 31.243 45 28.988 45C23.466 45 18.988 40.523 18.988 35C18.988 32.746 19.743 30.672 21.002 29C21.958 27.729 23.206 26.698 24.652 26C25.965 25.366 27.432 25 28.988 25C30.544 25 32.011 25.366 33.325 26ZM21.988 35C21.988 38.86 25.129 42 28.988 42C30.376 42 31.667 41.589 32.757 40.89L23.099 31.231C22.399 32.321 21.988 33.612 21.988 35ZM34.9678 38.6208C34.9745 38.6095 34.9813 38.5982 34.988 38.587C35.619 37.536 35.988 36.312 35.988 35C35.988 33.688 35.619 32.464 34.988 31.414C34.394 30.424 33.565 29.594 32.575 29C31.524 28.37 30.3 28 28.988 28C27.676 28 26.452 28.37 25.402 29C25.3802 29.0132 25.3584 29.0262 25.3366 29.0391C25.2975 29.0624 25.2586 29.0856 25.22 29.11L34.878 38.768C34.9089 38.7192 34.9385 38.6698 34.9678 38.6208Z" fill="#0071B3"/>
</svg>
