<svg width="48" height="48" viewBox="0 0 48 48" fill="none" xmlns="http://www.w3.org/2000/svg">
<path d="M25.09 6.47L35.66 17C36.2482 17.6075 36.2325 18.5768 35.625 19.165C35.0175 19.7532 34.0482 19.7375 33.46 19.13L25.46 11.13V32.5C25.46 33.3284 24.7884 34 23.96 34C23.1316 34 22.46 33.3284 22.46 32.5V11.12L14.46 19.12C14.1801 19.4034 13.7983 19.5629 13.4 19.5629C13.0017 19.5629 12.6199 19.4034 12.34 19.12C11.7605 18.5321 11.7605 17.5879 12.34 17L22.94 6.4H23C23.12 6.27466 23.2625 6.1729 23.42 6.1H23.5C23.6591 6.03612 23.8286 6.00222 24 6C24.1767 6.01046 24.3498 6.05458 24.51 6.13H24.59C24.7416 6.19496 24.8804 6.28639 25 6.4L25.09 6.47Z" fill="#0071B3"/>
<path d="M7.5 39C6.67157 39 6 39.6716 6 40.5C6 41.3284 6.67157 42 7.5 42H40.5C41.3284 42 42 41.3284 42 40.5C42 39.6716 41.3284 39 40.5 39H7.5Z" fill="#0071B3"/>
</svg>
