<svg width="48" height="48" viewBox="0 0 48 48" fill="none" xmlns="http://www.w3.org/2000/svg">
<path fill-rule="evenodd" clip-rule="evenodd" d="M24 6C19.5817 6 16 9.58172 16 14C16 18.4183 19.5817 22 24 22C28.4183 22 32 18.4183 32 14C32 9.58172 28.4183 6 24 6ZM24 9C26.7614 9 29 11.2386 29 14C29 16.7614 26.7614 19 24 19C21.2386 19 19 16.7614 19 14C19 11.2386 21.2386 9 24 9Z" fill="#0071B3"/>
<path d="M27 24C31.63 24 35.44 27.1 35.94 31.1C35.9801 31.2295 36.0004 31.3644 36 31.5V39.5C36 40.3284 35.3284 41 34.5 41C33.6716 41 33 40.3284 33 39.5V32C33 29.55 30.88 27.52 28.09 27.09C27.7299 27.029 27.3652 26.9989 27 27H21C20.6348 26.9989 20.2701 27.029 19.91 27.09C17.12 27.52 15 29.55 15 32V39.5C15 40.3284 14.3284 41 13.5 41C12.6716 41 12 40.3284 12 39.5V31.5C12.0046 31.3648 12.0247 31.2306 12.06 31.1C12.56 27.11 16.37 24 21 24H27Z" fill="#0071B3"/>
</svg>
