<svg width="48" height="48" viewBox="0 0 48 48" fill="none" xmlns="http://www.w3.org/2000/svg">
<path fill-rule="evenodd" clip-rule="evenodd" d="M18.9995 6C14.5812 6 10.9995 9.5817 10.9995 14C10.9995 18.4183 14.5812 22 18.9995 22C23.4178 22 26.9995 18.4183 26.9995 14C26.9995 9.5817 23.4178 6 18.9995 6ZM23.9995 14C23.9995 11.243 21.7565 9 18.9995 9C16.2425 9 13.9995 11.243 13.9995 14C13.9995 16.757 16.2425 19 18.9995 19C21.7565 19 23.9995 16.757 23.9995 14Z" fill="#0071B3"/>
<path d="M31.2617 25C32.0886 25.918 32.7578 26.9648 33.2273 28.1092C35.9485 28.5828 38 30.5938 38 33V38.4996C38 39.328 38.6716 39.9996 39.5 39.9996C40.3284 39.9996 41 39.328 41 38.4996V32.4996C41.0001 32.3606 40.9751 32.2285 40.9397 32.1008C40.4363 28.1064 36.6282 25 32.0001 25C31.93 25 31.8611 25.0042 31.7923 25.0084C31.7464 25.0112 31.7001 25.014 31.6538 25.0156C31.6369 25.0139 31.6203 25.0116 31.6036 25.0093C31.5693 25.0047 31.535 25 31.4994 25H31.2617Z" fill="#0071B3"/>
<path d="M27.4547 21.0374C28.0945 20.2695 28.6317 19.4131 29.0452 18.4893C29.6235 18.8144 30.2902 19 30.9995 19C33.2051 19 34.9995 17.2056 34.9995 15C34.9995 12.7944 33.2051 11 30.9995 11C30.526 11 30.0714 11.0827 29.6494 11.2345C29.3941 10.2485 29.0055 9.31618 28.5039 8.45793C29.2791 8.16206 30.1204 8 30.9995 8C34.8655 8 37.9995 11.134 37.9995 15C37.9995 18.866 34.8655 22 30.9995 22C29.7059 22 28.4943 21.6491 27.4547 21.0374Z" fill="#0071B3"/>
<path d="M22.0001 24C26.6282 24 30.4363 27.1064 30.9397 31.1008C30.9751 31.2285 31.0001 31.3606 31 31.4996V40.4996C31 41.328 30.3284 41.9996 29.5 41.9996C28.6716 41.9996 28 41.328 28 40.4996V32C28 29.5543 25.8806 27.5169 23.0928 27.0871C22.7386 27.0325 22.3752 27.0003 21.9994 26.9996H16.4952L15.9955 27.0004C15.6234 27.0006 15.2607 27.0326 14.9072 27.0871C12.1196 27.5169 10 29.5543 10 32V40.4996C10 41.328 9.3284 41.9996 8.5 41.9996C7.6716 41.9996 7 41.328 7 40.4996V31.4996C7 31.3606 7.025 31.2285 7.0604 31.1008C7.5638 27.1063 11.3719 24 16 24C16.0701 24 16.139 24.0042 16.2079 24.0084C16.2536 24.0112 16.2994 24.0139 16.3455 24.0155C16.3622 24.0138 16.3787 24.0115 16.3952 24.0093C16.4295 24.0046 16.4638 24 16.4994 24H21.4994C21.535 24 21.5692 24.0047 21.6035 24.0093C21.6202 24.0116 21.6369 24.0139 21.6538 24.0156C21.7001 24.014 21.746 24.0112 21.7919 24.0084C21.8608 24.0042 21.93 24 22.0001 24Z" fill="#0071B3"/>
</svg>
