<svg width="48" height="48" viewBox="0 0 48 48" fill="none" xmlns="http://www.w3.org/2000/svg">
<path d="M25.89 15.5H43.5C43.8978 15.5 44.2794 15.342 44.5607 15.0607C44.842 14.7794 45 14.3978 45 14C45 13.6022 44.842 13.2206 44.5607 12.9393C44.2794 12.658 43.8978 12.5 43.5 12.5H25.89C25.9608 12.9969 25.9976 13.4981 26 14C25.9976 14.5019 25.9608 15.0031 25.89 15.5ZM43.5 22.5H24.12C25.8249 23.0454 27.3265 24.0906 28.43 25.5H43.5C43.8978 25.5 44.2794 25.342 44.5607 25.0607C44.842 24.7794 45 24.3978 45 24C45 23.6022 44.842 23.2206 44.5607 22.9393C44.2794 22.658 43.8978 22.5 43.5 22.5ZM43.5 32.5H30V35.5H43.5C43.8978 35.5 44.2794 35.342 44.5607 35.0607C44.842 34.7794 45 34.3978 45 34C45 33.6022 44.842 33.2206 44.5607 32.9393C44.2794 32.658 43.8978 32.5 43.5 32.5ZM18 24H12C7.37 24 3.56 27.11 3.06 31.1C3.02179 31.23 3.0016 31.3646 3 31.5V39.5C3 39.8978 3.15804 40.2794 3.43934 40.5607C3.72064 40.842 4.10218 41 4.5 41C4.89782 41 5.27936 40.842 5.56066 40.5607C5.84196 40.2794 6 39.8978 6 39.5V32C6 29.55 8.12 27.52 10.91 27.09C11.2705 27.0323 11.6349 27.0022 12 27H18C18.3651 27.0022 18.7295 27.0323 19.09 27.09C21.88 27.52 24 29.55 24 32V39.5C24 39.8978 24.158 40.2794 24.4393 40.5607C24.7206 40.842 25.1022 41 25.5 41C25.8978 41 26.2794 40.842 26.5607 40.5607C26.842 40.2794 27 39.8978 27 39.5V31.5C26.9984 31.3646 26.9782 31.23 26.94 31.1C26.44 27.11 22.63 24 18 24ZM15 22C16.5823 22 18.129 21.5308 19.4446 20.6518C20.7602 19.7727 21.7855 18.5233 22.391 17.0615C22.9965 15.5997 23.155 13.9911 22.8463 12.4393C22.5376 10.8874 21.7757 9.46197 20.6569 8.34315C19.538 7.22433 18.1126 6.4624 16.5607 6.15372C15.0089 5.84504 13.4003 6.00347 11.9385 6.60897C10.4767 7.21447 9.22729 8.23985 8.34824 9.55544C7.46919 10.871 7 12.4178 7 14C7 16.1217 7.84285 18.1566 9.34315 19.6569C10.8434 21.1571 12.8783 22 15 22ZM15 9C15.9889 9 16.9556 9.29325 17.7779 9.84266C18.6001 10.3921 19.241 11.173 19.6194 12.0866C19.9978 13.0002 20.0969 14.0056 19.9039 14.9755C19.711 15.9454 19.2348 16.8363 18.5355 17.5355C17.8363 18.2348 16.9454 18.711 15.9755 18.9039C15.0055 19.0969 14.0002 18.9978 13.0866 18.6194C12.173 18.241 11.3921 17.6001 10.8427 16.7779C10.2932 15.9556 10 14.9889 10 14C10 12.6739 10.5268 11.4022 11.4645 10.4645C12.4021 9.52679 13.6739 9 15 9Z" fill="#0071B3"/>
</svg>
