<svg width="48" height="48" viewBox="0 0 48 48" fill="none" xmlns="http://www.w3.org/2000/svg">
<path fill-rule="evenodd" clip-rule="evenodd" d="M41.3934 23.2501C41.2642 23.0516 41.0893 22.887 40.8834 22.7701L40.7734 22.6801L15.5534 6.30006L15.3934 6.22006H15.3034L15.1234 6.16006H15.0134L14.8334 6.06006H14.4234C14.0141 6.12805 13.6517 6.36361 13.4234 6.71006C13.385 6.77409 13.3516 6.84095 13.3234 6.91006C13.2948 6.97819 13.2714 7.04839 13.2534 7.12006V7.20006C13.2489 7.26665 13.2489 7.33347 13.2534 7.40006C13.2534 7.40006 13.2534 7.46006 13.2534 7.49006V40.4901C13.2534 40.4901 13.2534 40.5501 13.2534 40.5801C13.2489 40.6467 13.2489 40.7135 13.2534 40.7801V40.8601C13.2714 40.9317 13.2948 41.0019 13.3234 41.0701C13.3544 41.1429 13.3912 41.2131 13.4334 41.2801C13.6617 41.6265 14.0241 41.8621 14.4334 41.9301H15.1334L15.3134 41.8701H15.3934L15.5534 41.7901L40.9634 25.2901C41.6331 24.8371 41.8233 23.9348 41.3934 23.2501ZM16.2334 10.3201L37.3934 24.0601L16.2334 37.8001V10.3201Z" fill="#0071B3"/>
</svg>
