<svg width="48" height="48" viewBox="0 0 48 48" fill="none" xmlns="http://www.w3.org/2000/svg">
<path fill-rule="evenodd" clip-rule="evenodd" d="M43 36.9062C40.24 35.4712 36.828 34.3722 33 33.6872V14.3122C36.828 13.6272 40.24 12.5282 43 11.0942V36.9062ZM18 14.7552C19.925 14.9742 21.927 15.1002 24 15.1002C26.073 15.1002 28.075 14.9742 30 14.7552V33.2452C28.075 33.0262 26.073 32.9002 24 32.9002C21.927 32.9002 19.925 33.0262 18 33.2452V14.7552ZM5 11.0942C7.76 12.5282 11.172 13.6272 15 14.3122V33.6872C11.172 34.3722 7.76 35.4712 5 36.9062V11.0942ZM43.683 7.24424C43.667 7.25424 43.653 7.26424 43.638 7.27524C39.396 10.1542 32.1 12.1002 24 12.1002C15.9 12.1002 8.604 10.1542 4.362 7.27524C4.347 7.26424 4.333 7.25424 4.317 7.24424C4.082 7.09124 3.802 7.00024 3.5 7.00024C2.671 7.00024 2 7.67124 2 8.50024V39.5002C2 40.3282 2.671 41.0002 3.5 41.0002C3.802 41.0002 4.082 40.9092 4.317 40.7552C4.333 40.7452 4.347 40.7352 4.362 40.7242C8.604 37.8452 15.9 35.9002 24 35.9002C32.1 35.9002 39.396 37.8452 43.638 40.7242C43.653 40.7352 43.668 40.7452 43.683 40.7552C43.918 40.9092 44.198 41.0002 44.5 41.0002C45.329 41.0002 46 40.3282 46 39.5002V8.50024C46 7.67124 45.329 7.00024 44.5 7.00024C44.198 7.00024 43.918 7.09124 43.683 7.24424Z" fill="#0071B3"/>
</svg>
