<svg width="48" height="48" viewBox="0 0 48 48" fill="none" xmlns="http://www.w3.org/2000/svg">
<path fill-rule="evenodd" clip-rule="evenodd" d="M9 26H12.5C12.945 26 13.367 26.198 13.652 26.54L21 35.357V12.643L13.652 21.46C13.367 21.802 12.945 22 12.5 22H9V26ZM22.5 41C22.063 41 21.638 40.809 21.348 40.46L11.797 29H7.5C6.671 29 6 28.329 6 27.5V20.5C6 19.671 6.671 19 7.5 19H11.797L21.348 7.54005C21.751 7.05505 22.415 6.87505 23.011 7.08905C23.604 7.30505 24 7.86905 24 8.50005V39.5C24 40.131 23.604 40.695 23.011 40.911C22.844 40.971 22.671 41 22.5 41Z" fill="#0071B3"/>
</svg>
