<svg width="48" height="48" viewBox="0 0 48 48" fill="none" xmlns="http://www.w3.org/2000/svg">
<path fill-rule="evenodd" clip-rule="evenodd" d="M9 26H12.5C12.945 26 13.367 26.198 13.652 26.54L21 35.357V12.643L13.652 21.46C13.367 21.802 12.945 22 12.5 22H9V26ZM22.5 41C22.063 41 21.638 40.809 21.348 40.46L11.797 29H7.5C6.671 29 6 28.329 6 27.5V20.5C6 19.671 6.671 19 7.5 19H11.797L21.348 7.54005C21.751 7.05505 22.415 6.87505 23.011 7.08905C23.604 7.30505 24 7.86905 24 8.50005V39.5C24 40.131 23.604 40.695 23.011 40.911C22.844 40.971 22.671 41 22.5 41ZM27.9673 38.0127C27.1383 38.0127 26.4673 37.3417 26.4673 36.5127C26.4673 35.6837 27.1383 35.0127 27.9673 35.0127C34.0503 35.0127 39.0003 30.0637 39.0003 23.9797C39.0003 17.8967 34.0503 12.9467 27.9673 12.9467C27.1383 12.9467 26.4673 12.2757 26.4673 11.4467C26.4673 10.6177 27.1383 9.94675 27.9673 9.94675C35.7053 9.94675 42.0003 16.2417 42.0003 23.9797C42.0003 31.7177 35.7053 38.0127 27.9673 38.0127ZM27.9673 32.1025C27.1383 32.1025 26.4673 31.4315 26.4673 30.6025C26.4673 29.7735 27.1383 29.1025 27.9673 29.1025C30.7803 29.1025 33.0703 26.8135 33.0703 23.9995C33.0703 21.1865 30.7803 18.8975 27.9673 18.8975C27.1383 18.8975 26.4673 18.2265 26.4673 17.3975C26.4673 16.5685 27.1383 15.8975 27.9673 15.8975C32.4353 15.8975 36.0703 19.5325 36.0703 23.9995C36.0703 28.4675 32.4353 32.1025 27.9673 32.1025Z" fill="#0071B3"/>
</svg>
