<svg width="48" height="48" viewBox="0 0 48 48" fill="none" xmlns="http://www.w3.org/2000/svg">
<path fill-rule="evenodd" clip-rule="evenodd" d="M41 10H7C3.68629 10 1 12.6863 1 16V32C1 35.3137 3.68629 38 7 38H20.23L21.07 34.06L22 29.65V29.55C22.223 28.6602 23.0227 28.0362 23.94 28.0362C24.8573 28.0362 25.657 28.6602 25.88 29.55V29.69L26.81 34.09L27.65 38.03H41C44.3137 38.03 47 35.3437 47 32.03V16C47 12.6863 44.3137 10 41 10ZM44 32C44 33.6569 42.6569 35 41 35H30.14L28.88 29.06V28.91C28.8379 28.7509 28.7879 28.594 28.73 28.44C28.0287 26.4335 26.1355 25.0897 24.01 25.0897C21.8845 25.0897 19.9913 26.4335 19.29 28.44C19.2267 28.6135 19.1733 28.7905 19.13 28.97V29.09L17.8 35H7C5.34315 35 4 33.6569 4 32V16C4 14.3431 5.34315 13 7 13H41C42.6569 13 44 14.3431 44 16V32ZM13 17C9.68629 17 7 19.6863 7 23C7 26.3137 9.68629 29 13 29C16.3137 29 19 26.3137 19 23C19 19.6863 16.3137 17 13 17ZM13 26C11.3431 26 10 24.6569 10 23C10 21.3431 11.3431 20 13 20C14.6569 20 16 21.3431 16 23C16 24.6569 14.6569 26 13 26ZM35 17C31.6863 17 29 19.6863 29 23C29 26.3137 31.6863 29 35 29C38.3137 29 41 26.3137 41 23C41 19.6863 38.3137 17 35 17ZM35 26C33.3431 26 32 24.6569 32 23C32 21.3431 33.3431 20 35 20C36.6569 20 38 21.3431 38 23C38 24.6569 36.6569 26 35 26Z" fill="#0071B3"/>
</svg>
