<svg width="48" height="48" viewBox="0 0 48 48" fill="none" xmlns="http://www.w3.org/2000/svg">
<path fill-rule="evenodd" clip-rule="evenodd" d="M26.47 15C29.7837 15 32.47 12.3137 32.47 9C32.47 5.68629 29.7837 3 26.47 3C23.1563 3 20.47 5.68629 20.47 9C20.47 12.3137 23.1563 15 26.47 15ZM26.47 6C28.1268 6 29.47 7.34315 29.47 9C29.47 10.6569 28.1268 12 26.47 12C24.8131 12 23.47 10.6569 23.47 9C23.47 7.34315 24.8131 6 26.47 6Z" fill="#0071B3"/>
<path d="M34.28 26.41L28.62 22.87L26 17C25.853 16.4752 25.4311 16.0725 24.9 15.95C24.4357 15.8444 23.9488 15.967 23.59 16.28L16.17 20.92C15.8757 21.1284 15.6468 21.4163 15.51 21.75L13.8 26.45C13.5741 26.9646 13.6549 27.5623 14.0092 27.9985C14.3635 28.4347 14.932 28.6363 15.4819 28.5208C16.0319 28.4052 16.4712 27.9919 16.62 27.45L18.17 23.18L22.28 20.61L20.52 28.23C20.4413 28.6768 20.5116 29.137 20.72 29.54L29.58 43.73C29.7904 44.0687 30.1269 44.3097 30.5153 44.3997C30.9037 44.4898 31.312 44.4215 31.65 44.21L31.73 44.16C32.0687 43.9496 32.3097 43.6131 32.3997 43.2246C32.4898 42.8362 32.4215 42.428 32.21 42.09L23.58 28.32L25 22.13L26 24.41C26.1849 24.7331 26.4332 25.0154 26.73 25.24L32.69 29C33.3881 29.3922 34.2712 29.1668 34.696 28.4881C35.1209 27.8094 34.9378 26.9166 34.28 26.46V26.41Z" fill="#0071B3"/>
<path d="M18.3967 33.0987C18.7232 32.8698 19.1274 32.7803 19.52 32.85C19.9131 32.9205 20.2618 33.1449 20.4889 33.4734C20.7161 33.8018 20.8028 34.2073 20.73 34.6L20.15 37.91C20.0743 38.193 19.9704 38.4677 19.84 38.73L15.73 44.39C15.4156 44.8241 14.8935 45.0575 14.3604 45.0022C13.8273 44.947 13.3641 44.6115 13.1454 44.1222C12.9267 43.6329 12.9856 43.0641 13.3 42.63L17.22 37.23L17.78 34.07C17.8483 33.6771 18.0702 33.3276 18.3967 33.0987Z" fill="#0071B3"/>
</svg>
