<svg width="48" height="48" viewBox="0 0 48 48" fill="none" xmlns="http://www.w3.org/2000/svg">
<path d="M22.409 18.83C22.409 18.0016 23.0805 17.33 23.909 17.33C24.7374 17.33 25.409 18.0016 25.409 18.83V30.83C25.409 31.6584 24.7374 32.33 23.909 32.33C23.0805 32.33 22.409 31.6584 22.409 30.83V18.83Z" fill="#0071B3"/>
<path d="M23.909 34.33C23.0805 34.33 22.409 35.0016 22.409 35.83C22.409 36.6584 23.0805 37.33 23.909 37.33C24.7374 37.33 25.409 36.6584 25.409 35.83C25.409 35.0016 24.7374 34.33 23.909 34.33Z" fill="#0071B3"/>
<path fill-rule="evenodd" clip-rule="evenodd" d="M45.779 42.45L45.699 42.59L45.589 42.76L45.489 42.89L45.399 42.98L45.279 43.08L45.159 43.17H45.079L44.939 43.23H2.90896L2.71896 43.12H2.63896L2.50896 43.03L2.39896 42.94L2.29896 42.83L2.20896 42.72L2.12896 42.59L2.05896 42.47C2.03997 42.4242 2.02329 42.3775 2.00896 42.33V42.06C2.00608 42.0067 2.00608 41.9533 2.00896 41.9V41.76C1.99701 41.6604 1.99701 41.5596 2.00896 41.46V41.33L2.10896 41.15V41.08L22.739 5.56L22.789 5.49L22.879 5.37L22.979 5.26L23.079 5.17L23.219 5.07H23.289L23.439 5H24.549L24.699 5.07H24.769L24.909 5.17L24.969 5.22L25.069 5.33L25.159 5.5L25.209 5.57L45.719 41.12V41.2L45.779 41.34C45.7815 41.39 45.7815 41.44 45.779 41.49V41.62C45.7826 41.6799 45.7826 41.7401 45.779 41.8V41.87C45.7826 41.9299 45.7826 41.9901 45.779 42.05V42.17C45.7818 42.2233 45.7818 42.2767 45.779 42.33V42.45ZM41.809 40.33L23.909 9.33L6.00896 40.33H41.809Z" fill="#0071B3"/>
</svg>
