<svg width="48" height="48" viewBox="0 0 48 48" fill="none" xmlns="http://www.w3.org/2000/svg">
<path d="M24 37.1042C19.1675 37.1042 15.25 33.1866 15.25 28.3542C15.25 27.5257 15.9216 26.8542 16.75 26.8542C17.5784 26.8542 18.25 27.5257 18.25 28.3542C18.25 31.5298 20.8244 34.1042 24 34.1042C24.8284 34.1042 25.5 34.7757 25.5 35.6042C25.5 36.4326 24.8284 37.1042 24 37.1042Z" fill="#0071B3"/>
<path fill-rule="evenodd" clip-rule="evenodd" d="M24 43.1042C16.268 43.1042 10 36.8361 10 29.1042C10 24.1704 14.2752 16.3246 22.8257 5.56673C22.8966 5.47753 22.9775 5.39669 23.0667 5.32579C23.7152 4.81033 24.6588 4.9182 25.1743 5.56673C33.7248 16.3246 38 24.1704 38 29.1042C38 36.8361 31.732 43.1042 24 43.1042ZM24 8.92769C16.6451 18.398 13 25.2762 13 29.1042C13 35.1793 17.9249 40.1042 24 40.1042C30.0751 40.1042 35 35.1793 35 29.1042C35 25.2762 31.3549 18.398 24 8.92769Z" fill="#0071B3"/>
</svg>
