<svg width="48" height="48" viewBox="0 0 48 48" fill="none" xmlns="http://www.w3.org/2000/svg">
<path d="M15 16.5C15 17.3284 14.3284 18 13.5 18C12.6716 18 12 17.3284 12 16.5C12 15.6716 12.6716 15 13.5 15C14.3284 15 15 15.6716 15 16.5Z" fill="#0071B3"/>
<path d="M19.5 15C18.6716 15 18 15.6716 18 16.5C18 17.3284 18.6716 18 19.5 18H34.5C35.3284 18 36 17.3284 36 16.5C36 15.6716 35.3284 15 34.5 15H19.5Z" fill="#0071B3"/>
<path fill-rule="evenodd" clip-rule="evenodd" d="M6 10.5C6 9.67157 6.67157 9 7.5 9H40.5C41.3284 9 42 9.67157 42 10.5V37.5C42 38.3284 41.3284 39 40.5 39H7.5C6.67157 39 6 38.3284 6 37.5V10.5ZM9 24H39V36H9V24ZM39 12H9V21H39V12Z" fill="#0071B3"/>
</svg>
