<svg width="48" height="48" viewBox="0 0 48 48" fill="none" xmlns="http://www.w3.org/2000/svg">
<path d="M33.4353 28.2185C33.7826 28.3861 34.0168 28.4991 34.1174 28.6666C34.2424 28.8746 34.2424 29.8706 33.8274 31.0336C33.4124 32.1956 31.4244 33.2566 30.4684 33.3996C29.6104 33.5276 28.5264 33.5816 27.3334 33.2026C26.6114 32.9726 25.6844 32.6666 24.4964 32.1536C19.8293 30.1388 16.6761 25.6146 16.0819 24.7621C16.0406 24.7028 16.0116 24.6613 15.9954 24.6396L15.992 24.635C15.7305 24.2865 13.9634 21.9307 13.9634 19.4916C13.9634 17.1998 15.0896 15.9983 15.6079 15.4453C15.6434 15.4074 15.6761 15.3726 15.7054 15.3406C16.1614 14.8426 16.7004 14.7176 17.0324 14.7176C17.3644 14.7176 17.6964 14.7206 17.9864 14.7346C18.0222 14.7365 18.0595 14.7363 18.0981 14.7362C18.3877 14.735 18.7489 14.7336 19.1054 15.5896C19.2449 15.9245 19.45 16.4237 19.6656 16.9484C20.0911 17.9843 20.5574 19.1193 20.6404 19.2846C20.7644 19.5336 20.8474 19.8236 20.6814 20.1566C20.6568 20.2058 20.634 20.2522 20.6123 20.2966C20.4872 20.5518 20.3955 20.7387 20.1834 20.9866C20.1011 21.0829 20.0159 21.1868 19.9306 21.2908C19.759 21.5 19.587 21.7096 19.4374 21.8586C19.1884 22.1066 18.9294 22.3756 19.2194 22.8746C19.5094 23.3726 20.5084 25.0016 21.9884 26.3216C23.5746 27.7366 24.9545 28.3362 25.6562 28.6412C25.795 28.7015 25.9073 28.7503 25.9894 28.7916C26.4874 29.0406 26.7774 28.9986 27.0674 28.6666C27.3584 28.3346 28.3114 27.2136 28.6434 26.7156C28.9754 26.2176 29.3064 26.3006 29.7634 26.4666C30.2194 26.6326 32.6664 27.8366 33.1634 28.0856C33.2605 28.1341 33.3512 28.1779 33.4353 28.2185Z" fill="#0071B3"/>
<path fill-rule="evenodd" clip-rule="evenodd" d="M38.1717 9.84049C34.4117 6.07649 29.4117 4.00249 24.0837 4.00049C13.1057 4.00049 4.1707 12.9345 4.1667 23.9155C4.1657 27.4255 5.0827 30.8515 6.8257 33.8715L4.0007 44.1925L14.5577 41.4225C17.4667 43.0095 20.7427 43.8455 24.0757 43.8465H24.0837C35.0607 43.8465 43.9957 34.9125 44.0007 23.9305C44.0017 18.6085 41.9327 13.6055 38.1717 9.84049ZM24.0837 40.4835H24.0767C21.1067 40.4825 18.1927 39.6845 15.6517 38.1755L15.0467 37.8165L8.7817 39.4605L10.4547 33.3525L10.0607 32.7255C8.4037 30.0905 7.5287 27.0445 7.5297 23.9165C7.5337 14.7895 14.9587 7.36349 24.0897 7.36349C28.5117 7.36549 32.6677 9.08949 35.7927 12.2185C38.9187 15.3475 40.6387 19.5065 40.6377 23.9295C40.6337 33.0575 33.2077 40.4835 24.0837 40.4835Z" fill="#0071B3"/>
</svg>
