<svg width="48" height="48" viewBox="0 0 48 48" fill="none" xmlns="http://www.w3.org/2000/svg">
<path fill-rule="evenodd" clip-rule="evenodd" d="M35.1949 7.89375C35.2984 8.38914 35.1452 8.90332 34.7873 9.26117L29.8008 14.2477L30.0546 17.5294L33.3363 17.7832L38.3228 12.7967C38.6807 12.4389 39.1949 12.2856 39.6903 12.3891C40.1857 12.4926 40.5955 12.8389 40.7801 13.3101C42.396 17.4337 41.5403 22.3072 38.2041 25.6434C35.1203 28.7272 30.723 29.6916 26.8186 28.5436L14.1625 41.1997C12.0146 43.3476 8.53219 43.3476 6.3843 41.1997C4.23642 39.0518 4.23642 35.5694 6.3843 33.4215L19.0404 20.7655C17.8924 16.861 18.8569 12.4637 21.9407 9.3799C25.2768 6.04373 30.1503 5.18801 34.2739 6.80391C34.7451 6.98856 35.0914 7.39836 35.1949 7.89375ZM30.7663 9.03955C28.3646 8.84409 25.8973 9.66587 24.062 11.5012C21.599 13.9642 20.9613 17.5652 22.1579 20.6186C22.3754 21.1737 22.2435 21.805 21.8219 22.2266L8.50563 35.5429C7.52932 36.5192 7.52931 38.1021 8.50563 39.0784C9.48194 40.0547 11.0648 40.0547 12.0412 39.0784L25.3575 25.7621C25.779 25.3405 26.4103 25.2086 26.9654 25.4262C30.0188 26.6227 33.6198 25.985 36.0828 23.522C37.9181 21.6867 38.7399 19.2194 38.5445 16.8177L34.9695 20.3927C34.6597 20.7025 34.23 20.8613 33.7932 20.8275L28.5425 20.4214C27.8053 20.3644 27.2197 19.7787 27.1626 19.0415L26.7565 13.7908C26.7227 13.354 26.8816 12.9243 27.1914 12.6145L30.7663 9.03955Z" fill="#0071B3"/>
</svg>
